<svg width="24" height="24" viewBox="0 0 24 24" fill="none" xmlns="http://www.w3.org/2000/svg">
<path d="M15.0627 0H5.42331C4.01504 0 2.8689 1.14694 2.8689 2.55437V21.4456C2.8689 22.8546 4.01499 24 5.42331 24H18.5758C19.9832 24 21.1294 22.8546 21.1294 21.4456V6.04551L15.0627 0ZM18.5758 22.4357H5.42331C4.87799 22.4357 4.43397 21.9916 4.43397 21.4456V2.55437C4.43397 2.00989 4.87799 1.56587 5.42331 1.56587L14.4775 1.55646V4.90325C14.4775 5.88074 15.2706 6.67466 16.2488 6.67466L19.5274 6.66525L19.5642 21.4456C19.5642 21.9916 19.121 22.4357 18.5758 22.4357Z" fill="#0A77FF"/>
<path d="M9.5953 9.92496L7.61084 16.4192H9.13281L9.5953 14.7521H11.455L11.9559 16.4192H13.5359L11.5224 9.92496H9.5953ZM9.8075 13.6538L10.1927 12.2762C10.299 11.9004 10.395 11.4092 10.4915 11.0233H10.5108C10.6073 11.4092 10.7225 11.8909 10.8383 12.2762L11.2431 13.6538H9.8075Z" fill="#0A77FF"/>
<path d="M15.88 9.92505H14.406V16.4193H15.88V9.92505Z" fill="#0A77FF"/>
</svg>
