<svg width="24" height="24" viewBox="0 0 24 24" fill="none" xmlns="http://www.w3.org/2000/svg">
<g clip-path="url(#clip0_4_123268)">
<path d="M3.44678 0.382965H0.382935V3.44681H3.44678V0.382965Z" fill="#88ACB5"/>
<path d="M23.6167 0.382965H20.5529V3.44681H23.6167V0.382965Z" fill="#88ACB5"/>
<path d="M3.44678 20.5532H0.382935V23.617H3.44678V20.5532Z" fill="#88ACB5"/>
<path d="M23.6167 20.5531H20.5529V23.617H23.6167V20.5531Z" fill="#88ACB5"/>
<path d="M22.0851 5.87259C22.2966 5.87259 22.4681 5.70117 22.4681 5.48962V3.82978H23.617C23.8285 3.82978 24 3.65836 24 3.44681V0.382969C24 0.171422 23.8285 0 23.617 0H20.5532C20.3417 0 20.1702 0.171422 20.1702 0.382969V1.53192H3.82978V0.382969C3.82978 0.171422 3.65831 0 3.44681 0H0.382969C0.171469 0 0 0.171422 0 0.382969V3.44681C0 3.65836 0.171469 3.82978 0.382969 3.82978H1.53192V20.1702H0.382969C0.171469 20.1702 0 20.3416 0 20.5532V23.617C0 23.8286 0.171469 24 0.382969 24H3.44681C3.65831 24 3.82978 23.8286 3.82978 23.617V22.4681H20.1702V23.617C20.1702 23.8286 20.3417 24 20.5532 24H23.617C23.8285 24 24 23.8286 24 23.617V20.5532C24 20.3416 23.8285 20.1702 23.617 20.1702H22.4681V7.02155C22.4681 6.81 22.2966 6.63858 22.0851 6.63858C21.8736 6.63858 21.7021 6.81 21.7021 7.02155V20.1702H20.5532C20.3417 20.1702 20.1702 20.3416 20.1702 20.5532V21.7021H3.82978V20.5532C3.82978 20.3416 3.65831 20.1702 3.44681 20.1702H2.29786V3.82978H3.44681C3.65831 3.82978 3.82978 3.65836 3.82978 3.44681V2.29786H20.1702V3.44681C20.1702 3.65836 20.3417 3.82978 20.5532 3.82978H21.7021V5.48962C21.7021 5.70113 21.8736 5.87259 22.0851 5.87259ZM20.9362 20.9362H23.234V23.234H20.9362V20.9362ZM3.06384 23.2341H0.765938V20.9362H3.0638L3.06384 23.2341ZM3.06384 3.06384H0.765938V0.765938H3.0638L3.06384 3.06384ZM20.9362 0.765938H23.234V3.0638H20.9362V0.765938Z" fill="#0A77FF"/>
<path d="M11.2332 18.1277H5.48844C5.27694 18.1277 5.10547 18.2991 5.10547 18.5107C5.10547 18.7222 5.27694 18.8936 5.48844 18.8936H11.2332C11.4447 18.8936 11.6161 18.7222 11.6161 18.5107C11.6161 18.2991 11.4447 18.1277 11.2332 18.1277Z" fill="#0A77FF"/>
<path d="M18.5106 18.1276H12.7659C12.5544 18.1276 12.3829 18.299 12.3829 18.5106C12.3829 18.7221 12.5544 18.8936 12.7659 18.8936H18.5106C18.7221 18.8936 18.8935 18.7221 18.8935 18.5106C18.8936 18.299 18.7221 18.1276 18.5106 18.1276Z" fill="#0A77FF"/>
<path d="M11.2332 16.5H5.48844C5.27694 16.5 5.10547 16.6714 5.10547 16.883C5.10547 17.0945 5.27694 17.2659 5.48844 17.2659H11.2332C11.4447 17.2659 11.6161 17.0945 11.6161 16.883C11.6161 16.6714 11.4447 16.5 11.2332 16.5Z" fill="#0A77FF"/>
<path d="M18.5106 16.5H12.7659C12.5544 16.5 12.3829 16.6714 12.3829 16.883C12.3829 17.0945 12.5544 17.2659 12.7659 17.2659H18.5106C18.7221 17.2659 18.8935 17.0945 18.8935 16.883C18.8936 16.6714 18.7221 16.5 18.5106 16.5Z" fill="#0A77FF"/>
<path d="M11.2332 14.8723H5.48844C5.27694 14.8723 5.10547 15.0437 5.10547 15.2553C5.10547 15.4668 5.27694 15.6383 5.48844 15.6383H11.2332C11.4447 15.6383 11.6161 15.4668 11.6161 15.2553C11.6161 15.0437 11.4447 14.8723 11.2332 14.8723Z" fill="#0A77FF"/>
<path d="M18.5106 14.8724H12.7659C12.5544 14.8724 12.3829 15.0438 12.3829 15.2553C12.3829 15.4669 12.5544 15.6383 12.7659 15.6383H18.5106C18.7221 15.6383 18.8935 15.4669 18.8935 15.2553C18.8936 15.0438 18.7221 14.8724 18.5106 14.8724Z" fill="#0A77FF"/>
<path d="M18.5098 13.2446H5.48844C5.27694 13.2446 5.10547 13.416 5.10547 13.6276C5.10547 13.8391 5.27694 14.0106 5.48844 14.0106H18.5097C18.7212 14.0106 18.8927 13.8391 18.8927 13.6276C18.8927 13.416 18.7213 13.2446 18.5098 13.2446Z" fill="#0A77FF"/>
<path d="M18.8712 12.1267C18.8736 12.1197 18.876 12.1126 18.878 12.1055C18.8797 12.0997 18.8811 12.0939 18.8825 12.0882C18.884 12.0821 18.8853 12.076 18.8864 12.0699C18.8877 12.0628 18.8888 12.0558 18.8897 12.0487C18.8903 12.0436 18.891 12.0384 18.8914 12.0332C18.8921 12.0252 18.8924 12.0172 18.8926 12.0092C18.8927 12.0061 18.8931 12.0031 18.8931 12V5.48966C18.8931 5.48656 18.8927 5.48356 18.8926 5.48047C18.8924 5.47246 18.8921 5.46449 18.8914 5.45647C18.8909 5.45122 18.8903 5.44606 18.8897 5.44091C18.8887 5.43388 18.8877 5.4268 18.8864 5.41977C18.8853 5.41358 18.884 5.40753 18.8825 5.40149C18.8811 5.39572 18.8797 5.38995 18.878 5.38419C18.876 5.37697 18.8736 5.36994 18.8712 5.36295C18.8696 5.35836 18.868 5.35377 18.8661 5.34917C18.863 5.3413 18.8596 5.33366 18.856 5.32606C18.8548 5.32353 18.8539 5.32091 18.8526 5.31842C18.8519 5.31706 18.851 5.3158 18.8503 5.31444C18.8465 5.30708 18.8424 5.29996 18.8382 5.29288C18.8357 5.28875 18.8333 5.28449 18.8307 5.2805C18.8269 5.27469 18.8228 5.26911 18.8187 5.26349C18.8152 5.25866 18.8117 5.25374 18.8079 5.24914C18.8044 5.24478 18.8006 5.24066 18.797 5.23649C18.7923 5.23124 18.7877 5.22589 18.7828 5.22092C18.7793 5.21741 18.7756 5.21413 18.772 5.21075C18.7667 5.20569 18.7613 5.20058 18.7557 5.19589C18.7515 5.19242 18.7472 5.18928 18.7429 5.18605C18.7376 5.18197 18.7323 5.1778 18.7267 5.17395C18.7212 5.17016 18.7154 5.16674 18.7097 5.16322C18.7051 5.16046 18.7007 5.1575 18.696 5.15497C18.689 5.15103 18.6816 5.14756 18.6743 5.1441C18.6707 5.14236 18.6671 5.14049 18.6635 5.13889C18.6556 5.13547 18.6476 5.13252 18.6395 5.12961C18.636 5.12835 18.6326 5.12689 18.629 5.12577C18.6215 5.12328 18.6136 5.12122 18.6058 5.11925C18.6014 5.11813 18.5971 5.11686 18.5927 5.11588C18.5859 5.11438 18.5791 5.11335 18.5722 5.11222C18.5664 5.11124 18.5605 5.11025 18.5546 5.1095C18.5489 5.10885 18.5432 5.10847 18.5375 5.10805C18.5302 5.10753 18.5228 5.10702 18.5155 5.10692C18.5136 5.10692 18.5119 5.10669 18.51 5.10669H5.48881C5.48722 5.10669 5.48562 5.10688 5.48408 5.10692C5.47606 5.10702 5.46814 5.10753 5.46017 5.10814C5.45506 5.10852 5.44991 5.1088 5.44484 5.10941C5.43837 5.11016 5.43195 5.11128 5.42553 5.11236C5.41916 5.11344 5.41283 5.11442 5.40655 5.11578C5.40172 5.11686 5.39694 5.11822 5.39216 5.11944C5.3847 5.12136 5.37725 5.12333 5.36998 5.12567C5.36619 5.12689 5.36253 5.12844 5.35878 5.12975C5.35086 5.13261 5.34298 5.13547 5.33534 5.13885C5.33169 5.14044 5.32812 5.14231 5.32452 5.14405C5.31716 5.14752 5.3098 5.15103 5.30272 5.15497C5.29822 5.15746 5.29395 5.16027 5.28955 5.16299C5.28364 5.1666 5.27769 5.17006 5.27197 5.174C5.26667 5.17766 5.26156 5.18169 5.25641 5.18563C5.25191 5.18905 5.24731 5.19238 5.24295 5.19599C5.23756 5.20053 5.23245 5.20546 5.2272 5.21028C5.22336 5.21385 5.21942 5.21731 5.21577 5.22106C5.21108 5.22585 5.20662 5.23095 5.20212 5.23602C5.19823 5.24042 5.1943 5.24469 5.19064 5.24924C5.18703 5.25374 5.18366 5.25847 5.18023 5.26311C5.17606 5.26883 5.17184 5.27455 5.16791 5.28046C5.16538 5.28444 5.16294 5.28852 5.1605 5.2926C5.15619 5.29967 5.15206 5.30689 5.14827 5.31425C5.14756 5.31561 5.14672 5.31688 5.14602 5.31824C5.14475 5.32072 5.14386 5.32335 5.14264 5.32588C5.13903 5.33347 5.13561 5.34116 5.13247 5.34899C5.13069 5.35358 5.12905 5.35813 5.12741 5.36277C5.12497 5.36975 5.12262 5.37683 5.12056 5.384C5.11887 5.38977 5.11752 5.39553 5.11611 5.4013C5.11466 5.40739 5.1133 5.41344 5.11217 5.41958C5.11086 5.42661 5.10983 5.43369 5.10894 5.44072C5.10828 5.44588 5.10762 5.45103 5.10716 5.45628C5.10645 5.4643 5.10612 5.47227 5.10594 5.48028C5.10589 5.48333 5.10547 5.48638 5.10547 5.48947V11.9998C5.10547 12.0029 5.10589 12.0059 5.10594 12.009C5.10612 12.017 5.10645 12.025 5.10716 12.033C5.10762 12.0382 5.10828 12.0434 5.10894 12.0485C5.10987 12.0556 5.11086 12.0627 5.11217 12.0697C5.1133 12.0759 5.11466 12.0819 5.11611 12.088C5.11747 12.0937 5.11892 12.0995 5.12056 12.1053C5.12262 12.1125 5.12497 12.1195 5.12741 12.1265C5.12905 12.1311 5.13064 12.1357 5.13247 12.1403C5.13556 12.1482 5.13898 12.1558 5.14259 12.1633C5.14381 12.1659 5.1447 12.1685 5.14597 12.171C5.14648 12.1721 5.14719 12.1729 5.14775 12.1739C5.15534 12.1888 5.16373 12.2031 5.17311 12.2168C5.17475 12.2191 5.17653 12.2213 5.17822 12.2236C5.18591 12.2343 5.19416 12.2444 5.20287 12.2543C5.20611 12.2579 5.20925 12.2615 5.21258 12.265C5.22303 12.2758 5.23391 12.2863 5.24562 12.2959C5.24783 12.2976 5.25022 12.2992 5.25242 12.301C5.26269 12.309 5.27342 12.3165 5.28448 12.3236C5.28814 12.3259 5.2918 12.3281 5.2955 12.3303C5.30792 12.3375 5.32063 12.3442 5.33384 12.35C5.33492 12.3505 5.33591 12.3511 5.33694 12.3515C5.35156 12.3578 5.36661 12.3631 5.38208 12.3675C5.38536 12.3685 5.38869 12.3692 5.39197 12.3701C5.40392 12.3732 5.41611 12.3757 5.42848 12.3777C5.43294 12.3784 5.43725 12.3792 5.44175 12.3797C5.45567 12.3814 5.46978 12.3825 5.48417 12.3826C5.48572 12.3827 5.48722 12.383 5.48881 12.383C5.48938 12.383 5.48998 12.3829 5.49055 12.3829H18.5077C18.5083 12.3829 18.5089 12.383 18.5095 12.383C18.511 12.383 18.5125 12.3826 18.5141 12.3826C18.5285 12.3825 18.5426 12.3814 18.5565 12.3797C18.561 12.3792 18.5653 12.3784 18.5697 12.3778C18.5822 12.3758 18.5944 12.3733 18.6063 12.3702C18.6096 12.3693 18.6129 12.3686 18.6162 12.3677C18.6316 12.3632 18.6468 12.358 18.6613 12.3516C18.6623 12.3512 18.6632 12.3507 18.6642 12.3503C18.6775 12.3444 18.6903 12.3377 18.7027 12.3304C18.7064 12.3283 18.71 12.326 18.7137 12.3238C18.7248 12.3167 18.7355 12.3092 18.7459 12.3011C18.7481 12.2993 18.7504 12.2978 18.7526 12.296C18.7642 12.2864 18.7752 12.276 18.7857 12.2651C18.789 12.2617 18.7921 12.2581 18.7953 12.2545C18.804 12.2447 18.8123 12.2345 18.82 12.2238C18.8217 12.2215 18.8235 12.2194 18.8251 12.217C18.8345 12.2034 18.8428 12.189 18.8504 12.1742C18.851 12.1731 18.8517 12.1723 18.8522 12.1712C18.8535 12.1687 18.8544 12.1661 18.8556 12.1636C18.8592 12.156 18.8626 12.1483 18.8657 12.1405C18.868 12.1359 18.8696 12.1313 18.8712 12.1267ZM5.87187 6.1093L11.1432 8.7448L5.87187 11.3803V6.1093ZM7.1112 5.87263H16.8877L11.9995 8.31664L7.1112 5.87263ZM11.9995 9.173L16.8878 11.617H7.1112L11.9995 9.173ZM12.8559 8.7448L18.1272 6.1093V11.3803L12.8559 8.7448Z" fill="#0A77FF"/>
</g>
<defs>
<clipPath id="clip0_4_123268">
<rect width="24" height="24" fill="white"/>
</clipPath>
</defs>
</svg>
