<svg width="25" height="28" viewBox="0 0 25 28" fill="none" xmlns="http://www.w3.org/2000/svg">
<mask id="mask0_4_123780" style="mask-type:luminance" maskUnits="userSpaceOnUse" x="2" y="4" width="21" height="21">
<path d="M22.3301 24.2603V4.26025L2.33008 4.26025V24.2603H22.3301Z" fill="white"/>
</mask>
<g mask="url(#mask0_4_123780)">
<path d="M3.16406 11.7628V16.7628C3.16406 19.0964 3.16406 20.2632 3.6182 21.1545C4.01768 21.9385 4.65509 22.5759 5.4391 22.9754C6.3304 23.4295 7.49718 23.4295 9.83073 23.4295H14.8307C17.1643 23.4295 18.331 23.4295 19.2223 22.9754C20.0063 22.5759 20.6438 21.9385 21.0432 21.1545C21.4974 20.2632 21.4974 19.0964 21.4974 16.7628V11.7628M3.16406 11.7628C3.16406 9.42931 3.16406 8.26253 3.6182 7.37123C4.01768 6.58722 4.6551 5.94981 5.4391 5.55033C6.3304 5.09619 7.49718 5.09619 9.83073 5.09619H14.8307C17.1643 5.09619 18.331 5.09619 19.2223 5.55033C20.0063 5.94981 20.6438 6.58723 21.0432 7.37123C21.4974 8.26253 21.4974 9.42931 21.4974 11.7628M3.16406 11.7628H21.4974" stroke="#0A77FF" stroke-width="2" stroke-linecap="round"/>
</g>
</svg>
