<svg width="32" height="33" viewBox="0 0 32 33" fill="none" xmlns="http://www.w3.org/2000/svg">
<path d="M8 28.2839C10.7614 28.2839 13 26.0454 13 23.2839C13 20.5225 10.7614 18.2839 8 18.2839C5.23858 18.2839 3 20.5225 3 23.2839C3 26.0454 5.23858 28.2839 8 28.2839Z" stroke="#2440E5" stroke-width="2"/>
<path d="M24 28.2839C26.7614 28.2839 29 26.0454 29 23.2839C29 20.5225 26.7614 18.2839 24 18.2839C21.2386 18.2839 19 20.5225 19 23.2839C19 26.0454 21.2386 28.2839 24 28.2839Z" stroke="#2440E5" stroke-width="2"/>
<path d="M19 23.2839V6.28394C19 5.17937 19.8954 4.28394 21 4.28394H22.8902C23.8301 4.28394 24.6432 4.93838 24.844 5.85655L28 20.2839" stroke="#2440E5" stroke-width="2"/>
<path d="M13 23.2839V6.28394C13 5.17937 12.1046 4.28394 11 4.28394H9.10979C8.16991 4.28394 7.35684 4.93838 7.15599 5.85655L4 20.2839" stroke="#2440E5" stroke-width="2"/>
<path d="M13 17.2839C15.3927 15.929 16.7081 15.9718 19 17.2839" stroke="#2440E5" stroke-width="2"/>
<path d="M13 12.2839C15.3927 10.929 16.7081 10.9718 19 12.2839" stroke="#2440E5" stroke-width="2"/>
</svg>
