<svg width="24" height="24" viewBox="0 0 24 24" fill="none" xmlns="http://www.w3.org/2000/svg">
<path d="M4 10C4 6.68629 6.68629 4 10 4C12.7165 4 15.0138 5.80612 15.7517 8.28525C15.9092 8.81459 16.466 9.11599 16.9954 8.95845C17.5247 8.80091 17.8261 8.24409 17.6686 7.71475C16.6853 4.4109 13.6255 2 10 2C5.58172 2 2 5.58172 2 10C2 13.6255 4.4109 16.6853 7.71475 17.6686C8.24409 17.8261 8.80091 17.5247 8.95845 16.9954C9.11599 16.466 8.81459 15.9092 8.28525 15.7517C5.80612 15.0138 4 12.7165 4 10Z" fill="#0A77FF"/>
<path d="M10 8C8.89543 8 8 8.89543 8 10C8 10.5523 7.55228 11 7 11C6.44772 11 6 10.5523 6 10C6 7.79086 7.79086 6 10 6C10.5523 6 11 6.44772 11 7C11 7.55228 10.5523 8 10 8Z" fill="#0A77FF"/>
<path d="M11.537 9.60827C10.3143 9.04395 9.025 10.2518 9.50841 11.5087L13.1814 21.0583C13.6865 22.3717 15.5594 22.3292 16.0044 20.9941L17.2194 17.349L20.5627 16.7918C22.0193 16.549 22.2855 14.5691 20.9447 13.9503L11.537 9.60827Z" fill="#0A77FF"/>
</svg>
