<svg width="25" height="28" viewBox="0 0 25 28" fill="none" xmlns="http://www.w3.org/2000/svg">
<mask id="mask0_4_46289" style="mask-type:luminance" maskUnits="userSpaceOnUse" x="2" y="4" width="21" height="21">
<path d="M22.33 24.2601V4.26013L2.32996 4.26013V24.2601H22.33Z" fill="white"/>
</mask>
<g mask="url(#mask0_4_46289)">
<path d="M3.16394 11.7627V16.7627C3.16394 19.0963 3.16394 20.2631 3.61808 21.1544C4.01756 21.9384 4.65497 22.5758 5.43898 22.9753C6.33028 23.4294 7.49706 23.4294 9.83061 23.4294H14.8306C17.1642 23.4294 18.3309 23.4294 19.2222 22.9753C20.0062 22.5758 20.6437 21.9384 21.0431 21.1544C21.4973 20.2631 21.4973 19.0963 21.4973 16.7627V11.7627M3.16394 11.7627C3.16394 9.42919 3.16394 8.26241 3.61808 7.37111C4.01756 6.5871 4.65498 5.94969 5.43898 5.55021C6.33028 5.09607 7.49706 5.09607 9.83061 5.09607H14.8306C17.1642 5.09607 18.3309 5.09607 19.2222 5.55021C20.0062 5.94969 20.6437 6.58711 21.0431 7.37111C21.4973 8.26241 21.4973 9.42919 21.4973 11.7627M3.16394 11.7627H21.4973" stroke="#0A77FF" stroke-width="2" stroke-linecap="round"/>
</g>
</svg>
