<svg width="32" height="32" viewBox="0 0 32 32" fill="none" xmlns="http://www.w3.org/2000/svg">
<path opacity="0.5" d="M5.56209 4.2286C4 5.7907 4 8.30485 4 13.3332V18.6665C4 23.6948 4 26.209 5.56209 27.771C7.1242 29.3332 9.63835 29.3332 14.6667 29.3332H17.3333C22.3616 29.3332 24.8759 29.3332 26.4379 27.771C28 26.209 28 23.6948 28 18.6665V13.3332C28 8.30485 28 5.7907 26.4379 4.2286C24.8759 2.6665 22.3616 2.6665 17.3333 2.6665H14.6667C9.63835 2.6665 7.1242 2.6665 5.56209 4.2286Z" fill="#2440E5"/>
<path d="M8 16C8 14.1144 8 13.1716 8.58579 12.5858C9.17157 12 10.1144 12 12 12H20C21.8856 12 22.8284 12 23.4143 12.5858C24 13.1716 24 14.1144 24 16V21.3333C24 23.2189 24 24.1617 23.4143 24.7476C22.8284 25.3333 21.8856 25.3333 20 25.3333H12C10.1144 25.3333 9.17157 25.3333 8.58579 24.7476C8 24.1617 8 23.2189 8 21.3333V16Z" fill="#2440E5"/>
<path d="M9.33325 7C8.78097 7 8.33325 7.44772 8.33325 8C8.33325 8.55228 8.78097 9 9.33325 9H15.9999C16.5522 9 16.9999 8.55228 16.9999 8C16.9999 7.44772 16.5522 7 15.9999 7H9.33325Z" fill="#2440E5"/>
</svg>
