<svg width="26" height="26" viewBox="0 0 26 26" fill="none" xmlns="http://www.w3.org/2000/svg">
<path d="M21.3826 11.259C21.3532 11.8541 20.9018 12.5889 20.1742 13.295V22.6007C20.1733 22.8403 20.0789 23.0435 19.9194 23.2022C19.7592 23.3577 19.5513 23.4497 19.3069 23.4513H4.1416C3.89882 23.4497 3.69011 23.3576 3.52984 23.2022C3.37034 23.0435 3.27675 22.8403 3.27593 22.6007V7.72971C3.27675 7.49089 3.37034 7.28695 3.52984 7.12826C3.69011 6.97272 3.89882 6.8807 4.1416 6.87913H12.196C12.8474 6.02377 13.6067 5.14779 14.4669 4.34484C14.4708 4.34006 14.474 4.33529 14.478 4.33057H4.1416C3.18945 4.32976 2.31429 4.713 1.69141 5.32558C1.06538 5.93815 0.67497 6.79508 0.675783 7.72976V22.6007C0.67497 23.5354 1.06538 24.394 1.69141 25.0049C2.31424 25.6174 3.18945 25.9998 4.1416 25.9998H19.307C20.2607 25.9998 21.1359 25.6174 21.7587 25.0048C22.3832 24.3939 22.7744 23.5353 22.7735 22.6006V10.3323C22.7735 10.3323 22.7672 10.3243 22.7569 10.3164C22.3625 10.6544 21.9031 10.9765 21.3826 11.259Z" fill="#2440E5"/>
<path d="M25.292 0C25.292 0 24.4954 1.19021 19.2919 2.95085C13.986 4.74647 10.7201 12.0511 10.7201 12.0511C9.93383 13.5475 6.82581 19.765 6.82581 19.765C5.96969 21.371 7.53832 22.32 8.45873 20.6616C10.2226 17.4782 11.3612 14.5694 14.0431 14.4869C17.9556 14.3663 20.6312 10.9497 19.7893 11.1084C18.6816 11.5908 16.2394 11.1449 17.6779 10.9227C21.131 10.6458 23.2591 8.0504 22.5656 7.87429C21.3413 8.3456 20.1995 7.89811 19.9758 7.76318C26.0704 7.02208 25.292 0 25.292 0Z" fill="#2440E5"/>
</svg>
