<svg width="602" height="291" viewBox="0 0 602 291" fill="none" xmlns="http://www.w3.org/2000/svg">
<g filter="url(#filter0_d_4_27268)">
<g filter="url(#filter1_d_4_27268)">
<path d="M86.6735 99.4731H515.326C515.777 99.4731 516.315 99.8453 516.771 100.745C517.212 101.616 517.5 102.854 517.5 104.25V215.061C517.5 216.456 517.212 217.695 516.771 218.566C516.315 219.465 515.777 219.837 515.326 219.837H86.6735C86.2232 219.837 85.6847 219.465 85.2291 218.566C84.7876 217.695 84.5 216.456 84.5 215.061V104.25C84.5 102.854 84.7876 101.616 85.2291 100.745C85.6847 99.8453 86.2232 99.4731 86.6735 99.4731Z" fill="white" stroke="#E5E5E5"/>
<mask id="mask0_4_27268" style="mask-type:luminance" maskUnits="userSpaceOnUse" x="220" y="111" width="36" height="16">
<path d="M252.215 111.008H224.453C222.536 111.008 220.982 112.576 220.982 114.509V123.262C220.982 125.196 222.536 126.763 224.453 126.763H252.215C254.132 126.763 255.686 125.196 255.686 123.262V114.509C255.686 112.576 254.132 111.008 252.215 111.008Z" fill="white"/>
</mask>
<g mask="url(#mask0_4_27268)">
<path d="M252.215 111.008H224.453C222.536 111.008 220.982 112.576 220.982 114.509V123.262C220.982 125.196 222.536 126.763 224.453 126.763H252.215C254.132 126.763 255.686 125.196 255.686 123.262V114.509C255.686 112.576 254.132 111.008 252.215 111.008Z" fill="#D7F7C2"/>
<path d="M229.426 122.534C228.878 122.534 228.392 122.436 227.969 122.24C227.545 122.044 227.212 121.757 226.969 121.379C226.733 120.994 226.615 120.528 226.615 119.982C226.615 119.837 226.733 119.719 226.878 119.719H227.467C227.612 119.719 227.729 119.837 227.729 119.982C227.729 120.5 227.882 120.889 228.187 121.148C228.5 121.407 228.913 121.536 229.426 121.536C229.947 121.536 230.339 121.428 230.603 121.211C230.866 120.987 230.998 120.7 230.998 120.349C230.998 120.118 230.936 119.929 230.811 119.782C230.686 119.635 230.509 119.52 230.28 119.436C230.051 119.345 229.777 119.261 229.457 119.184L229.072 119.089C228.607 118.977 228.201 118.84 227.854 118.679C227.514 118.511 227.25 118.291 227.063 118.018C226.876 117.745 226.782 117.395 226.782 116.967C226.782 116.533 226.886 116.162 227.094 115.854C227.309 115.546 227.604 115.308 227.979 115.14C228.354 114.972 228.795 114.888 229.301 114.888C229.808 114.888 230.259 114.975 230.655 115.15C231.057 115.325 231.373 115.584 231.602 115.928C231.831 116.271 231.946 116.701 231.946 117.219C231.946 117.428 231.776 117.598 231.568 117.598H231.21C231.001 117.598 230.832 117.428 230.832 117.219C230.832 116.904 230.766 116.649 230.634 116.453C230.509 116.257 230.332 116.113 230.103 116.022C229.874 115.931 229.607 115.886 229.301 115.886C228.857 115.886 228.51 115.98 228.26 116.169C228.017 116.351 227.896 116.607 227.896 116.936C227.896 117.16 227.948 117.346 228.052 117.493C228.163 117.633 228.323 117.748 228.531 117.839C228.739 117.93 228.999 118.011 229.312 118.081L229.697 118.175C230.169 118.28 230.585 118.417 230.946 118.585C231.307 118.746 231.592 118.967 231.8 119.247C232.008 119.527 232.112 119.887 232.112 120.328C232.112 120.77 232.001 121.155 231.779 121.484C231.564 121.813 231.255 122.072 230.852 122.261C230.45 122.443 229.974 122.534 229.426 122.534ZM235.677 122.534C235.157 122.534 234.702 122.426 234.313 122.209C233.925 121.985 233.619 121.673 233.397 121.274C233.182 120.868 233.074 120.399 233.074 119.866V119.74C233.074 119.201 233.182 118.732 233.397 118.333C233.612 117.927 233.911 117.615 234.292 117.398C234.681 117.174 235.129 117.062 235.635 117.062C236.128 117.062 236.559 117.174 236.926 117.398C237.301 117.615 237.593 117.92 237.801 118.312C238.009 118.704 238.113 119.163 238.113 119.688C238.113 119.914 237.93 120.097 237.704 120.097H235.38C234.716 120.097 234.136 120.73 234.615 121.19C234.907 121.456 235.268 121.589 235.698 121.589C236.1 121.589 236.402 121.498 236.604 121.316C236.676 121.253 236.742 121.186 236.803 121.117C236.987 120.904 237.291 120.794 237.54 120.924C237.777 121.048 237.872 121.342 237.711 121.556C237.659 121.625 237.602 121.696 237.541 121.767C237.36 121.985 237.121 122.167 236.822 122.314C236.524 122.461 236.142 122.534 235.677 122.534ZM234.636 118.354C234.219 118.716 234.671 119.268 235.223 119.268H235.988C236.546 119.268 237.025 118.72 236.604 118.354C236.354 118.13 236.028 118.018 235.625 118.018C235.223 118.018 234.893 118.13 234.636 118.354ZM239.94 122.387C239.643 122.387 239.403 122.147 239.403 121.851V117.735C239.403 117.444 239.639 117.209 239.929 117.209H240.066C240.281 117.209 240.455 117.383 240.455 117.598V117.885C240.455 117.941 240.5 117.986 240.556 117.986C240.596 117.986 240.632 117.963 240.65 117.928C240.751 117.74 240.915 117.563 241.142 117.398C241.392 117.216 241.763 117.125 242.256 117.125C242.645 117.125 242.988 117.212 243.287 117.388C243.592 117.563 243.831 117.811 244.005 118.133C244.179 118.448 244.265 118.83 244.265 119.278V121.851C244.265 122.147 244.025 122.387 243.729 122.387C243.433 122.387 243.193 122.147 243.193 121.851V119.362C243.193 118.914 243.082 118.585 242.86 118.375C242.638 118.158 242.332 118.049 241.944 118.049C241.499 118.049 241.142 118.196 240.871 118.49C240.608 118.784 240.476 119.212 240.476 119.772V121.851C240.476 122.147 240.236 122.387 239.94 122.387ZM247.592 122.387C247.28 122.387 247.03 122.293 246.843 122.104C246.662 121.915 246.572 121.662 246.572 121.347V118.831C246.572 118.44 246.255 118.123 245.864 118.123H245.613C245.361 118.123 245.156 117.918 245.156 117.666C245.156 117.414 245.361 117.209 245.613 117.209H245.864C246.255 117.209 246.572 116.892 246.572 116.501V116.033C246.572 115.737 246.812 115.497 247.108 115.497C247.404 115.497 247.644 115.737 247.644 116.033V116.444C247.644 116.866 247.987 117.209 248.41 117.209H248.718C248.97 117.209 249.175 117.414 249.175 117.666C249.175 117.918 248.97 118.123 248.718 118.123H248.41C247.987 118.123 247.644 118.465 247.644 118.888V121.158C247.644 121.368 247.742 121.473 247.936 121.473H248.551C248.804 121.473 249.008 121.678 249.008 121.93C249.008 122.183 248.804 122.387 248.551 122.387H247.592Z" fill="#006908"/>
</g>
</g>
<path opacity="0.1" d="M84 137.048L518 137.048" stroke="black"/>
<path d="M101.03 122.546C100.744 122.546 100.512 122.314 100.512 122.028V114.599C100.512 113.955 101.033 113.433 101.677 113.433C102.198 113.433 102.656 113.78 102.798 114.282L104.915 121.776C104.928 121.823 104.972 121.856 105.021 121.856C105.07 121.856 105.113 121.823 105.126 121.776L107.243 114.282C107.385 113.78 107.843 113.433 108.365 113.433C109.008 113.433 109.53 113.955 109.53 114.599V122.028C109.53 122.314 109.298 122.546 109.012 122.546C108.726 122.546 108.494 122.314 108.494 122.028V114.251C108.494 114.195 108.448 114.149 108.392 114.149C108.346 114.149 108.306 114.18 108.294 114.224L106.2 121.653C106.051 122.181 105.569 122.546 105.021 122.546C104.472 122.546 103.991 122.181 103.842 121.653L101.748 114.224C101.735 114.18 101.695 114.149 101.65 114.149C101.593 114.149 101.548 114.195 101.548 114.251V122.028C101.548 122.314 101.316 122.546 101.03 122.546ZM112.828 125.15C112.577 125.15 112.373 124.946 112.373 124.694C112.373 124.442 112.577 124.238 112.828 124.238H115.954C116.201 124.238 116.325 124.108 116.325 123.848V121.64C116.325 121.58 116.276 121.531 116.216 121.531C116.173 121.531 116.135 121.555 116.115 121.593C116.03 121.754 115.908 121.916 115.75 122.077C115.579 122.251 115.353 122.394 115.072 122.507C114.79 122.611 114.436 122.663 114.01 122.663C113.558 122.663 113.14 122.563 112.756 122.364C112.381 122.164 112.082 121.869 111.861 121.479C111.648 121.088 111.541 120.611 111.541 120.047V116.686C111.541 116.406 111.767 116.18 112.047 116.18C112.326 116.18 112.552 116.406 112.552 116.686V119.969C112.552 120.593 112.705 121.049 113.012 121.335C113.327 121.622 113.749 121.765 114.279 121.765C114.875 121.765 115.366 121.565 115.75 121.166C116.133 120.767 116.325 120.172 116.325 119.383V116.686C116.325 116.406 116.551 116.18 116.831 116.18C117.11 116.18 117.336 116.406 117.336 116.686V124.03C117.336 124.377 117.237 124.651 117.042 124.85C116.854 125.05 116.576 125.15 116.21 125.15H112.828ZM123.234 122.546C122.938 122.546 122.697 122.306 122.697 122.009V116.139C122.697 114.645 123.908 113.433 125.402 113.433H127.613C127.886 113.433 128.108 113.655 128.108 113.928C128.108 114.201 127.886 114.423 127.613 114.423H125.301C124.456 114.423 123.772 115.108 123.772 115.952C123.772 116.797 124.456 117.482 125.301 117.482H127.268C127.541 117.482 127.763 117.704 127.763 117.977C127.763 118.25 127.541 118.471 127.268 118.471H125.767C124.665 118.471 123.772 119.365 123.772 120.467V122.009C123.772 122.306 123.531 122.546 123.234 122.546ZM130.149 122.546C129.87 122.546 129.644 122.32 129.644 122.041V116.686C129.644 116.406 129.87 116.18 130.149 116.18C130.428 116.18 130.654 116.406 130.654 116.686V122.041C130.654 122.32 130.428 122.546 130.149 122.546ZM130.155 115.191C129.933 115.191 129.746 115.117 129.593 114.97C129.447 114.822 129.375 114.635 129.375 114.41C129.375 114.176 129.447 113.985 129.593 113.837C129.746 113.69 129.933 113.616 130.155 113.616C130.377 113.616 130.56 113.69 130.705 113.837C130.85 113.985 130.923 114.176 130.923 114.41C130.923 114.635 130.85 114.822 130.705 114.97C130.56 115.117 130.377 115.191 130.155 115.191ZM133.284 122.546C133.005 122.546 132.779 122.32 132.779 122.041V116.673C132.779 116.401 133 116.18 133.272 116.18H133.374C133.589 116.18 133.764 116.355 133.764 116.571V116.855C133.764 116.914 133.812 116.961 133.871 116.961C133.915 116.961 133.954 116.935 133.972 116.895C134.082 116.651 134.244 116.469 134.455 116.35C134.685 116.219 134.987 116.154 135.363 116.154H135.636C135.895 116.154 136.105 116.364 136.105 116.623C136.105 116.882 135.895 117.092 135.636 117.092H135.299C134.847 117.092 134.481 117.222 134.199 117.482C133.926 117.734 133.79 118.129 133.79 118.667V122.041C133.79 122.32 133.564 122.546 133.284 122.546ZM139.996 122.728C139.22 122.728 138.563 122.546 138.026 122.182C137.602 121.889 137.312 121.461 137.157 120.896C137.089 120.647 137.259 120.406 137.51 120.348C137.789 120.283 138.058 120.472 138.156 120.742C138.222 120.927 138.307 121.085 138.41 121.218C138.597 121.453 138.827 121.622 139.101 121.726C139.382 121.821 139.68 121.869 139.996 121.869C140.465 121.869 140.835 121.774 141.109 121.583C141.382 121.392 141.518 121.136 141.518 120.815C141.518 120.485 141.386 120.255 141.122 120.125C140.866 119.986 140.512 119.873 140.06 119.786L139.536 119.695C139.134 119.626 138.768 119.517 138.435 119.37C138.103 119.222 137.838 119.023 137.642 118.771C137.446 118.519 137.348 118.202 137.348 117.821C137.348 117.248 137.566 116.801 138.001 116.48C138.435 116.159 139.011 115.998 139.727 115.998C140.435 115.998 141.007 116.163 141.442 116.493C141.768 116.73 142.01 117.04 142.165 117.423C142.261 117.66 142.104 117.911 141.857 117.975C141.586 118.046 141.323 117.862 141.203 117.609C141.106 117.406 140.972 117.251 140.802 117.144C140.512 116.953 140.154 116.857 139.727 116.857C139.301 116.857 138.964 116.94 138.717 117.105C138.469 117.261 138.346 117.495 138.346 117.808C138.346 118.111 138.461 118.337 138.691 118.484C138.93 118.623 139.245 118.727 139.638 118.797L140.162 118.888C140.605 118.966 141.002 119.075 141.352 119.213C141.71 119.344 141.992 119.535 142.196 119.786C142.409 120.038 142.516 120.368 142.516 120.776C142.516 121.4 142.286 121.882 141.825 122.221C141.373 122.559 140.764 122.728 139.996 122.728ZM146.386 122.546C146.028 122.546 145.751 122.446 145.555 122.247C145.367 122.047 145.273 121.774 145.273 121.427V118.019C145.273 117.499 144.852 117.079 144.333 117.079H143.842C143.594 117.079 143.393 116.877 143.393 116.629C143.393 116.381 143.594 116.18 143.842 116.18H144.333C144.852 116.18 145.273 115.759 145.273 115.24V114.42C145.273 114.141 145.5 113.915 145.779 113.915C146.058 113.915 146.284 114.141 146.284 114.42V115.157C146.284 115.722 146.742 116.18 147.307 116.18H147.881C148.129 116.18 148.331 116.381 148.331 116.629C148.331 116.877 148.129 117.079 147.881 117.079H147.307C146.742 117.079 146.284 117.537 146.284 118.102V121.27C146.284 121.531 146.408 121.661 146.655 121.661H147.607C147.851 121.661 148.049 121.859 148.049 122.103C148.049 122.348 147.851 122.546 147.607 122.546H146.386ZM156.451 122.728C155.385 122.728 154.536 122.416 153.905 121.791C153.274 121.157 152.959 120.238 152.959 119.031V116.948C152.959 115.742 153.274 114.826 153.905 114.202C154.536 113.568 155.385 113.251 156.451 113.251C157.508 113.251 158.318 113.551 158.881 114.149C159.453 114.748 159.738 115.568 159.738 116.61C159.738 116.646 159.709 116.675 159.673 116.675H158.781C158.723 116.675 158.677 116.628 158.677 116.571C158.677 115.885 158.493 115.325 158.126 114.891C157.768 114.449 157.209 114.228 156.451 114.228C155.692 114.228 155.099 114.466 154.673 114.944C154.247 115.412 154.033 116.072 154.033 116.922V119.057C154.033 119.908 154.247 120.572 154.673 121.049C155.099 121.518 155.692 121.752 156.451 121.752C157.209 121.752 157.768 121.535 158.126 121.101C158.493 120.658 158.677 120.094 158.677 119.409C158.677 119.294 158.77 119.2 158.885 119.2H159.569C159.662 119.2 159.738 119.276 159.738 119.37C159.738 120.411 159.453 121.231 158.881 121.83C158.318 122.429 157.508 122.728 156.451 122.728ZM163.379 122.728C162.944 122.728 162.548 122.65 162.189 122.494C161.831 122.338 161.55 122.112 161.345 121.817C161.14 121.522 161.038 121.162 161.038 120.737C161.038 120.303 161.14 119.947 161.345 119.669C161.55 119.383 161.831 119.17 162.189 119.031C162.548 118.884 162.948 118.81 163.392 118.81H165.034C165.293 118.81 165.502 118.6 165.502 118.341C165.502 117.89 165.37 117.534 165.106 117.274C164.85 117.013 164.466 116.883 163.955 116.883C163.451 116.883 163.059 117.009 162.778 117.261C162.618 117.398 162.488 117.564 162.386 117.757C162.253 118.009 161.971 118.174 161.701 118.085C161.452 118.003 161.309 117.736 161.42 117.499C161.508 117.313 161.615 117.138 161.742 116.974C161.963 116.679 162.257 116.445 162.624 116.271C162.999 116.089 163.447 115.998 163.967 115.998C164.769 115.998 165.391 116.211 165.835 116.636C166.278 117.052 166.5 117.643 166.5 118.406V121.283C166.5 121.544 166.619 121.674 166.858 121.674H166.998C167.239 121.674 167.434 121.869 167.434 122.11C167.434 122.351 167.239 122.546 166.998 122.546H166.551C166.27 122.546 166.044 122.468 165.873 122.312C165.702 122.147 165.618 121.93 165.618 121.661C165.618 121.625 165.588 121.596 165.552 121.596H165.52C165.486 121.596 165.454 121.615 165.435 121.644C165.344 121.795 165.226 121.952 165.08 122.116C164.927 122.29 164.713 122.433 164.441 122.546C164.167 122.668 163.814 122.728 163.379 122.728ZM163.494 121.843C164.091 121.843 164.573 121.665 164.94 121.309C165.315 120.945 165.502 120.437 165.502 119.786C165.502 119.707 165.438 119.643 165.359 119.643H163.43C163.029 119.643 162.696 119.734 162.432 119.916C162.177 120.09 162.049 120.355 162.049 120.711C162.049 121.066 162.181 121.344 162.445 121.544C162.718 121.743 163.067 121.843 163.494 121.843ZM169.323 122.546C169.044 122.546 168.818 122.32 168.818 122.041V116.673C168.818 116.401 169.038 116.18 169.31 116.18H169.406C169.625 116.18 169.803 116.358 169.803 116.577V116.863C169.803 116.924 169.853 116.974 169.915 116.974C169.956 116.974 169.994 116.951 170.015 116.916C170.136 116.713 170.321 116.524 170.57 116.35C170.843 116.159 171.227 116.063 171.722 116.063C172.208 116.063 172.599 116.172 172.898 116.389C173.178 116.586 173.387 116.824 173.525 117.101C173.55 117.15 173.599 117.183 173.654 117.183C173.708 117.183 173.757 117.151 173.781 117.103C173.925 116.825 174.13 116.587 174.395 116.389C174.693 116.172 175.106 116.063 175.636 116.063C176.053 116.063 176.42 116.15 176.736 116.323C177.051 116.497 177.299 116.749 177.478 117.079C177.665 117.4 177.759 117.786 177.759 118.237V122.041C177.759 122.32 177.533 122.546 177.254 122.546C176.975 122.546 176.749 122.32 176.749 122.041V118.328C176.749 117.903 176.625 117.569 176.378 117.326C176.139 117.074 175.802 116.948 175.367 116.948C174.907 116.948 174.527 117.1 174.229 117.404C173.938 117.708 173.794 118.146 173.794 118.719V122.041C173.794 122.32 173.568 122.546 173.288 122.546C173.009 122.546 172.783 122.32 172.783 122.041V118.328C172.783 117.903 172.659 117.569 172.412 117.326C172.173 117.074 171.837 116.948 171.402 116.948C170.941 116.948 170.561 117.1 170.263 117.404C169.973 117.708 169.828 118.146 169.828 118.719V122.041C169.828 122.32 169.602 122.546 169.323 122.546ZM180.328 125.15C180.049 125.15 179.823 124.923 179.823 124.644V116.673C179.823 116.401 180.043 116.18 180.315 116.18C180.587 116.18 180.808 116.401 180.808 116.673V117.124C180.808 117.185 180.857 117.235 180.918 117.235C180.96 117.235 180.998 117.211 181.018 117.174C181.182 116.878 181.431 116.611 181.767 116.376C182.134 116.124 182.642 115.998 183.289 115.998C183.826 115.998 184.317 116.133 184.76 116.402C185.213 116.662 185.571 117.035 185.835 117.521C186.108 118.007 186.244 118.593 186.244 119.279V119.448C186.244 120.125 186.112 120.711 185.847 121.205C185.584 121.7 185.225 122.077 184.773 122.338C184.33 122.598 183.835 122.728 183.289 122.728C182.854 122.728 182.483 122.668 182.176 122.546C181.878 122.433 181.635 122.286 181.447 122.103C181.279 121.94 181.145 121.773 181.045 121.602C181.024 121.567 180.986 121.544 180.945 121.544C180.883 121.544 180.833 121.594 180.833 121.656V124.644C180.833 124.923 180.607 125.15 180.328 125.15ZM183.02 121.817C183.669 121.817 184.193 121.609 184.594 121.192C185.003 120.767 185.208 120.177 185.208 119.422V119.305C185.208 118.55 185.003 117.964 184.594 117.547C184.193 117.122 183.669 116.909 183.02 116.909C182.381 116.909 181.852 117.122 181.434 117.547C181.025 117.964 180.82 118.55 180.82 119.305V119.422C180.82 120.177 181.025 120.767 181.434 121.192C181.852 121.609 182.381 121.817 183.02 121.817ZM189.973 122.728C189.539 122.728 189.142 122.65 188.784 122.494C188.426 122.338 188.144 122.112 187.94 121.817C187.735 121.522 187.633 121.162 187.633 120.737C187.633 120.303 187.735 119.947 187.94 119.669C188.144 119.383 188.426 119.17 188.784 119.031C189.142 118.884 189.543 118.81 189.986 118.81H191.628C191.887 118.81 192.097 118.6 192.097 118.341C192.097 117.89 191.965 117.534 191.7 117.274C191.444 117.013 191.061 116.883 190.549 116.883C190.046 116.883 189.654 117.009 189.372 117.261C189.213 117.398 189.082 117.564 188.98 117.757C188.848 118.009 188.566 118.174 188.296 118.085C188.047 118.003 187.903 117.736 188.015 117.499C188.103 117.313 188.21 117.138 188.336 116.974C188.558 116.679 188.852 116.445 189.219 116.271C189.594 116.089 190.041 115.998 190.562 115.998C191.364 115.998 191.986 116.211 192.429 116.636C192.873 117.052 193.095 117.643 193.095 118.406V121.283C193.095 121.544 193.214 121.674 193.453 121.674H193.592C193.833 121.674 194.028 121.869 194.028 122.11C194.028 122.351 193.833 122.546 193.592 122.546H193.146C192.864 122.546 192.638 122.468 192.468 122.312C192.298 122.147 192.212 121.93 192.212 121.661C192.212 121.625 192.183 121.596 192.147 121.596H192.115C192.08 121.596 192.048 121.615 192.03 121.645C191.94 121.795 191.821 121.952 191.675 122.116C191.521 122.29 191.308 122.433 191.035 122.546C190.763 122.668 190.408 122.728 189.973 122.728ZM190.089 121.843C190.686 121.843 191.167 121.665 191.534 121.309C191.909 120.945 192.097 120.437 192.097 119.786C192.097 119.707 192.033 119.643 191.954 119.643H190.025C189.624 119.643 189.292 119.734 189.027 119.916C188.771 120.09 188.643 120.355 188.643 120.711C188.643 121.066 188.775 121.344 189.04 121.544C189.312 121.743 189.662 121.843 190.089 121.843ZM195.918 122.546C195.638 122.546 195.412 122.32 195.412 122.041V116.686C195.412 116.406 195.638 116.18 195.918 116.18C196.197 116.18 196.423 116.406 196.423 116.686V122.041C196.423 122.32 196.197 122.546 195.918 122.546ZM195.924 115.191C195.702 115.191 195.515 115.117 195.361 114.97C195.216 114.822 195.144 114.635 195.144 114.41C195.144 114.176 195.216 113.985 195.361 113.837C195.515 113.69 195.702 113.616 195.924 113.616C196.146 113.616 196.329 113.69 196.474 113.837C196.619 113.985 196.691 114.176 196.691 114.41C196.691 114.635 196.619 114.822 196.474 114.97C196.329 115.117 196.146 115.191 195.924 115.191ZM198.241 119.396V119.213C198.241 118.545 198.373 117.972 198.637 117.495C198.902 117.018 199.26 116.649 199.712 116.389C200.164 116.128 200.658 115.998 201.196 115.998C201.852 115.998 202.356 116.128 202.705 116.389C203.041 116.625 203.295 116.887 203.465 117.177C203.486 117.212 203.524 117.235 203.565 117.235C203.627 117.235 203.677 117.184 203.677 117.122V116.66C203.677 116.395 203.892 116.18 204.157 116.18C204.422 116.18 204.637 116.395 204.637 116.66V124.03C204.637 124.377 204.543 124.651 204.355 124.85C204.167 125.05 203.895 125.15 203.537 125.15H199.745C199.494 125.15 199.29 124.946 199.29 124.694C199.29 124.442 199.494 124.238 199.745 124.238H203.268C203.524 124.238 203.652 124.108 203.652 123.848V121.539C203.652 121.477 203.601 121.427 203.54 121.427C203.498 121.427 203.461 121.449 203.44 121.485C203.34 121.656 203.206 121.823 203.038 121.986C202.85 122.169 202.607 122.32 202.309 122.442C202.01 122.555 201.639 122.611 201.196 122.611C200.658 122.611 200.164 122.481 199.712 122.221C199.26 121.96 198.902 121.591 198.637 121.114C198.373 120.628 198.241 120.055 198.241 119.396ZM201.464 121.7C202.113 121.7 202.637 121.492 203.038 121.075C203.447 120.658 203.652 120.086 203.652 119.357V119.253C203.652 118.515 203.447 117.942 203.038 117.534C202.637 117.118 202.113 116.909 201.464 116.909C200.825 116.909 200.296 117.118 199.878 117.534C199.469 117.942 199.264 118.515 199.264 119.253V119.357C199.264 120.086 199.469 120.658 199.878 121.075C200.296 121.492 200.825 121.7 201.464 121.7ZM207.26 122.546C206.981 122.546 206.755 122.32 206.755 122.041V116.673C206.755 116.401 206.976 116.18 207.248 116.18C207.52 116.18 207.74 116.401 207.74 116.673V117.152C207.74 117.212 207.789 117.261 207.849 117.261C207.892 117.261 207.93 117.235 207.949 117.197C208.088 116.919 208.308 116.667 208.61 116.441C208.943 116.189 209.429 116.063 210.068 116.063C210.537 116.063 210.955 116.163 211.322 116.363C211.697 116.562 211.995 116.857 212.217 117.248C212.439 117.638 212.55 118.12 212.55 118.693V122.041C212.55 122.32 212.324 122.546 212.045 122.546C211.765 122.546 211.539 122.32 211.539 122.041V118.771C211.539 118.137 211.381 117.677 211.066 117.391C210.759 117.105 210.341 116.961 209.812 116.961C209.206 116.961 208.712 117.161 208.329 117.56C207.953 117.959 207.766 118.554 207.766 119.344V122.041C207.766 122.32 207.54 122.546 207.26 122.546Z" fill="black"/>
<path d="M491.066 161.912H376.545C373.91 161.912 371.773 164.067 371.773 166.726V188.608C371.773 191.267 373.91 193.422 376.545 193.422H491.066C493.701 193.422 495.837 191.267 495.837 188.608V166.726C495.837 164.067 493.701 161.912 491.066 161.912Z" fill="white" stroke="#E8E7EF"/>
<path d="M388.111 181.606C387.441 181.606 386.853 181.159 386.674 180.512L384.836 173.856C384.721 173.44 385.034 173.028 385.466 173.028C385.762 173.028 386.021 173.227 386.097 173.513L388.013 180.697C388.025 180.742 388.065 180.773 388.112 180.773C388.158 180.773 388.199 180.742 388.211 180.696L390.115 173.514C390.191 173.228 390.45 173.028 390.746 173.028C391.178 173.028 391.491 173.439 391.377 173.855L389.549 180.51C389.371 181.158 388.782 181.606 388.111 181.606ZM393.421 181.606C393.076 181.606 392.796 181.326 392.796 180.981V176.19C392.796 175.845 393.076 175.565 393.421 175.565C393.767 175.565 394.047 175.845 394.047 176.19V180.981C394.047 181.326 393.767 181.606 393.421 181.606ZM393.427 174.744C393.185 174.744 392.978 174.666 392.808 174.511C392.646 174.348 392.565 174.139 392.565 173.886C392.565 173.633 392.646 173.429 392.808 173.273C392.978 173.11 393.185 173.028 393.427 173.028C393.678 173.028 393.885 173.11 394.047 173.273C394.209 173.429 394.29 173.633 394.29 173.886C394.29 174.139 394.209 174.348 394.047 174.511C393.885 174.666 393.678 174.744 393.427 174.744ZM398.649 181.778C398.041 181.778 397.511 181.651 397.057 181.398C396.604 181.136 396.248 180.773 395.989 180.307C395.738 179.834 395.612 179.286 395.612 178.665V178.518C395.612 177.889 395.738 177.342 395.989 176.876C396.239 176.403 396.588 176.038 397.033 175.785C397.487 175.524 398.009 175.393 398.6 175.393C399.175 175.393 399.677 175.524 400.106 175.785C400.543 176.038 400.883 176.394 401.126 176.852C401.369 177.309 401.491 177.844 401.491 178.457C401.491 178.721 401.277 178.935 401.013 178.935H398.302C397.528 178.935 396.851 179.674 397.41 180.209C397.75 180.52 398.171 180.675 398.673 180.675C399.142 180.675 399.494 180.569 399.73 180.356C399.814 180.283 399.891 180.205 399.962 180.124C400.176 179.876 400.531 179.748 400.821 179.899C401.099 180.044 401.209 180.386 401.022 180.637C400.961 180.718 400.895 180.8 400.823 180.883C400.612 181.136 400.333 181.349 399.985 181.52C399.637 181.692 399.191 181.778 398.649 181.778ZM397.434 176.901C396.948 177.323 397.475 177.967 398.119 177.967H399.011C399.662 177.967 400.221 177.327 399.73 176.901C399.438 176.639 399.057 176.508 398.588 176.508C398.118 176.508 397.733 176.639 397.434 176.901ZM404.648 181.606C404.032 181.606 403.507 181.162 403.404 180.555L402.682 176.277C402.619 175.905 402.906 175.565 403.284 175.565C403.587 175.565 403.845 175.788 403.888 176.088L404.551 180.662C404.559 180.719 404.608 180.761 404.665 180.761C404.72 180.761 404.768 180.722 404.778 180.668L405.605 176.558C405.721 175.98 406.228 175.565 406.817 175.565C407.408 175.565 407.916 175.982 408.031 176.561L408.847 180.668C408.857 180.722 408.905 180.761 408.96 180.761C409.017 180.761 409.066 180.719 409.074 180.662L409.737 176.088C409.78 175.788 410.038 175.565 410.341 175.565C410.719 175.565 411.006 175.905 410.943 176.277L410.221 180.555C410.118 181.162 409.593 181.606 408.977 181.606C408.375 181.606 407.857 181.181 407.74 180.591L406.929 176.518C406.918 176.463 406.869 176.423 406.812 176.423C406.756 176.423 406.707 176.463 406.696 176.518L405.885 180.591C405.768 181.181 405.25 181.606 404.648 181.606ZM416.26 181.606C415.898 181.606 415.605 181.312 415.605 180.95V176.599C415.605 174.627 417.203 173.028 419.176 173.028C419.702 173.028 420.164 173.122 420.56 173.31C420.965 173.49 421.277 173.751 421.495 174.094C421.722 174.438 421.835 174.846 421.835 175.32V175.455C421.835 175.994 421.706 176.427 421.447 176.754C421.214 177.049 420.932 177.264 420.602 177.398C420.555 177.417 420.524 177.461 420.524 177.511C420.524 177.574 420.573 177.626 420.636 177.634C420.892 177.668 421.101 177.77 421.265 177.942C421.451 178.13 421.544 178.403 421.544 178.763V180.944C421.544 181.31 421.248 181.606 420.882 181.606C420.516 181.606 420.22 181.31 420.22 180.944V178.947C420.22 178.726 420.164 178.551 420.05 178.42C419.936 178.29 419.754 178.224 419.503 178.224H418.607C417.673 178.224 416.916 178.981 416.916 179.915V180.95C416.916 181.312 416.623 181.606 416.26 181.606ZM416.916 175.626C416.916 176.398 417.542 177.023 418.313 177.023H419.03C419.499 177.023 419.863 176.905 420.123 176.668C420.382 176.423 420.512 176.092 420.512 175.675V175.577C420.512 175.161 420.382 174.834 420.123 174.597C419.872 174.352 419.508 174.229 419.03 174.229H418.313C417.542 174.229 416.916 174.855 416.916 175.626ZM426.061 181.778C425.453 181.778 424.922 181.651 424.469 181.398C424.016 181.136 423.659 180.773 423.401 180.307C423.149 179.834 423.024 179.286 423.024 178.665V178.518C423.024 177.889 423.149 177.342 423.401 176.876C423.651 176.403 423.999 176.038 424.445 175.785C424.898 175.524 425.42 175.393 426.012 175.393C426.586 175.393 427.089 175.524 427.518 175.785C427.955 176.038 428.295 176.394 428.538 176.852C428.781 177.309 428.903 177.844 428.903 178.457C428.903 178.721 428.689 178.935 428.425 178.935H425.714C424.94 178.935 424.263 179.673 424.822 180.209C425.162 180.52 425.583 180.675 426.085 180.675C426.554 180.675 426.907 180.569 427.142 180.356C427.226 180.282 427.303 180.205 427.374 180.123C427.588 179.875 427.942 179.747 428.233 179.899C428.51 180.044 428.621 180.387 428.433 180.637C428.373 180.718 428.307 180.8 428.235 180.883C428.024 181.136 427.745 181.349 427.397 181.52C427.048 181.692 426.603 181.778 426.061 181.778ZM424.846 176.901C424.359 177.323 424.887 177.967 425.531 177.967H426.424C427.074 177.967 427.633 177.327 427.142 176.901C426.85 176.639 426.469 176.508 426 176.508C425.53 176.508 425.145 176.639 424.846 176.901ZM431.034 184.057C430.688 184.057 430.408 183.777 430.408 183.431V176.178C430.408 175.84 430.683 175.565 431.021 175.565H431.2C431.44 175.565 431.635 175.76 431.635 176V176.312C431.635 176.38 431.69 176.435 431.758 176.435C431.802 176.435 431.842 176.411 431.866 176.374C432.019 176.129 432.238 175.908 432.521 175.712C432.837 175.499 433.287 175.393 433.87 175.393C434.372 175.393 434.829 175.516 435.242 175.761C435.664 176.006 436 176.361 436.25 176.827C436.51 177.285 436.639 177.84 436.639 178.494V178.677C436.639 179.331 436.514 179.891 436.262 180.356C436.012 180.814 435.676 181.165 435.254 181.41C434.834 181.655 434.372 181.778 433.87 181.778C433.481 181.778 433.153 181.729 432.886 181.631C432.619 181.533 432.404 181.41 432.242 181.263C432.1 181.127 431.983 180.988 431.891 180.845C431.867 180.808 431.827 180.785 431.783 180.785C431.715 180.785 431.659 180.841 431.659 180.909V183.431C431.659 183.777 431.379 184.057 431.034 184.057ZM433.505 180.675C434.056 180.675 434.506 180.499 434.854 180.148C435.202 179.797 435.376 179.295 435.376 178.641V178.53C435.376 177.885 435.198 177.386 434.841 177.035C434.493 176.684 434.048 176.508 433.505 176.508C432.971 176.508 432.526 176.684 432.169 177.035C431.821 177.386 431.647 177.885 431.647 178.53V178.641C431.647 179.295 431.821 179.797 432.169 180.148C432.526 180.499 432.971 180.675 433.505 180.675ZM440.995 181.778C440.397 181.778 439.862 181.655 439.392 181.41C438.93 181.157 438.566 180.797 438.299 180.332C438.031 179.866 437.898 179.315 437.898 178.677V178.494C437.898 177.856 438.031 177.309 438.299 176.852C438.566 176.386 438.93 176.026 439.392 175.773C439.862 175.52 440.397 175.393 440.995 175.393C441.595 175.393 442.129 175.52 442.598 175.773C443.069 176.026 443.436 176.386 443.704 176.852C443.971 177.309 444.105 177.856 444.105 178.494V178.677C444.105 179.315 443.971 179.866 443.704 180.332C443.436 180.797 443.069 181.157 442.598 181.41C442.129 181.655 441.595 181.778 440.995 181.778ZM440.995 180.65C441.546 180.65 441.991 180.474 442.331 180.123C442.68 179.764 442.853 179.27 442.853 178.641V178.53C442.853 177.901 442.683 177.411 442.343 177.06C442.003 176.7 441.554 176.521 440.995 176.521C440.453 176.521 440.008 176.7 439.659 177.06C439.319 177.411 439.149 177.901 439.149 178.53V178.641C439.149 179.27 439.319 179.764 439.659 180.123C440.008 180.474 440.453 180.65 440.995 180.65ZM446.288 181.606C445.943 181.606 445.663 181.326 445.663 180.981V176.178C445.663 175.84 445.937 175.565 446.276 175.565H446.534C446.73 175.565 446.889 175.724 446.889 175.92V176.16C446.889 176.224 446.941 176.276 447.005 176.276C447.052 176.276 447.095 176.246 447.114 176.203C447.212 175.987 447.355 175.828 447.545 175.724C447.764 175.602 448.031 175.54 448.347 175.54H448.494C448.809 175.54 449.064 175.796 449.064 176.11C449.064 176.425 448.809 176.68 448.494 176.68H448.298C447.893 176.68 447.561 176.795 447.302 177.023C447.043 177.244 446.914 177.587 446.914 178.052V180.981C446.914 181.326 446.634 181.606 446.288 181.606ZM452.607 181.606C452.242 181.606 451.951 181.496 451.732 181.275C451.521 181.055 451.416 180.761 451.416 180.393V177.457C451.416 177.001 451.047 176.631 450.591 176.631H450.298C450.003 176.631 449.765 176.392 449.765 176.098C449.765 175.804 450.003 175.565 450.298 175.565H450.591C451.047 175.565 451.416 175.195 451.416 174.739V174.193C451.416 173.848 451.697 173.568 452.042 173.568C452.387 173.568 452.668 173.848 452.668 174.193V174.672C452.668 175.165 453.067 175.565 453.56 175.565H453.92C454.214 175.565 454.453 175.804 454.453 176.098C454.453 176.392 454.214 176.631 453.92 176.631H453.56C453.067 176.631 452.668 177.031 452.668 177.524V180.172C452.668 180.418 452.78 180.54 453.008 180.54H453.726C454.02 180.54 454.259 180.779 454.259 181.073C454.259 181.367 454.02 181.606 453.726 181.606H452.607Z" fill="#312D49"/>
<path opacity="0.2" d="M465.473 161.474V193.86" stroke="#7B759E"/>
<mask id="mask1_4_27268" style="mask-type:luminance" maskUnits="userSpaceOnUse" x="477" y="173" width="9" height="10">
<path d="M481.518 173.729C479.122 173.729 477.18 175.709 477.18 178.105C477.18 180.501 479.122 182.482 481.518 182.482C483.913 182.482 485.855 180.501 485.855 178.105C485.855 175.709 483.913 173.729 481.518 173.729Z" fill="white"/>
</mask>
<g mask="url(#mask1_4_27268)">
<path d="M477.18 176.17C477.18 176.04 477.228 175.911 477.327 175.812C477.523 175.613 477.841 175.613 478.038 175.812C479.955 177.746 483.081 177.746 484.998 175.812C485.194 175.613 485.512 175.613 485.708 175.812C485.905 176.01 485.905 176.33 485.708 176.529L481.873 180.398C481.676 180.596 481.359 180.596 481.163 180.398L477.327 176.529C477.229 176.43 477.18 176.3 477.18 176.17Z" fill="#312D49"/>
</g>
<path d="M108.448 194.105C107.557 194.105 106.793 193.947 106.157 193.632C105.533 193.306 105.058 192.862 104.734 192.302C104.521 191.932 104.378 191.529 104.305 191.094C104.241 190.711 104.563 190.394 104.951 190.394C105.339 190.394 105.641 190.714 105.737 191.09C105.844 191.505 106.053 191.863 106.366 192.162C106.84 192.606 107.534 192.827 108.448 192.827C109.408 192.827 110.142 192.571 110.651 192.057C111.172 191.532 111.432 190.814 111.432 189.904V188.351C111.432 188.271 111.367 188.206 111.287 188.206C111.237 188.206 111.191 188.232 111.163 188.273C110.941 188.598 110.603 188.902 110.148 189.186C109.674 189.477 109.003 189.624 108.135 189.624C107.407 189.624 106.736 189.46 106.123 189.133C105.521 188.807 105.041 188.346 104.682 187.75C104.324 187.155 104.145 186.449 104.145 185.632V185.422C104.145 184.582 104.335 183.864 104.717 183.269C105.099 182.662 105.613 182.195 106.261 181.869C106.921 181.53 107.667 181.361 108.5 181.361C109.344 181.361 110.09 181.53 110.738 181.869C111.397 182.195 111.912 182.668 112.282 183.286C112.653 183.893 112.838 184.628 112.838 185.492V189.764C112.838 190.674 112.658 191.456 112.3 192.109C111.953 192.751 111.45 193.247 110.79 193.597C110.131 193.936 109.35 194.105 108.448 194.105ZM108.5 188.433C109.078 188.433 109.587 188.317 110.027 188.083C110.467 187.838 110.808 187.505 111.05 187.085C111.305 186.654 111.432 186.151 111.432 185.58V185.44C111.432 184.564 111.161 183.882 110.617 183.392C110.085 182.89 109.379 182.639 108.5 182.639C107.621 182.639 106.91 182.89 106.366 183.392C105.822 183.882 105.55 184.564 105.55 185.44V185.58C105.55 186.151 105.671 186.654 105.914 187.085C106.169 187.505 106.516 187.838 106.955 188.083C107.407 188.317 107.921 188.433 108.5 188.433ZM116.376 193.86C115.671 193.86 115.099 193.288 115.099 192.582C115.099 191.707 115.25 191.007 115.55 190.481C115.862 189.956 116.291 189.536 116.834 189.221C117.389 188.894 118.048 188.614 118.812 188.381L119.766 188.083C120.287 187.919 120.744 187.722 121.137 187.488C121.531 187.243 121.837 186.939 122.057 186.578C122.277 186.204 122.386 185.749 122.386 185.212V185.142C122.386 184.372 122.121 183.765 121.588 183.321C121.056 182.866 120.373 182.639 119.541 182.639C118.662 182.639 117.944 182.878 117.389 183.356C116.834 183.823 116.556 184.536 116.556 185.492C116.556 185.628 116.446 185.737 116.311 185.737H115.396C115.27 185.737 115.168 185.635 115.168 185.51C115.168 184.623 115.359 183.87 115.741 183.251C116.122 182.633 116.643 182.166 117.302 181.851C117.962 181.525 118.708 181.361 119.541 181.361C120.373 181.361 121.108 181.518 121.744 181.833C122.392 182.149 122.896 182.586 123.254 183.146C123.613 183.707 123.792 184.36 123.792 185.107V185.265C123.792 186.059 123.636 186.718 123.323 187.243C123.011 187.757 122.577 188.177 122.022 188.503C121.479 188.83 120.837 189.11 120.096 189.343L119.159 189.641C118.569 189.828 118.078 190.026 117.684 190.236C117.302 190.435 117.013 190.691 116.816 191.007C116.62 191.322 116.521 191.748 116.521 192.284C116.521 192.449 116.655 192.582 116.819 192.582H123.049C123.402 192.582 123.688 192.868 123.688 193.221C123.688 193.574 123.402 193.86 123.049 193.86H116.376ZM127.869 193.86C127.627 193.86 127.431 193.664 127.431 193.422C127.431 193.014 127.466 192.67 127.535 192.389C127.605 192.109 127.738 191.777 127.934 191.392L132.548 183.111C132.561 183.088 132.567 183.063 132.567 183.037C132.567 182.952 132.499 182.884 132.414 182.884H125.988C125.635 182.884 125.349 182.598 125.349 182.245C125.349 181.892 125.635 181.606 125.988 181.606H132.706C133.444 181.606 134.042 182.204 134.042 182.942C134.042 183.168 133.985 183.39 133.875 183.588L129.201 192.039C129.062 192.284 128.964 192.506 128.906 192.705C128.86 192.903 128.837 193.154 128.837 193.457C128.837 193.68 128.656 193.86 128.434 193.86H127.869Z" fill="#414552"/>
<path d="M214.266 193.86C213.878 193.86 213.563 193.545 213.563 193.157V182.714C213.563 182.624 213.49 182.551 213.4 182.551C213.34 182.551 213.285 182.584 213.257 182.637L211.133 186.56C211.016 186.776 210.79 186.91 210.544 186.91C210.036 186.91 209.713 186.366 209.957 185.92L211.84 182.473C212.132 181.939 212.693 181.606 213.302 181.606C214.223 181.606 214.969 182.352 214.969 183.272V193.157C214.969 193.545 214.654 193.86 214.266 193.86ZM218.838 194.105C218.502 194.105 218.218 193.994 217.988 193.772C217.767 193.551 217.658 193.265 217.658 192.915C217.658 192.565 217.767 192.278 217.988 192.057C218.218 191.835 218.502 191.724 218.838 191.724C219.185 191.724 219.468 191.835 219.688 192.057C219.908 192.278 220.018 192.565 220.018 192.915C220.018 193.265 219.908 193.551 219.688 193.772C219.468 193.994 219.185 194.105 218.838 194.105ZM226.593 194.105C225.737 194.105 224.967 193.941 224.285 193.615C223.614 193.288 223.082 192.816 222.689 192.197C222.307 191.578 222.117 190.831 222.117 189.956C222.117 189.772 222.265 189.624 222.449 189.624H223.207C223.381 189.624 223.522 189.765 223.522 189.939C223.522 190.838 223.805 191.543 224.372 192.057C224.939 192.571 225.679 192.827 226.593 192.827C227.518 192.827 228.236 192.588 228.745 192.109C229.265 191.619 229.526 191.007 229.526 190.271V190.131C229.526 189.595 229.398 189.162 229.144 188.836C228.889 188.497 228.542 188.252 228.103 188.101C227.674 187.937 227.201 187.855 226.68 187.855H225.847C225.214 187.855 224.702 187.343 224.702 186.711C224.702 186.322 224.899 185.96 225.225 185.749L229.273 183.134C229.311 183.109 229.335 183.066 229.335 183.02C229.335 182.945 229.274 182.884 229.199 182.884H223.05C222.698 182.884 222.411 182.598 222.411 182.245C222.411 181.892 222.698 181.606 223.05 181.606H229.545C230.253 181.606 230.827 182.18 230.827 182.888C230.827 183.322 230.607 183.727 230.243 183.963L226.36 186.485C226.322 186.51 226.298 186.553 226.298 186.599C226.298 186.674 226.359 186.735 226.434 186.735H227.166C227.848 186.735 228.472 186.864 229.04 187.12C229.618 187.365 230.075 187.739 230.411 188.241C230.758 188.731 230.931 189.35 230.931 190.096V190.289C230.931 191.059 230.752 191.73 230.393 192.302C230.034 192.874 229.531 193.317 228.884 193.632C228.236 193.947 227.472 194.105 226.593 194.105ZM239.694 193.86C239.306 193.86 238.991 193.545 238.991 193.157V192.608C238.991 191.917 238.431 191.357 237.739 191.357H233.961C233.241 191.357 232.658 190.773 232.658 190.053C232.658 189.807 232.728 189.565 232.859 189.357L237.258 182.398C237.57 181.905 238.113 181.606 238.696 181.606C239.635 181.606 240.396 182.367 240.396 183.306V189.038C240.396 189.613 240.863 190.079 241.438 190.079H241.84C242.193 190.079 242.479 190.365 242.479 190.718C242.479 191.071 242.193 191.357 241.84 191.357H241.438C240.863 191.357 240.396 191.823 240.396 192.398V193.157C240.396 193.545 240.082 193.86 239.694 193.86ZM234.063 189.916C234.063 190.006 234.136 190.079 234.226 190.079H236.527C237.888 190.079 238.991 188.976 238.991 187.615V182.62C238.991 182.534 238.921 182.464 238.834 182.464C238.781 182.464 238.731 182.491 238.702 182.537L234.088 189.829C234.072 189.855 234.063 189.885 234.063 189.916ZM245.962 193.637C245.754 193.896 245.376 193.937 245.117 193.729C244.859 193.521 244.818 193.142 245.026 192.884L253.937 181.827C254.145 181.57 254.521 181.531 254.777 181.74C255.029 181.947 255.068 182.319 254.863 182.573L245.962 193.637ZM253.29 194.088C252.445 194.088 251.769 193.842 251.259 193.352C250.762 192.851 250.513 192.173 250.513 191.322V191.217C250.513 190.365 250.762 189.694 251.259 189.203C251.769 188.702 252.445 188.451 253.29 188.451C254.111 188.451 254.776 188.702 255.285 189.203C255.794 189.694 256.048 190.365 256.048 191.217V191.322C256.048 192.173 255.794 192.851 255.285 193.352C254.788 193.842 254.122 194.088 253.29 194.088ZM253.29 193.072C253.775 193.072 254.157 192.915 254.435 192.6C254.724 192.284 254.869 191.876 254.869 191.374V191.164C254.869 190.65 254.724 190.242 254.435 189.939C254.157 189.624 253.775 189.466 253.29 189.466C252.792 189.466 252.399 189.624 252.11 189.939C251.832 190.242 251.693 190.65 251.693 191.164V191.374C251.693 191.876 251.832 192.284 252.11 192.6C252.399 192.915 252.792 193.072 253.29 193.072ZM246.609 187.015C245.765 187.015 245.093 186.764 244.596 186.262C244.099 185.761 243.85 185.09 243.85 184.249V184.144C243.85 183.293 244.099 182.621 244.596 182.131C245.093 181.63 245.765 181.378 246.609 181.378C247.442 181.378 248.107 181.63 248.605 182.131C249.114 182.621 249.368 183.293 249.368 184.144V184.249C249.368 185.09 249.114 185.761 248.605 186.262C248.107 186.764 247.442 187.015 246.609 187.015ZM246.609 186C247.095 186 247.483 185.842 247.772 185.527C248.061 185.212 248.206 184.803 248.206 184.302V184.092C248.206 183.578 248.061 183.17 247.772 182.866C247.483 182.551 247.095 182.394 246.609 182.394C246.112 182.394 245.718 182.551 245.429 182.866C245.152 183.17 245.013 183.578 245.013 184.092V184.302C245.013 184.803 245.152 185.212 245.429 185.527C245.718 185.842 246.112 186 246.609 186Z" fill="#414552"/>
<path fill-rule="evenodd" clip-rule="evenodd" d="M214.958 164.975C214.958 164.613 214.666 164.319 214.307 164.319H212.68C212.321 164.319 212.03 164.613 212.03 164.975C212.03 165.338 212.321 165.632 212.68 165.632C213.219 165.632 213.656 166.069 213.656 166.608V168.258C213.656 168.62 213.948 168.914 214.307 168.914C214.666 168.914 214.958 168.62 214.958 168.258V164.975ZM211.704 159.724H216.91C218.347 159.724 219.513 160.899 219.513 162.349V167.601C219.513 169.051 218.347 170.227 216.91 170.227H211.704C210.267 170.227 209.102 169.051 209.102 167.601V162.349C209.102 160.899 210.267 159.724 211.704 159.724ZM214.307 163.334C214.846 163.334 215.283 162.893 215.283 162.349C215.283 161.806 214.846 161.365 214.307 161.365C213.768 161.365 213.331 161.806 213.331 162.349C213.331 162.893 213.768 163.334 214.307 163.334Z" fill="#8792A2"/>
<path d="M230.498 169.523C229.461 169.523 228.639 169.229 228.032 168.641C227.425 168.045 227.121 167.187 227.121 166.068V164.058C227.121 162.939 227.425 162.085 228.032 161.497C228.639 160.901 229.461 160.603 230.498 160.603C231.518 160.603 232.303 160.888 232.854 161.46C233.413 162.032 233.692 162.812 233.692 163.801C233.692 163.841 233.659 163.874 233.619 163.874H232.503C232.442 163.874 232.392 163.825 232.392 163.764C232.392 163.184 232.235 162.71 231.919 162.343C231.611 161.975 231.137 161.791 230.498 161.791C229.85 161.791 229.344 161.991 228.979 162.392C228.615 162.784 228.433 163.331 228.433 164.034V166.092C228.433 166.787 228.615 167.334 228.979 167.734C229.344 168.135 229.85 168.335 230.498 168.335C231.137 168.335 231.611 168.151 231.919 167.783C232.235 167.408 232.392 166.934 232.392 166.362C232.392 166.247 232.486 166.154 232.601 166.154H233.521C233.615 166.154 233.692 166.23 233.692 166.325C233.692 167.314 233.413 168.094 232.854 168.666C232.303 169.238 231.518 169.523 230.498 169.523ZM237.517 169.352C237.155 169.352 236.861 169.058 236.861 168.696V163.281C236.861 162.56 236.277 161.975 235.556 161.975H234.85C234.519 161.975 234.25 161.706 234.25 161.375C234.25 161.043 234.519 160.774 234.85 160.774H240.184C240.516 160.774 240.785 161.043 240.785 161.375C240.785 161.706 240.516 161.975 240.184 161.975H239.479C238.758 161.975 238.173 162.56 238.173 163.281V168.696C238.173 169.058 237.88 169.352 237.517 169.352ZM242.495 169.352C242.133 169.352 241.84 169.058 241.84 168.696V164.345C241.84 162.373 243.438 160.774 245.411 160.774C245.937 160.774 246.399 160.868 246.795 161.056C247.2 161.236 247.512 161.497 247.73 161.84C247.958 162.183 248.071 162.592 248.071 163.066V163.2C248.071 163.74 247.941 164.173 247.682 164.499C247.449 164.795 247.167 165.01 246.837 165.144C246.79 165.162 246.759 165.207 246.759 165.257C246.759 165.32 246.808 165.371 246.871 165.38C247.127 165.414 247.337 165.516 247.5 165.688C247.686 165.876 247.779 166.15 247.779 166.509V168.69C247.779 169.056 247.483 169.352 247.117 169.352C246.751 169.352 246.455 169.056 246.455 168.69V166.693C246.455 166.472 246.399 166.297 246.285 166.166C246.172 166.035 245.99 165.97 245.738 165.97H244.842C243.908 165.97 243.151 166.727 243.151 167.661V168.696C243.151 169.058 242.858 169.352 242.495 169.352ZM243.151 163.372C243.151 164.143 243.777 164.769 244.548 164.769H245.265C245.735 164.769 246.099 164.65 246.358 164.414C246.617 164.168 246.747 163.838 246.747 163.421V163.323C246.747 162.906 246.617 162.58 246.358 162.343C246.107 162.098 245.743 161.975 245.265 161.975H244.548C243.777 161.975 243.151 162.6 243.151 163.372Z" fill="#687385"/>
<mask id="mask2_4_27268" style="mask-type:luminance" maskUnits="userSpaceOnUse" x="255" y="157" width="86" height="16">
<path d="M336.634 157.098H259.42C257.503 157.098 255.949 158.666 255.949 160.599V169.352C255.949 171.286 257.503 172.853 259.42 172.853H336.634C338.551 172.853 340.104 171.286 340.104 169.352V160.599C340.104 158.666 338.551 157.098 336.634 157.098Z" fill="white"/>
</mask>
<g mask="url(#mask2_4_27268)">
<path d="M336.634 157.098H259.42C257.503 157.098 255.949 158.666 255.949 160.599V169.352C255.949 171.286 257.503 172.853 259.42 172.853H336.634C338.551 172.853 340.104 171.286 340.104 169.352V160.599C340.104 158.666 338.551 157.098 336.634 157.098Z" fill="#F6E6B9"/>
<path d="M262.147 168.477C261.868 168.477 261.643 168.251 261.643 167.973V167.958C261.643 167.688 261.862 167.469 262.132 167.469C262.402 167.469 262.621 167.25 262.621 166.979V162.622C262.621 162.352 262.402 162.133 262.132 162.133C261.862 162.133 261.643 161.914 261.643 161.644V161.629C261.643 161.35 261.868 161.125 262.147 161.125H265.338C265.776 161.125 266.157 161.202 266.484 161.356C266.81 161.503 267.063 161.716 267.244 161.996C267.431 162.269 267.525 162.595 267.525 162.973V163.078C267.525 163.414 267.462 163.691 267.337 163.908C267.212 164.125 267.06 164.293 266.879 164.412C266.734 164.512 266.593 164.587 266.457 164.638C266.412 164.655 266.38 164.698 266.38 164.746C266.38 164.797 266.414 164.841 266.462 164.857C266.597 164.904 266.74 164.98 266.89 165.084C267.077 165.203 267.233 165.371 267.358 165.588C267.49 165.806 267.556 166.089 267.556 166.439V166.544C267.556 166.95 267.462 167.297 267.275 167.584C267.088 167.871 266.827 168.092 266.494 168.246C266.168 168.4 265.79 168.477 265.359 168.477H262.147ZM263.756 166.371C263.756 166.966 264.238 167.448 264.833 167.448H265.224C265.599 167.448 265.894 167.357 266.109 167.175C266.324 166.992 266.432 166.74 266.432 166.418V166.324C266.432 166.002 266.324 165.75 266.109 165.567C265.901 165.385 265.606 165.294 265.224 165.294H264.833C264.238 165.294 263.756 165.776 263.756 166.371ZM263.756 163.204C263.756 163.784 264.226 164.255 264.806 164.255H265.224C265.578 164.255 265.862 164.167 266.078 163.992C266.293 163.81 266.4 163.565 266.4 163.257V163.152C266.4 162.844 266.293 162.602 266.078 162.427C265.869 162.245 265.585 162.154 265.224 162.154H264.806C264.226 162.154 263.756 162.624 263.756 163.204ZM271.201 168.624C270.68 168.624 270.225 168.515 269.837 168.298C269.448 168.074 269.143 167.763 268.921 167.364C268.706 166.957 268.598 166.488 268.598 165.956V165.83C268.598 165.291 268.706 164.822 268.921 164.423C269.136 164.016 269.434 163.705 269.816 163.488C270.205 163.264 270.652 163.152 271.159 163.152C271.652 163.152 272.082 163.264 272.45 163.488C272.825 163.705 273.116 164.009 273.325 164.402C273.533 164.794 273.637 165.252 273.637 165.778C273.637 166.004 273.453 166.187 273.227 166.187H270.903C270.24 166.187 269.66 166.82 270.139 167.28C270.43 167.546 270.791 167.679 271.221 167.679C271.624 167.679 271.926 167.588 272.127 167.406C272.199 167.343 272.266 167.276 272.326 167.206C272.51 166.994 272.814 166.884 273.063 167.014C273.301 167.138 273.396 167.431 273.235 167.646C273.183 167.715 273.126 167.786 273.064 167.857C272.884 168.074 272.644 168.256 272.346 168.403C272.047 168.55 271.666 168.624 271.201 168.624ZM270.16 164.444C269.743 164.806 270.195 165.357 270.747 165.357H271.512C272.07 165.357 272.548 164.809 272.127 164.444C271.877 164.22 271.551 164.107 271.149 164.107C270.746 164.107 270.416 164.22 270.16 164.444ZM275.464 168.477C275.168 168.477 274.928 168.237 274.928 167.941V161.661C274.928 161.365 275.168 161.125 275.464 161.125C275.76 161.125 276 161.365 276 161.661V167.941C276 168.237 275.76 168.477 275.464 168.477ZM279.996 168.624C279.483 168.624 279.025 168.519 278.622 168.309C278.226 168.092 277.914 167.784 277.685 167.385C277.456 166.985 277.341 166.513 277.341 165.967V165.809C277.341 165.263 277.456 164.794 277.685 164.402C277.914 164.002 278.226 163.694 278.622 163.477C279.025 163.26 279.483 163.152 279.996 163.152C280.51 163.152 280.968 163.26 281.37 163.477C281.773 163.694 282.089 164.002 282.318 164.402C282.547 164.794 282.661 165.263 282.661 165.809V165.967C282.661 166.513 282.547 166.985 282.318 167.385C282.089 167.784 281.773 168.092 281.37 168.309C280.968 168.519 280.51 168.624 279.996 168.624ZM279.996 167.658C280.468 167.658 280.85 167.507 281.141 167.206C281.44 166.898 281.589 166.474 281.589 165.935V165.841C281.589 165.301 281.443 164.881 281.152 164.58C280.86 164.272 280.475 164.118 279.996 164.118C279.531 164.118 279.149 164.272 278.851 164.58C278.559 164.881 278.414 165.301 278.414 165.841V165.935C278.414 166.474 278.559 166.898 278.851 167.206C279.149 167.507 279.531 167.658 279.996 167.658ZM285.412 168.477C284.884 168.477 284.434 168.096 284.346 167.576L283.727 163.909C283.673 163.59 283.919 163.299 284.243 163.299C284.503 163.299 284.724 163.49 284.761 163.747L285.329 167.667C285.336 167.716 285.378 167.752 285.427 167.752C285.474 167.752 285.515 167.719 285.524 167.673L286.232 164.15C286.332 163.655 286.767 163.299 287.272 163.299C287.777 163.299 288.213 163.656 288.311 164.152L289.011 167.673C289.02 167.719 289.061 167.752 289.108 167.752C289.157 167.752 289.199 167.716 289.206 167.668L289.774 163.747C289.811 163.49 290.032 163.299 290.292 163.299C290.616 163.299 290.862 163.59 290.808 163.909L290.189 167.576C290.101 168.096 289.65 168.477 289.123 168.477C288.607 168.477 288.163 168.113 288.062 167.607L287.367 164.116C287.357 164.068 287.316 164.034 287.267 164.034C287.219 164.034 287.177 164.068 287.168 164.116L286.472 167.607C286.372 168.113 285.928 168.477 285.412 168.477ZM294.87 168.477C294.499 168.477 294.23 168.122 294.332 167.765L295.943 162.075C296.102 161.513 296.616 161.125 297.2 161.125C297.786 161.125 298.3 161.514 298.459 162.077L300.063 167.771C300.163 168.125 299.897 168.477 299.529 168.477C299.279 168.477 299.06 168.31 298.994 168.07L298.867 167.61C298.725 167.098 298.26 166.744 297.728 166.744H296.674C296.143 166.744 295.677 167.098 295.535 167.61L295.409 168.066C295.342 168.309 295.122 168.477 294.87 168.477ZM296.359 164.589C296.207 165.145 296.625 165.694 297.201 165.694C297.777 165.694 298.196 165.145 298.043 164.589L297.307 161.909C297.293 161.861 297.25 161.828 297.201 161.828C297.152 161.828 297.109 161.861 297.096 161.909L296.359 164.589ZM303.168 168.477C302.659 168.477 302.206 168.151 302.044 167.667L300.821 164.002C300.706 163.656 300.963 163.299 301.328 163.299C301.562 163.299 301.769 163.451 301.838 163.674L303.06 167.599C303.075 167.646 303.119 167.679 303.168 167.679C303.218 167.679 303.262 167.646 303.276 167.599L304.499 163.674C304.568 163.451 304.775 163.299 305.009 163.299C305.373 163.299 305.631 163.656 305.516 164.002L304.292 167.667C304.131 168.151 303.678 168.477 303.168 168.477ZM308.96 168.624C308.44 168.624 307.985 168.515 307.596 168.298C307.208 168.074 306.902 167.763 306.68 167.364C306.465 166.957 306.358 166.488 306.358 165.956V165.83C306.358 165.291 306.465 164.822 306.68 164.423C306.896 164.016 307.194 163.705 307.576 163.488C307.964 163.264 308.412 163.152 308.919 163.152C309.412 163.152 309.842 163.264 310.21 163.488C310.584 163.705 310.876 164.009 311.084 164.402C311.292 164.794 311.396 165.252 311.396 165.778C311.396 166.004 311.213 166.187 310.987 166.187H308.663C308 166.187 307.42 166.82 307.898 167.28C308.19 167.546 308.551 167.679 308.981 167.679C309.384 167.679 309.686 167.588 309.887 167.406C309.959 167.343 310.025 167.276 310.086 167.206C310.27 166.994 310.574 166.884 310.823 167.014C311.061 167.138 311.156 167.431 310.995 167.646C310.943 167.715 310.886 167.786 310.824 167.857C310.643 168.074 310.404 168.256 310.106 168.403C309.807 168.55 309.425 168.624 308.96 168.624ZM307.919 164.444C307.503 164.806 307.954 165.357 308.506 165.357H309.272C309.829 165.357 310.308 164.809 309.887 164.444C309.637 164.22 309.311 164.107 308.908 164.107C308.506 164.107 308.176 164.22 307.919 164.444ZM313.224 168.477C312.928 168.477 312.687 168.237 312.687 167.941V163.824C312.687 163.534 312.923 163.299 313.213 163.299H313.434C313.603 163.299 313.739 163.435 313.739 163.603V163.809C313.739 163.864 313.783 163.908 313.838 163.908C313.879 163.908 313.915 163.883 313.932 163.845C314.015 163.66 314.139 163.524 314.301 163.435C314.489 163.33 314.718 163.278 314.988 163.278H315.114C315.384 163.278 315.603 163.496 315.603 163.766C315.603 164.036 315.384 164.255 315.114 164.255H314.947C314.6 164.255 314.315 164.353 314.093 164.549C313.871 164.738 313.76 165.032 313.76 165.431V167.941C313.76 168.237 313.52 168.477 313.224 168.477ZM318.165 168.624C317.797 168.624 317.467 168.561 317.175 168.435C316.891 168.309 316.662 168.123 316.488 167.878C316.322 167.633 316.238 167.336 316.238 166.985C316.238 166.628 316.322 166.334 316.488 166.103C316.662 165.865 316.894 165.687 317.186 165.567C317.484 165.448 317.821 165.389 318.196 165.389H319.421C319.607 165.389 319.757 165.238 319.757 165.053C319.757 164.752 319.667 164.51 319.487 164.328C319.306 164.146 319.029 164.055 318.654 164.055C318.286 164.055 318.005 164.143 317.811 164.318C317.751 164.372 317.697 164.43 317.65 164.494C317.472 164.735 317.179 164.92 316.895 164.828C316.634 164.743 316.483 164.46 316.617 164.221C316.676 164.115 316.744 164.014 316.821 163.918C317.009 163.687 317.255 163.502 317.561 163.362C317.866 163.222 318.234 163.152 318.664 163.152C319.331 163.152 319.855 163.323 320.236 163.666C320.618 164.009 320.809 164.496 320.809 165.126V167.259C320.809 167.469 320.906 167.574 321.1 167.574C321.342 167.574 321.538 167.769 321.538 168.011V168.025C321.538 168.275 321.335 168.477 321.086 168.477H320.736C320.493 168.477 320.295 168.414 320.143 168.288C319.99 168.162 319.914 167.99 319.914 167.773C319.914 167.756 319.899 167.742 319.882 167.742H319.816C319.78 167.742 319.747 167.762 319.729 167.793C319.675 167.886 319.601 167.991 319.507 168.109C319.396 168.249 319.233 168.372 319.018 168.477C318.803 168.575 318.518 168.624 318.165 168.624ZM318.321 167.731C318.751 167.731 319.098 167.609 319.362 167.364C319.626 167.111 319.757 166.768 319.757 166.334C319.757 166.276 319.71 166.229 319.652 166.229H318.258C317.974 166.229 317.745 166.292 317.571 166.418C317.398 166.537 317.311 166.716 317.311 166.954C317.311 167.192 317.401 167.381 317.581 167.521C317.762 167.661 318.008 167.731 318.321 167.731ZM322.208 165.914V165.757C322.208 165.21 322.316 164.745 322.531 164.36C322.753 163.974 323.045 163.677 323.406 163.467C323.766 163.257 324.162 163.152 324.592 163.152C325.092 163.152 325.474 163.246 325.738 163.435C325.986 163.609 326.174 163.795 326.299 163.992C326.32 164.024 326.354 164.044 326.392 164.044C326.45 164.044 326.498 163.997 326.498 163.939V163.672C326.498 163.466 326.665 163.299 326.87 163.299H327.018C327.306 163.299 327.539 163.532 327.539 163.819V169.538C327.539 169.853 327.445 170.105 327.258 170.294C327.077 170.483 326.827 170.578 326.508 170.578H323.524C323.263 170.578 323.052 170.366 323.052 170.105C323.052 169.844 323.263 169.632 323.524 169.632H326.175C326.376 169.632 326.477 169.527 326.477 169.317V167.775C326.477 167.716 326.429 167.668 326.37 167.668C326.333 167.668 326.299 167.688 326.278 167.719C326.205 167.829 326.108 167.941 325.987 168.057C325.849 168.19 325.665 168.298 325.436 168.382C325.214 168.466 324.932 168.508 324.592 168.508C324.162 168.508 323.763 168.407 323.395 168.204C323.034 167.994 322.746 167.696 322.531 167.311C322.316 166.919 322.208 166.453 322.208 165.914ZM324.884 167.563C325.349 167.563 325.731 167.416 326.029 167.122C326.335 166.821 326.487 166.408 326.487 165.883V165.788C326.487 165.249 326.338 164.836 326.039 164.549C325.741 164.255 325.356 164.107 324.884 164.107C324.426 164.107 324.044 164.255 323.739 164.549C323.44 164.836 323.291 165.249 323.291 165.788V165.883C323.291 166.408 323.44 166.821 323.739 167.122C324.044 167.416 324.426 167.563 324.884 167.563ZM331.471 168.624C330.95 168.624 330.495 168.515 330.107 168.298C329.718 168.074 329.413 167.763 329.191 167.364C328.975 166.957 328.868 166.488 328.868 165.956V165.83C328.868 165.291 328.975 164.822 329.191 164.423C329.406 164.016 329.704 163.705 330.086 163.488C330.475 163.264 330.922 163.152 331.429 163.152C331.922 163.152 332.352 163.264 332.72 163.488C333.095 163.705 333.386 164.009 333.594 164.402C333.803 164.794 333.907 165.252 333.907 165.778C333.907 166.004 333.723 166.187 333.497 166.187H331.173C330.51 166.187 329.93 166.82 330.409 167.28C330.7 167.546 331.061 167.679 331.491 167.679C331.894 167.679 332.196 167.588 332.397 167.406C332.469 167.343 332.536 167.276 332.596 167.206C332.78 166.994 333.084 166.884 333.333 167.014C333.571 167.138 333.666 167.431 333.505 167.646C333.453 167.715 333.396 167.786 333.334 167.857C333.154 168.074 332.914 168.256 332.616 168.403C332.317 168.55 331.936 168.624 331.471 168.624ZM330.429 164.444C330.013 164.806 330.465 165.357 331.017 165.357H331.782C332.339 165.357 332.818 164.809 332.397 164.444C332.147 164.22 331.821 164.107 331.418 164.107C331.016 164.107 330.686 164.22 330.429 164.444Z" fill="#A82C00"/>
</g>
<path fill-rule="evenodd" clip-rule="evenodd" d="M109.114 164.975C109.114 164.613 108.822 164.319 108.463 164.319H106.837C106.477 164.319 106.186 164.613 106.186 164.975C106.186 165.338 106.477 165.632 106.837 165.632C107.376 165.632 107.813 166.069 107.813 166.608V168.258C107.813 168.62 108.104 168.914 108.463 168.914C108.822 168.914 109.114 168.62 109.114 168.258V164.975ZM105.861 159.724H111.066C112.504 159.724 113.669 160.899 113.669 162.349V167.601C113.669 169.051 112.504 170.227 111.066 170.227H105.861C104.423 170.227 103.258 169.051 103.258 167.601V162.349C103.258 160.899 104.423 159.724 105.861 159.724ZM108.463 163.334C109.002 163.334 109.439 162.893 109.439 162.349C109.439 161.806 109.002 161.365 108.463 161.365C107.925 161.365 107.487 161.806 107.487 162.349C107.487 162.893 107.925 163.334 108.463 163.334Z" fill="#8792A2"/>
<path d="M124.69 169.523C123.646 169.523 122.816 169.229 122.2 168.641C121.585 168.045 121.277 167.187 121.277 166.068V164.058C121.277 162.939 121.585 162.085 122.2 161.497C122.816 160.901 123.646 160.603 124.69 160.603C125.735 160.603 126.565 160.901 127.18 161.497C127.804 162.085 128.116 162.939 128.116 164.058V166.068C128.116 167.187 127.804 168.045 127.18 168.641C126.565 169.229 125.735 169.523 124.69 169.523ZM124.69 168.335C125.363 168.335 125.881 168.139 126.245 167.747C126.609 167.346 126.792 166.803 126.792 166.117V164.009C126.792 163.323 126.609 162.784 126.245 162.392C125.881 161.991 125.363 161.791 124.69 161.791C124.034 161.791 123.52 161.991 123.148 162.392C122.776 162.784 122.589 163.323 122.589 164.009V166.117C122.589 166.803 122.776 167.346 123.148 167.747C123.52 168.139 124.034 168.335 124.69 168.335ZM130.197 171.803C129.851 171.803 129.571 171.523 129.571 171.177V163.924C129.571 163.585 129.846 163.311 130.185 163.311H130.363C130.603 163.311 130.798 163.505 130.798 163.746V164.058C130.798 164.126 130.853 164.181 130.921 164.181C130.965 164.181 131.006 164.157 131.029 164.119C131.182 163.874 131.4 163.654 131.685 163.458C132.001 163.245 132.45 163.139 133.033 163.139C133.535 163.139 133.993 163.262 134.406 163.507C134.826 163.752 135.163 164.107 135.414 164.573C135.673 165.03 135.802 165.586 135.802 166.239V166.423C135.802 167.077 135.677 167.636 135.426 168.102C135.175 168.56 134.838 168.911 134.418 169.156C133.997 169.401 133.535 169.523 133.033 169.523C132.644 169.523 132.316 169.474 132.049 169.376C131.782 169.278 131.568 169.156 131.405 169.009C131.263 168.873 131.146 168.733 131.054 168.591C131.03 168.554 130.99 168.531 130.946 168.531C130.878 168.531 130.822 168.586 130.822 168.655V171.177C130.822 171.523 130.542 171.803 130.197 171.803ZM132.669 168.421C133.22 168.421 133.669 168.245 134.017 167.894C134.365 167.542 134.539 167.04 134.539 166.386V166.276C134.539 165.631 134.361 165.132 134.005 164.781C133.657 164.43 133.211 164.254 132.669 164.254C132.134 164.254 131.689 164.43 131.333 164.781C130.985 165.132 130.81 165.631 130.81 166.276V166.386C130.81 167.04 130.985 167.542 131.333 167.894C131.689 168.245 132.134 168.421 132.669 168.421ZM139.964 169.523C139.357 169.523 138.826 169.397 138.373 169.144C137.919 168.882 137.563 168.519 137.304 168.053C137.053 167.579 136.928 167.032 136.928 166.411V166.264C136.928 165.635 137.053 165.088 137.304 164.622C137.555 164.148 137.903 163.784 138.349 163.531C138.802 163.27 139.324 163.139 139.916 163.139C140.49 163.139 140.992 163.27 141.422 163.531C141.859 163.784 142.199 164.14 142.442 164.597C142.685 165.055 142.806 165.59 142.806 166.203C142.806 166.467 142.592 166.681 142.328 166.681H139.617C138.843 166.681 138.166 167.419 138.725 167.955C139.065 168.265 139.486 168.421 139.988 168.421C140.458 168.421 140.81 168.314 141.045 168.102C141.129 168.028 141.207 167.951 141.278 167.869C141.492 167.621 141.846 167.493 142.136 167.645C142.414 167.79 142.525 168.132 142.337 168.383C142.276 168.464 142.21 168.546 142.138 168.629C141.927 168.882 141.648 169.095 141.3 169.266C140.951 169.438 140.506 169.523 139.964 169.523ZM138.75 164.646C138.263 165.069 138.79 165.712 139.435 165.712H140.327C140.978 165.712 141.536 165.073 141.045 164.646C140.754 164.385 140.373 164.254 139.903 164.254C139.433 164.254 139.049 164.385 138.75 164.646ZM144.803 169.352C144.458 169.352 144.178 169.072 144.178 168.726V163.924C144.178 163.585 144.453 163.311 144.791 163.311H144.951C145.202 163.311 145.405 163.514 145.405 163.764V164.099C145.405 164.164 145.458 164.217 145.523 164.217C145.57 164.217 145.611 164.19 145.633 164.15C145.751 163.93 145.942 163.724 146.206 163.531C146.498 163.319 146.932 163.213 147.506 163.213C147.96 163.213 148.361 163.315 148.708 163.519C149.065 163.723 149.344 164.013 149.547 164.389C149.75 164.757 149.85 165.202 149.85 165.725V168.726C149.85 169.072 149.57 169.352 149.225 169.352C148.879 169.352 148.599 169.072 148.599 168.726V165.823C148.599 165.3 148.47 164.916 148.21 164.671C147.952 164.418 147.595 164.291 147.142 164.291C146.624 164.291 146.206 164.463 145.891 164.806C145.583 165.149 145.429 165.647 145.429 166.301V168.726C145.429 169.072 145.149 169.352 144.803 169.352ZM154.263 169.523C153.655 169.523 153.124 169.397 152.672 169.144C152.218 168.882 151.861 168.519 151.603 168.053C151.351 167.579 151.226 167.032 151.226 166.411V166.264C151.226 165.635 151.351 165.088 151.603 164.622C151.853 164.148 152.201 163.784 152.647 163.531C153.1 163.27 153.622 163.139 154.214 163.139C154.788 163.139 155.291 163.27 155.72 163.531C156.157 163.784 156.498 164.14 156.741 164.597C156.983 165.055 157.105 165.59 157.105 166.203C157.105 166.467 156.891 166.681 156.627 166.681H153.916C153.142 166.681 152.465 167.419 153.024 167.955C153.364 168.265 153.785 168.421 154.287 168.421C154.756 168.421 155.109 168.314 155.344 168.102C155.428 168.028 155.506 167.951 155.576 167.869C155.79 167.621 156.145 167.493 156.435 167.645C156.713 167.79 156.823 168.132 156.636 168.383C156.575 168.464 156.509 168.546 156.437 168.629C156.226 168.882 155.947 169.095 155.599 169.266C155.25 169.438 154.805 169.523 154.263 169.523ZM153.048 164.646C152.562 165.069 153.089 165.712 153.733 165.712H154.626C155.276 165.712 155.835 165.073 155.344 164.646C155.052 164.385 154.671 164.254 154.202 164.254C153.732 164.254 153.347 164.385 153.048 164.646ZM160.955 169.523C160.461 169.523 160.003 169.401 159.583 169.156C159.161 168.911 158.821 168.56 158.562 168.102C158.311 167.636 158.186 167.077 158.186 166.423V166.239C158.186 165.594 158.311 165.039 158.562 164.573C158.813 164.107 159.149 163.752 159.571 163.507C159.991 163.262 160.453 163.139 160.955 163.139C161.344 163.139 161.668 163.188 161.927 163.286C162.194 163.384 162.413 163.511 162.583 163.666C162.731 163.794 162.848 163.929 162.935 164.069C162.959 164.107 162.999 164.132 163.044 164.132C163.111 164.132 163.166 164.077 163.166 164.01V161.4C163.166 161.054 163.446 160.774 163.791 160.774C164.137 160.774 164.417 161.054 164.417 161.4V168.739C164.417 169.077 164.142 169.352 163.803 169.352H163.619C163.382 169.352 163.19 169.16 163.19 168.923V168.618C163.19 168.55 163.135 168.494 163.066 168.494C163.023 168.494 162.982 168.517 162.959 168.554C162.805 168.792 162.583 169.009 162.291 169.205C161.983 169.417 161.538 169.523 160.955 169.523ZM161.307 168.421C161.85 168.421 162.295 168.245 162.644 167.894C162.999 167.542 163.178 167.04 163.178 166.386V166.276C163.178 165.631 163.004 165.132 162.656 164.781C162.307 164.43 161.857 164.254 161.307 164.254C160.773 164.254 160.327 164.43 159.971 164.781C159.623 165.132 159.449 165.631 159.449 166.276V166.386C159.449 167.04 159.623 167.542 159.971 167.894C160.327 168.245 160.773 168.421 161.307 168.421Z" fill="#687385"/>
</g>
<defs>
<filter id="filter0_d_4_27268" x="0" y="0.973145" width="602" height="289.364" filterUnits="userSpaceOnUse" color-interpolation-filters="sRGB">
<feFlood flood-opacity="0" result="BackgroundImageFix"/>
<feColorMatrix in="SourceAlpha" type="matrix" values="0 0 0 0 0 0 0 0 0 0 0 0 0 0 0 0 0 0 127 0" result="hardAlpha"/>
<feOffset dy="-14"/>
<feGaussianBlur stdDeviation="42"/>
<feComposite in2="hardAlpha" operator="out"/>
<feColorMatrix type="matrix" values="0 0 0 0 0.0726563 0 0 0 0 0.155811 0 0 0 0 0.645833 0 0 0 0.16 0"/>
<feBlend mode="normal" in2="BackgroundImageFix" result="effect1_dropShadow_4_27268"/>
<feBlend mode="normal" in="SourceGraphic" in2="effect1_dropShadow_4_27268" result="shape"/>
</filter>
<filter id="filter1_d_4_27268" x="69" y="97.9731" width="464" height="151.364" filterUnits="userSpaceOnUse" color-interpolation-filters="sRGB">
<feFlood flood-opacity="0" result="BackgroundImageFix"/>
<feColorMatrix in="SourceAlpha" type="matrix" values="0 0 0 0 0 0 0 0 0 0 0 0 0 0 0 0 0 0 127 0" result="hardAlpha"/>
<feOffset dy="14"/>
<feGaussianBlur stdDeviation="7.5"/>
<feComposite in2="hardAlpha" operator="out"/>
<feColorMatrix type="matrix" values="0 0 0 0 0 0 0 0 0 0 0 0 0 0 0 0 0 0 0.03 0"/>
<feBlend mode="normal" in2="BackgroundImageFix" result="effect1_dropShadow_4_27268"/>
<feBlend mode="normal" in="SourceGraphic" in2="effect1_dropShadow_4_27268" result="shape"/>
</filter>
</defs>
</svg>
