<svg width="60" height="60" viewBox="0 0 60 60" fill="none" xmlns="http://www.w3.org/2000/svg">
<g filter="url(#filter0_d_85_134)">
<path d="M2 29C2 13.536 14.536 1 30 1C45.464 1 58 13.536 58 29C58 44.464 45.464 57 30 57C14.536 57 2 44.464 2 29Z" fill="#2440E5" shape-rendering="crispEdges"/>
<g filter="url(#filter1_d_85_134)">
<path fill-rule="evenodd" clip-rule="evenodd" d="M18 21.2667C18 19.7732 18 19.0265 18.2906 18.456C18.5463 17.9543 18.9543 17.5463 19.456 17.2906C20.0265 17 20.7732 17 22.2667 17H37.7333C39.2268 17 39.9735 17 40.544 17.2906C41.0457 17.5463 41.4537 17.9543 41.7094 18.456C42 19.0265 42 19.7732 42 21.2667V32.7333C42 34.2268 42 34.9735 41.7094 35.544C41.4537 36.0457 41.0457 36.4537 40.544 36.7094C39.9735 37 39.2268 37 37.7333 37H31.8855L34.9428 40.0573C35.4635 40.578 35.4635 41.4222 34.9428 41.9429C34.4221 42.4636 33.5779 42.4636 33.0572 41.9429L30 38.8857L26.9428 41.9429C26.4221 42.4636 25.5779 42.4636 25.0572 41.9429C24.5365 41.4222 24.5365 40.578 25.0572 40.0573L28.1145 37H22.2667C20.7732 37 20.0265 37 19.456 36.7094C18.9543 36.4537 18.5463 36.0457 18.2906 35.544C18 34.9735 18 34.2268 18 32.7333V21.2667ZM36.1311 22.5984C36.7211 23.0389 36.8423 23.8744 36.4017 24.4645L32.9148 29.1344C32.4807 29.7159 31.6866 29.8924 31.047 29.5498L28.4969 28.1837L25.6414 31.2432C25.139 31.7815 24.2952 31.8106 23.7569 31.3082C23.2186 30.8057 23.1895 29.962 23.6919 29.4237L27.1775 25.6891C27.6314 25.2028 28.3559 25.0829 28.9423 25.397L31.3959 26.7115L34.265 22.869C34.7055 22.279 35.541 22.1578 36.1311 22.5984Z" fill="white"/>
</g>
</g>
<defs>
<filter id="filter0_d_85_134" x="0" y="0" width="60" height="60" filterUnits="userSpaceOnUse" color-interpolation-filters="sRGB">
<feFlood flood-opacity="0" result="BackgroundImageFix"/>
<feColorMatrix in="SourceAlpha" type="matrix" values="0 0 0 0 0 0 0 0 0 0 0 0 0 0 0 0 0 0 127 0" result="hardAlpha"/>
<feOffset dy="1"/>
<feGaussianBlur stdDeviation="1"/>
<feComposite in2="hardAlpha" operator="out"/>
<feColorMatrix type="matrix" values="0 0 0 0 0.0627451 0 0 0 0 0.0941176 0 0 0 0 0.156863 0 0 0 0.04 0"/>
<feBlend mode="normal" in2="BackgroundImageFix" result="effect1_dropShadow_85_134"/>
<feBlend mode="normal" in="SourceGraphic" in2="effect1_dropShadow_85_134" result="shape"/>
</filter>
<filter id="filter1_d_85_134" x="16" y="16" width="28" height="29.3335" filterUnits="userSpaceOnUse" color-interpolation-filters="sRGB">
<feFlood flood-opacity="0" result="BackgroundImageFix"/>
<feColorMatrix in="SourceAlpha" type="matrix" values="0 0 0 0 0 0 0 0 0 0 0 0 0 0 0 0 0 0 127 0" result="hardAlpha"/>
<feOffset dy="1"/>
<feGaussianBlur stdDeviation="1"/>
<feComposite in2="hardAlpha" operator="out"/>
<feColorMatrix type="matrix" values="0 0 0 0 0.0627451 0 0 0 0 0.0941176 0 0 0 0 0.156863 0 0 0 0.04 0"/>
<feBlend mode="normal" in2="BackgroundImageFix" result="effect1_dropShadow_85_134"/>
<feBlend mode="normal" in="SourceGraphic" in2="effect1_dropShadow_85_134" result="shape"/>
</filter>
</defs>
</svg>
