<svg width="18" height="18" viewBox="0 0 18 18" fill="none" xmlns="http://www.w3.org/2000/svg">
<path d="M16.7372 3.23314L8.91099 12.0376C8.7798 12.1852 8.59143 12.2499 8.41025 12.2298C8.68841 13.5374 8.31965 14.955 7.30397 15.9707C5.96877 17.3059 3.6184 17.2436 1.51924 17.188C1.11135 17.1772 0.712943 17.1667 0.333313 17.1667C0.893963 16.0728 0.84134 14.8231 0.791512 13.6397C0.735049 12.2988 0.682175 11.0431 1.52926 10.196C2.54495 9.18028 3.96259 8.81152 5.27015 9.08969C5.25008 8.90851 5.31479 8.72016 5.46237 8.58897L14.2668 0.762794C14.9593 0.147268 16.0115 0.178189 16.6666 0.833316C17.3218 1.48844 17.3527 2.54068 16.7372 3.23314Z" fill="#0A77FF"/>
</svg>
