<svg width="22" height="26" viewBox="0 0 22 26" fill="none" xmlns="http://www.w3.org/2000/svg">
<path d="M1 13C1 7.47715 5.47715 3 11 3C16.5228 3 21 7.47715 21 13C21 18.5228 16.5228 23 11 23C5.47715 23 1 18.5228 1 13Z" fill="white"/>
<path d="M15.6666 10.083L9.66246 16.0872C9.43465 16.315 9.06531 16.315 8.8375 16.0872L6.33331 13.583" stroke="#0A77FF" stroke-width="2" stroke-linecap="round"/>
<path d="M1 13C1 7.47715 5.47715 3 11 3C16.5228 3 21 7.47715 21 13C21 18.5228 16.5228 23 11 23C5.47715 23 1 18.5228 1 13Z" stroke="#0E69E2" stroke-width="2"/>
</svg>
