<svg width="25" height="24" viewBox="0 0 25 24" fill="none" xmlns="http://www.w3.org/2000/svg">
<path d="M12.33 2V22M22.33 12H2.32996M9.60269 22H15.0573C17.603 22 18.8758 22 19.8481 21.5046C20.7034 21.0688 21.3988 20.3734 21.8346 19.5181C22.33 18.5458 22.33 17.273 22.33 14.7273V9.27273C22.33 6.72703 22.33 5.45419 21.8346 4.48186C21.3988 3.62658 20.7034 2.93121 19.8481 2.49542C18.8758 2 17.603 2 15.0573 2H9.60269C7.05699 2 5.78415 2 4.81182 2.49542C3.95654 2.93121 3.26117 3.62658 2.82538 4.48186C2.32996 5.45419 2.32996 6.72703 2.32996 9.27273V14.7273C2.32996 17.273 2.32996 18.5458 2.82538 19.5181C3.26117 20.3734 3.95654 21.0688 4.81182 21.5046C5.78415 22 7.05699 22 9.60269 22Z" stroke="#0A77FF" stroke-width="2" stroke-linecap="round"/>
</svg>
