<svg width="24" height="28" viewBox="0 0 24 28" fill="none" xmlns="http://www.w3.org/2000/svg">
<path d="M12.284 7.18055C11.7317 7.18055 11.284 7.62827 11.284 8.18055C11.284 8.73284 11.7317 9.18055 12.284 9.18055V7.18055ZM12.6249 9.18055C13.1772 9.18055 13.6249 8.73284 13.6249 8.18055C13.6249 7.62827 13.1772 7.18055 12.6249 7.18055V9.18055ZM12.284 7.52146C11.7317 7.52146 11.284 7.96918 11.284 8.52146C11.284 9.07375 11.7317 9.52146 12.284 9.52146V7.52146ZM12.6249 9.52146C13.1772 9.52146 13.6249 9.07375 13.6249 8.52146C13.6249 7.96918 13.1772 7.52146 12.6249 7.52146V9.52146ZM5.92034 13.5442C5.36806 13.5442 4.92034 13.9919 4.92034 14.5442C4.92034 15.0965 5.36806 15.5442 5.92034 15.5442V13.5442ZM6.26125 15.5442C6.81354 15.5442 7.26125 15.0965 7.26125 14.5442C7.26125 13.9919 6.81354 13.5442 6.26125 13.5442V15.5442ZM5.92034 13.8851C5.36806 13.8851 4.92034 14.3328 4.92034 14.8851C4.92034 15.4374 5.36806 15.8851 5.92034 15.8851V13.8851ZM6.26125 15.8851C6.81354 15.8851 7.26125 15.4374 7.26125 14.8851C7.26125 14.3328 6.81354 13.8851 6.26125 13.8851V15.8851ZM8.64762 17.1806C8.09533 17.1806 7.64762 17.6283 7.64762 18.1806C7.64762 18.7328 8.09533 19.1806 8.64762 19.1806V17.1806ZM8.98853 19.1806C9.54081 19.1806 9.98853 18.7328 9.98853 18.1806C9.98853 17.6283 9.54081 17.1806 8.98853 17.1806V19.1806ZM8.64762 17.5215C8.09533 17.5215 7.64762 17.9692 7.64762 18.5215C7.64762 19.0738 8.09533 19.5215 8.64762 19.5215V17.5215ZM8.98853 19.5215C9.54081 19.5215 9.98853 19.0738 9.98853 18.5215C9.98853 17.9692 9.54081 17.5215 8.98853 17.5215V19.5215ZM15.9203 9.90783C15.3681 9.90783 14.9203 10.3555 14.9203 10.9078C14.9203 11.4601 15.3681 11.9078 15.9203 11.9078V9.90783ZM16.2613 11.9078C16.8135 11.9078 17.2613 11.4601 17.2613 10.9078C17.2613 10.3555 16.8135 9.90783 16.2613 9.90783V11.9078ZM15.9203 10.2487C15.3681 10.2487 14.9203 10.6965 14.9203 11.2487C14.9203 11.801 15.3681 12.2487 15.9203 12.2487V10.2487ZM16.2613 12.2487C16.8135 12.2487 17.2613 11.801 17.2613 11.2487C17.2613 10.6965 16.8135 10.2487 16.2613 10.2487V12.2487ZM7.73853 8.99874C7.18624 8.99874 6.73853 9.44645 6.73853 9.99874C6.73853 10.551 7.18624 10.9987 7.73853 10.9987V8.99874ZM8.07943 10.9987C8.63172 10.9987 9.07943 10.551 9.07943 9.99874C9.07943 9.44645 8.63172 8.99874 8.07943 8.99874V10.9987ZM7.73853 9.33964C7.18624 9.33964 6.73853 9.78736 6.73853 10.3396C6.73853 10.8919 7.18624 11.3397 7.73853 11.3397V9.33964ZM8.07943 11.3397C8.63172 11.3397 9.07943 10.8919 9.07943 10.3396C9.07943 9.78736 8.63172 9.33964 8.07943 9.33964V11.3397ZM11.9091 8.35104C11.9091 8.04979 12.1533 7.80558 12.4545 7.80558V9.80558C13.2579 9.80558 13.9091 9.15436 13.9091 8.35104H11.9091ZM12.4545 7.80558C12.7558 7.80558 13 8.04979 13 8.35104H11C11 9.15436 11.6512 9.80558 12.4545 9.80558V7.80558ZM13 8.35104C13 8.65228 12.7558 8.89649 12.4545 8.89649V6.89649C11.6512 6.89649 11 7.54771 11 8.35104H13ZM12.4545 8.89649C12.1533 8.89649 11.9091 8.65228 11.9091 8.35104H13.9091C13.9091 7.54771 13.2579 6.89649 12.4545 6.89649V8.89649ZM12.284 9.18055H12.6249V7.18055H12.284V9.18055ZM12.284 9.52146H12.6249V7.52146H12.284V9.52146ZM5.54545 14.7147C5.54545 14.4134 5.78966 14.1692 6.09091 14.1692V16.1692C6.89423 16.1692 7.54545 15.518 7.54545 14.7147H5.54545ZM6.09091 14.1692C6.39216 14.1692 6.63636 14.4134 6.63636 14.7147H4.63636C4.63636 15.518 5.28759 16.1692 6.09091 16.1692V14.1692ZM6.63636 14.7147C6.63636 15.0159 6.39216 15.2601 6.09091 15.2601V13.2601C5.28759 13.2601 4.63636 13.9114 4.63636 14.7147H6.63636ZM6.09091 15.2601C5.78966 15.2601 5.54545 15.0159 5.54545 14.7147H7.54545C7.54545 13.9114 6.89423 13.2601 6.09091 13.2601V15.2601ZM5.92034 15.5442H6.26125V13.5442H5.92034V15.5442ZM5.92034 15.8851H6.26125V13.8851H5.92034V15.8851ZM8.27273 18.351C8.27273 18.0498 8.51694 17.8056 8.81818 17.8056V19.8056C9.62151 19.8056 10.2727 19.1544 10.2727 18.351H8.27273ZM8.81818 17.8056C9.11943 17.8056 9.36364 18.0498 9.36364 18.351H7.36364C7.36364 19.1544 8.01486 19.8056 8.81818 19.8056V17.8056ZM9.36364 18.351C9.36364 18.6523 9.11943 18.8965 8.81818 18.8965V16.8965C8.01486 16.8965 7.36364 17.5477 7.36364 18.351H9.36364ZM8.81818 18.8965C8.51694 18.8965 8.27273 18.6523 8.27273 18.351H10.2727C10.2727 17.5477 9.62151 16.8965 8.81818 16.8965V18.8965ZM8.64762 19.1806H8.98853V17.1806H8.64762V19.1806ZM8.64762 19.5215H8.98853V17.5215H8.64762V19.5215ZM15.5455 11.0783C15.5455 10.7771 15.7897 10.5329 16.0909 10.5329V12.5329C16.8942 12.5329 17.5455 11.8816 17.5455 11.0783H15.5455ZM16.0909 10.5329C16.3922 10.5329 16.6364 10.7771 16.6364 11.0783H14.6364C14.6364 11.8816 15.2876 12.5329 16.0909 12.5329V10.5329ZM16.6364 11.0783C16.6364 11.3796 16.3922 11.6238 16.0909 11.6238V9.62376C15.2876 9.62376 14.6364 10.275 14.6364 11.0783H16.6364ZM16.0909 11.6238C15.7897 11.6238 15.5455 11.3796 15.5455 11.0783H17.5455C17.5455 10.275 16.8942 9.62376 16.0909 9.62376V11.6238ZM15.9203 11.9078H16.2613V9.90783H15.9203V11.9078ZM15.9203 12.2487H16.2613V10.2487H15.9203V12.2487ZM7.36364 10.1692C7.36364 9.86797 7.60784 9.62376 7.90909 9.62376V11.6238C8.71241 11.6238 9.36364 10.9726 9.36364 10.1692H7.36364ZM7.90909 9.62376C8.21034 9.62376 8.45455 9.86797 8.45455 10.1692H6.45455C6.45455 10.9726 7.10577 11.6238 7.90909 11.6238V9.62376ZM8.45455 10.1692C8.45455 10.4705 8.21034 10.7147 7.90909 10.7147V8.71467C7.10577 8.71467 6.45455 9.36589 6.45455 10.1692H8.45455ZM7.90909 10.7147C7.60784 10.7147 7.36364 10.4705 7.36364 10.1692H9.36364C9.36364 9.36589 8.71241 8.71467 7.90909 8.71467V10.7147ZM7.73853 10.9987H8.07943V8.99874H7.73853V10.9987ZM7.73853 11.3397H8.07943V9.33964H7.73853V11.3397ZM12 23.2601C7.02944 23.2601 3 19.2307 3 14.2601H1C1 20.3353 5.92487 25.2601 12 25.2601V23.2601ZM3 14.2601C3 9.28956 7.02944 5.26013 12 5.26013V3.26013C5.92487 3.26013 1 8.18499 1 14.2601H3ZM12 5.26013C16.9706 5.26013 21 9.28956 21 14.2601H23C23 8.18499 18.0751 3.26013 12 3.26013V5.26013ZM14.8182 20.1692C14.8182 18.4622 16.202 17.0783 17.9091 17.0783V15.0783C15.0975 15.0783 12.8182 17.3576 12.8182 20.1692H14.8182ZM17.9091 17.0783C18.2307 17.0783 18.5391 17.1271 18.8282 17.217L19.4219 15.3071C18.9428 15.1582 18.4343 15.0783 17.9091 15.0783V17.0783ZM21 14.2601C21 14.545 20.9868 14.8265 20.961 15.1041L22.9524 15.2891C22.9839 14.9501 23 14.6068 23 14.2601H21ZM12.844 23.2212C12.5664 23.2469 12.2849 23.2601 12 23.2601V25.2601C12.3467 25.2601 12.6899 25.2441 13.0289 25.2126L12.844 23.2212ZM14.9569 21.0883C14.867 20.7992 14.8182 20.4909 14.8182 20.1692H12.8182C12.8182 20.6945 12.8981 21.2029 13.047 21.6821L14.9569 21.0883ZM13.0289 25.2126C13.3526 25.1825 13.6552 25.1552 13.8994 25.1127C14.1407 25.0706 14.4582 24.9944 14.7458 24.7863L13.5732 23.1661C13.6593 23.1038 13.7059 23.1163 13.5563 23.1423C13.4096 23.1679 13.2014 23.188 12.844 23.2212L13.0289 25.2126ZM13.047 21.6821C13.239 22.2997 13.3721 22.7286 13.4521 23.0348C13.4919 23.1873 13.511 23.2813 13.5187 23.3355C13.529 23.4083 13.5087 23.3426 13.538 23.2188L15.4842 23.6796C15.5421 23.4349 15.5198 23.2026 15.499 23.0555C15.4755 22.8898 15.4345 22.7107 15.3871 22.5292C15.2926 22.1676 15.1425 21.6855 14.9569 21.0883L13.047 21.6821ZM14.7458 24.7863C14.895 24.6783 15.0768 24.5297 15.2255 24.3067C15.3743 24.0838 15.4418 23.8588 15.4842 23.6796L13.538 23.2188C13.5285 23.2591 13.5242 23.2689 13.5266 23.2626C13.5281 23.2585 13.5318 23.2497 13.5379 23.2375C13.5442 23.2251 13.5521 23.2112 13.5618 23.1967C13.5716 23.1821 13.5813 23.1694 13.5904 23.1589C13.5992 23.1485 13.606 23.1418 13.6092 23.1388C13.6141 23.1342 13.6067 23.1418 13.5732 23.1661L14.7458 24.7863ZM18.8282 17.217C19.4253 17.4026 19.9075 17.5528 20.2691 17.6473C20.4505 17.6947 20.6297 17.7357 20.7953 17.7591C20.9425 17.7799 21.1748 17.8023 21.4195 17.7443L20.9587 15.7981C21.0824 15.7689 21.1481 15.7891 21.0754 15.7788C21.0211 15.7711 20.9272 15.7521 20.7747 15.7122C20.4684 15.6322 20.0395 15.4991 19.4219 15.3071L18.8282 17.217ZM20.961 15.1041C20.9278 15.4615 20.9077 15.6697 20.8822 15.8164C20.8561 15.966 20.8436 15.9195 20.906 15.8333L22.5262 17.0059C22.7343 16.7184 22.8105 16.4008 22.8525 16.1595C22.895 15.9154 22.9224 15.6127 22.9524 15.2891L20.961 15.1041ZM21.4195 17.7443C21.5987 17.7019 21.8236 17.6344 22.0466 17.4857C22.2695 17.3369 22.4182 17.1551 22.5262 17.0059L20.906 15.8333C20.8817 15.8669 20.874 15.8742 20.8786 15.8693C20.8817 15.8662 20.8884 15.8594 20.8987 15.8505C20.9093 15.8415 20.922 15.8317 20.9365 15.822C20.9511 15.8123 20.965 15.8043 20.9774 15.7981C20.9895 15.7919 20.9984 15.7883 21.0025 15.7867C21.0087 15.7843 20.999 15.7886 20.9587 15.7981L21.4195 17.7443Z" fill="#0A77FF"/>
</svg>
