<svg width="52" height="52" viewBox="0 0 52 52" fill="none" xmlns="http://www.w3.org/2000/svg">
<g filter="url(#filter0_d_262_36090)">
<path d="M2 10.6C2 7.23968 2 5.55953 2.65396 4.27606C3.2292 3.14708 4.14708 2.2292 5.27606 1.65396C6.55953 1 8.23968 1 11.6 1H40.4C43.7603 1 45.4405 1 46.7239 1.65396C47.8529 2.2292 48.7708 3.14708 49.346 4.27606C50 5.55953 50 7.23968 50 10.6V39.4C50 42.7603 50 44.4405 49.346 45.7239C48.7708 46.8529 47.8529 47.7708 46.7239 48.346C45.4405 49 43.7603 49 40.4 49H11.6C8.23968 49 6.55953 49 5.27606 48.346C4.14708 47.7708 3.2292 46.8529 2.65396 45.7239C2 44.4405 2 42.7603 2 39.4V10.6Z" fill="#F4F5FE" shape-rendering="crispEdges"/>
</g>
<path fill-rule="evenodd" clip-rule="evenodd" d="M21.6422 16.6949L17.5594 22.219C15.8464 24.5366 14.9899 25.6954 15.4618 26.6065C15.4696 26.6217 15.4777 26.6366 15.486 26.6514C15.9859 27.5488 17.4652 27.5488 20.4236 27.5488C22.0677 27.5488 22.8897 27.5488 23.4053 28.0337L23.432 28.0593L28.5946 21.9661L28.568 21.9404C28.0632 21.445 28.0632 20.6552 28.0632 19.0756V18.6627C28.0632 14.2832 28.0632 12.0934 26.8321 11.7161C25.6009 11.3388 24.2813 13.1242 21.6422 16.6949Z" fill="#2440E5"/>
<path opacity="0.5" d="M23.9369 30.9244V31.3372C23.9369 35.7167 23.9369 37.9066 25.168 38.2838C26.3992 38.6611 27.7188 36.8758 30.358 33.305L34.4408 27.781C36.1539 25.4634 37.0102 24.3046 36.5384 23.3934C36.5305 23.3783 36.5225 23.3634 36.5143 23.3486C36.0143 22.4512 34.5351 22.4512 31.5765 22.4512C29.9325 22.4512 29.1105 22.4512 28.5949 21.9663L23.4323 28.0596C23.9371 28.555 23.9369 29.3448 23.9369 30.9244Z" fill="#2440E5"/>
<defs>
<filter id="filter0_d_262_36090" x="0" y="0" width="52" height="52" filterUnits="userSpaceOnUse" color-interpolation-filters="sRGB">
<feFlood flood-opacity="0" result="BackgroundImageFix"/>
<feColorMatrix in="SourceAlpha" type="matrix" values="0 0 0 0 0 0 0 0 0 0 0 0 0 0 0 0 0 0 127 0" result="hardAlpha"/>
<feOffset dy="1"/>
<feGaussianBlur stdDeviation="1"/>
<feComposite in2="hardAlpha" operator="out"/>
<feColorMatrix type="matrix" values="0 0 0 0 0.0627451 0 0 0 0 0.0941176 0 0 0 0 0.156863 0 0 0 0.04 0"/>
<feBlend mode="normal" in2="BackgroundImageFix" result="effect1_dropShadow_262_36090"/>
<feBlend mode="normal" in="SourceGraphic" in2="effect1_dropShadow_262_36090" result="shape"/>
</filter>
</defs>
</svg>
