<svg width="30" height="33" viewBox="0 0 30 33" fill="none" xmlns="http://www.w3.org/2000/svg">
<g filter="url(#filter0_d_193_115553)">
<path d="M19 6.57178C19 8.78092 17.2091 10.5718 15 10.5718C13.8583 10.5718 12.8284 10.0935 12.0996 9.32632C11.9759 9.5069 11.8059 9.65949 11.5963 9.76431L7.23695 11.944C6.27458 12.4252 5.66667 13.4088 5.66667 14.4847C5.66667 16.5964 7.88895 17.9699 9.77771 17.0255L19.0297 12.3995C22.6916 10.5686 27 13.2314 27 17.3254C27 19.4114 25.8214 21.3184 23.9556 22.2513L19.5963 24.431C19.3868 24.5357 19.163 24.5801 18.9445 24.5708C18.981 24.7879 19 25.011 19 25.2384C19 27.4476 17.2091 29.2384 15 29.2384C12.7909 29.2384 11 27.4476 11 25.2384C11 23.0293 12.7909 21.2384 15 21.2384C16.1417 21.2384 17.1716 21.7167 17.9004 22.4839C18.0241 22.3033 18.1941 22.1507 18.4037 22.0458L22.7631 19.8662C23.7254 19.385 24.3333 18.4014 24.3333 17.3254C24.3333 15.2137 22.111 13.8403 20.2223 14.7846L10.9703 19.4107C7.30845 21.2416 3 18.5788 3 14.4847C3 12.3987 4.17858 10.4917 6.04438 9.55884L10.4037 7.37917C10.6132 7.27445 10.837 7.23003 11.0555 7.23932C11.019 7.02224 11 6.79922 11 6.57178C11 4.36264 12.7909 2.57178 15 2.57178C17.2091 2.57178 19 4.36264 19 6.57178Z" stroke="#2440E5" stroke-width="1.5" stroke-linecap="round" shape-rendering="crispEdges"/>
</g>
<defs>
<filter id="filter0_d_193_115553" x="0.25" y="0.821777" width="29.5" height="32.1665" filterUnits="userSpaceOnUse" color-interpolation-filters="sRGB">
<feFlood flood-opacity="0" result="BackgroundImageFix"/>
<feColorMatrix in="SourceAlpha" type="matrix" values="0 0 0 0 0 0 0 0 0 0 0 0 0 0 0 0 0 0 127 0" result="hardAlpha"/>
<feOffset dy="1"/>
<feGaussianBlur stdDeviation="1"/>
<feComposite in2="hardAlpha" operator="out"/>
<feColorMatrix type="matrix" values="0 0 0 0 0.0627451 0 0 0 0 0.0941176 0 0 0 0 0.156863 0 0 0 0.04 0"/>
<feBlend mode="normal" in2="BackgroundImageFix" result="effect1_dropShadow_193_115553"/>
<feBlend mode="normal" in="SourceGraphic" in2="effect1_dropShadow_193_115553" result="shape"/>
</filter>
</defs>
</svg>
