<svg width="30" height="31" viewBox="0 0 30 31" fill="none" xmlns="http://www.w3.org/2000/svg">
<g clip-path="url(#clip0_192_115527)">
<path d="M2.8125 10.2798L15 17.7798L27.1875 10.2798" stroke="#2440E5" stroke-width="2" stroke-miterlimit="10" stroke-linecap="round" stroke-linejoin="round"/>
<path d="M6.5625 12.6235V3.71729C6.5625 2.68604 7.40625 1.84229 8.4375 1.84229H21.5625C22.5938 1.84229 23.4375 2.68604 23.4375 3.71729V12.6235" stroke="#2440E5" stroke-width="2" stroke-miterlimit="10" stroke-linecap="round" stroke-linejoin="round"/>
<path d="M23.4375 5.59229C25.5 5.59229 27.1875 7.27979 27.1875 9.34229V22.4673C27.1875 24.5298 25.5 26.2173 23.4375 26.2173H6.5625C4.5 26.2173 2.8125 24.5298 2.8125 22.4673V9.34229C2.8125 7.27979 4.5 5.59229 6.5625 5.59229" stroke="#2440E5" stroke-width="2" stroke-miterlimit="10" stroke-linecap="round" stroke-linejoin="round"/>
<path d="M10.3125 5.59229H16.875" stroke="#2440E5" stroke-width="2" stroke-miterlimit="10" stroke-linecap="round" stroke-linejoin="round"/>
<path d="M10.3125 9.34229H13.125" stroke="#2440E5" stroke-width="2" stroke-miterlimit="10" stroke-linecap="round" stroke-linejoin="round"/>
</g>
<defs>
<clipPath id="clip0_192_115527">
<rect width="30" height="30" fill="white" transform="translate(0 0.904785)"/>
</clipPath>
</defs>
</svg>
