<svg width="52" height="52" viewBox="0 0 52 52" fill="none" xmlns="http://www.w3.org/2000/svg">
<g filter="url(#filter0_d_262_36075)">
<path d="M2 10.6C2 7.23968 2 5.55953 2.65396 4.27606C3.2292 3.14708 4.14708 2.2292 5.27606 1.65396C6.55953 1 8.23968 1 11.6 1H40.4C43.7603 1 45.4405 1 46.7239 1.65396C47.8529 2.2292 48.7708 3.14708 49.346 4.27606C50 5.55953 50 7.23968 50 10.6V39.4C50 42.7603 50 44.4405 49.346 45.7239C48.7708 46.8529 47.8529 47.7708 46.7239 48.346C45.4405 49 43.7603 49 40.4 49H11.6C8.23968 49 6.55953 49 5.27606 48.346C4.14708 47.7708 3.2292 46.8529 2.65396 45.7239C2 44.4405 2 42.7603 2 39.4V10.6Z" fill="#F4F5FE" shape-rendering="crispEdges"/>
</g>
<path opacity="0.5" d="M12.6667 24C12.6667 20.134 15.353 17 18.6667 17C21.9804 17 24.6667 20.134 24.6667 24V35.6667H15.6434C13.9994 35.6667 12.6667 34.1119 12.6667 32.1937V24Z" fill="#2440E5"/>
<path opacity="0.8" d="M24.6667 24V35.6667H28.6667H30H36.3908C38.0159 35.6667 39.3334 34.1297 39.3334 32.2337V24C39.3334 20.134 36.6471 17 33.3334 17H18.6667C21.9804 17 24.6667 20.134 24.6667 24Z" fill="#2440E5"/>
<path d="M22.6667 35.6665V38.3332C22.6667 38.8854 23.1144 39.3332 23.6667 39.3332C24.219 39.3332 24.6667 38.8854 24.6667 38.3332V35.6665H22.6667Z" fill="#2440E5"/>
<path d="M30 35.6665H28V38.3332C28 38.8854 28.4477 39.3332 29 39.3332C29.5523 39.3332 30 38.8854 30 38.3332V35.6665Z" fill="#2440E5"/>
<path fill-rule="evenodd" clip-rule="evenodd" d="M15.6667 30.3335C15.6667 29.7812 16.1144 29.3335 16.6667 29.3335H20.6667C21.219 29.3335 21.6667 29.7812 21.6667 30.3335C21.6667 30.8858 21.219 31.3335 20.6667 31.3335H16.6667C16.1144 31.3335 15.6667 30.8858 15.6667 30.3335Z" fill="#2440E5"/>
<path fill-rule="evenodd" clip-rule="evenodd" d="M33.1794 17.7795L33.5209 17.7111C34.0752 17.6001 34.6484 17.6531 35.1752 17.864C36.0956 18.2325 37.1021 18.3014 38.061 18.0614L38.143 18.0409C38.8412 17.8662 39.3333 17.2172 39.3333 16.471V13.6303C39.3333 12.6465 38.4477 11.9218 37.5272 12.1521C36.9986 12.2844 36.4438 12.2465 35.9364 12.0433L35.839 12.0043C34.9896 11.6642 34.0654 11.5788 33.1716 11.7577L32.5733 11.8775C31.8534 12.0216 31.3333 12.6761 31.3333 13.4378V22.7074C31.3333 23.2372 31.7466 23.6665 32.2564 23.6665C32.7662 23.6665 33.1794 23.2372 33.1794 22.7074V17.7795Z" fill="#2440E5"/>
<defs>
<filter id="filter0_d_262_36075" x="0" y="0" width="52" height="52" filterUnits="userSpaceOnUse" color-interpolation-filters="sRGB">
<feFlood flood-opacity="0" result="BackgroundImageFix"/>
<feColorMatrix in="SourceAlpha" type="matrix" values="0 0 0 0 0 0 0 0 0 0 0 0 0 0 0 0 0 0 127 0" result="hardAlpha"/>
<feOffset dy="1"/>
<feGaussianBlur stdDeviation="1"/>
<feComposite in2="hardAlpha" operator="out"/>
<feColorMatrix type="matrix" values="0 0 0 0 0.0627451 0 0 0 0 0.0941176 0 0 0 0 0.156863 0 0 0 0.04 0"/>
<feBlend mode="normal" in2="BackgroundImageFix" result="effect1_dropShadow_262_36075"/>
<feBlend mode="normal" in="SourceGraphic" in2="effect1_dropShadow_262_36075" result="shape"/>
</filter>
</defs>
</svg>
