<svg width="26" height="27" viewBox="0 0 26 27" fill="none" xmlns="http://www.w3.org/2000/svg">
<path d="M17.3333 8.17822C16.735 8.17822 16.25 8.66325 16.25 9.26156C16.25 9.85986 16.735 10.3449 17.3333 10.3449H20.5833C21.1817 10.3449 21.6667 9.85986 21.6667 9.26156C21.6667 8.66325 21.1817 8.17822 20.5833 8.17822H17.3333Z" fill="#2440E5"/>
<path d="M16.25 13.5946C16.25 12.9962 16.735 12.5112 17.3333 12.5112H20.5833C21.1817 12.5112 21.6667 12.9962 21.6667 13.5946C21.6667 14.1929 21.1817 14.6779 20.5833 14.6779H17.3333C16.735 14.6779 16.25 14.1929 16.25 13.5946Z" fill="#2440E5"/>
<path d="M17.3333 16.8447C16.735 16.8447 16.25 17.3297 16.25 17.9281C16.25 18.5264 16.735 19.0114 17.3333 19.0114H20.5833C21.1817 19.0114 21.6667 18.5264 21.6667 17.9281C21.6667 17.3297 21.1817 16.8447 20.5833 16.8447H17.3333Z" fill="#2440E5"/>
<path fill-rule="evenodd" clip-rule="evenodd" d="M3.25 3.84473C1.45508 3.84473 0 5.29981 0 7.09473V20.0947C0 21.8897 1.45508 23.3447 3.25 23.3447H22.75C24.545 23.3447 26 21.8897 26 20.0947V7.09473C26 5.29981 24.545 3.84473 22.75 3.84473H3.25ZM22.75 6.01139H14.0833V21.1781H22.75C23.3483 21.1781 23.8333 20.6931 23.8333 20.0947V7.09473C23.8333 6.49642 23.3483 6.01139 22.75 6.01139ZM3.25 6.01139H11.9167V21.1781H3.25C2.6517 21.1781 2.16667 20.6931 2.16667 20.0947V7.09473C2.16667 6.49642 2.6517 6.01139 3.25 6.01139Z" fill="#2440E5"/>
</svg>
