<svg width="225" height="137" viewBox="0 0 225 137" fill="none" xmlns="http://www.w3.org/2000/svg">
<path d="M200.176 71.2308C207.812 75.3026 216.498 114.075 216.498 114.075L214.339 136.809L-2.96674e-05 112.376L4.52265 64.7533C4.52265 64.7533 22.6804 35.0181 26.4835 31.9536C30.2866 28.8891 39.3664 28.9585 47.2599 30.2641C55.1534 31.5697 63.5982 11.0259 70.2937 11.3833C76.9892 11.7408 82.0398 43.9675 88.2951 45.4922C94.5503 47.0168 108.095 20.9676 116.173 19.4537C124.252 17.9399 131.611 33.7927 139.778 35.1295C147.945 36.4663 154.382 16.0993 162.8 17.4648C171.219 18.8302 170.506 60.5733 178.766 70.8191C186.057 79.8642 192.236 66.9973 200.176 71.2308Z" fill="url(#paint0_linear_119_633)" fill-opacity="0.5"/>
<path d="M215.942 115.16C215.942 115.16 207.325 75.8752 199.706 71.7609C191.783 67.4834 185.594 80.5353 178.326 71.3797C170.093 61.0088 170.866 18.6981 162.461 17.3282C154.056 15.9584 147.599 36.6126 139.445 35.2714C131.291 33.9302 123.966 17.8747 115.896 19.4226C107.827 20.9705 94.2625 47.396 88.0181 45.8612C81.7738 44.3265 76.7777 11.6709 70.092 11.3198C63.4063 10.9688 54.943 31.8056 47.0623 30.4956C39.1817 29.1855 30.1146 29.1304 26.3122 32.2429C22.5099 35.3554 4.33343 65.5246 4.33343 65.5246" stroke="#0A77FF" stroke-width="4" stroke-linecap="round" stroke-linejoin="round"/>
<circle cx="169" cy="34" r="6" fill="white" stroke="#0A77FF" stroke-width="4"/>
<defs>
<linearGradient id="paint0_linear_119_633" x1="117.831" y1="12.3328" x2="105.061" y2="124.352" gradientUnits="userSpaceOnUse">
<stop stop-color="#0A77FF" stop-opacity="0.25"/>
<stop offset="1" stop-color="white" stop-opacity="0"/>
</linearGradient>
</defs>
</svg>
