<svg width="218" height="119" viewBox="0 0 218 119" fill="none" xmlns="http://www.w3.org/2000/svg">
<path d="M101.054 62.1853C101.054 89.8177 78.6537 112.218 51.0212 112.218C23.3888 112.218 0.988281 89.8177 0.988281 62.1853C0.988281 34.5529 23.3888 12.1523 51.0212 12.1523C78.6537 12.1523 101.054 34.5529 101.054 62.1853ZM13.4965 62.1853C13.4965 82.9096 30.2969 99.71 51.0212 99.71C71.7456 99.71 88.546 82.9096 88.546 62.1853C88.546 41.461 71.7456 24.6606 51.0212 24.6606C30.2969 24.6606 13.4965 41.461 13.4965 62.1853Z" fill="#E5E5E7"/>
<path d="M51.0212 18.4065C51.0212 14.9524 53.8321 12.1121 57.2592 12.5427C63.7692 13.3608 70.0759 15.4541 75.8105 18.7251C83.3622 23.0325 89.6612 29.2333 94.0867 36.7165C98.5122 44.1996 100.911 52.7067 101.048 61.3994C101.185 70.0921 99.0537 78.6704 94.8654 86.2889C90.6772 93.9073 84.5761 100.303 77.1634 104.845C69.7507 109.388 61.2823 111.92 52.5928 112.194C43.9033 112.467 35.2926 110.471 27.6093 106.403C21.7748 103.313 16.628 99.1103 12.4491 94.052C10.2491 91.3892 11.1412 87.494 14.0575 85.6432C16.9739 83.7924 20.8038 84.7007 23.1128 87.2696C26.0503 90.5378 29.5502 93.277 33.4623 95.3484C39.2248 98.3994 45.6828 99.8963 52.1999 99.6915C58.7171 99.4867 65.0683 97.5872 70.6279 94.1804C76.1874 90.7735 80.7632 85.9768 83.9044 80.263C87.0456 74.5491 88.6437 68.1154 88.5413 61.5959C88.4389 55.0763 86.6395 48.696 83.3203 43.0837C80.0012 37.4713 75.277 32.8207 69.6132 29.5901C65.768 27.3969 61.5799 25.9096 57.2465 25.1806C53.8403 24.6075 51.0212 21.8605 51.0212 18.4065Z" fill="#EEA23E"/>
<path d="M43.5536 61.7717C43.0947 61.7686 42.6467 61.689 42.2097 61.5329C41.7726 61.3737 41.3793 61.1161 41.0296 60.7603C40.68 60.4012 40.4021 59.9252 40.1961 59.332C39.99 58.7357 39.8886 57.9974 39.8917 57.117C39.8917 56.296 39.9791 55.5639 40.1539 54.9208C40.3287 54.2777 40.5801 53.7345 40.9079 53.2912C41.2357 52.8447 41.6306 52.5044 42.0926 52.2703C42.5578 52.0362 43.0776 51.9191 43.652 51.9191C44.2545 51.9191 44.7884 52.0377 45.2535 52.275C45.7218 52.5123 46.0995 52.8369 46.3868 53.249C46.674 53.658 46.8519 54.12 46.9206 54.6351H45.2114C45.124 54.2667 44.9444 53.9733 44.6728 53.7548C44.4044 53.5331 44.0641 53.4223 43.652 53.4223C42.987 53.4223 42.475 53.7111 42.116 54.2886C41.7601 54.8661 41.5806 55.6591 41.5775 56.6675H41.6431C41.796 56.3927 41.9943 56.157 42.2378 55.9604C42.4813 55.7637 42.756 55.6123 43.062 55.5061C43.371 55.3969 43.6973 55.3422 44.0407 55.3422C44.6026 55.3422 45.1068 55.4765 45.5532 55.745C46.0028 56.0134 46.3587 56.3834 46.6209 56.8548C46.8831 57.3231 47.0127 57.86 47.0096 58.4657C47.0127 59.0963 46.8691 59.6629 46.5787 60.1655C46.2884 60.665 45.8841 61.0584 45.3659 61.3456C44.8477 61.6328 44.2436 61.7749 43.5536 61.7717ZM43.5443 60.3669C43.8846 60.3669 44.189 60.2842 44.4574 60.1187C44.7259 59.9532 44.9382 59.73 45.0943 59.4491C45.2504 59.1681 45.3269 58.8528 45.3238 58.5031C45.3269 58.1597 45.252 57.8491 45.099 57.5713C44.9491 57.2934 44.7415 57.0733 44.4762 56.911C44.2108 56.7486 43.908 56.6675 43.5677 56.6675C43.3148 56.6675 43.0791 56.7159 42.8606 56.8126C42.6421 56.9094 42.4516 57.0437 42.2893 57.2154C42.127 57.3839 41.999 57.5806 41.9053 57.8054C41.8148 58.0271 41.7679 58.2643 41.7648 58.5172C41.7679 58.8512 41.846 59.1587 41.999 59.4397C42.1519 59.7207 42.3627 59.9454 42.6311 60.114C42.8996 60.2826 43.204 60.3669 43.5443 60.3669ZM51.8407 61.7717C51.3818 61.7686 50.9338 61.689 50.4968 61.5329C50.0597 61.3737 49.6664 61.1161 49.3167 60.7603C48.967 60.4012 48.6892 59.9252 48.4832 59.332C48.2771 58.7357 48.1757 57.9974 48.1788 57.117C48.1788 56.296 48.2662 55.5639 48.441 54.9208C48.6158 54.2777 48.8671 53.7345 49.1949 53.2912C49.5227 52.8447 49.9177 52.5044 50.3797 52.2703C50.8449 52.0362 51.3647 51.9191 51.9391 51.9191C52.5416 51.9191 53.0754 52.0377 53.5406 52.275C54.0089 52.5123 54.3866 52.8369 54.6738 53.249C54.9611 53.658 55.139 54.12 55.2077 54.6351H53.4985C53.411 54.2667 53.2315 53.9733 52.9599 53.7548C52.6915 53.5331 52.3512 53.4223 51.9391 53.4223C51.2741 53.4223 50.7621 53.7111 50.4031 54.2886C50.0472 54.8661 49.8677 55.6591 49.8646 56.6675H49.9301C50.0831 56.3927 50.2814 56.157 50.5249 55.9604C50.7684 55.7637 51.0431 55.6123 51.349 55.5061C51.6581 55.3969 51.9843 55.3422 52.3278 55.3422C52.8897 55.3422 53.3939 55.4765 53.8403 55.745C54.2899 56.0134 54.6457 56.3834 54.908 56.8548C55.1702 57.3231 55.2998 57.86 55.2967 58.4657C55.2998 59.0963 55.1562 59.6629 54.8658 60.1655C54.5755 60.665 54.1712 61.0584 53.653 61.3456C53.1348 61.6328 52.5307 61.7749 51.8407 61.7717ZM51.8314 60.3669C52.1717 60.3669 52.476 60.2842 52.7445 60.1187C53.013 59.9532 53.2253 59.73 53.3814 59.4491C53.5375 59.1681 53.614 58.8528 53.6108 58.5031C53.614 58.1597 53.539 57.8491 53.3861 57.5713C53.2362 57.2934 53.0286 57.0733 52.7633 56.911C52.4979 56.7486 52.1951 56.6675 51.8548 56.6675C51.6019 56.6675 51.3662 56.7159 51.1477 56.8126C50.9292 56.9094 50.7387 57.0437 50.5764 57.2154C50.414 57.3839 50.286 57.5806 50.1924 57.8054C50.1019 58.0271 50.055 58.2643 50.0519 58.5172C50.055 58.8512 50.1331 59.1587 50.286 59.4397C50.439 59.7207 50.6497 59.9454 50.9182 60.114C51.1867 60.2826 51.4911 60.3669 51.8314 60.3669ZM61.7434 59.8424V59.3367C61.7434 58.9652 61.8214 58.6233 61.9775 58.3111C62.1368 57.999 62.3678 57.7476 62.6706 57.5572C62.9734 57.3668 63.3402 57.2716 63.7711 57.2716C64.2144 57.2716 64.5859 57.3668 64.8856 57.5572C65.1853 57.7445 65.4116 57.9943 65.5646 58.3065C65.7207 58.6186 65.7987 58.9621 65.7987 59.3367V59.8424C65.7987 60.2139 65.7207 60.5558 65.5646 60.868C65.4085 61.1801 65.179 61.4315 64.8762 61.6219C64.5765 61.8123 64.2081 61.9075 63.7711 61.9075C63.334 61.9075 62.9641 61.8123 62.6612 61.6219C62.3584 61.4315 62.1289 61.1801 61.9729 60.868C61.8199 60.5558 61.7434 60.2139 61.7434 59.8424ZM62.9656 59.3367V59.8424C62.9656 60.0891 63.0249 60.3154 63.1436 60.5214C63.2622 60.7275 63.4714 60.8305 63.7711 60.8305C64.0739 60.8305 64.2815 60.729 64.3939 60.5261C64.5094 60.3201 64.5671 60.0922 64.5671 59.8424V59.3367C64.5671 59.0869 64.5125 58.859 64.4032 58.653C64.294 58.4438 64.0832 58.3392 63.7711 58.3392C63.4776 58.3392 63.27 58.4438 63.1482 58.653C63.0265 58.859 62.9656 59.0869 62.9656 59.3367ZM56.8686 54.3542V53.8484C56.8686 53.4738 56.9482 53.1304 57.1074 52.8182C57.2666 52.506 57.4976 52.2563 57.8005 52.0689C58.1033 51.8785 58.4701 51.7833 58.9009 51.7833C59.3411 51.7833 59.7111 51.8785 60.0108 52.0689C60.3136 52.2563 60.5415 52.506 60.6944 52.8182C60.8474 53.1304 60.9239 53.4738 60.9239 53.8484V54.3542C60.9239 54.7288 60.8459 55.0722 60.6898 55.3844C60.5368 55.6934 60.3089 55.9416 60.0061 56.1289C59.7033 56.3163 59.3349 56.4099 58.9009 56.4099C58.4607 56.4099 58.0892 56.3163 57.7864 56.1289C57.4867 55.9416 57.2588 55.6919 57.1027 55.3797C56.9466 55.0675 56.8686 54.7257 56.8686 54.3542ZM58.1002 53.8484V54.3542C58.1002 54.6039 58.1579 54.8318 58.2734 55.0379C58.3921 55.2408 58.6012 55.3422 58.9009 55.3422C59.2006 55.3422 59.4067 55.2408 59.5191 55.0379C59.6346 54.8318 59.6923 54.6039 59.6923 54.3542V53.8484C59.6923 53.5987 59.6377 53.3708 59.5284 53.1647C59.4192 52.9556 59.21 52.851 58.9009 52.851C58.6043 52.851 58.3967 52.9556 58.2781 53.1647C58.1595 53.3739 58.1002 53.6018 58.1002 53.8484ZM57.4024 61.6406L63.9958 52.0502H65.1665L58.5731 61.6406H57.4024Z" fill="black"/>
<path d="M45.2665 71.9613C45.2665 72.7378 45.1245 73.4054 44.8404 73.9641C44.5563 74.5205 44.1669 74.949 43.6721 75.2496C43.1797 75.5479 42.6198 75.6971 41.9924 75.6971C41.3627 75.6971 40.8004 75.5479 40.3056 75.2496C39.8132 74.949 39.4249 74.5193 39.1408 73.9606C38.8567 73.4019 38.7147 72.7354 38.7147 71.9613C38.7147 71.1848 38.8567 70.5183 39.1408 69.962C39.4249 69.4033 39.8132 68.9748 40.3056 68.6765C40.8004 68.3758 41.3627 68.2255 41.9924 68.2255C42.6198 68.2255 43.1797 68.3758 43.6721 68.6765C44.1669 68.9748 44.5563 69.4033 44.8404 69.962C45.1245 70.5183 45.2665 71.1848 45.2665 71.9613ZM44.1799 71.9613C44.1799 71.3694 44.084 70.8711 43.8923 70.4663C43.7029 70.0591 43.4424 69.7513 43.111 69.543C42.7819 69.3323 42.4091 69.2269 41.9924 69.2269C41.5734 69.2269 41.1993 69.3323 40.8702 69.543C40.5412 69.7513 40.2808 70.0591 40.089 70.4663C39.8996 70.8711 39.8049 71.3694 39.8049 71.9613C39.8049 72.5531 39.8996 73.0527 40.089 73.4599C40.2808 73.8647 40.5412 74.1725 40.8702 74.3832C41.1993 74.5915 41.5734 74.6957 41.9924 74.6957C42.4091 74.6957 42.7819 74.5915 43.111 74.3832C43.4424 74.1725 43.7029 73.8647 43.8923 73.4599C44.084 73.0527 44.1799 72.5531 44.1799 71.9613ZM46.4945 77.6431V70.1431H47.5314V71.0273H47.6202C47.6817 70.9137 47.7705 70.7823 47.8865 70.6332C48.0025 70.484 48.1635 70.3538 48.3695 70.2425C48.5754 70.1289 48.8477 70.0721 49.1862 70.0721C49.6266 70.0721 50.0195 70.1834 50.3652 70.4059C50.7108 70.6284 50.9819 70.9492 51.1784 71.3683C51.3773 71.7873 51.4767 72.2915 51.4767 72.881C51.4767 73.4705 51.3784 73.976 51.182 74.3974C50.9855 74.8164 50.7156 75.1396 50.3723 75.3668C50.029 75.5917 49.6372 75.7042 49.1969 75.7042C48.8654 75.7042 48.5944 75.6486 48.3837 75.5373C48.1753 75.426 48.012 75.2958 47.8936 75.1467C47.7752 74.9975 47.6841 74.8649 47.6202 74.7489H47.5562V77.6431H46.4945ZM47.5349 72.8704C47.5349 73.2539 47.5906 73.5901 47.7018 73.8789C47.8131 74.1677 47.9741 74.3938 48.1848 74.5572C48.3955 74.7182 48.6535 74.7987 48.9589 74.7987C49.2762 74.7987 49.5413 74.7146 49.7544 74.5465C49.9675 74.3761 50.1284 74.1452 50.2373 73.854C50.3486 73.5629 50.4043 73.235 50.4043 72.8704C50.4043 72.5105 50.3498 72.1874 50.2409 71.9009C50.1344 71.6145 49.9734 71.3884 49.7579 71.2227C49.5449 71.0569 49.2785 70.9741 48.9589 70.9741C48.6512 70.9741 48.3908 71.0534 48.1777 71.212C47.967 71.3706 47.8072 71.592 47.6983 71.8761C47.5894 72.1602 47.5349 72.4916 47.5349 72.8704ZM54.9622 75.7077C54.4248 75.7077 53.962 75.5929 53.5737 75.3633C53.1878 75.1313 52.8896 74.8058 52.6789 74.3867C52.4705 73.9653 52.3664 73.4717 52.3664 72.9059C52.3664 72.3472 52.4705 71.8548 52.6789 71.4286C52.8896 71.0025 53.1831 70.6699 53.5595 70.4308C53.9383 70.1916 54.381 70.0721 54.8877 70.0721C55.1954 70.0721 55.4937 70.123 55.7825 70.2248C56.0714 70.3266 56.3306 70.4864 56.5602 70.7042C56.7899 70.922 56.971 71.2049 57.1036 71.5529C57.2361 71.8986 57.3024 72.3188 57.3024 72.8136V73.19H52.9665V72.3945H56.2619C56.2619 72.1152 56.2051 71.8678 56.0915 71.6523C55.9779 71.4345 55.8181 71.2629 55.6121 71.1374C55.4085 71.012 55.1694 70.9492 54.8948 70.9492C54.5965 70.9492 54.336 71.0226 54.1135 71.1694C53.8933 71.3138 53.7229 71.5032 53.6021 71.7376C53.4838 71.9696 53.4246 72.2217 53.4246 72.494V73.1154C53.4246 73.48 53.4885 73.7901 53.6164 74.0458C53.7466 74.3015 53.9277 74.4968 54.1597 74.6317C54.3917 74.7643 54.6628 74.8306 54.9729 74.8306C55.1741 74.8306 55.3576 74.8022 55.5233 74.7454C55.689 74.6862 55.8323 74.5986 55.953 74.4826C56.0737 74.3666 56.1661 74.2234 56.23 74.0529L57.235 74.234C57.1545 74.5299 57.0101 74.7892 56.8017 75.0117C56.5958 75.2319 56.3365 75.4035 56.024 75.5266C55.7139 75.6474 55.36 75.7077 54.9622 75.7077ZM59.4874 72.359V75.5977H58.4256V70.1431H59.4448V71.0309H59.5122C59.6377 70.7421 59.8342 70.5101 60.1017 70.3349C60.3716 70.1597 60.7113 70.0721 61.1209 70.0721C61.4926 70.0721 61.8181 70.1502 62.0975 70.3065C62.3768 70.4603 62.5934 70.69 62.7473 70.9954C62.9012 71.3008 62.9781 71.6784 62.9781 72.1282V75.5977H61.9163V72.256C61.9163 71.8607 61.8134 71.5517 61.6074 71.3292C61.4014 71.1043 61.1185 70.9918 60.7587 70.9918C60.5125 70.9918 60.2935 71.0451 60.1017 71.1516C59.9123 71.2582 59.762 71.4144 59.6507 71.6204C59.5418 71.824 59.4874 72.0702 59.4874 72.359ZM40.9382 86.5977V79.3249H43.5305C44.094 79.3249 44.5615 79.422 44.9332 79.6161C45.3073 79.8103 45.5866 80.079 45.7713 80.4222C45.956 80.7631 46.0483 81.1573 46.0483 81.6048C46.0483 82.0498 45.9548 82.4416 45.7678 82.7802C45.5831 83.1164 45.3037 83.378 44.9297 83.565C44.558 83.752 44.0904 83.8455 43.527 83.8455H41.5632V82.9009H43.4276C43.7827 82.9009 44.0715 82.85 44.294 82.7482C44.5189 82.6464 44.6835 82.4985 44.7876 82.3043C44.8918 82.1102 44.9439 81.877 44.9439 81.6048C44.9439 81.3301 44.8906 81.0922 44.7841 80.891C44.6799 80.6897 44.5154 80.5359 44.2905 80.4293C44.0679 80.3204 43.7756 80.266 43.4133 80.266H42.0355V86.5977H40.9382ZM44.5284 83.3164L46.3253 86.5977H45.0753L43.3139 83.3164H44.5284ZM48.8307 86.7184C48.4851 86.7184 48.1726 86.6545 47.8932 86.5266C47.6138 86.3964 47.3925 86.2082 47.2291 85.962C47.0682 85.7158 46.9877 85.4139 46.9877 85.0565C46.9877 84.7487 47.0468 84.4954 47.1652 84.2965C47.2836 84.0977 47.4434 83.9402 47.6446 83.8242C47.8459 83.7082 48.0708 83.6206 48.3193 83.5614C48.5679 83.5022 48.8212 83.4573 49.0793 83.4265C49.406 83.3886 49.6711 83.3578 49.8747 83.3342C50.0783 83.3081 50.2263 83.2667 50.3186 83.2099C50.411 83.1531 50.4571 83.0607 50.4571 82.9329V82.908C50.4571 82.5979 50.3695 82.3576 50.1943 82.1871C50.0215 82.0167 49.7635 81.9315 49.4202 81.9315C49.0627 81.9315 48.781 82.0108 48.575 82.1694C48.3714 82.3256 48.2306 82.4996 48.1524 82.6914L47.1546 82.4641C47.2729 82.1327 47.4458 81.8652 47.673 81.6616C47.9027 81.4556 48.1666 81.3065 48.4649 81.2141C48.7632 81.1194 49.0769 81.0721 49.406 81.0721C49.6238 81.0721 49.8546 81.0981 50.0985 81.1502C50.3447 81.1999 50.5743 81.2923 50.7874 81.4272C51.0028 81.5621 51.1792 81.7551 51.3165 82.006C51.4538 82.2546 51.5225 82.5778 51.5225 82.9755V86.5977H50.4855V85.8519H50.4429C50.3743 85.9892 50.2713 86.1242 50.134 86.2567C49.9967 86.3893 49.8203 86.4994 49.6049 86.587C49.3894 86.6746 49.1314 86.7184 48.8307 86.7184ZM49.0615 85.8661C49.3551 85.8661 49.606 85.8081 49.8144 85.6921C50.0251 85.5761 50.1849 85.4246 50.2938 85.2376C50.405 85.0482 50.4607 84.8458 50.4607 84.6303V83.9272C50.4228 83.9651 50.3494 84.0006 50.2405 84.0337C50.134 84.0645 50.012 84.0917 49.8747 84.1154C49.7374 84.1367 49.6037 84.1568 49.4735 84.1758C49.3433 84.1924 49.2344 84.2066 49.1468 84.2184C48.9408 84.2444 48.7526 84.2882 48.5821 84.3498C48.414 84.4113 48.2791 84.5001 48.1773 84.6161C48.0779 84.7298 48.0281 84.8813 48.0281 85.0707C48.0281 85.3335 48.1252 85.5323 48.3193 85.6673C48.5135 85.7998 48.7609 85.8661 49.0615 85.8661ZM55.4279 81.1431V81.9954H52.4485V81.1431H55.4279ZM53.2475 79.8363H54.3093V84.9961C54.3093 85.2021 54.3401 85.3571 54.4016 85.4613C54.4632 85.5631 54.5425 85.6329 54.6396 85.6708C54.739 85.7063 54.8467 85.7241 54.9627 85.7241C55.048 85.7241 55.1225 85.7182 55.1864 85.7063C55.2504 85.6945 55.3001 85.685 55.3356 85.6779L55.5274 86.555C55.4658 86.5787 55.3782 86.6024 55.2646 86.6261C55.1509 86.6521 55.0089 86.6663 54.8384 86.6687C54.5591 86.6734 54.2987 86.6237 54.0572 86.5195C53.8157 86.4154 53.6204 86.2544 53.4712 86.0366C53.3221 85.8188 53.2475 85.5453 53.2475 85.2163V79.8363ZM58.8398 86.7077C58.3024 86.7077 57.8395 86.5929 57.4513 86.3633C57.0654 86.1313 56.7671 85.8058 56.5564 85.3867C56.3481 84.9653 56.2439 84.4717 56.2439 83.9059C56.2439 83.3472 56.3481 82.8548 56.5564 82.4286C56.7671 82.0025 57.0607 81.6699 57.4371 81.4308C57.8159 81.1916 58.2586 81.0721 58.7652 81.0721C59.073 81.0721 59.3713 81.123 59.6601 81.2248C59.9489 81.3266 60.2081 81.4864 60.4378 81.7042C60.6674 81.922 60.8485 82.2049 60.9811 82.5529C61.1137 82.8986 61.18 83.3188 61.18 83.8136V84.19H56.844V83.3945H60.1395C60.1395 83.1152 60.0827 82.8678 59.969 82.6523C59.8554 82.4345 59.6956 82.2629 59.4896 82.1374C59.286 82.012 59.0469 81.9492 58.7723 81.9492C58.474 81.9492 58.2136 82.0226 57.9911 82.1694C57.7709 82.3138 57.6004 82.5032 57.4797 82.7376C57.3613 82.9696 57.3021 83.2217 57.3021 83.494V84.1154C57.3021 84.48 57.3661 84.7901 57.4939 85.0458C57.6241 85.3015 57.8052 85.4968 58.0372 85.6317C58.2692 85.7643 58.5403 85.8306 58.8504 85.8306C59.0517 85.8306 59.2351 85.8022 59.4009 85.7454C59.5666 85.6862 59.7098 85.5986 59.8305 85.4826C59.9513 85.3666 60.0436 85.2234 60.1075 85.0529L61.1125 85.234C61.032 85.5299 60.8876 85.7892 60.6793 86.0117C60.4733 86.2319 60.2141 86.4035 59.9016 86.5266C59.5914 86.6474 59.2375 86.7077 58.8398 86.7077Z" fill="#858C95"/>
<path d="M217.054 57.1853C217.054 84.8177 194.654 107.218 167.021 107.218C139.389 107.218 116.988 84.8177 116.988 57.1853C116.988 29.5529 139.389 7.15234 167.021 7.15234C194.654 7.15234 217.054 29.5529 217.054 57.1853ZM129.497 57.1853C129.497 77.9096 146.297 94.71 167.021 94.71C187.746 94.71 204.546 77.9096 204.546 57.1853C204.546 36.461 187.746 19.6606 167.021 19.6606C146.297 19.6606 129.497 36.461 129.497 57.1853Z" fill="#E5E5E7"/>
<path d="M167.021 13.4065C167.021 9.95241 169.832 7.11205 173.259 7.5427C181.271 8.54949 188.954 11.4855 195.629 16.1382C204.023 21.9879 210.421 30.2699 213.962 39.868C217.503 49.4662 218.016 59.9192 215.433 69.8182C212.85 79.7172 207.294 88.5865 199.515 95.2307C191.736 101.875 182.107 105.975 171.925 106.977C161.744 107.98 151.5 105.838 142.574 100.839C133.648 95.84 126.469 88.225 122.004 79.0201C118.453 71.6989 116.755 63.6517 117.014 55.5807C117.125 52.1284 120.37 49.7964 123.781 50.3368C127.193 50.8771 129.465 54.0913 129.498 57.5452C129.551 63.0707 130.825 68.5434 133.258 73.5614C136.607 80.4651 141.991 86.1763 148.686 89.9255C155.38 93.6746 163.063 95.2814 170.699 94.5293C178.335 93.7773 185.557 90.7025 191.392 85.7193C197.226 80.7362 201.393 74.0842 203.33 66.66C205.267 59.2357 204.882 51.396 202.227 44.1974C199.571 36.9987 194.772 30.7872 188.477 26.4C183.902 23.211 178.696 21.0973 173.247 20.1805C169.84 19.6075 167.021 16.8605 167.021 13.4065Z" fill="#0A77FF"/>
<path d="M152.136 56.6406L156.215 48.5674V48.5019H151.481V47.0502H158.013V48.5347L153.939 56.6406H152.136ZM159.87 56.6406L163.948 48.5674V48.5019H159.214V47.0502H165.747V48.5347L161.673 56.6406H159.87ZM166.409 56.7436C166.125 56.7436 165.881 56.6437 165.678 56.4439C165.476 56.2441 165.376 56.0006 165.379 55.7134C165.376 55.4325 165.476 55.1921 165.678 54.9923C165.881 54.7925 166.125 54.6926 166.409 54.6926C166.684 54.6926 166.923 54.7925 167.125 54.9923C167.331 55.1921 167.436 55.4325 167.439 55.7134C167.436 55.9039 167.386 56.0771 167.289 56.2332C167.196 56.3893 167.071 56.5142 166.915 56.6078C166.762 56.6984 166.593 56.7436 166.409 56.7436ZM172.125 56.7717C171.501 56.7717 170.942 56.6547 170.449 56.4205C169.955 56.1833 169.564 55.8586 169.273 55.4465C168.986 55.0344 168.833 54.563 168.814 54.0323H170.5C170.531 54.4257 170.702 54.7472 171.011 54.997C171.32 55.2436 171.691 55.3669 172.125 55.3669C172.465 55.3669 172.768 55.2889 173.034 55.1328C173.299 54.9767 173.508 54.7597 173.661 54.4818C173.814 54.204 173.889 53.8871 173.886 53.5312C173.889 53.1691 173.813 52.8475 173.656 52.5666C173.5 52.2856 173.287 52.0655 173.015 51.9063C172.743 51.744 172.431 51.6628 172.078 51.6628C171.791 51.6597 171.509 51.7127 171.231 51.822C170.953 51.9313 170.733 52.0749 170.57 52.2528L169.002 51.9953L169.503 47.0502H175.066V48.5019H170.94L170.664 51.0447H170.72C170.898 50.8355 171.15 50.6622 171.474 50.5249C171.799 50.3844 172.155 50.3141 172.542 50.3141C173.123 50.3141 173.641 50.4515 174.097 50.7262C174.552 50.9978 174.911 51.3725 175.174 51.8501C175.436 52.3277 175.567 52.8741 175.567 53.4891C175.567 54.1228 175.42 54.6879 175.127 55.1843C174.837 55.6775 174.432 56.0662 173.914 56.3503C173.399 56.6313 172.803 56.7717 172.125 56.7717ZM182 54.8424V54.3367C182 53.9652 182.078 53.6233 182.234 53.3111C182.393 52.999 182.624 52.7476 182.927 52.5572C183.23 52.3668 183.597 52.2716 184.027 52.2716C184.471 52.2716 184.842 52.3668 185.142 52.5572C185.442 52.7445 185.668 52.9943 185.821 53.3065C185.977 53.6186 186.055 53.9621 186.055 54.3367V54.8424C186.055 55.2139 185.977 55.5558 185.821 55.868C185.665 56.1801 185.435 56.4315 185.133 56.6219C184.833 56.8123 184.464 56.9075 184.027 56.9075C183.59 56.9075 183.22 56.8123 182.918 56.6219C182.615 56.4315 182.385 56.1801 182.229 55.868C182.076 55.5558 182 55.2139 182 54.8424ZM183.222 54.3367V54.8424C183.222 55.0891 183.281 55.3154 183.4 55.5214C183.519 55.7275 183.728 55.8305 184.027 55.8305C184.33 55.8305 184.538 55.729 184.65 55.5261C184.766 55.3201 184.823 55.0922 184.823 54.8424V54.3367C184.823 54.0869 184.769 53.859 184.66 53.653C184.55 53.4438 184.34 53.3392 184.027 53.3392C183.734 53.3392 183.526 53.4438 183.405 53.653C183.283 53.859 183.222 54.0869 183.222 54.3367ZM177.125 49.3542V48.8484C177.125 48.4738 177.205 48.1304 177.364 47.8182C177.523 47.506 177.754 47.2563 178.057 47.0689C178.36 46.8785 178.726 46.7833 179.157 46.7833C179.597 46.7833 179.967 46.8785 180.267 47.0689C180.57 47.2563 180.798 47.506 180.951 47.8182C181.104 48.1304 181.18 48.4738 181.18 48.8484V49.3542C181.18 49.7288 181.102 50.0722 180.946 50.3844C180.793 50.6934 180.565 50.9416 180.262 51.1289C179.96 51.3163 179.591 51.4099 179.157 51.4099C178.717 51.4099 178.346 51.3163 178.043 51.1289C177.743 50.9416 177.515 50.6919 177.359 50.3797C177.203 50.0675 177.125 49.7257 177.125 49.3542ZM178.357 48.8484V49.3542C178.357 49.6039 178.414 49.8318 178.53 50.0379C178.648 50.2408 178.858 50.3422 179.157 50.3422C179.457 50.3422 179.663 50.2408 179.775 50.0379C179.891 49.8318 179.949 49.6039 179.949 49.3542V48.8484C179.949 48.5987 179.894 48.3708 179.785 48.1647C179.676 47.9556 179.466 47.851 179.157 47.851C178.861 47.851 178.653 47.9556 178.534 48.1647C178.416 48.3739 178.357 48.6018 178.357 48.8484ZM177.659 56.6406L184.252 47.0502H185.423L178.829 56.6406H177.659Z" fill="black"/>
<path d="M161.267 66.9613C161.267 67.7378 161.125 68.4054 160.84 68.9641C160.556 69.5205 160.167 69.949 159.672 70.2496C159.18 70.5479 158.62 70.6971 157.992 70.6971C157.363 70.6971 156.8 70.5479 156.306 70.2496C155.813 69.949 155.425 69.5193 155.141 68.9606C154.857 68.4019 154.715 67.7354 154.715 66.9613C154.715 66.1848 154.857 65.5183 155.141 64.962C155.425 64.4033 155.813 63.9748 156.306 63.6765C156.8 63.3758 157.363 63.2255 157.992 63.2255C158.62 63.2255 159.18 63.3758 159.672 63.6765C160.167 63.9748 160.556 64.4033 160.84 64.962C161.125 65.5183 161.267 66.1848 161.267 66.9613ZM160.18 66.9613C160.18 66.3694 160.084 65.8711 159.892 65.4663C159.703 65.0591 159.442 64.7513 159.111 64.543C158.782 64.3323 158.409 64.2269 157.992 64.2269C157.573 64.2269 157.199 64.3323 156.87 64.543C156.541 64.7513 156.281 65.0591 156.089 65.4663C155.9 65.8711 155.805 66.3694 155.805 66.9613C155.805 67.5531 155.9 68.0527 156.089 68.4599C156.281 68.8647 156.541 69.1725 156.87 69.3832C157.199 69.5915 157.573 69.6957 157.992 69.6957C158.409 69.6957 158.782 69.5915 159.111 69.3832C159.442 69.1725 159.703 68.8647 159.892 68.4599C160.084 68.0527 160.18 67.5531 160.18 66.9613ZM162.494 72.6431V65.1431H163.531V66.0273H163.62C163.682 65.9137 163.77 65.7823 163.886 65.6332C164.002 65.484 164.163 65.3538 164.369 65.2425C164.575 65.1289 164.848 65.0721 165.186 65.0721C165.627 65.0721 166.02 65.1834 166.365 65.4059C166.711 65.6284 166.982 65.9492 167.178 66.3683C167.377 66.7873 167.477 67.2915 167.477 67.881C167.477 68.4705 167.378 68.976 167.182 69.3974C166.985 69.8164 166.716 70.1396 166.372 70.3668C166.029 70.5917 165.637 70.7042 165.197 70.7042C164.865 70.7042 164.594 70.6486 164.384 70.5373C164.175 70.426 164.012 70.2958 163.894 70.1467C163.775 69.9975 163.684 69.8649 163.62 69.7489H163.556V72.6431H162.494ZM163.535 67.8704C163.535 68.2539 163.591 68.5901 163.702 68.8789C163.813 69.1677 163.974 69.3938 164.185 69.5572C164.395 69.7182 164.654 69.7987 164.959 69.7987C165.276 69.7987 165.541 69.7146 165.754 69.5465C165.967 69.3761 166.128 69.1452 166.237 68.854C166.349 68.5629 166.404 68.235 166.404 67.8704C166.404 67.5105 166.35 67.1874 166.241 66.9009C166.134 66.6145 165.973 66.3884 165.758 66.2227C165.545 66.0569 165.279 65.9741 164.959 65.9741C164.651 65.9741 164.391 66.0534 164.178 66.212C163.967 66.3706 163.807 66.592 163.698 66.8761C163.589 67.1602 163.535 67.4916 163.535 67.8704ZM170.962 70.7077C170.425 70.7077 169.962 70.5929 169.574 70.3633C169.188 70.1313 168.89 69.8058 168.679 69.3867C168.471 68.9653 168.366 68.4717 168.366 67.9059C168.366 67.3472 168.471 66.8548 168.679 66.4286C168.89 66.0025 169.183 65.6699 169.56 65.4308C169.938 65.1916 170.381 65.0721 170.888 65.0721C171.195 65.0721 171.494 65.123 171.783 65.2248C172.071 65.3266 172.331 65.4864 172.56 65.7042C172.79 65.922 172.971 66.2049 173.104 66.5529C173.236 66.8986 173.302 67.3188 173.302 67.8136V68.19H168.966V67.3945H172.262C172.262 67.1152 172.205 66.8678 172.091 66.6523C171.978 66.4345 171.818 66.2629 171.612 66.1374C171.408 66.012 171.169 65.9492 170.895 65.9492C170.596 65.9492 170.336 66.0226 170.114 66.1694C169.893 66.3138 169.723 66.5032 169.602 66.7376C169.484 66.9696 169.425 67.2217 169.425 67.494V68.1154C169.425 68.48 169.489 68.7901 169.616 69.0458C169.747 69.3015 169.928 69.4968 170.16 69.6317C170.392 69.7643 170.663 69.8306 170.973 69.8306C171.174 69.8306 171.358 69.8022 171.523 69.7454C171.689 69.6862 171.832 69.5986 171.953 69.4826C172.074 69.3666 172.166 69.2234 172.23 69.0529L173.235 69.234C173.154 69.5299 173.01 69.7892 172.802 70.0117C172.596 70.2319 172.337 70.4035 172.024 70.5266C171.714 70.6474 171.36 70.7077 170.962 70.7077ZM175.487 67.359V70.5977H174.426V65.1431H175.445V66.0309H175.512C175.638 65.7421 175.834 65.5101 176.102 65.3349C176.372 65.1597 176.711 65.0721 177.121 65.0721C177.493 65.0721 177.818 65.1502 178.097 65.3065C178.377 65.4603 178.593 65.69 178.747 65.9954C178.901 66.3008 178.978 66.6784 178.978 67.1282V70.5977H177.916V67.256C177.916 66.8607 177.813 66.5517 177.607 66.3292C177.401 66.1043 177.119 65.9918 176.759 65.9918C176.512 65.9918 176.293 66.0451 176.102 66.1516C175.912 66.2582 175.762 66.4144 175.651 66.6204C175.542 66.824 175.487 67.0702 175.487 67.359ZM156.938 81.5977V74.3249H159.531C160.094 74.3249 160.562 74.422 160.933 74.6161C161.307 74.8103 161.587 75.079 161.771 75.4222C161.956 75.7631 162.048 76.1573 162.048 76.6048C162.048 77.0498 161.955 77.4416 161.768 77.7802C161.583 78.1164 161.304 78.378 160.93 78.565C160.558 78.752 160.09 78.8455 159.527 78.8455H157.563V77.9009H159.428C159.783 77.9009 160.071 77.85 160.294 77.7482C160.519 77.6464 160.683 77.4985 160.788 77.3043C160.892 77.1102 160.944 76.877 160.944 76.6048C160.944 76.3301 160.891 76.0922 160.784 75.891C160.68 75.6897 160.515 75.5359 160.29 75.4293C160.068 75.3204 159.776 75.266 159.413 75.266H158.036V81.5977H156.938ZM160.528 78.3164L162.325 81.5977H161.075L159.314 78.3164H160.528ZM164.831 81.7184C164.485 81.7184 164.173 81.6545 163.893 81.5266C163.614 81.3964 163.392 81.2082 163.229 80.962C163.068 80.7158 162.988 80.4139 162.988 80.0565C162.988 79.7487 163.047 79.4954 163.165 79.2965C163.284 79.0977 163.443 78.9402 163.645 78.8242C163.846 78.7082 164.071 78.6206 164.319 78.5614C164.568 78.5022 164.821 78.4573 165.079 78.4265C165.406 78.3886 165.671 78.3578 165.875 78.3342C166.078 78.3081 166.226 78.2667 166.319 78.2099C166.411 78.1531 166.457 78.0607 166.457 77.9329V77.908C166.457 77.5979 166.37 77.3576 166.194 77.1871C166.022 77.0167 165.763 76.9315 165.42 76.9315C165.063 76.9315 164.781 77.0108 164.575 77.1694C164.371 77.3256 164.231 77.4996 164.152 77.6914L163.155 77.4641C163.273 77.1327 163.446 76.8652 163.673 76.6616C163.903 76.4556 164.167 76.3065 164.465 76.2141C164.763 76.1194 165.077 76.0721 165.406 76.0721C165.624 76.0721 165.855 76.0981 166.098 76.1502C166.345 76.1999 166.574 76.2923 166.787 76.4272C167.003 76.5621 167.179 76.7551 167.316 77.006C167.454 77.2546 167.522 77.5778 167.522 77.9755V81.5977H166.486V80.8519H166.443C166.374 80.9892 166.271 81.1242 166.134 81.2567C165.997 81.3893 165.82 81.4994 165.605 81.587C165.389 81.6746 165.131 81.7184 164.831 81.7184ZM165.062 80.8661C165.355 80.8661 165.606 80.8081 165.814 80.6921C166.025 80.5761 166.185 80.4246 166.294 80.2376C166.405 80.0482 166.461 79.8458 166.461 79.6303V78.9272C166.423 78.9651 166.349 79.0006 166.241 79.0337C166.134 79.0645 166.012 79.0917 165.875 79.1154C165.737 79.1367 165.604 79.1568 165.473 79.1758C165.343 79.1924 165.234 79.2066 165.147 79.2184C164.941 79.2444 164.753 79.2882 164.582 79.3498C164.414 79.4113 164.279 79.5001 164.177 79.6161C164.078 79.7298 164.028 79.8813 164.028 80.0707C164.028 80.3335 164.125 80.5323 164.319 80.6673C164.513 80.7998 164.761 80.8661 165.062 80.8661ZM171.428 76.1431V76.9954H168.449V76.1431H171.428ZM169.248 74.8363H170.309V79.9961C170.309 80.2021 170.34 80.3571 170.402 80.4613C170.463 80.5631 170.543 80.6329 170.64 80.6708C170.739 80.7063 170.847 80.7241 170.963 80.7241C171.048 80.7241 171.123 80.7182 171.186 80.7063C171.25 80.6945 171.3 80.685 171.336 80.6779L171.527 81.555C171.466 81.5787 171.378 81.6024 171.265 81.6261C171.151 81.6521 171.009 81.6663 170.838 81.6687C170.559 81.6734 170.299 81.6237 170.057 81.5195C169.816 81.4154 169.62 81.2544 169.471 81.0366C169.322 80.8188 169.248 80.5453 169.248 80.2163V74.8363ZM174.84 81.7077C174.302 81.7077 173.84 81.5929 173.451 81.3633C173.065 81.1313 172.767 80.8058 172.556 80.3867C172.348 79.9653 172.244 79.4717 172.244 78.9059C172.244 78.3472 172.348 77.8548 172.556 77.4286C172.767 77.0025 173.061 76.6699 173.437 76.4308C173.816 76.1916 174.259 76.0721 174.765 76.0721C175.073 76.0721 175.371 76.123 175.66 76.2248C175.949 76.3266 176.208 76.4864 176.438 76.7042C176.667 76.922 176.849 77.2049 176.981 77.5529C177.114 77.8986 177.18 78.3188 177.18 78.8136V79.19H172.844V78.3945H176.139C176.139 78.1152 176.083 77.8678 175.969 77.6523C175.855 77.4345 175.696 77.2629 175.49 77.1374C175.286 77.012 175.047 76.9492 174.772 76.9492C174.474 76.9492 174.214 77.0226 173.991 77.1694C173.771 77.3138 173.6 77.5032 173.48 77.7376C173.361 77.9696 173.302 78.2217 173.302 78.494V79.1154C173.302 79.48 173.366 79.7901 173.494 80.0458C173.624 80.3015 173.805 80.4968 174.037 80.6317C174.269 80.7643 174.54 80.8306 174.85 80.8306C175.052 80.8306 175.235 80.8022 175.401 80.7454C175.567 80.6862 175.71 80.5986 175.831 80.4826C175.951 80.3666 176.044 80.2234 176.108 80.0529L177.113 80.234C177.032 80.5299 176.888 80.7892 176.679 81.0117C176.473 81.2319 176.214 81.4035 175.902 81.5266C175.591 81.6474 175.238 81.7077 174.84 81.7077Z" fill="#858C95"/>
</svg>
