<svg width="32" height="32" viewBox="0 0 32 32" fill="none" xmlns="http://www.w3.org/2000/svg">
<path opacity="0.5" fill-rule="evenodd" clip-rule="evenodd" d="M16.0001 29.3332C23.3638 29.3332 29.3334 23.3636 29.3334 15.9998C29.3334 8.63604 23.3638 2.6665 16.0001 2.6665C8.63628 2.6665 2.66675 8.63604 2.66675 15.9998C2.66675 23.3636 8.63628 29.3332 16.0001 29.3332ZM16.0001 21.3332C18.9455 21.3332 21.3334 18.9453 21.3334 15.9998C21.3334 13.0543 18.9455 10.6665 16.0001 10.6665C13.0546 10.6665 10.6667 13.0543 10.6667 15.9998C10.6667 18.9453 13.0546 21.3332 16.0001 21.3332Z" fill="#2440E5"/>
<path d="M7.30511 26.1092L13.0021 20.4122C12.4465 20.034 11.9661 19.5536 11.5878 18.998L5.89087 24.695C6.32639 25.2008 6.79923 25.6736 7.30511 26.1092Z" fill="#2440E5"/>
<path d="M5.89062 7.30533L11.5876 13.0023C11.9658 12.4467 12.4462 11.9663 13.0018 11.5881L7.30484 5.89111C6.79896 6.32662 6.32613 6.79945 5.89062 7.30533Z" fill="#2440E5"/>
<path d="M18.9973 11.5886L24.6942 5.8916C25.2001 6.32712 25.673 6.79995 26.1085 7.30584L20.4114 13.0028C20.0333 12.4472 19.5529 11.9668 18.9973 11.5886Z" fill="#2440E5"/>
<path d="M26.1083 24.6945L20.4112 18.9976C20.0331 19.5532 19.5527 20.0336 18.9971 20.4117L24.694 26.1088C25.1999 25.6732 25.6727 25.2004 26.1083 24.6945Z" fill="#2440E5"/>
</svg>
