<svg width="32" height="2" viewBox="0 0 32 2" fill="none" xmlns="http://www.w3.org/2000/svg">
<g clip-path="url(#clip0_4_124365)">
<path d="M12 0.25H6C4.89543 0.25 4 0.305964 4 0.375V0.75C4 0.819036 4.89543 0.875 6 0.875H12C13.1046 0.875 14 0.819036 14 0.75V0.375C14 0.305964 13.1046 0.25 12 0.25Z" stroke="#2440E5" stroke-width="2"/>
<path d="M12 1.125H6C4.89543 1.125 4 1.18096 4 1.25V1.625C4 1.69404 4.89543 1.75 6 1.75H12C13.1046 1.75 14 1.69404 14 1.625V1.25C14 1.18096 13.1046 1.125 12 1.125Z" stroke="#2440E5" stroke-width="2"/>
<path d="M26 0.25H20C18.8954 0.25 18 0.305964 18 0.375V0.75C18 0.819036 18.8954 0.875 20 0.875H26C27.1046 0.875 28 0.819036 28 0.75V0.375C28 0.305964 27.1046 0.25 26 0.25Z" stroke="#2440E5" stroke-width="2"/>
<path d="M23 1.125V1.75" stroke="#2440E5" stroke-width="2" stroke-linecap="round" stroke-linejoin="round"/>
<path d="M18 1H28" stroke="#2440E5" stroke-width="2" stroke-linecap="round" stroke-linejoin="round"/>
</g>
<defs>
<clipPath id="clip0_4_124365">
<rect width="32" height="2" fill="white"/>
</clipPath>
</defs>
</svg>
