<svg width="26" height="25" viewBox="0 0 26 25" fill="none" xmlns="http://www.w3.org/2000/svg">
<path opacity="0.5" d="M9.42439 4.4908C9.50981 2.40443 11.1857 0.734784 13.2724 0.657197L17.5001 0.5L21.7442 0.657176C23.8373 0.734689 25.5161 2.41367 25.5935 4.50673L25.7503 8.75015L25.5935 12.9779C25.5161 15.0649 23.8462 16.741 21.7595 16.8263L17.5001 17.0003L13.2571 16.8263C11.1769 16.7409 9.50992 15.0741 9.42442 12.9939L9.25 8.75015L9.42439 4.4908Z" fill="#2440E5"/>
<path d="M0.168829 9.4588C0.285208 6.3286 2.78992 3.81464 5.91967 3.68672L10.5002 3.49951L15.0642 3.68676C18.1847 3.81479 20.6852 6.31529 20.8132 9.43583L21.0004 13.9997L20.8132 18.5802C20.6853 21.71 18.1713 24.2148 15.0411 24.3311L10.5002 24.4999L5.9427 24.3311C2.8033 24.2149 0.285071 21.6967 0.168799 18.5573L0 13.9997L0.168829 9.4588Z" fill="#2440E5"/>
</svg>
