<svg width="18" height="23" viewBox="0 0 18 23" fill="none" xmlns="http://www.w3.org/2000/svg">
<path fill-rule="evenodd" clip-rule="evenodd" d="M0 9.5C0 4.52944 4.02944 0.5 9 0.5C13.9706 0.5 18 4.52944 18 9.5C18 10.8059 17.5639 12.2567 16.9446 13.6461C16.3183 15.0512 15.4693 16.4714 14.5635 17.7385C13.6588 19.0038 12.6774 20.1444 11.7725 20.9807C11.3213 21.3977 10.8688 21.758 10.4372 22.0203C10.0328 22.2659 9.52765 22.5 9 22.5C8.47235 22.5 7.96716 22.2659 7.56284 22.0203C7.13122 21.758 6.67872 21.3977 6.22751 20.9807C5.32262 20.1444 4.34119 19.0038 3.43652 17.7385C2.53066 16.4714 1.68168 15.0512 1.05537 13.6461C0.436092 12.2567 0 10.8059 0 9.5ZM9 13.5C11.2091 13.5 13 11.7091 13 9.5C13 7.29086 11.2091 5.5 9 5.5C6.79086 5.5 5 7.29086 5 9.5C5 11.7091 6.79086 13.5 9 13.5Z" fill="#437EF7"/>
</svg>
