<svg width="213" height="42" viewBox="0 0 213 42" fill="none" xmlns="http://www.w3.org/2000/svg">
<g clip-path="url(#clip0_4_27318)">
<mask id="mask0_4_27318" style="mask-type:luminance" maskUnits="userSpaceOnUse" x="-18" y="-20" width="245" height="81">
<path d="M226.84 -19.5132H-17.2207V60.3832H226.84V-19.5132Z" fill="white"/>
</mask>
<g mask="url(#mask0_4_27318)">
<path d="M24.2098 8.19189C20.3671 8.19189 18.1389 9.89585 17.0733 11.0318C16.9442 10.0221 16.266 8.72832 13.6181 8.72832H7.83789V14.5975H10.1952C10.5827 14.5975 10.7119 14.7237 10.7119 15.1024V41.9554H17.5577V31.921V31.1637C18.6233 32.1103 20.6577 33.4356 23.8546 33.4356C30.539 33.4356 35.2213 28.2607 35.2213 20.8138C35.2536 13.2722 30.7973 8.19189 24.2098 8.19189ZM22.8212 27.598C19.14 27.598 17.4608 24.1586 17.4608 20.94C17.4608 15.8912 20.2702 14.0926 22.9181 14.0926C26.1473 14.0926 28.3431 16.8063 28.3431 20.8769C28.3108 25.547 25.5338 27.598 22.8212 27.598Z" fill="#275A7A"/>
</g>
<mask id="mask1_4_27318" style="mask-type:luminance" maskUnits="userSpaceOnUse" x="-18" y="-20" width="245" height="81">
<path d="M226.84 -19.5132H-17.2207V60.3832H226.84V-19.5132Z" fill="white"/>
</mask>
<g mask="url(#mask1_4_27318)">
<path d="M44.4574 26.5565V12.3253C44.4574 9.92717 43.2626 8.75964 40.8407 8.75964H34.7053V14.6288H37.0626C37.4501 14.6288 37.5793 14.755 37.5793 15.1337V29.3017C37.5793 31.7314 38.7418 32.8674 41.196 32.8674H47.3314V27.0298H44.9741C44.6189 27.0613 44.4574 26.9036 44.4574 26.5565Z" fill="#275A7A"/>
</g>
<mask id="mask2_4_27318" style="mask-type:luminance" maskUnits="userSpaceOnUse" x="-18" y="-20" width="245" height="81">
<path d="M226.84 -19.5132H-17.2207V60.3832H226.84V-19.5132Z" fill="white"/>
</mask>
<g mask="url(#mask2_4_27318)">
<path d="M62.3465 8.19189C58.5038 8.19189 56.2757 9.89585 55.1777 11.0318C55.0486 10.0221 54.3705 8.72832 51.7225 8.72832H45.9746V14.5975H48.3319C48.7194 14.5975 48.8486 14.7237 48.8486 15.1024V41.9554H55.759V31.921V31.1637C56.8246 32.1103 58.8913 33.4356 62.0559 33.4356C68.7403 33.4356 73.4226 28.2607 73.4226 20.8138C73.4226 13.2722 68.9663 8.19189 62.3465 8.19189ZM60.958 27.598C57.2767 27.598 55.5975 24.1586 55.5975 20.94C55.5975 15.8912 58.4069 14.0926 61.0548 14.0926C64.284 14.0926 66.4799 16.8063 66.4799 20.8769C66.4799 25.547 63.7028 27.598 60.958 27.598Z" fill="#275A7A"/>
</g>
<mask id="mask3_4_27318" style="mask-type:luminance" maskUnits="userSpaceOnUse" x="-18" y="-20" width="245" height="81">
<path d="M226.84 -19.5132H-17.2207V60.3832H226.84V-19.5132Z" fill="white"/>
</mask>
<g mask="url(#mask3_4_27318)">
<path d="M86.3065 8.19189C78.9117 8.19189 73.7773 13.3984 73.7773 20.8138C73.7773 28.1344 79.3315 33.4356 87.0169 33.4356C93.0555 33.4356 96.7368 29.9331 96.8982 29.8068L97.1888 29.5544L94.218 24.7265L93.7659 25.1367C93.7336 25.1683 91.0211 27.598 87.4367 27.598C84.0138 27.598 81.4951 25.547 80.8815 22.3284H97.1243L97.1566 21.8866C97.1566 21.8235 97.318 20.4035 97.318 19.7093C97.318 12.8304 92.894 8.19189 86.3065 8.19189ZM81.1399 17.3427C81.8826 14.9761 83.7555 13.6193 86.3065 13.6193C88.3732 13.6193 89.9555 15.1655 90.2461 17.3427H81.1399Z" fill="#275A7A"/>
</g>
<mask id="mask4_4_27318" style="mask-type:luminance" maskUnits="userSpaceOnUse" x="-18" y="-20" width="245" height="81">
<path d="M226.84 -19.5132H-17.2207V60.3832H226.84V-19.5132Z" fill="white"/>
</mask>
<g mask="url(#mask4_4_27318)">
<path d="M122.247 26.5569V3.23804C122.247 0.839886 121.052 -0.327637 118.598 -0.327637H112.463V5.54153H114.82C115.207 5.54153 115.336 5.66775 115.336 6.04641V10.2747C114.335 9.3912 112.366 8.22368 108.943 8.22368C102.291 8.22368 97.6406 13.4302 97.6406 20.8455C97.6406 28.3871 102.097 33.4674 108.684 33.4674C112.463 33.4674 114.658 31.7635 115.724 30.5644C115.853 31.6057 116.564 32.931 119.115 32.931H125.056V27.0934H122.764C122.376 27.0618 122.247 26.904 122.247 26.5569ZM110.008 27.5982C106.747 27.5982 104.648 24.9476 104.648 20.814C104.648 16.8065 106.844 14.1244 110.105 14.1244C113.819 14.1244 115.466 17.4692 115.466 20.7824C115.466 25.8312 112.656 27.5982 110.008 27.5982Z" fill="#275A7A"/>
</g>
<mask id="mask5_4_27318" style="mask-type:luminance" maskUnits="userSpaceOnUse" x="-18" y="-20" width="245" height="81">
<path d="M226.84 -19.5132H-17.2207V60.3832H226.84V-19.5132Z" fill="white"/>
</mask>
<g mask="url(#mask5_4_27318)">
<path d="M140.332 8.41272C137.49 8.41272 134.842 10.022 133.292 12.5779V12.0415C133.292 9.86423 132.065 8.72827 129.643 8.72827H123.766V14.5974H126.123C126.511 14.5974 126.64 14.7236 126.64 15.1023V32.8676H133.486V23.2119C133.486 21.9497 133.647 20.719 133.97 19.5831C135.003 16.2383 137.748 15.0708 139.944 15.0708C140.719 15.0708 141.3 15.1654 141.3 15.1654L141.882 15.2601V8.60205L141.462 8.53894C141.462 8.50738 140.88 8.41272 140.332 8.41272Z" fill="#275A7A"/>
</g>
<mask id="mask6_4_27318" style="mask-type:luminance" maskUnits="userSpaceOnUse" x="-18" y="-20" width="245" height="81">
<path d="M226.84 -19.5132H-17.2207V60.3832H226.84V-19.5132Z" fill="white"/>
</mask>
<g mask="url(#mask6_4_27318)">
<path d="M151.632 26.5566V12.3254C151.632 9.92729 150.437 8.75977 148.015 8.75977H142.461V14.6289H144.237C144.624 14.6289 144.754 14.7552 144.754 15.1338V29.3018C144.754 31.7316 145.916 32.8675 148.37 32.8675H154.506V27.0299H152.148C151.793 27.0615 151.632 26.9037 151.632 26.5566Z" fill="#275A7A"/>
</g>
<mask id="mask7_4_27318" style="mask-type:luminance" maskUnits="userSpaceOnUse" x="-18" y="-20" width="245" height="81">
<path d="M226.84 -19.5132H-17.2207V60.3832H226.84V-19.5132Z" fill="white"/>
</mask>
<g mask="url(#mask7_4_27318)">
<path d="M177.5 8.75952H173.851C171.72 8.75952 170.557 9.48528 169.879 11.2523L165.423 23.4324C165.262 23.8742 165.132 24.3791 165.003 24.884C164.874 24.4106 164.713 23.8742 164.551 23.4324L160.095 11.2523C159.417 9.45372 158.319 8.75952 156.123 8.75952H152.248V14.6287H153.249C153.798 14.6287 153.96 14.818 154.089 15.1336L160.999 32.8988H168.717L175.627 15.1336C175.756 14.818 175.918 14.6287 176.467 14.6287H177.532V8.75952H177.5Z" fill="#275A7A"/>
</g>
<mask id="mask8_4_27318" style="mask-type:luminance" maskUnits="userSpaceOnUse" x="-18" y="-20" width="245" height="81">
<path d="M226.84 -19.5132H-17.2207V60.3832H226.84V-19.5132Z" fill="white"/>
</mask>
<g mask="url(#mask8_4_27318)">
<path d="M189.318 8.19189C181.923 8.19189 176.789 13.3984 176.789 20.8138C176.789 28.1344 182.343 33.4356 190.029 33.4356C196.067 33.4356 199.748 29.9331 199.91 29.8068L200.201 29.5544L197.23 24.7265L196.778 25.1367C196.745 25.1683 194.033 27.598 190.481 27.598C187.058 27.598 184.539 25.547 183.926 22.3284H200.168L200.201 21.8866C200.201 21.8235 200.33 20.4035 200.33 19.7093C200.33 12.8304 195.906 8.19189 189.318 8.19189ZM184.152 17.3427C184.894 14.9761 186.767 13.6193 189.318 13.6193C191.385 13.6193 192.967 15.1655 193.258 17.3427H184.152Z" fill="#275A7A"/>
</g>
<mask id="mask9_4_27318" style="mask-type:luminance" maskUnits="userSpaceOnUse" x="-18" y="-20" width="245" height="81">
<path d="M226.84 -19.5132H-17.2207V60.3832H226.84V-19.5132Z" fill="white"/>
</mask>
<g mask="url(#mask9_4_27318)">
<path d="M43.9725 -0.359375H37.8694V5.92H43.9725V-0.359375Z" fill="#495C68"/>
</g>
<mask id="mask10_4_27318" style="mask-type:luminance" maskUnits="userSpaceOnUse" x="-18" y="-20" width="245" height="81">
<path d="M226.84 -19.5132H-17.2207V60.3832H226.84V-19.5132Z" fill="white"/>
</mask>
<g mask="url(#mask10_4_27318)">
<path d="M151.181 -0.359619H145.078V5.91976H151.181V-0.359619Z" fill="#495C68"/>
</g>
<mask id="mask11_4_27318" style="mask-type:luminance" maskUnits="userSpaceOnUse" x="-18" y="-20" width="245" height="81">
<path d="M226.84 -19.5132H-17.2207V60.3832H226.84V-19.5132Z" fill="white"/>
</mask>
<g mask="url(#mask11_4_27318)">
<path d="M200.201 8.75988H201.105V11.158H201.783V8.75988H202.688V8.19189H200.201V8.75988Z" fill="#275A7A"/>
</g>
<mask id="mask12_4_27318" style="mask-type:luminance" maskUnits="userSpaceOnUse" x="0" y="-8" width="213" height="57">
<path d="M212.721 -7.19971H0.320312V48.0005H212.721V-7.19971Z" fill="white"/>
</mask>
<g mask="url(#mask12_4_27318)">
<path d="M205.366 8.19165L204.688 10.2427L203.977 8.19165H203.041V11.1578H203.655V9.07518H203.687L204.43 11.1578H204.946L205.689 9.07518V11.1578H206.302V8.19165H205.366Z" fill="#275A7A"/>
</g>
</g>
<defs>
<clipPath id="clip0_4_27318">
<rect width="212.401" height="42.0002" fill="white" transform="translate(0.320312 0.000488281)"/>
</clipPath>
</defs>
</svg>
