<svg width="28" height="28" viewBox="0 0 28 28" fill="none" xmlns="http://www.w3.org/2000/svg">
<path d="M12.8333 3.50016C12.8333 2.85583 12.311 2.3335 11.6666 2.3335C11.0223 2.3335 10.5 2.85583 10.5 3.50016V7.00016C10.5 7.64449 11.0223 8.16683 11.6666 8.16683C12.311 8.16683 12.8333 7.64449 12.8333 7.00016V3.50016Z" fill="#0A77FF"/>
<path d="M6.65827 5.00854C6.20266 4.55293 5.46397 4.55293 5.00835 5.00854C4.55274 5.46415 4.55274 6.20284 5.00835 6.65845L7.34169 8.99179C7.7973 9.4474 8.53599 9.4474 8.9916 8.99179C9.44722 8.53618 9.44722 7.79748 8.9916 7.34187L6.65827 5.00854Z" fill="#0A77FF"/>
<path d="M18.3249 6.65845C18.7806 6.20284 18.7806 5.46415 18.3249 5.00854C17.8693 4.55293 17.1306 4.55293 16.675 5.00854L14.3417 7.34187C13.8861 7.79748 13.8861 8.53618 14.3417 8.99179C14.7973 9.4474 15.536 9.4474 15.9916 8.99179L18.3249 6.65845Z" fill="#0A77FF"/>
<path d="M3.49998 10.5002C2.85565 10.5002 2.33331 11.0225 2.33331 11.6668C2.33331 12.3112 2.85565 12.8335 3.49998 12.8335H6.99998C7.64431 12.8335 8.16665 12.3112 8.16665 11.6668C8.16665 11.0225 7.64431 10.5002 6.99998 10.5002H3.49998Z" fill="#0A77FF"/>
<path d="M8.9916 15.9918C9.44722 15.5362 9.44722 14.7975 8.9916 14.3419C8.53599 13.8863 7.7973 13.8863 7.34169 14.3419L5.00835 16.6752C4.55274 17.1308 4.55274 17.8695 5.00835 18.3251C5.46397 18.7807 6.20266 18.7807 6.65827 18.3251L8.9916 15.9918Z" fill="#0A77FF"/>
<path d="M11.9207 10.5516C12.0641 10.5896 12.2341 10.6514 12.4021 10.7126L22.4247 14.3572C22.7463 14.4741 23.034 14.5787 23.2557 14.683C23.4758 14.7866 23.759 14.9455 23.9437 15.2363C24.1787 15.6063 24.2375 16.0614 24.1041 16.4789C23.9993 16.8071 23.7658 17.0327 23.5792 17.1888C23.3913 17.346 23.1396 17.5202 22.8583 17.715L21.9463 18.3463C21.7352 18.4924 21.6166 18.5754 21.5364 18.6418L21.5262 18.6504L21.5347 18.6607C21.6017 18.7404 21.7036 18.8433 21.8851 19.0248L23.9075 21.0472C24.6975 21.8371 24.6975 23.1178 23.9075 23.9077C23.1176 24.6976 21.8369 24.6976 21.047 23.9077L19.0246 21.8853C18.8431 21.7038 18.7402 21.6019 18.6605 21.5349L18.6502 21.5264L18.6416 21.5366C18.5752 21.6168 18.4922 21.7354 18.3461 21.9465L17.7148 22.8584C17.5201 23.1397 17.3458 23.3915 17.1886 23.5794C17.0325 23.766 16.8069 23.9995 16.4787 24.1043C16.0612 24.2376 15.6061 24.1789 15.2361 23.9439C14.9453 23.7592 14.7865 23.476 14.6828 23.2559C14.5785 23.0342 14.4739 22.7465 14.357 22.4249L10.7124 12.4023C10.6513 12.2343 10.5894 12.0643 10.5515 11.9208C10.5156 11.7854 10.4555 11.5224 10.5527 11.2403C10.6639 10.9176 10.9174 10.6641 11.2401 10.5529C11.5222 10.4557 11.7852 10.5158 11.9207 10.5516Z" fill="#0A77FF"/>
</svg>
