<svg width="25" height="24" viewBox="0 0 25 24" fill="none" xmlns="http://www.w3.org/2000/svg">
<path d="M9.02367 7.36364C8.47138 7.36364 8.02367 7.81135 8.02367 8.36364C8.02367 8.91592 8.47138 9.36364 9.02367 9.36364V7.36364ZM16.2964 9.36364C16.8486 9.36364 17.2964 8.91592 17.2964 8.36364C17.2964 7.81135 16.8486 7.36364 16.2964 7.36364V9.36364ZM9.02367 11C8.47138 11 8.02367 11.4477 8.02367 12C8.02367 12.5523 8.47138 13 9.02367 13V11ZM16.2964 13C16.8486 13 17.2964 12.5523 17.2964 12C17.2964 11.4477 16.8486 11 16.2964 11V13ZM9.02367 14.6364C8.47138 14.6364 8.02367 15.0841 8.02367 15.6364C8.02367 16.1886 8.47138 16.6364 9.02367 16.6364V14.6364ZM16.2964 16.6364C16.8486 16.6364 17.2964 16.1886 17.2964 15.6364C17.2964 15.0841 16.8486 14.6364 16.2964 14.6364V16.6364ZM9.02367 9.36364H16.2964V7.36364H9.02367V9.36364ZM9.02367 13H16.2964V11H9.02367V13ZM9.02367 16.6364H16.2964V14.6364H9.02367V16.6364ZM9.93276 3H15.3873V1H9.93276V3ZM21.66 9.27273V14.7273H23.66V9.27273H21.66ZM15.3873 21H9.93276V23H15.3873V21ZM3.66003 14.7273V9.27273H1.66003V14.7273H3.66003ZM9.93276 21C8.64341 21 7.73654 20.9992 7.02874 20.9414C6.33262 20.8845 5.91758 20.7775 5.59588 20.6136L4.6879 22.3956C5.33853 22.7271 6.04607 22.8678 6.86588 22.9348C7.67402 23.0008 8.67641 23 9.93276 23V21ZM1.66003 14.7273C1.66003 15.9836 1.65926 16.986 1.72528 17.7942C1.79226 18.614 1.93294 19.3215 2.26445 19.9721L4.04646 19.0641C3.88255 18.7425 3.77551 18.3274 3.71864 17.6313C3.66081 16.9235 3.66003 16.0166 3.66003 14.7273H1.66003ZM5.59588 20.6136C4.92876 20.2737 4.38638 19.7313 4.04646 19.0641L2.26445 19.9721C2.79611 21.0156 3.64446 21.8639 4.6879 22.3956L5.59588 20.6136ZM21.66 14.7273C21.66 16.0166 21.6592 16.9235 21.6014 17.6313C21.5445 18.3274 21.4375 18.7425 21.2736 19.0641L23.0556 19.9721C23.3871 19.3215 23.5278 18.614 23.5948 17.7942C23.6608 16.986 23.66 15.9836 23.66 14.7273H21.66ZM15.3873 23C16.6436 23 17.646 23.0008 18.4542 22.9348C19.274 22.8678 19.9815 22.7271 20.6321 22.3956L19.7241 20.6136C19.4025 20.7775 18.9874 20.8845 18.2913 20.9414C17.5835 20.9992 16.6766 21 15.3873 21V23ZM21.2736 19.0641C20.9337 19.7313 20.3913 20.2737 19.7241 20.6136L20.6321 22.3956C21.6756 21.8639 22.5239 21.0156 23.0556 19.9721L21.2736 19.0641ZM15.3873 3C16.6766 3 17.5835 3.00078 18.2913 3.05861C18.9874 3.11548 19.4025 3.22252 19.7241 3.38643L20.6321 1.60442C19.9815 1.27291 19.274 1.13223 18.4542 1.06525C17.646 0.999222 16.6436 1 15.3873 1V3ZM23.66 9.27273C23.66 8.01638 23.6608 7.01398 23.5948 6.20585C23.5278 5.38604 23.3871 4.6785 23.0556 4.02787L21.2736 4.93585C21.4375 5.25755 21.5445 5.67259 21.6014 6.36871C21.6592 7.07651 21.66 7.98338 21.66 9.27273H23.66ZM19.7241 3.38643C20.3913 3.72635 20.9337 4.26873 21.2736 4.93585L23.0556 4.02787C22.5239 2.98443 21.6756 2.13608 20.6321 1.60442L19.7241 3.38643ZM9.93276 1C8.67641 1 7.67402 0.999222 6.86588 1.06525C6.04607 1.13223 5.33853 1.27291 4.6879 1.60442L5.59588 3.38643C5.91758 3.22252 6.33262 3.11548 7.02874 3.05861C7.73654 3.00078 8.64341 3 9.93276 3V1ZM3.66003 9.27273C3.66003 7.98338 3.66081 7.07651 3.71864 6.36871C3.77551 5.67259 3.88255 5.25755 4.04646 4.93585L2.26445 4.02787C1.93294 4.6785 1.79226 5.38604 1.72528 6.20585C1.65926 7.01398 1.66003 8.01638 1.66003 9.27273H3.66003ZM4.6879 1.60442C3.64446 2.13608 2.79611 2.98443 2.26445 4.02787L4.04646 4.93585C4.38638 4.26873 4.92876 3.72635 5.59588 3.38643L4.6879 1.60442Z" fill="#0A77FF"/>
</svg>
