<svg width="32" height="32" viewBox="0 0 32 32" fill="none" xmlns="http://www.w3.org/2000/svg">
<path d="M10.6667 21.3334V14.6667M16 21.3334V10.6667M21.3334 21.3334V18.6667M16 5.33341H8.00004C7.2928 5.33341 6.61452 5.61437 6.11442 6.11446C5.61433 6.61456 5.33337 7.29284 5.33337 8.00008V24.0001C5.33337 24.7073 5.61433 25.3856 6.11442 25.8857C6.61452 26.3858 7.2928 26.6667 8.00004 26.6667H24C24.7073 26.6667 25.3856 26.3858 25.8857 25.8857C26.3858 25.3856 26.6667 24.7073 26.6667 24.0001V16.0001M25.3334 2.66675V6.66675M25.3334 6.66675V10.6667M25.3334 6.66675H29.3334M25.3334 6.66675H21.3334" stroke="#2440E5" stroke-width="2.4" stroke-linecap="round" stroke-linejoin="round"/>
</svg>
