<svg width="32" height="33" viewBox="0 0 32 33" fill="none" xmlns="http://www.w3.org/2000/svg">
<path d="M22 11.4932C22 14.8069 19.3137 17.4932 16 17.4932C12.6863 17.4932 10 14.8069 10 11.4932C10 8.17946 12.6863 5.49316 16 5.49316C16.7013 5.49316 17.3744 5.61347 18 5.83458" stroke="#2440E5" stroke-width="2" stroke-linecap="round"/>
<path d="M27 27.4932C27 24.1795 24.3137 21.4932 21 21.4932H11C7.68629 21.4932 5 24.1795 5 27.4932" stroke="#2440E5" stroke-width="2" stroke-linecap="round"/>
<path d="M25 3.49316L25.8048 5.5856C25.9176 5.87889 25.974 6.02554 26.0617 6.14889C26.1394 6.25821 26.235 6.35373 26.3443 6.43147C26.4676 6.51917 26.6143 6.57558 26.9076 6.68838L29 7.49316L26.9076 8.29795C26.6143 8.41075 26.4676 8.46715 26.3443 8.55486C26.235 8.6326 26.1394 8.72812 26.0617 8.83744C25.974 8.96079 25.9176 9.10744 25.8048 9.40073L25 11.4932L24.1952 9.40073C24.0824 9.10744 24.026 8.96079 23.9383 8.83744C23.8606 8.72812 23.765 8.6326 23.6557 8.55486C23.5324 8.46715 23.3857 8.41075 23.0924 8.29795L21 7.49316L23.0924 6.68838C23.3857 6.57558 23.5324 6.51918 23.6557 6.43147C23.765 6.35373 23.8606 6.25821 23.9383 6.14889C24.026 6.02554 24.0824 5.87889 24.1952 5.5856L25 3.49316Z" stroke="#2440E5" stroke-width="1.5" stroke-linecap="round" stroke-linejoin="round"/>
</svg>
