<svg width="20" height="20" viewBox="0 0 20 20" fill="none" xmlns="http://www.w3.org/2000/svg">
<path d="M9.09808 0.634223C11.0113 -0.470347 13.4576 0.185154 14.5622 2.09832L15.9395 4.48384L9.15131 8.72643L7.63398 6.09832C6.52941 4.18515 7.18491 1.73879 9.09808 0.634223Z" fill="#2EBF43"/>
<path d="M10.1519 10.4595L16.9401 6.21695L18.5622 9.02653C19.6668 10.9397 19.0112 13.3861 17.0981 14.4906C15.1849 15.5952 12.7385 14.9397 11.634 13.0265L10.1519 10.4595Z" fill="#2EBF43"/>
<path d="M0 15.0002C0 12.2388 2.23858 10.0002 5 10.0002C6.01908 10.0002 6.96696 10.3051 7.75739 10.8286L0.828396 17.7576C0.304877 16.9672 0 16.0193 0 15.0002Z" fill="#2EBF43"/>
<path d="M2.24261 19.1718L9.1716 12.2429C9.69512 13.0333 10 13.9812 10 15.0002C10 17.7617 7.76142 20.0002 5 20.0002C3.98092 20.0002 3.03304 19.6954 2.24261 19.1718Z" fill="#2EBF43"/>
</svg>
