<svg width="60" height="60" viewBox="0 0 60 60" fill="none" xmlns="http://www.w3.org/2000/svg">
<g filter="url(#filter0_d_85_147)">
<path d="M2 29C2 13.536 14.536 1 30 1C45.464 1 58 13.536 58 29C58 44.464 45.464 57 30 57C14.536 57 2 44.464 2 29Z" fill="#2440E5" shape-rendering="crispEdges"/>
<g clip-path="url(#clip0_85_147)">
<g filter="url(#filter1_d_85_147)">
<path fill-rule="evenodd" clip-rule="evenodd" d="M30 42.3332C37.3638 42.3332 43.3334 36.3636 43.3334 28.9998C43.3334 21.636 37.3638 15.6665 30 15.6665C22.6362 15.6665 16.6667 21.636 16.6667 28.9998C16.6667 36.3636 22.6362 42.3332 30 42.3332ZM23.3334 25.6665C23.3334 24.5619 24.2288 23.6665 25.3334 23.6665C26.4379 23.6665 27.3334 24.5619 27.3334 25.6665C27.3334 26.7711 26.4379 27.6665 25.3334 27.6665C24.2288 27.6665 23.3334 26.7711 23.3334 25.6665ZM32.3852 25.6665C32.3852 24.5619 33.2806 23.6665 34.3852 23.6665C35.4897 23.6665 36.3852 24.5619 36.3852 25.6665C36.3852 26.7711 35.4897 27.6665 34.3852 27.6665C33.2806 27.6665 32.3852 26.7711 32.3852 25.6665ZM25.8595 32.4038C25.5302 31.7452 24.7293 31.4782 24.0707 31.8076C23.4121 32.1369 23.1451 32.9378 23.4744 33.5964C24.1346 34.9169 26.2731 37.0001 30.0003 37.0001C33.7275 37.0001 35.866 34.9169 36.5262 33.5964C36.8555 32.9378 36.5886 32.1369 35.9299 31.8076C35.2713 31.4782 34.4704 31.7452 34.1411 32.4038C33.9124 32.8612 32.6731 34.3335 30.0003 34.3335C27.3275 34.3335 26.0882 32.8612 25.8595 32.4038Z" fill="white"/>
</g>
</g>
</g>
<defs>
<filter id="filter0_d_85_147" x="0" y="0" width="60" height="60" filterUnits="userSpaceOnUse" color-interpolation-filters="sRGB">
<feFlood flood-opacity="0" result="BackgroundImageFix"/>
<feColorMatrix in="SourceAlpha" type="matrix" values="0 0 0 0 0 0 0 0 0 0 0 0 0 0 0 0 0 0 127 0" result="hardAlpha"/>
<feOffset dy="1"/>
<feGaussianBlur stdDeviation="1"/>
<feComposite in2="hardAlpha" operator="out"/>
<feColorMatrix type="matrix" values="0 0 0 0 0.0627451 0 0 0 0 0.0941176 0 0 0 0 0.156863 0 0 0 0.04 0"/>
<feBlend mode="normal" in2="BackgroundImageFix" result="effect1_dropShadow_85_147"/>
<feBlend mode="normal" in="SourceGraphic" in2="effect1_dropShadow_85_147" result="shape"/>
</filter>
<filter id="filter1_d_85_147" x="14.6667" y="14.6665" width="30.6667" height="30.6665" filterUnits="userSpaceOnUse" color-interpolation-filters="sRGB">
<feFlood flood-opacity="0" result="BackgroundImageFix"/>
<feColorMatrix in="SourceAlpha" type="matrix" values="0 0 0 0 0 0 0 0 0 0 0 0 0 0 0 0 0 0 127 0" result="hardAlpha"/>
<feOffset dy="1"/>
<feGaussianBlur stdDeviation="1"/>
<feComposite in2="hardAlpha" operator="out"/>
<feColorMatrix type="matrix" values="0 0 0 0 0.0627451 0 0 0 0 0.0941176 0 0 0 0 0.156863 0 0 0 0.04 0"/>
<feBlend mode="normal" in2="BackgroundImageFix" result="effect1_dropShadow_85_147"/>
<feBlend mode="normal" in="SourceGraphic" in2="effect1_dropShadow_85_147" result="shape"/>
</filter>
<clipPath id="clip0_85_147">
<rect width="32" height="32" fill="white" transform="translate(14 13)"/>
</clipPath>
</defs>
</svg>
