<svg width="30" height="31" viewBox="0 0 30 31" fill="none" xmlns="http://www.w3.org/2000/svg">
<g clip-path="url(#clip0_4_124412)">
<path d="M25.1083 28.7159L17.2568 22.2734H6.45631C2.89671 22.2734 0 19.3135 0 15.676V9.14101C0 5.50366 2.89671 2.5437 6.45631 2.5437H23.5437C27.1033 2.5437 30 5.50366 30 9.14101V15.676C30 18.7367 27.9483 21.3514 25.1083 22.0747V28.7159ZM6.45631 4.41876C3.93037 4.41876 1.875 6.53731 1.875 9.14107V15.6761C1.875 18.2799 3.93037 20.3984 6.45631 20.3984H17.927L23.2333 24.7517V20.4634L24.061 20.3654C26.3782 20.0926 28.125 18.0766 28.125 15.6761V9.14101C28.125 6.53725 26.0696 4.4187 23.5437 4.4187H6.45631V4.41876Z" fill="#2440E5"/>
<path d="M5.34395 13.519C5.67812 13.7223 6.37118 13.9612 6.90861 13.9612C7.45791 13.9612 7.68499 13.7699 7.68499 13.4714C7.68499 13.172 7.50554 13.0292 6.82534 12.8022C5.61867 12.3957 5.15269 11.7393 5.16456 11.0462C5.16456 9.95946 6.09659 9.1355 7.5413 9.1355C8.22242 9.1355 8.83222 9.29021 9.19014 9.46966L8.86785 10.7239C8.60508 10.5802 8.1034 10.3888 7.60167 10.3888C7.15944 10.3888 6.90861 10.5683 6.90861 10.8667C6.90861 11.1414 7.13563 11.2852 7.8525 11.536C8.96305 11.9178 9.42903 12.4799 9.44097 13.3396C9.44097 14.4263 8.58126 15.2265 6.90861 15.2265C6.14416 15.2265 5.46297 15.0598 5.02173 14.8209L5.34395 13.519Z" fill="#2440E5"/>
<path d="M10.5387 11.1295C10.5387 10.4017 10.5149 9.78001 10.4911 9.2664H12.02L12.1034 10.0547H12.1391C12.3899 9.6848 12.9035 9.1355 13.9069 9.1355C14.6595 9.1355 15.2564 9.51729 15.5073 10.1261H15.5311C15.7462 9.82764 16.009 9.58868 16.2837 9.42209C16.6069 9.23076 16.9648 9.13556 17.3951 9.13556C18.5176 9.13556 19.3663 9.92382 19.3663 11.667V15.1076H17.5984V11.9306C17.5984 11.0819 17.3228 10.5921 16.7378 10.5921C16.3203 10.5921 16.0209 10.8786 15.9019 11.2256C15.8543 11.3565 15.8305 11.5479 15.8305 11.6916V15.1075H14.0627V11.8345C14.0627 11.0938 13.7999 10.5921 13.2259 10.5921C12.7608 10.5921 12.4852 10.951 12.3781 11.2495C12.3186 11.3923 12.3067 11.5598 12.3067 11.7036V15.1075H10.5388V11.1295H10.5387Z" fill="#2440E5"/>
<path d="M20.7971 13.519C21.1313 13.7223 21.8244 13.9612 22.3618 13.9612C22.9111 13.9612 23.1382 13.7699 23.1382 13.4714C23.1382 13.172 22.9587 13.0292 22.2785 12.8022C21.0718 12.3957 20.6058 11.7393 20.6177 11.0462C20.6177 9.95946 21.5497 9.1355 22.9944 9.1355C23.6755 9.1355 24.2844 9.29021 24.6433 9.46966L24.321 10.7239C24.0582 10.5802 23.5565 10.3888 23.0548 10.3888C22.6126 10.3888 22.3617 10.5683 22.3617 10.8667C22.3617 11.1414 22.5888 11.2852 23.3056 11.536C24.4162 11.9178 24.8822 12.4799 24.8941 13.3396C24.8941 14.4263 24.0344 15.2265 22.3617 15.2265C21.5973 15.2265 20.9161 15.0598 20.4749 14.8209L20.7971 13.519Z" fill="#2440E5"/>
</g>
<defs>
<clipPath id="clip0_4_124412">
<rect width="30" height="30" fill="white" transform="translate(0 0.629883)"/>
</clipPath>
</defs>
</svg>
