<svg width="52" height="52" viewBox="0 0 52 52" fill="none" xmlns="http://www.w3.org/2000/svg">
<g filter="url(#filter0_d_262_36114)">
<path d="M2 10.6C2 7.23968 2 5.55953 2.65396 4.27606C3.2292 3.14708 4.14708 2.2292 5.27606 1.65396C6.55953 1 8.23968 1 11.6 1H40.4C43.7603 1 45.4405 1 46.7239 1.65396C47.8529 2.2292 48.7708 3.14708 49.346 4.27606C50 5.55953 50 7.23968 50 10.6V39.4C50 42.7603 50 44.4405 49.346 45.7239C48.7708 46.8529 47.8529 47.7708 46.7239 48.346C45.4405 49 43.7603 49 40.4 49H11.6C8.23968 49 6.55953 49 5.27606 48.346C4.14708 47.7708 3.2292 46.8529 2.65396 45.7239C2 44.4405 2 42.7603 2 39.4V10.6Z" fill="#F4F5FE" shape-rendering="crispEdges"/>
</g>
<path d="M18 26.3335C14.32 26.3335 11.3333 29.3068 11.3333 33.0002C11.3333 36.6935 14.32 39.6668 18 39.6668C21.68 39.6668 24.6667 36.6802 24.6667 33.0002C24.6667 29.3202 21.6933 26.3335 18 26.3335ZM15.28 30.2802H18C18.5067 30.2802 18.9067 30.6935 18.9067 31.1868C18.9067 31.6802 18.4933 32.0935 18 32.0935H15.28C14.7733 32.0935 14.3733 31.6802 14.3733 31.1868C14.3733 30.6935 14.7733 30.2802 15.28 30.2802ZM20.72 35.7202H15.2667C14.76 35.7202 14.36 35.3068 14.36 34.8135C14.36 34.3202 14.7734 33.9068 15.2667 33.9068H20.72C21.2267 33.9068 21.6267 34.3202 21.6267 34.8135C21.6267 35.3068 21.2267 35.7202 20.72 35.7202Z" fill="#2440E5"/>
<path opacity="0.4" d="M32.6667 13H19.3334C15.3334 13 12.6667 15 12.6667 19.6667V23.8533C12.6667 24.8267 13.6667 25.44 14.56 25.0533C16.0267 24.4133 17.6933 24.1733 19.44 24.4533C22.9333 25.0267 25.7867 27.7867 26.4934 31.2533C26.6934 32.2667 26.72 33.2533 26.5867 34.2C26.48 34.9867 27.12 35.68 27.9067 35.68H32.6667C36.6667 35.68 39.3334 33.68 39.3334 29.0133V19.68C39.3334 15 36.6667 13 32.6667 13Z" fill="#2440E5"/>
<path d="M26.0011 24.8265C24.8811 24.8265 23.7478 24.4798 22.881 23.7732L18.7077 20.4398C18.281 20.0931 18.201 19.4665 18.5477 19.0398C18.8944 18.6131 19.521 18.5331 19.9477 18.8798L24.1211 22.2131C25.1344 23.0265 26.8543 23.0265 27.8676 22.2131L32.0411 18.8798C32.4678 18.5331 33.1076 18.5998 33.441 19.0398C33.7876 19.4665 33.721 20.1065 33.281 20.4398L29.1076 23.7732C28.2543 24.4798 27.1211 24.8265 26.0011 24.8265Z" fill="#2440E5"/>
<defs>
<filter id="filter0_d_262_36114" x="0" y="0" width="52" height="52" filterUnits="userSpaceOnUse" color-interpolation-filters="sRGB">
<feFlood flood-opacity="0" result="BackgroundImageFix"/>
<feColorMatrix in="SourceAlpha" type="matrix" values="0 0 0 0 0 0 0 0 0 0 0 0 0 0 0 0 0 0 127 0" result="hardAlpha"/>
<feOffset dy="1"/>
<feGaussianBlur stdDeviation="1"/>
<feComposite in2="hardAlpha" operator="out"/>
<feColorMatrix type="matrix" values="0 0 0 0 0.0627451 0 0 0 0 0.0941176 0 0 0 0 0.156863 0 0 0 0.04 0"/>
<feBlend mode="normal" in2="BackgroundImageFix" result="effect1_dropShadow_262_36114"/>
<feBlend mode="normal" in="SourceGraphic" in2="effect1_dropShadow_262_36114" result="shape"/>
</filter>
</defs>
</svg>
