<svg width="52" height="52" viewBox="0 0 52 52" fill="none" xmlns="http://www.w3.org/2000/svg">
<g filter="url(#filter0_d_262_36101)">
<path d="M2 10.6C2 7.23968 2 5.55953 2.65396 4.27606C3.2292 3.14708 4.14708 2.2292 5.27606 1.65396C6.55953 1 8.23968 1 11.6 1H40.4C43.7603 1 45.4405 1 46.7239 1.65396C47.8529 2.2292 48.7708 3.14708 49.346 4.27606C50 5.55953 50 7.23968 50 10.6V39.4C50 42.7603 50 44.4405 49.346 45.7239C48.7708 46.8529 47.8529 47.7708 46.7239 48.346C45.4405 49 43.7603 49 40.4 49H11.6C8.23968 49 6.55953 49 5.27606 48.346C4.14708 47.7708 3.2292 46.8529 2.65396 45.7239C2 44.4405 2 42.7603 2 39.4V10.6Z" fill="#F4F5FE" shape-rendering="crispEdges"/>
</g>
<path d="M21.2297 36.4906C23.5706 37.7192 24.741 38.3333 26 38.3333V25L13.5174 18.4302C13.499 18.4597 13.481 18.4895 13.4632 18.5197C12.6667 19.8723 12.6667 21.5555 12.6667 24.922V25.078C12.6667 28.4444 12.6667 30.1277 13.4632 31.4804C14.2597 32.833 15.6942 33.5858 18.5631 35.0913L21.2297 36.4906Z" fill="#2440E5"/>
<path opacity="0.7" d="M33.4365 14.9085L30.7698 13.5091C28.429 12.2807 27.2586 11.6665 25.9996 11.6665C24.7405 11.6665 23.5701 12.2807 21.2293 13.5091L18.5626 14.9085C15.7576 16.3805 14.3239 17.1329 13.5169 18.43L25.9996 24.9998L38.4822 18.43C37.6752 17.1329 36.2414 16.3805 33.4365 14.9085Z" fill="#2440E5"/>
<path opacity="0.5" d="M38.5368 18.5197C38.5191 18.4895 38.5011 18.4597 38.4827 18.4302L26 25V38.3333C27.2591 38.3333 28.4295 37.7192 30.7703 36.4906L33.4369 35.0913C36.3059 33.5858 37.7403 32.833 38.5368 31.4804C39.3333 30.1277 39.3333 28.4444 39.3333 25.078V24.922C39.3333 21.5555 39.3333 19.8723 38.5368 18.5197Z" fill="#2440E5"/>
<path d="M18.4311 14.9783C18.4749 14.9553 18.519 14.9321 18.5635 14.9088L20.5549 13.8638L32.6892 20.5377L38.0542 17.8552C38.2378 18.0631 38.3974 18.2822 38.5372 18.5198C38.7367 18.8584 38.8862 19.2179 38.9983 19.6192L33.6671 22.2848V26.3334C33.6671 26.8857 33.2194 27.3334 32.6671 27.3334C32.1148 27.3334 31.6671 26.8857 31.6671 26.3334V23.2848L27.0004 25.6181V38.2054C26.6579 38.2908 26.3323 38.3334 26.0004 38.3334C25.6687 38.3334 25.343 38.2908 25.0004 38.2054V25.6181L13.0026 19.6192C13.1147 19.2179 13.2642 18.8584 13.4636 18.5198C13.6035 18.2822 13.7631 18.0631 13.9467 17.8552L26.0004 23.8821L30.5154 21.6246L18.4311 14.9783Z" fill="#2440E5"/>
<defs>
<filter id="filter0_d_262_36101" x="0" y="0" width="52" height="52" filterUnits="userSpaceOnUse" color-interpolation-filters="sRGB">
<feFlood flood-opacity="0" result="BackgroundImageFix"/>
<feColorMatrix in="SourceAlpha" type="matrix" values="0 0 0 0 0 0 0 0 0 0 0 0 0 0 0 0 0 0 127 0" result="hardAlpha"/>
<feOffset dy="1"/>
<feGaussianBlur stdDeviation="1"/>
<feComposite in2="hardAlpha" operator="out"/>
<feColorMatrix type="matrix" values="0 0 0 0 0.0627451 0 0 0 0 0.0941176 0 0 0 0 0.156863 0 0 0 0.04 0"/>
<feBlend mode="normal" in2="BackgroundImageFix" result="effect1_dropShadow_262_36101"/>
<feBlend mode="normal" in="SourceGraphic" in2="effect1_dropShadow_262_36101" result="shape"/>
</filter>
</defs>
</svg>
