<svg width="218" height="44" viewBox="0 0 218 44" fill="none" xmlns="http://www.w3.org/2000/svg">
<g clip-path="url(#clip0_4_27302)">
<path fill-rule="evenodd" clip-rule="evenodd" d="M2.44648 3.63752C3.4502 1.23576 5.95951 -0.48491 8.57636 -0.48491C28.3282 -0.48491 48.08 -0.48491 67.8677 -0.48491C69.5884 -0.520757 71.3091 0.124502 72.5637 1.27161C73.9976 2.56212 74.8221 4.49786 74.7862 6.43362C74.7862 13.9974 74.7862 21.5612 74.7862 29.1608C74.7504 32.5663 71.7751 35.6491 68.3696 35.7208C61.1643 35.7567 53.959 35.7208 46.7537 35.7208C47.7216 38.1226 48.6894 40.4885 49.6573 42.8903C45.3556 40.5243 41.1257 38.0867 36.7882 35.7567C27.3245 35.685 17.825 35.7567 8.32543 35.7208C4.91994 35.6133 1.94462 32.5663 1.90877 29.1608C1.87292 21.7404 1.90877 14.32 1.87292 6.93548C1.87292 5.82421 1.98047 4.67709 2.44648 3.63752Z" fill="#275A7A"/>
<path fill-rule="evenodd" clip-rule="evenodd" d="M31.4112 4.17507C32.4866 3.02796 34.5658 3.38643 35.3903 4.71278C35.8204 5.39388 35.8563 6.32591 35.4978 7.04285C33.9922 10.054 33.347 13.3878 32.7734 16.6499C32.0923 20.9157 31.5188 25.2533 31.7338 29.5908C31.8055 30.702 31.2678 32.0284 30.0849 32.3152C28.9736 32.5661 27.934 31.8133 27.2171 31.0247C23.9908 27.5475 22.1626 23.0666 20.8363 18.5857C19.5099 21.2025 18.1836 23.8552 16.8931 26.4721C15.9969 28.2644 15.029 30.0926 13.5951 31.5265C12.9857 32.1359 11.9462 32.6736 11.1575 32.0642C9.97457 31.0247 9.68779 29.3757 9.18593 27.9777C7.28602 21.4176 6.2106 14.6425 5.09934 7.9032C4.84841 6.79193 5.31442 5.42973 6.42569 4.99957C7.32187 4.67694 8.50483 4.60524 9.25762 5.28634C9.79533 5.75236 9.93872 6.50515 10.0463 7.18625C10.8349 12.42 11.7311 17.6178 13.0216 22.744C15.1724 18.6574 17.3232 14.5708 19.4741 10.4483C19.7967 9.83894 20.191 9.22954 20.7646 8.87107C21.5532 8.3692 22.7003 8.40506 23.3814 9.122C23.9191 9.69556 24.1342 10.52 24.2776 11.2728C24.9229 14.6425 25.7832 18.0121 27.0379 21.2025C27.5756 16.3631 28.2567 11.4521 30.0132 6.89947C30.4075 5.93159 30.766 4.96371 31.4112 4.17507ZM43.5634 6.79193C45.8935 6.50515 48.4028 7.29379 49.9801 9.0503C51.2706 10.52 51.9875 12.4199 52.2385 14.3199C52.6328 17.582 52.0234 21.0233 50.4461 23.9269C49.5499 25.5759 48.4028 27.189 46.7538 28.1569C44.3521 29.6266 41.1258 29.4474 38.7958 27.906C36.9317 26.6155 35.8921 24.4646 35.462 22.3138C34.6016 17.4027 36.0714 11.9539 39.7636 8.54844C40.839 7.58057 42.1654 6.97117 43.5634 6.79193ZM44.0294 11.8105C42.9182 12.169 42.2012 13.2086 41.5918 14.1406C40.0863 16.5782 39.6561 19.7686 40.8749 22.3855C41.1975 23.0666 41.6994 23.8194 42.5239 23.9628C43.3842 24.1061 44.1728 23.6043 44.7822 23.0666C46.1444 21.8836 46.8255 20.1271 47.184 18.3706C47.5425 16.399 47.3632 14.2123 46.2161 12.4916C45.7501 11.8464 44.8181 11.5596 44.0294 11.8105ZM62.1682 6.79193C64.4265 6.50515 66.9 7.22209 68.4773 8.90692C69.9112 10.4483 70.664 12.4916 70.879 14.5708C71.2017 17.7253 70.6281 21.0233 69.1225 23.8194C68.2263 25.5042 67.0434 27.1532 65.3227 28.1569C63.0285 29.5549 59.9456 29.4115 57.6514 28.0493C56.11 27.1173 55.0704 25.54 54.461 23.8552C52.8479 18.7291 54.2101 12.7067 57.9382 8.83522C59.157 7.7598 60.6267 6.97117 62.1682 6.79193ZM62.67 11.8105C61.4512 12.2407 60.7343 13.4237 60.089 14.4632C58.7268 16.865 58.3683 19.9837 59.623 22.5289C59.9456 23.2458 60.555 23.9269 61.3795 23.9628C62.2757 23.9986 63.0643 23.425 63.7096 22.8156C65.1076 21.4534 65.717 19.5177 65.9321 17.6178C66.1472 15.8613 65.8604 13.9614 64.8209 12.4558C64.3907 11.8464 63.4587 11.5596 62.67 11.8105Z" fill="white"/>
<path fill-rule="evenodd" clip-rule="evenodd" d="M87.0477 7.47318C89.0193 7.04301 91.0984 7.07886 93.07 7.54488C93.07 9.158 93.07 10.7711 93.07 12.3843C91.4569 11.9899 89.6287 11.6315 88.0873 12.3843C86.2232 13.3163 85.1836 15.4313 85.1836 17.4387C85.0761 19.4462 85.7572 21.7045 87.5495 22.8516C89.1985 23.9271 91.3135 23.712 93.1059 23.2101C93.1059 24.8232 93.1059 26.4364 93.1059 28.0495C90.7041 28.7306 88.0873 28.6589 85.7572 27.7986C82.9611 26.759 80.7386 24.3214 79.8782 21.4536C79.233 19.2669 79.1613 16.9369 79.6631 14.7143C80.4876 11.1655 83.4988 8.26182 87.0477 7.47318ZM101.602 7.22224C104.039 6.93547 106.692 7.32979 108.664 8.87122C110.563 10.341 111.496 12.7427 111.854 15.037C112.177 17.5821 112.105 20.2348 111.316 22.6724C110.635 24.7516 109.237 26.6873 107.23 27.6552C105.186 28.6231 102.785 28.6947 100.598 28.1929C98.5905 27.7269 96.7981 26.4005 95.7944 24.5723C94.3964 22.1347 94.1454 19.2311 94.253 16.4708C94.3605 14.1049 94.9699 11.6315 96.5472 9.80325C97.8377 8.33351 99.7018 7.43733 101.602 7.22224ZM102.354 11.8465C101.315 12.0975 100.705 13.137 100.455 14.1049C99.9527 16.0407 100.024 18.0481 100.168 20.0197C100.311 21.0951 100.419 22.2422 101.172 23.1026C102.175 24.2497 104.219 24.1063 105.115 22.9233C105.724 22.1706 105.903 21.2027 106.011 20.2707C106.226 18.6217 106.262 16.9368 106.011 15.2879C105.832 14.2842 105.545 13.2446 104.828 12.4918C104.183 11.8465 103.215 11.6315 102.354 11.8465ZM197.959 7.54488C200.038 7.00717 202.225 7.07886 204.304 7.50903C204.34 9.12216 204.304 10.7353 204.34 12.3843C202.763 11.9899 201.006 11.6315 199.465 12.3126C197.672 13.137 196.597 15.0369 196.454 16.9369C196.238 19.0877 196.812 21.5253 198.712 22.78C200.361 23.9271 202.512 23.712 204.34 23.1743C204.304 24.7874 204.376 26.4364 204.304 28.0495C201.759 28.6947 198.963 28.6231 196.561 27.5835C193.908 26.4364 191.829 23.9988 191.076 21.2027C190.503 19.0518 190.431 16.7576 190.969 14.5709C191.758 11.2013 194.589 8.44106 197.959 7.54488ZM115.044 7.68827C117.339 7.68827 119.669 7.68827 121.963 7.68827C122.787 11.4164 123.576 15.1803 124.293 18.9443C124.938 15.1445 125.834 11.4164 126.731 7.68827C129.097 7.68827 131.462 7.68827 133.828 7.68827C134.76 14.4634 135.657 21.2385 136.553 27.9778C134.76 27.9778 132.932 27.9778 131.14 27.9778C130.638 23.3535 130.208 18.6934 129.67 14.0691C128.559 18.6934 127.412 23.3535 126.3 27.9778C125.082 27.9778 123.827 27.9778 122.608 27.9778C121.425 23.3535 120.278 18.6934 119.059 14.0332C118.593 18.6575 118.127 23.3177 117.661 27.9778C115.941 27.9778 114.22 27.9778 112.463 27.9778C113.324 21.2385 114.184 14.4634 115.044 7.68827ZM139.851 7.68827C142.145 7.68827 144.475 7.68827 146.769 7.68827C147.594 11.4164 148.382 15.1803 149.099 18.9443C149.78 15.1803 150.641 11.4164 151.537 7.68827H158.599C159.531 14.4634 160.427 21.2385 161.323 27.9778C159.531 27.9778 157.703 27.9778 155.91 27.9778C155.408 23.3535 154.942 18.6934 154.441 14.0691C153.329 18.6934 152.218 23.3535 151.071 27.9778C149.852 27.9778 148.597 27.9778 147.379 27.9778C146.196 23.3177 145.013 18.6934 143.83 14.0332C143.364 18.6934 142.898 23.3177 142.432 27.9778C140.711 27.9778 138.99 27.9778 137.234 27.9778C138.13 21.2385 138.99 14.4634 139.851 7.68827ZM162.9 7.75995C166.593 7.68826 170.321 7.75996 174.013 7.72412C174.013 9.158 174.013 10.5919 174.013 12.0616C172.149 12.0975 170.285 12.0616 168.421 12.0616C168.421 13.3163 168.421 14.5351 168.421 15.7897C170.034 15.7897 171.647 15.7897 173.26 15.7897C173.26 17.1878 173.26 18.5858 173.26 19.9839C171.647 19.9839 170.034 19.9839 168.421 19.9839C168.421 21.2027 168.421 22.4573 168.421 23.712C170.285 23.712 172.185 23.712 174.049 23.712C174.049 25.1459 174.049 26.5798 174.049 28.0495C170.357 28.0495 166.629 28.0495 162.936 28.0495C162.9 21.2744 162.972 14.5351 162.9 7.75995ZM175.59 7.68827C177.92 7.68827 180.215 7.65242 182.545 7.68827C184.731 7.75996 187.062 8.29767 188.675 9.8391C190.144 11.2013 190.646 13.4597 190.073 15.3596C189.607 16.901 188.46 18.1557 187.026 18.8368C188.46 21.8838 189.929 24.9308 191.399 27.9778C189.463 27.9778 187.528 27.9778 185.628 27.9778C184.122 24.8591 182.652 21.7404 181.111 18.6575C181.075 21.7762 181.111 24.8949 181.111 27.9778C179.283 27.9778 177.454 27.9778 175.626 27.9778C175.59 21.2385 175.59 14.4634 175.59 7.68827ZM181.075 11.5956C181.075 13.2087 181.075 14.8219 181.075 16.435C182.079 16.3633 183.154 16.3275 183.979 15.718C184.947 15.0011 184.839 13.5314 184.23 12.5993C183.477 11.7032 182.15 11.7032 181.075 11.5956ZM205.881 7.72412C209.574 7.72412 213.266 7.72412 216.958 7.72412C216.958 9.158 216.958 10.6277 216.958 12.0616C215.094 12.0616 213.194 12.0616 211.33 12.0616C211.33 13.3163 211.33 14.5351 211.33 15.7897C212.943 15.7897 214.556 15.7897 216.17 15.7897C216.17 17.1878 216.17 18.5858 216.17 19.9839H211.33C211.33 21.2385 211.33 22.4573 211.33 23.712C213.23 23.712 215.094 23.712 216.994 23.712C216.994 25.1459 216.994 26.5798 216.994 28.0495C213.302 28.0495 209.574 28.0495 205.881 28.0495C205.845 21.2385 205.881 14.4634 205.881 7.72412Z" fill="#275A7A"/>
</g>
<defs>
<clipPath id="clip0_4_27302">
<rect width="217.109" height="43.2002" fill="white" transform="translate(0.207031 0.000488281)"/>
</clipPath>
</defs>
</svg>
