<svg width="25" height="28" viewBox="0 0 25 28" fill="none" xmlns="http://www.w3.org/2000/svg">
<path d="M11.8604 5.06026C12.1405 4.78021 12.2805 4.64018 12.442 4.58771C12.584 4.54156 12.737 4.54156 12.879 4.58771C13.0405 4.64018 13.1805 4.78021 13.4606 5.06026L15.8608 7.46052C16.1409 7.74057 16.2809 7.8806 16.3334 8.04207C16.3795 8.18411 16.3795 8.3371 16.3334 8.47914C16.2809 8.64061 16.1409 8.78063 15.8608 9.06069L13.4606 11.4609C13.1805 11.741 13.0405 11.881 12.879 11.9335C12.737 11.9796 12.584 11.9796 12.442 11.9335C12.2805 11.881 12.1405 11.741 11.8604 11.4609L9.46016 9.06069C9.1801 8.78063 9.04008 8.64061 8.98762 8.47914C8.94147 8.3371 8.94147 8.18411 8.98762 8.04207C9.04008 7.8806 9.1801 7.74057 9.46016 7.46052L11.8604 5.06026Z" stroke="#0A77FF" stroke-width="2"/>
<path d="M5.85846 11.0608C6.13852 10.7807 6.27855 10.6407 6.44002 10.5882C6.58205 10.5421 6.73505 10.5421 6.87708 10.5882C7.03855 10.6407 7.17858 10.7807 7.45863 11.0608L9.85889 13.461C10.139 13.7411 10.279 13.8811 10.3314 14.0426C10.3776 14.1846 10.3776 14.3376 10.3314 14.4796C10.279 14.6411 10.139 14.7811 9.85889 15.0612L7.45864 17.4614C7.17858 17.7415 7.03855 17.8815 6.87708 17.934C6.73505 17.9801 6.58205 17.9801 6.44002 17.934C6.27855 17.8815 6.13852 17.7415 5.85846 17.4614L3.45821 15.0612C3.17815 14.7811 3.03812 14.6411 2.98566 14.4796C2.93951 14.3376 2.93951 14.1846 2.98566 14.0426C3.03812 13.8811 3.17815 13.7411 3.45821 13.461L5.85846 11.0608Z" stroke="#0A77FF" stroke-width="2"/>
<path d="M17.8607 11.0609C18.1407 10.7808 18.2807 10.6408 18.4422 10.5883C18.5842 10.5422 18.7372 10.5422 18.8793 10.5883C19.0407 10.6408 19.1808 10.7808 19.4608 11.0609L21.8611 13.4611C22.1411 13.7412 22.2812 13.8812 22.3336 14.0427C22.3798 14.1847 22.3798 14.3377 22.3336 14.4797C22.2812 14.6412 22.1411 14.7812 21.8611 15.0613L19.4608 17.4615C19.1808 17.7416 19.0407 17.8816 18.8793 17.9341C18.7372 17.9802 18.5842 17.9802 18.4422 17.9341C18.2807 17.8816 18.1407 17.7416 17.8607 17.4615L15.4604 15.0613C15.1803 14.7812 15.0403 14.6412 14.9878 14.4797C14.9417 14.3377 14.9417 14.1847 14.9878 14.0427C15.0403 13.8812 15.1803 13.7412 15.4604 13.4611L17.8607 11.0609Z" stroke="#0A77FF" stroke-width="2"/>
<path d="M11.8604 17.0615C12.1405 16.7814 12.2805 16.6414 12.442 16.589C12.584 16.5428 12.737 16.5428 12.879 16.589C13.0405 16.6414 13.1805 16.7814 13.4606 17.0615L15.8608 19.4618C16.1409 19.7418 16.2809 19.8818 16.3334 20.0433C16.3795 20.1853 16.3795 20.3383 16.3334 20.4804C16.2809 20.6418 16.1409 20.7819 15.8608 21.0619L13.4606 23.4622C13.1805 23.7422 13.0405 23.8823 12.879 23.9347C12.737 23.9809 12.584 23.9809 12.442 23.9347C12.2805 23.8823 12.1405 23.7422 11.8604 23.4622L9.46016 21.0619C9.1801 20.7819 9.04008 20.6418 8.98762 20.4804C8.94147 20.3383 8.94147 20.1853 8.98762 20.0433C9.04008 19.8818 9.1801 19.7418 9.46016 19.4618L11.8604 17.0615Z" stroke="#0A77FF" stroke-width="2"/>
</svg>
