<svg width="32" height="33" viewBox="0 0 32 33" fill="none" xmlns="http://www.w3.org/2000/svg">
<path fill-rule="evenodd" clip-rule="evenodd" d="M0 3.07777C0 2.37856 0.277759 1.70799 0.772173 1.21358C1.26659 0.719165 1.93716 0.441406 2.63636 0.441406H11.2045C11.9038 0.441406 12.5743 0.719165 13.0687 1.21358C13.5632 1.70799 13.8409 2.37856 13.8409 3.07777V11.646C13.8409 12.3452 13.5632 13.0157 13.0687 13.5101C12.5743 14.0046 11.9038 14.2823 11.2045 14.2823H7.90909V19.6381C7.90909 20.6821 8.758 21.5323 9.80464 21.5323H15.1591V18.2369C15.1591 17.5377 15.4369 16.8671 15.9313 16.3727C16.4257 15.8783 17.0962 15.6005 17.7955 15.6005H26.3636C27.0628 15.6005 27.7334 15.8783 28.2278 16.3727C28.7222 16.8671 29 17.5377 29 18.2369V26.805C29 27.5043 28.7222 28.1748 28.2278 28.6692C27.7334 29.1636 27.0628 29.4414 26.3636 29.4414H17.7955C17.0962 29.4414 16.4257 29.1636 15.9313 28.6692C15.4369 28.1748 15.1591 27.5043 15.1591 26.805V23.5096H9.80332C8.77641 23.5092 7.79168 23.1011 7.06567 22.3748C6.33966 21.6485 5.93182 20.6637 5.93182 19.6368V14.2823H2.63636C1.93716 14.2823 1.26659 14.0046 0.772173 13.5101C0.277759 13.0157 0 12.3452 0 11.646V3.07777ZM2.63636 2.41868C2.46156 2.41868 2.29392 2.48812 2.17032 2.61172C2.04671 2.73533 1.97727 2.90297 1.97727 3.07777V11.646C1.97727 11.8208 2.04671 11.9884 2.17032 12.112C2.29392 12.2356 2.46156 12.305 2.63636 12.305H11.2045C11.3793 12.305 11.547 12.2356 11.6706 12.112C11.7942 11.9884 11.8636 11.8208 11.8636 11.646V3.07777C11.8636 2.90297 11.7942 2.73533 11.6706 2.61172C11.547 2.48812 11.3793 2.41868 11.2045 2.41868H2.63636ZM17.7955 17.5778C17.6207 17.5778 17.453 17.6472 17.3294 17.7708C17.2058 17.8944 17.1364 18.0621 17.1364 18.2369V26.805C17.1364 26.9798 17.2058 27.1475 17.3294 27.2711C17.453 27.3947 17.6207 27.4641 17.7955 27.4641H26.3636C26.5384 27.4641 26.7061 27.3947 26.8297 27.2711C26.9533 27.1475 27.0227 26.9798 27.0227 26.805V18.2369C27.0227 18.0621 26.9533 17.8944 26.8297 17.7708C26.7061 17.6472 26.5384 17.5778 26.3636 17.5778H17.7955Z" fill="#2440E5"/>
</svg>
