<svg width="62" height="62" viewBox="0 0 62 62" fill="none" xmlns="http://www.w3.org/2000/svg">
<g filter="url(#filter0_d_333_1689)">
<path d="M2.66675 11.6C2.66675 8.23968 2.66675 6.55953 3.32071 5.27606C3.89595 4.14708 4.81383 3.2292 5.94281 2.65396C7.22628 2 8.90643 2 12.2667 2H49.0667C52.4271 2 54.1072 2 55.3907 2.65396C56.5197 3.2292 57.4375 4.14708 58.0128 5.27606C58.6667 6.55953 58.6667 8.23969 58.6667 11.6V48.4C58.6667 51.7603 58.6667 53.4405 58.0128 54.7239C57.4375 55.8529 56.5197 56.7708 55.3907 57.346C54.1072 58 52.4271 58 49.0667 58H12.2667C8.90643 58 7.22628 58 5.94281 57.346C4.81383 56.7708 3.89595 55.8529 3.32071 54.7239C2.66675 53.4405 2.66675 51.7603 2.66675 48.4V11.6Z" fill="white" shape-rendering="crispEdges"/>
<g filter="url(#filter1_d_333_1689)">
<path d="M30.6667 21.9998C32.1395 21.9998 33.3334 20.8059 33.3334 19.3332C33.3334 17.8604 32.1395 16.6665 30.6667 16.6665C29.194 16.6665 28.0001 17.8604 28.0001 19.3332C28.0001 20.8059 29.194 21.9998 30.6667 21.9998Z" fill="url(#paint0_linear_333_1689)"/>
<path d="M19.1143 21.0033C19.6647 20.5141 20.5074 20.5637 20.9966 21.114C21.9418 22.1774 25.3779 24.6665 30.6668 24.6665C35.9556 24.6665 39.3917 22.1774 40.3369 21.114C40.8261 20.5637 41.6689 20.5141 42.2192 21.0033C42.7696 21.4925 42.8192 22.3353 42.33 22.8857C41.25 24.1006 38.606 26.028 34.7391 26.8905L35.9954 43.2216C36.0407 43.8115 35.702 44.2948 35.2679 44.5148C35.0395 44.6306 34.6737 44.7278 34.2601 44.5963C33.805 44.4515 33.5326 44.1071 33.4147 43.792C33.2887 43.455 33.1264 42.9685 32.9459 42.4277C32.8727 42.2082 32.7962 41.9792 32.7182 41.7482C32.4391 40.9213 32.12 40.0077 31.7769 39.1573C31.4283 38.2933 31.0797 37.5579 30.7541 37.0586C30.7235 37.0115 30.6943 36.9686 30.6667 36.9295C30.639 36.9686 30.6099 37.0115 30.5792 37.0586C30.2537 37.5579 29.9051 38.2933 29.5565 39.1573C29.2133 40.0077 28.8943 40.9213 28.6151 41.7482C28.5371 41.9793 28.4608 42.2079 28.3875 42.4274C28.2071 42.9683 28.0446 43.455 27.9186 43.792C27.8008 44.1071 27.5284 44.4515 27.0734 44.5962C26.6599 44.7278 26.2941 44.6307 26.0656 44.5149C25.6314 44.2949 25.2926 43.8116 25.338 43.2216L26.5942 26.8905C22.7274 26.028 20.0835 24.1006 19.0035 22.8857C18.5143 22.3353 18.5639 21.4925 19.1143 21.0033Z" fill="url(#paint1_linear_333_1689)"/>
</g>
<path d="M2.66675 11.6C2.66675 8.23968 2.66675 6.55953 3.32071 5.27606C3.89595 4.14708 4.81383 3.2292 5.94281 2.65396C7.22628 2 8.90643 2 12.2667 2H49.0667C52.4271 2 54.1072 2 55.3907 2.65396C56.5197 3.2292 57.4375 4.14708 58.0128 5.27606C58.6667 6.55953 58.6667 8.23969 58.6667 11.6V48.4C58.6667 51.7603 58.6667 53.4405 58.0128 54.7239C57.4375 55.8529 56.5197 56.7708 55.3907 57.346C54.1072 58 52.4271 58 49.0667 58H12.2667C8.90643 58 7.22628 58 5.94281 57.346C4.81383 56.7708 3.89595 55.8529 3.32071 54.7239C2.66675 53.4405 2.66675 51.7603 2.66675 48.4V11.6Z" stroke="#E5E5E7" shape-rendering="crispEdges"/>
</g>
<defs>
<filter id="filter0_d_333_1689" x="0.166748" y="0.5" width="61" height="61" filterUnits="userSpaceOnUse" color-interpolation-filters="sRGB">
<feFlood flood-opacity="0" result="BackgroundImageFix"/>
<feColorMatrix in="SourceAlpha" type="matrix" values="0 0 0 0 0 0 0 0 0 0 0 0 0 0 0 0 0 0 127 0" result="hardAlpha"/>
<feOffset dy="1"/>
<feGaussianBlur stdDeviation="1"/>
<feComposite in2="hardAlpha" operator="out"/>
<feColorMatrix type="matrix" values="0 0 0 0 0.0627451 0 0 0 0 0.0941176 0 0 0 0 0.156863 0 0 0 0.04 0"/>
<feBlend mode="normal" in2="BackgroundImageFix" result="effect1_dropShadow_333_1689"/>
<feBlend mode="normal" in="SourceGraphic" in2="effect1_dropShadow_333_1689" result="shape"/>
</filter>
<filter id="filter1_d_333_1689" x="16.6667" y="15.6665" width="28" height="31.9927" filterUnits="userSpaceOnUse" color-interpolation-filters="sRGB">
<feFlood flood-opacity="0" result="BackgroundImageFix"/>
<feColorMatrix in="SourceAlpha" type="matrix" values="0 0 0 0 0 0 0 0 0 0 0 0 0 0 0 0 0 0 127 0" result="hardAlpha"/>
<feOffset dy="1"/>
<feGaussianBlur stdDeviation="1"/>
<feComposite in2="hardAlpha" operator="out"/>
<feColorMatrix type="matrix" values="0 0 0 0 0.0627451 0 0 0 0 0.0941176 0 0 0 0 0.156863 0 0 0 0.04 0"/>
<feBlend mode="normal" in2="BackgroundImageFix" result="effect1_dropShadow_333_1689"/>
<feBlend mode="normal" in="SourceGraphic" in2="effect1_dropShadow_333_1689" result="shape"/>
</filter>
<linearGradient id="paint0_linear_333_1689" x1="30.6668" y1="16.6665" x2="30.6668" y2="44.6594" gradientUnits="userSpaceOnUse">
<stop stop-color="#4194FC"/>
<stop offset="1" stop-color="#0A77FF"/>
</linearGradient>
<linearGradient id="paint1_linear_333_1689" x1="30.6668" y1="16.6665" x2="30.6668" y2="44.6594" gradientUnits="userSpaceOnUse">
<stop stop-color="#4194FC"/>
<stop offset="1" stop-color="#0A77FF"/>
</linearGradient>
</defs>
</svg>
