<svg width="62" height="62" viewBox="0 0 62 62" fill="none" xmlns="http://www.w3.org/2000/svg">
<g filter="url(#filter0_d_305_1789)">
<path d="M3 11.6C3 8.23968 3 6.55953 3.65396 5.27606C4.2292 4.14708 5.14708 3.2292 6.27606 2.65396C7.55953 2 9.23969 2 12.6 2H49.4C52.7603 2 54.4405 2 55.7239 2.65396C56.8529 3.2292 57.7708 4.14708 58.346 5.27606C59 6.55953 59 8.23969 59 11.6V48.4C59 51.7603 59 53.4405 58.346 54.7239C57.7708 55.8529 56.8529 56.7708 55.7239 57.346C54.4405 58 52.7603 58 49.4 58H12.6C9.23968 58 7.55953 58 6.27606 57.346C5.14708 56.7708 4.2292 55.8529 3.65396 54.7239C3 53.4405 3 51.7603 3 48.4V11.6Z" fill="white" shape-rendering="crispEdges"/>
<g filter="url(#filter1_d_305_1789)">
<path d="M44.3334 34.0003C44.3334 30.772 42.0388 28.0797 38.9916 27.4653C38.2697 27.3197 37.6807 26.7307 37.5351 26.0088C36.9207 22.9616 34.2284 20.667 31.0001 20.667C27.7718 20.667 25.0795 22.9616 24.465 26.0088C24.3195 26.7307 23.7304 27.3197 23.0086 27.4653C19.9614 28.0797 17.6667 30.772 17.6667 34.0003C17.6667 35.7362 18.3302 37.3171 19.4173 38.5033C20.6586 39.8578 22.6151 40.1123 24.4524 40.1123H37.5478C39.385 40.1123 41.3415 39.8578 42.5829 38.5033C43.67 37.3171 44.3334 35.7362 44.3334 34.0003Z" fill="url(#paint0_linear_305_1789)"/>
</g>
<path d="M3 11.6C3 8.23968 3 6.55953 3.65396 5.27606C4.2292 4.14708 5.14708 3.2292 6.27606 2.65396C7.55953 2 9.23969 2 12.6 2H49.4C52.7603 2 54.4405 2 55.7239 2.65396C56.8529 3.2292 57.7708 4.14708 58.346 5.27606C59 6.55953 59 8.23969 59 11.6V48.4C59 51.7603 59 53.4405 58.346 54.7239C57.7708 55.8529 56.8529 56.7708 55.7239 57.346C54.4405 58 52.7603 58 49.4 58H12.6C9.23968 58 7.55953 58 6.27606 57.346C5.14708 56.7708 4.2292 55.8529 3.65396 54.7239C3 53.4405 3 51.7603 3 48.4V11.6Z" stroke="#E5E5E7" shape-rendering="crispEdges"/>
</g>
<defs>
<filter id="filter0_d_305_1789" x="0.5" y="0.5" width="61" height="61" filterUnits="userSpaceOnUse" color-interpolation-filters="sRGB">
<feFlood flood-opacity="0" result="BackgroundImageFix"/>
<feColorMatrix in="SourceAlpha" type="matrix" values="0 0 0 0 0 0 0 0 0 0 0 0 0 0 0 0 0 0 127 0" result="hardAlpha"/>
<feOffset dy="1"/>
<feGaussianBlur stdDeviation="1"/>
<feComposite in2="hardAlpha" operator="out"/>
<feColorMatrix type="matrix" values="0 0 0 0 0.0627451 0 0 0 0 0.0941176 0 0 0 0 0.156863 0 0 0 0.04 0"/>
<feBlend mode="normal" in2="BackgroundImageFix" result="effect1_dropShadow_305_1789"/>
<feBlend mode="normal" in="SourceGraphic" in2="effect1_dropShadow_305_1789" result="shape"/>
</filter>
<filter id="filter1_d_305_1789" x="15.6667" y="19.667" width="30.6667" height="23.4453" filterUnits="userSpaceOnUse" color-interpolation-filters="sRGB">
<feFlood flood-opacity="0" result="BackgroundImageFix"/>
<feColorMatrix in="SourceAlpha" type="matrix" values="0 0 0 0 0 0 0 0 0 0 0 0 0 0 0 0 0 0 127 0" result="hardAlpha"/>
<feOffset dy="1"/>
<feGaussianBlur stdDeviation="1"/>
<feComposite in2="hardAlpha" operator="out"/>
<feColorMatrix type="matrix" values="0 0 0 0 0.0627451 0 0 0 0 0.0941176 0 0 0 0 0.156863 0 0 0 0.04 0"/>
<feBlend mode="normal" in2="BackgroundImageFix" result="effect1_dropShadow_305_1789"/>
<feBlend mode="normal" in="SourceGraphic" in2="effect1_dropShadow_305_1789" result="shape"/>
</filter>
<linearGradient id="paint0_linear_305_1789" x1="31.0001" y1="20.667" x2="31.0001" y2="40.1123" gradientUnits="userSpaceOnUse">
<stop stop-color="#4194FC"/>
<stop offset="1" stop-color="#0A77FF"/>
</linearGradient>
</defs>
</svg>
