<svg width="62" height="62" viewBox="0 0 62 62" fill="none" xmlns="http://www.w3.org/2000/svg">
<g filter="url(#filter0_d_333_1539)">
<path d="M3 11.6C3 8.23968 3 6.55953 3.65396 5.27606C4.2292 4.14708 5.14708 3.2292 6.27606 2.65396C7.55953 2 9.23969 2 12.6 2H49.4C52.7603 2 54.4405 2 55.7239 2.65396C56.8529 3.2292 57.7708 4.14708 58.346 5.27606C59 6.55953 59 8.23969 59 11.6V48.4C59 51.7603 59 53.4405 58.346 54.7239C57.7708 55.8529 56.8529 56.7708 55.7239 57.346C54.4405 58 52.7603 58 49.4 58H12.6C9.23968 58 7.55953 58 6.27606 57.346C5.14708 56.7708 4.2292 55.8529 3.65396 54.7239C3 53.4405 3 51.7603 3 48.4V11.6Z" fill="white" shape-rendering="crispEdges"/>
<g filter="url(#filter1_d_333_1539)">
<path fill-rule="evenodd" clip-rule="evenodd" d="M19 22.2667C19 20.7732 19 20.0265 19.2906 19.456C19.5463 18.9543 19.9543 18.5463 20.456 18.2906C21.0265 18 21.7732 18 23.2667 18H38.7333C40.2268 18 40.9735 18 41.544 18.2906C42.0457 18.5463 42.4537 18.9543 42.7094 19.456C43 20.0265 43 20.7732 43 22.2667V33.7333C43 35.2268 43 35.9735 42.7094 36.544C42.4537 37.0457 42.0457 37.4537 41.544 37.7094C40.9735 38 40.2268 38 38.7333 38H32.8855L35.9428 41.0573C36.4635 41.578 36.4635 42.4222 35.9428 42.9429C35.4221 43.4636 34.5779 43.4636 34.0572 42.9429L31 39.8857L27.9428 42.9429C27.4221 43.4636 26.5779 43.4636 26.0572 42.9429C25.5365 42.4222 25.5365 41.578 26.0572 41.0573L29.1145 38H23.2667C21.7732 38 21.0265 38 20.456 37.7094C19.9543 37.4537 19.5463 37.0457 19.2906 36.544C19 35.9735 19 35.2268 19 33.7333V22.2667ZM37.1311 23.5984C37.7211 24.0389 37.8423 24.8744 37.4017 25.4645L33.9148 30.1344C33.4807 30.7159 32.6866 30.8924 32.047 30.5498L29.4969 29.1837L26.6414 32.2432C26.139 32.7815 25.2952 32.8106 24.7569 32.3082C24.2186 31.8057 24.1895 30.962 24.6919 30.4237L28.1775 26.6891C28.6314 26.2028 29.3559 26.0829 29.9423 26.397L32.3959 27.7115L35.265 23.869C35.7055 23.279 36.541 23.1578 37.1311 23.5984Z" fill="url(#paint0_linear_333_1539)"/>
</g>
<path d="M3 11.6C3 8.23968 3 6.55953 3.65396 5.27606C4.2292 4.14708 5.14708 3.2292 6.27606 2.65396C7.55953 2 9.23969 2 12.6 2H49.4C52.7603 2 54.4405 2 55.7239 2.65396C56.8529 3.2292 57.7708 4.14708 58.346 5.27606C59 6.55953 59 8.23969 59 11.6V48.4C59 51.7603 59 53.4405 58.346 54.7239C57.7708 55.8529 56.8529 56.7708 55.7239 57.346C54.4405 58 52.7603 58 49.4 58H12.6C9.23968 58 7.55953 58 6.27606 57.346C5.14708 56.7708 4.2292 55.8529 3.65396 54.7239C3 53.4405 3 51.7603 3 48.4V11.6Z" stroke="#E5E5E7" shape-rendering="crispEdges"/>
</g>
<defs>
<filter id="filter0_d_333_1539" x="0.5" y="0.5" width="61" height="61" filterUnits="userSpaceOnUse" color-interpolation-filters="sRGB">
<feFlood flood-opacity="0" result="BackgroundImageFix"/>
<feColorMatrix in="SourceAlpha" type="matrix" values="0 0 0 0 0 0 0 0 0 0 0 0 0 0 0 0 0 0 127 0" result="hardAlpha"/>
<feOffset dy="1"/>
<feGaussianBlur stdDeviation="1"/>
<feComposite in2="hardAlpha" operator="out"/>
<feColorMatrix type="matrix" values="0 0 0 0 0.0627451 0 0 0 0 0.0941176 0 0 0 0 0.156863 0 0 0 0.04 0"/>
<feBlend mode="normal" in2="BackgroundImageFix" result="effect1_dropShadow_333_1539"/>
<feBlend mode="normal" in="SourceGraphic" in2="effect1_dropShadow_333_1539" result="shape"/>
</filter>
<filter id="filter1_d_333_1539" x="17" y="17" width="28" height="29.3335" filterUnits="userSpaceOnUse" color-interpolation-filters="sRGB">
<feFlood flood-opacity="0" result="BackgroundImageFix"/>
<feColorMatrix in="SourceAlpha" type="matrix" values="0 0 0 0 0 0 0 0 0 0 0 0 0 0 0 0 0 0 127 0" result="hardAlpha"/>
<feOffset dy="1"/>
<feGaussianBlur stdDeviation="1"/>
<feComposite in2="hardAlpha" operator="out"/>
<feColorMatrix type="matrix" values="0 0 0 0 0.0627451 0 0 0 0 0.0941176 0 0 0 0 0.156863 0 0 0 0.04 0"/>
<feBlend mode="normal" in2="BackgroundImageFix" result="effect1_dropShadow_333_1539"/>
<feBlend mode="normal" in="SourceGraphic" in2="effect1_dropShadow_333_1539" result="shape"/>
</filter>
<linearGradient id="paint0_linear_333_1539" x1="31" y1="18" x2="31" y2="43.3334" gradientUnits="userSpaceOnUse">
<stop stop-color="#4194FC"/>
<stop offset="1" stop-color="#0A77FF"/>
</linearGradient>
</defs>
</svg>
