<svg width="52" height="52" viewBox="0 0 52 52" fill="none" xmlns="http://www.w3.org/2000/svg">
<g filter="url(#filter0_d_264_3717)">
<path d="M2 10.6C2 7.23968 2 5.55953 2.65396 4.27606C3.2292 3.14708 4.14708 2.2292 5.27606 1.65396C6.55953 1 8.23968 1 11.6 1H40.4C43.7603 1 45.4405 1 46.7239 1.65396C47.8529 2.2292 48.7708 3.14708 49.346 4.27606C50 5.55953 50 7.23968 50 10.6V39.4C50 42.7603 50 44.4405 49.346 45.7239C48.7708 46.8529 47.8529 47.7708 46.7239 48.346C45.4405 49 43.7603 49 40.4 49H11.6C8.23968 49 6.55953 49 5.27606 48.346C4.14708 47.7708 3.2292 46.8529 2.65396 45.7239C2 44.4405 2 42.7603 2 39.4V10.6Z" fill="white" shape-rendering="crispEdges"/>
<path d="M11.6 1.5H40.4C42.0884 1.5 43.3246 1.50039 44.3001 1.58008C45.2697 1.6593 45.9374 1.81438 46.4969 2.09946C47.5318 2.62677 48.3732 3.46816 48.9005 4.50305C49.1856 5.06255 49.3407 5.73034 49.4199 6.69993C49.4996 7.67536 49.5 8.91159 49.5 10.6V39.4C49.5 41.0884 49.4996 42.3246 49.4199 43.3001C49.3407 44.2697 49.1856 44.9374 48.9005 45.4969C48.3732 46.5318 47.5318 47.3732 46.4969 47.9005C45.9374 48.1856 45.2697 48.3407 44.3001 48.4199C43.3246 48.4996 42.0884 48.5 40.4 48.5H11.6C9.91159 48.5 8.67536 48.4996 7.69993 48.4199C6.73034 48.3407 6.06255 48.1856 5.50305 47.9005C4.46816 47.3732 3.62677 46.5318 3.09946 45.4969C2.81438 44.9374 2.6593 44.2697 2.58008 43.3001C2.50039 42.3246 2.5 41.0884 2.5 39.4V10.6C2.5 8.91159 2.50039 7.67536 2.58008 6.69993C2.6593 5.73034 2.81438 5.06255 3.09946 4.50305C3.62677 3.46816 4.46816 2.62677 5.50305 2.09946C6.06255 1.81438 6.73034 1.6593 7.69993 1.58008C8.67536 1.50039 9.91159 1.5 11.6 1.5Z" stroke="#E5E5E7" shape-rendering="crispEdges"/>
</g>
<path fill-rule="evenodd" clip-rule="evenodd" d="M21.6419 16.6949L17.5591 22.219C15.8461 24.5366 14.9896 25.6954 15.4615 26.6065C15.4693 26.6217 15.4774 26.6366 15.4857 26.6514C15.9856 27.5488 17.4649 27.5488 20.4233 27.5488C22.0674 27.5488 22.8894 27.5488 23.405 28.0337L23.4317 28.0593L28.5943 21.9661L28.5677 21.9404C28.0629 21.445 28.0629 20.6552 28.0629 19.0756V18.6627C28.0629 14.2832 28.0629 12.0934 26.8318 11.7161C25.6006 11.3388 24.281 13.1242 21.6419 16.6949Z" fill="#2440E5"/>
<path opacity="0.5" d="M23.9373 30.9244V31.3372C23.9373 35.7167 23.9373 37.9066 25.1684 38.2838C26.3996 38.6611 27.7192 36.8758 30.3584 33.305L34.4412 27.781C36.1542 25.4634 37.0106 24.3046 36.5387 23.3934C36.5309 23.3783 36.5229 23.3634 36.5146 23.3486C36.0146 22.4512 34.5354 22.4512 31.5769 22.4512C29.9329 22.4512 29.1109 22.4512 28.5953 21.9663L23.4326 28.0596C23.9374 28.555 23.9373 29.3448 23.9373 30.9244Z" fill="#2440E5"/>
<defs>
<filter id="filter0_d_264_3717" x="0" y="0" width="52" height="52" filterUnits="userSpaceOnUse" color-interpolation-filters="sRGB">
<feFlood flood-opacity="0" result="BackgroundImageFix"/>
<feColorMatrix in="SourceAlpha" type="matrix" values="0 0 0 0 0 0 0 0 0 0 0 0 0 0 0 0 0 0 127 0" result="hardAlpha"/>
<feOffset dy="1"/>
<feGaussianBlur stdDeviation="1"/>
<feComposite in2="hardAlpha" operator="out"/>
<feColorMatrix type="matrix" values="0 0 0 0 0.0627451 0 0 0 0 0.0941176 0 0 0 0 0.156863 0 0 0 0.04 0"/>
<feBlend mode="normal" in2="BackgroundImageFix" result="effect1_dropShadow_264_3717"/>
<feBlend mode="normal" in="SourceGraphic" in2="effect1_dropShadow_264_3717" result="shape"/>
</filter>
</defs>
</svg>
