<svg width="52" height="52" viewBox="0 0 52 52" fill="none" xmlns="http://www.w3.org/2000/svg">
<g filter="url(#filter0_d_264_3369)">
<path d="M2 10.6C2 7.23968 2 5.55953 2.65396 4.27606C3.2292 3.14708 4.14708 2.2292 5.27606 1.65396C6.55953 1 8.23968 1 11.6 1H40.4C43.7603 1 45.4405 1 46.7239 1.65396C47.8529 2.2292 48.7708 3.14708 49.346 4.27606C50 5.55953 50 7.23968 50 10.6V39.4C50 42.7603 50 44.4405 49.346 45.7239C48.7708 46.8529 47.8529 47.7708 46.7239 48.346C45.4405 49 43.7603 49 40.4 49H11.6C8.23968 49 6.55953 49 5.27606 48.346C4.14708 47.7708 3.2292 46.8529 2.65396 45.7239C2 44.4405 2 42.7603 2 39.4V10.6Z" fill="white" shape-rendering="crispEdges"/>
<path d="M11.6 1.5H40.4C42.0884 1.5 43.3246 1.50039 44.3001 1.58008C45.2697 1.6593 45.9374 1.81438 46.4969 2.09946C47.5318 2.62677 48.3732 3.46816 48.9005 4.50305C49.1856 5.06255 49.3407 5.73034 49.4199 6.69993C49.4996 7.67536 49.5 8.91159 49.5 10.6V39.4C49.5 41.0884 49.4996 42.3246 49.4199 43.3001C49.3407 44.2697 49.1856 44.9374 48.9005 45.4969C48.3732 46.5318 47.5318 47.3732 46.4969 47.9005C45.9374 48.1856 45.2697 48.3407 44.3001 48.4199C43.3246 48.4996 42.0884 48.5 40.4 48.5H11.6C9.91159 48.5 8.67536 48.4996 7.69993 48.4199C6.73034 48.3407 6.06255 48.1856 5.50305 47.9005C4.46816 47.3732 3.62677 46.5318 3.09946 45.4969C2.81438 44.9374 2.6593 44.2697 2.58008 43.3001C2.50039 42.3246 2.5 41.0884 2.5 39.4V10.6C2.5 8.91159 2.50039 7.67536 2.58008 6.69993C2.6593 5.73034 2.81438 5.06255 3.09946 4.50305C3.62677 3.46816 4.46816 2.62677 5.50305 2.09946C6.06255 1.81438 6.73034 1.6593 7.69993 1.58008C8.67536 1.50039 9.91159 1.5 11.6 1.5Z" stroke="#E5E5E7" shape-rendering="crispEdges"/>
</g>
<path d="M21.2296 36.4906C23.5704 37.7192 24.7408 38.3333 25.9998 38.3333V25L13.5172 18.4302C13.4988 18.4597 13.4808 18.4895 13.463 18.5197C12.6665 19.8723 12.6665 21.5555 12.6665 24.922V25.078C12.6665 28.4444 12.6665 30.1277 13.463 31.4804C14.2596 32.833 15.694 33.5858 18.5629 35.0913L21.2296 36.4906Z" fill="#2440E5"/>
<path opacity="0.7" d="M33.4367 14.9085L30.77 13.5091C28.4292 12.2807 27.2588 11.6665 25.9998 11.6665C24.7407 11.6665 23.5703 12.2807 21.2295 13.5091L18.5628 14.9085C15.7578 16.3805 14.324 17.1329 13.5171 18.43L25.9998 24.9998L38.4824 18.43C37.6754 17.1329 36.2416 16.3805 33.4367 14.9085Z" fill="#2440E5"/>
<path opacity="0.5" d="M38.5368 18.5197C38.5191 18.4895 38.5011 18.4597 38.4827 18.4302L26 25V38.3333C27.2591 38.3333 28.4295 37.7192 30.7703 36.4906L33.4369 35.0913C36.3059 33.5858 37.7403 32.833 38.5368 31.4804C39.3333 30.1277 39.3333 28.4444 39.3333 25.078V24.922C39.3333 21.5555 39.3333 19.8723 38.5368 18.5197Z" fill="#2440E5"/>
<path d="M18.431 14.9783C18.4747 14.9553 18.5189 14.9321 18.5633 14.9088L20.5547 13.8638L32.689 20.5377L38.054 17.8552C38.2376 18.0631 38.3972 18.2822 38.537 18.5198C38.7365 18.8584 38.886 19.2179 38.9981 19.6192L33.6669 22.2848V26.3334C33.6669 26.8857 33.2192 27.3334 32.6669 27.3334C32.1146 27.3334 31.6669 26.8857 31.6669 26.3334V23.2848L27.0002 25.6181V38.2054C26.6577 38.2908 26.3321 38.3334 26.0002 38.3334C25.6685 38.3334 25.3428 38.2908 25.0002 38.2054V25.6181L13.0024 19.6192C13.1145 19.2179 13.264 18.8584 13.4635 18.5198C13.6034 18.2822 13.7629 18.0631 13.9465 17.8552L26.0002 23.8821L30.5152 21.6246L18.431 14.9783Z" fill="#2440E5"/>
<defs>
<filter id="filter0_d_264_3369" x="0" y="0" width="52" height="52" filterUnits="userSpaceOnUse" color-interpolation-filters="sRGB">
<feFlood flood-opacity="0" result="BackgroundImageFix"/>
<feColorMatrix in="SourceAlpha" type="matrix" values="0 0 0 0 0 0 0 0 0 0 0 0 0 0 0 0 0 0 127 0" result="hardAlpha"/>
<feOffset dy="1"/>
<feGaussianBlur stdDeviation="1"/>
<feComposite in2="hardAlpha" operator="out"/>
<feColorMatrix type="matrix" values="0 0 0 0 0.0627451 0 0 0 0 0.0941176 0 0 0 0 0.156863 0 0 0 0.04 0"/>
<feBlend mode="normal" in2="BackgroundImageFix" result="effect1_dropShadow_264_3369"/>
<feBlend mode="normal" in="SourceGraphic" in2="effect1_dropShadow_264_3369" result="shape"/>
</filter>
</defs>
</svg>
