<svg width="52" height="52" viewBox="0 0 52 52" fill="none" xmlns="http://www.w3.org/2000/svg">
<g filter="url(#filter0_d_264_2757)">
<path d="M2 10.6C2 7.23968 2 5.55953 2.65396 4.27606C3.2292 3.14708 4.14708 2.2292 5.27606 1.65396C6.55953 1 8.23968 1 11.6 1H40.4C43.7603 1 45.4405 1 46.7239 1.65396C47.8529 2.2292 48.7708 3.14708 49.346 4.27606C50 5.55953 50 7.23968 50 10.6V39.4C50 42.7603 50 44.4405 49.346 45.7239C48.7708 46.8529 47.8529 47.7708 46.7239 48.346C45.4405 49 43.7603 49 40.4 49H11.6C8.23968 49 6.55953 49 5.27606 48.346C4.14708 47.7708 3.2292 46.8529 2.65396 45.7239C2 44.4405 2 42.7603 2 39.4V10.6Z" fill="white" shape-rendering="crispEdges"/>
<path d="M11.6 1.5H40.4C42.0884 1.5 43.3246 1.50039 44.3001 1.58008C45.2697 1.6593 45.9374 1.81438 46.4969 2.09946C47.5318 2.62677 48.3732 3.46816 48.9005 4.50305C49.1856 5.06255 49.3407 5.73034 49.4199 6.69993C49.4996 7.67536 49.5 8.91159 49.5 10.6V39.4C49.5 41.0884 49.4996 42.3246 49.4199 43.3001C49.3407 44.2697 49.1856 44.9374 48.9005 45.4969C48.3732 46.5318 47.5318 47.3732 46.4969 47.9005C45.9374 48.1856 45.2697 48.3407 44.3001 48.4199C43.3246 48.4996 42.0884 48.5 40.4 48.5H11.6C9.91159 48.5 8.67536 48.4996 7.69993 48.4199C6.73034 48.3407 6.06255 48.1856 5.50305 47.9005C4.46816 47.3732 3.62677 46.5318 3.09946 45.4969C2.81438 44.9374 2.6593 44.2697 2.58008 43.3001C2.50039 42.3246 2.5 41.0884 2.5 39.4V10.6C2.5 8.91159 2.50039 7.67536 2.58008 6.69993C2.6593 5.73034 2.81438 5.06255 3.09946 4.50305C3.62677 3.46816 4.46816 2.62677 5.50305 2.09946C6.06255 1.81438 6.73034 1.6593 7.69993 1.58008C8.67536 1.50039 9.91159 1.5 11.6 1.5Z" stroke="#E5E5E7" shape-rendering="crispEdges"/>
</g>
<path opacity="0.5" d="M12.6666 24C12.6666 20.134 15.3529 17 18.6666 17C21.9803 17 24.6666 20.134 24.6666 24V35.6667H15.6434C13.9994 35.6667 12.6666 34.1119 12.6666 32.1937V24Z" fill="#2440E5"/>
<path opacity="0.8" d="M24.6666 24V35.6667H28.6666H30H36.3908C38.0158 35.6667 39.3333 34.1297 39.3333 32.2337V24C39.3333 20.134 36.647 17 33.3333 17H18.6666C21.9803 17 24.6666 20.134 24.6666 24Z" fill="#2440E5"/>
<path d="M22.6666 35.6665V38.3332C22.6666 38.8854 23.1143 39.3332 23.6666 39.3332C24.2189 39.3332 24.6666 38.8854 24.6666 38.3332V35.6665H22.6666Z" fill="#2440E5"/>
<path d="M30 35.6665H28V38.3332C28 38.8854 28.4477 39.3332 29 39.3332C29.5523 39.3332 30 38.8854 30 38.3332V35.6665Z" fill="#2440E5"/>
<path fill-rule="evenodd" clip-rule="evenodd" d="M15.6666 30.3335C15.6666 29.7812 16.1143 29.3335 16.6666 29.3335H20.6666C21.2189 29.3335 21.6666 29.7812 21.6666 30.3335C21.6666 30.8858 21.2189 31.3335 20.6666 31.3335H16.6666C16.1143 31.3335 15.6666 30.8858 15.6666 30.3335Z" fill="#2440E5"/>
<path fill-rule="evenodd" clip-rule="evenodd" d="M33.1795 17.7795L33.521 17.7111C34.0752 17.6001 34.6484 17.6531 35.1752 17.864C36.0956 18.2325 37.1022 18.3014 38.0611 18.0614L38.1431 18.0409C38.8412 17.8662 39.3334 17.2172 39.3334 16.471V13.6303C39.3334 12.6465 38.4478 11.9218 37.5272 12.1521C36.9987 12.2844 36.4439 12.2465 35.9364 12.0433L35.8391 12.0043C34.9896 11.6642 34.0655 11.5788 33.1716 11.7577L32.5734 11.8775C31.8535 12.0216 31.3334 12.6761 31.3334 13.4378V22.7074C31.3334 23.2372 31.7467 23.6665 32.2564 23.6665C32.7663 23.6665 33.1795 23.2372 33.1795 22.7074V17.7795Z" fill="#2440E5"/>
<defs>
<filter id="filter0_d_264_2757" x="0" y="0" width="52" height="52" filterUnits="userSpaceOnUse" color-interpolation-filters="sRGB">
<feFlood flood-opacity="0" result="BackgroundImageFix"/>
<feColorMatrix in="SourceAlpha" type="matrix" values="0 0 0 0 0 0 0 0 0 0 0 0 0 0 0 0 0 0 127 0" result="hardAlpha"/>
<feOffset dy="1"/>
<feGaussianBlur stdDeviation="1"/>
<feComposite in2="hardAlpha" operator="out"/>
<feColorMatrix type="matrix" values="0 0 0 0 0.0627451 0 0 0 0 0.0941176 0 0 0 0 0.156863 0 0 0 0.04 0"/>
<feBlend mode="normal" in2="BackgroundImageFix" result="effect1_dropShadow_264_2757"/>
<feBlend mode="normal" in="SourceGraphic" in2="effect1_dropShadow_264_2757" result="shape"/>
</filter>
</defs>
</svg>
