<svg width="444" height="196" viewBox="0 0 444 196" fill="none" xmlns="http://www.w3.org/2000/svg">
<g filter="url(#filter0_d_264_3189)">
<rect x="2" y="1" width="440" height="192" rx="10" fill="white"/>
<path d="M24.4769 139H22.3675L26.2081 128.091H28.6477L32.4936 139H30.3842L27.4705 130.328H27.3853L24.4769 139ZM24.5462 134.723H30.299V136.31H24.5462V134.723ZM35.7735 134.206V139H33.8453V130.818H35.6883V132.208H35.7842C35.9724 131.75 36.2725 131.386 36.6844 131.116C37.0999 130.847 37.613 130.712 38.2238 130.712C38.7884 130.712 39.2803 130.832 39.6993 131.074C40.1219 131.315 40.4486 131.665 40.6794 132.123C40.9138 132.581 41.0292 133.137 41.0257 133.79V139H39.0974V134.089C39.0974 133.542 38.9553 133.114 38.6713 132.805C38.3907 132.496 38.0019 132.342 37.5047 132.342C37.1673 132.342 36.8673 132.416 36.6045 132.565C36.3453 132.711 36.1411 132.922 35.9919 133.199C35.8463 133.476 35.7735 133.812 35.7735 134.206ZM45.3403 139.165C44.8218 139.165 44.3548 139.073 43.9394 138.888C43.5274 138.7 43.2007 138.423 42.9593 138.057C42.7213 137.691 42.6024 137.24 42.6024 136.704C42.6024 136.243 42.6876 135.861 42.858 135.559C43.0285 135.257 43.2611 135.016 43.5558 134.835C43.8506 134.653 44.1826 134.517 44.5519 134.424C44.9248 134.328 45.3101 134.259 45.7078 134.217C46.1872 134.167 46.5761 134.123 46.8744 134.083C47.1727 134.041 47.3893 133.977 47.5242 133.892C47.6627 133.803 47.732 133.666 47.732 133.482V133.45C47.732 133.048 47.613 132.738 47.3751 132.517C47.1372 132.297 46.7945 132.187 46.347 132.187C45.8747 132.187 45.5001 132.29 45.2231 132.496C44.9497 132.702 44.765 132.945 44.6691 133.226L42.8687 132.97C43.0107 132.473 43.2451 132.058 43.5718 131.724C43.8985 131.386 44.298 131.134 44.7703 130.967C45.2426 130.797 45.7646 130.712 46.3364 130.712C46.7306 130.712 47.123 130.758 47.5136 130.85C47.9042 130.942 48.2611 131.095 48.5843 131.308C48.9074 131.518 49.1666 131.804 49.3619 132.166C49.5608 132.528 49.6602 132.981 49.6602 133.524V139H47.8066V137.876H47.7426C47.6254 138.103 47.4603 138.316 47.2472 138.515C47.0377 138.711 46.7732 138.869 46.4536 138.989C46.1375 139.107 45.7664 139.165 45.3403 139.165ZM45.841 137.748C46.2281 137.748 46.5637 137.672 46.8477 137.519C47.1318 137.363 47.3502 137.157 47.5029 136.901C47.6592 136.646 47.7373 136.367 47.7373 136.065V135.101C47.6769 135.151 47.574 135.197 47.4284 135.239C47.2863 135.282 47.1265 135.319 46.949 135.351C46.7714 135.383 46.5956 135.412 46.4216 135.436C46.2476 135.461 46.0967 135.483 45.9688 135.5C45.6812 135.539 45.4237 135.603 45.1965 135.692C44.9692 135.781 44.7899 135.905 44.6585 136.065C44.5271 136.221 44.4614 136.424 44.4614 136.672C44.4614 137.027 44.591 137.295 44.8502 137.477C45.1095 137.658 45.4397 137.748 45.841 137.748ZM53.5274 128.091V139H51.5992V128.091H53.5274ZM56.7088 142.068C56.446 142.068 56.2028 142.047 55.979 142.004C55.7589 141.965 55.5831 141.919 55.4517 141.866L55.8991 140.364C56.1797 140.445 56.43 140.484 56.6502 140.481C56.8704 140.477 57.0639 140.408 57.2308 140.273C57.4013 140.142 57.5451 139.922 57.6623 139.613L57.8274 139.17L54.8604 130.818H56.9059L58.7915 136.997H58.8768L60.7678 130.818H62.8185L59.5426 139.991C59.3899 140.424 59.1875 140.795 58.9354 141.104C58.6832 141.417 58.3743 141.654 58.0085 141.818C57.6463 141.985 57.2131 142.068 56.7088 142.068ZM68.2385 130.818V132.31H63.535V130.818H68.2385ZM64.6962 128.858H66.6245V136.539C66.6245 136.798 66.6635 136.997 66.7417 137.136C66.8233 137.271 66.9299 137.363 67.0613 137.413C67.1926 137.462 67.3382 137.487 67.498 137.487C67.6188 137.487 67.7289 137.478 67.8283 137.461C67.9313 137.443 68.0094 137.427 68.0627 137.413L68.3876 138.92C68.2846 138.956 68.1373 138.995 67.9455 139.037C67.7573 139.08 67.5265 139.105 67.253 139.112C66.7701 139.126 66.335 139.053 65.948 138.893C65.5609 138.73 65.2537 138.478 65.0265 138.137C64.8027 137.796 64.6926 137.37 64.6962 136.859V128.858ZM69.8511 139V130.818H71.7794V139H69.8511ZM70.8206 129.657C70.5152 129.657 70.2524 129.556 70.0322 129.353C69.8121 129.147 69.702 128.901 69.702 128.613C69.702 128.322 69.8121 128.075 70.0322 127.873C70.2524 127.667 70.5152 127.564 70.8206 127.564C71.1295 127.564 71.3923 127.667 71.6089 127.873C71.8291 128.075 71.9392 128.322 71.9392 128.613C71.9392 128.901 71.8291 129.147 71.6089 129.353C71.3923 129.556 71.1295 129.657 70.8206 129.657ZM77.3311 139.16C76.5144 139.16 75.813 138.98 75.2271 138.622C74.6447 138.263 74.1955 137.768 73.8794 137.136C73.5669 136.5 73.4107 135.768 73.4107 134.941C73.4107 134.11 73.5705 133.377 73.8901 132.741C74.2097 132.102 74.6607 131.605 75.2431 131.25C75.829 130.891 76.5215 130.712 77.3205 130.712C77.9846 130.712 78.5723 130.834 79.0836 131.079C79.5985 131.321 80.0087 131.663 80.3141 132.107C80.6195 132.548 80.7935 133.062 80.8361 133.652H78.9931C78.9185 133.258 78.7409 132.929 78.4604 132.667C78.1834 132.4 77.8123 132.267 77.3471 132.267C76.9529 132.267 76.6067 132.374 76.3084 132.587C76.0101 132.796 75.7775 133.098 75.6106 133.492C75.4473 133.886 75.3656 134.359 75.3656 134.909C75.3656 135.467 75.4473 135.946 75.6106 136.347C75.774 136.745 76.003 137.052 76.2978 137.269C76.5961 137.482 76.9458 137.588 77.3471 137.588C77.6312 137.588 77.8851 137.535 78.1088 137.429C78.3361 137.319 78.5261 137.161 78.6788 136.955C78.8315 136.749 78.9363 136.498 78.9931 136.203H80.8361C80.79 136.782 80.6195 137.295 80.3248 137.743C80.03 138.187 79.6287 138.535 79.1209 138.787C78.6131 139.036 78.0165 139.16 77.3311 139.16ZM88.8861 132.981L87.1283 133.173C87.0786 132.995 86.9916 132.828 86.8673 132.672C86.7465 132.516 86.5832 132.39 86.3772 132.294C86.1713 132.198 85.9191 132.15 85.6208 132.15C85.2195 132.15 84.8822 132.237 84.6088 132.411C84.3389 132.585 84.2057 132.81 84.2093 133.087C84.2057 133.325 84.2927 133.519 84.4703 133.668C84.6514 133.817 84.9497 133.94 85.3651 134.036L86.7607 134.334C87.5349 134.501 88.1102 134.765 88.4866 135.127C88.8666 135.49 89.0583 135.964 89.0619 136.55C89.0583 137.065 88.9074 137.519 88.6091 137.913C88.3144 138.304 87.9042 138.609 87.3786 138.83C86.8531 139.05 86.2494 139.16 85.5676 139.16C84.5661 139.16 83.76 138.95 83.1492 138.531C82.5384 138.109 82.1744 137.521 82.0573 136.768L83.9376 136.587C84.0228 136.956 84.2039 137.235 84.4809 137.423C84.7579 137.612 85.1183 137.706 85.5622 137.706C86.0203 137.706 86.3879 137.612 86.6649 137.423C86.9454 137.235 87.0857 137.002 87.0857 136.725C87.0857 136.491 86.9951 136.298 86.814 136.145C86.6365 135.992 86.3595 135.875 85.983 135.793L84.5874 135.5C83.8026 135.337 83.222 135.062 82.8456 134.675C82.4692 134.284 82.2828 133.79 82.2863 133.194C82.2828 132.69 82.4195 132.253 82.6965 131.884C82.977 131.511 83.3659 131.223 83.863 131.021C84.3637 130.815 84.9408 130.712 85.5942 130.712C86.553 130.712 87.3076 130.916 87.858 131.324C88.412 131.733 88.7547 132.285 88.8861 132.981Z" fill="#323539"/>
<path d="M411.558 133.684H412.191M411.558 134.317H412.191M405.652 133.684H406.285M405.652 134.317H406.285M417.465 133.684H418.097M417.465 134.317H418.097M412.719 134C412.719 134.466 412.341 134.844 411.875 134.844C411.409 134.844 411.031 134.466 411.031 134C411.031 133.534 411.409 133.157 411.875 133.157C412.341 133.157 412.719 133.534 412.719 134ZM406.812 134C406.812 134.466 406.435 134.844 405.969 134.844C405.503 134.844 405.125 134.466 405.125 134C405.125 133.534 405.503 133.157 405.969 133.157C406.435 133.157 406.812 133.534 406.812 134ZM418.625 134C418.625 134.466 418.247 134.844 417.781 134.844C417.315 134.844 416.937 134.466 416.937 134C416.937 133.534 417.315 133.157 417.781 133.157C418.247 133.157 418.625 133.534 418.625 134Z" stroke="#858C95" stroke-width="1.6875" stroke-linecap="round"/>
<g clip-path="url(#clip0_264_3189)">
<path d="M22 23C22 19.6863 24.6863 17 28 17H50.25C53.5637 17 56.25 19.6863 56.25 23V101C56.25 104.314 53.5637 107 50.25 107H28C24.6863 107 22 104.314 22 101V23Z" fill="#E5E5E7"/>
<path d="M12.7637 65.2607H65.1007V108.522C65.1007 111.283 62.8622 113.522 60.1007 113.522H17.7637C15.0023 113.522 12.7637 111.283 12.7637 108.522V65.2607Z" fill="#0A77FF"/>
</g>
<g clip-path="url(#clip1_264_3189)">
<path d="M74.25 23C74.25 19.6863 76.9363 17 80.25 17H102.5C105.814 17 108.5 19.6863 108.5 23V101C108.5 104.314 105.814 107 102.5 107H80.25C76.9363 107 74.25 104.314 74.25 101V23Z" fill="#E5E5E7"/>
<path d="M69.2472 47.6523H113.888V105.913C113.888 108.675 111.649 110.913 108.888 110.913H74.2472C71.4858 110.913 69.2472 108.675 69.2472 105.913V47.6523Z" fill="#0A77FF"/>
</g>
<g clip-path="url(#clip2_264_3189)">
<path d="M126.5 23C126.5 19.6863 129.186 17 132.5 17H154.75C158.064 17 160.75 19.6863 160.75 23V101C160.75 104.314 158.064 107 154.75 107H132.5C129.186 107 126.5 104.314 126.5 101V23Z" fill="#E5E5E7"/>
<path d="M119.573 71.7827H168.062V109.174C168.062 111.935 165.823 114.174 163.062 114.174H124.573C121.812 114.174 119.573 111.935 119.573 109.174V71.7827Z" fill="#0A77FF"/>
</g>
<g clip-path="url(#clip3_264_3189)">
<path d="M178.75 23C178.75 19.6863 181.436 17 184.75 17H207C210.314 17 213 19.6863 213 23V101C213 104.314 210.314 107 207 107H184.75C181.436 107 178.75 104.314 178.75 101V23Z" fill="#E5E5E7"/>
<path d="M174.605 33.981H217.363V107.094C217.363 109.856 215.125 112.094 212.363 112.094H179.605C176.844 112.094 174.605 109.856 174.605 107.094V33.981Z" fill="#0A77FF"/>
</g>
<g clip-path="url(#clip4_264_3189)">
<path d="M231 23C231 19.6863 233.686 17 237 17H259.25C262.564 17 265.25 19.6863 265.25 23V101C265.25 104.314 262.564 107 259.25 107H237C233.686 107 231 104.314 231 101V23Z" fill="#E5E5E7"/>
<path d="M221.764 58.7393H274.101V109.174C274.101 111.935 271.862 114.174 269.101 114.174H226.764C224.002 114.174 221.764 111.935 221.764 109.174V58.7393Z" fill="#0A77FF"/>
</g>
<g clip-path="url(#clip5_264_3189)">
<path d="M283.25 23C283.25 19.6863 285.936 17 289.25 17H311.5C314.814 17 317.5 19.6863 317.5 23V101C317.5 104.314 314.814 107 311.5 107H289.25C285.936 107 283.25 104.314 283.25 101V23Z" fill="#E5E5E7"/>
<path d="M278.247 68.522H322.888V107.87C322.888 110.631 320.649 112.87 317.888 112.87H283.247C280.486 112.87 278.247 110.631 278.247 107.87V68.522Z" fill="#0A77FF"/>
</g>
<g clip-path="url(#clip6_264_3189)">
<path d="M335.5 23C335.5 19.6863 338.186 17 341.5 17H363.75C367.064 17 369.75 19.6863 369.75 23V101C369.75 104.314 367.064 107 363.75 107H341.5C338.186 107 335.5 104.314 335.5 101V23Z" fill="#E5E5E7"/>
<path d="M328.573 35.9131H376.292V106.565C376.292 109.327 374.054 111.565 371.292 111.565H333.573C330.812 111.565 328.573 109.327 328.573 106.565V35.9131Z" fill="#0A77FF"/>
</g>
<g clip-path="url(#clip7_264_3189)">
<path d="M387.75 23C387.75 19.6863 390.436 17 393.75 17H416C419.314 17 422 19.6863 422 23V101C422 104.314 419.314 107 416 107H393.75C390.436 107 387.75 104.314 387.75 101V23Z" fill="#E5E5E7"/>
<path d="M381.978 58.7393H428.157V107.87C428.157 110.631 425.919 112.87 423.157 112.87H386.978C384.216 112.87 381.978 110.631 381.978 107.87V58.7393Z" fill="#0A77FF"/>
</g>
<path d="M33.076 163.818H34.6072V171.037C34.6072 171.69 34.478 172.248 34.2195 172.712C33.9643 173.176 33.6046 173.531 33.1406 173.776C32.6766 174.018 32.133 174.139 31.5099 174.139C30.9366 174.139 30.4212 174.035 29.9638 173.826C29.5097 173.617 29.1501 173.314 28.8849 172.916C28.6231 172.515 28.4922 172.028 28.4922 171.455H30.0185C30.0185 171.736 30.0831 171.98 30.2124 172.185C30.3449 172.391 30.5256 172.552 30.7543 172.668C30.9863 172.78 31.2514 172.837 31.5497 172.837C31.8745 172.837 32.1496 172.769 32.375 172.633C32.6037 172.494 32.7777 172.29 32.897 172.021C33.0163 171.753 33.076 171.425 33.076 171.037V163.818ZM38.9462 174.169C38.4623 174.169 38.0248 174.08 37.6337 173.901C37.2426 173.718 36.9327 173.455 36.704 173.11C36.4786 172.765 36.3659 172.343 36.3659 171.842C36.3659 171.411 36.4488 171.057 36.6145 170.778C36.7802 170.5 37.004 170.28 37.2857 170.117C37.5674 169.955 37.8823 169.832 38.2303 169.749C38.5783 169.666 38.9329 169.603 39.2942 169.56C39.7516 169.507 40.1228 169.464 40.4078 169.431C40.6929 169.395 40.9 169.337 41.0293 169.257C41.1586 169.178 41.2232 169.048 41.2232 168.869V168.835C41.2232 168.4 41.1006 168.064 40.8553 167.825C40.6133 167.587 40.2521 167.467 39.7715 167.467C39.271 167.467 38.8766 167.578 38.5882 167.8C38.3032 168.019 38.106 168.263 37.9966 168.531L36.5996 168.213C36.7653 167.749 37.0073 167.375 37.3255 167.089C37.647 166.801 38.0165 166.592 38.4341 166.463C38.8517 166.33 39.2909 166.264 39.7516 166.264C40.0565 166.264 40.3797 166.301 40.7211 166.374C41.0658 166.443 41.3873 166.572 41.6855 166.761C41.9872 166.95 42.2341 167.22 42.4263 167.572C42.6185 167.92 42.7147 168.372 42.7147 168.929V174H41.263V172.956H41.2033C41.1072 173.148 40.963 173.337 40.7708 173.523C40.5785 173.708 40.3316 173.862 40.03 173.985C39.7284 174.108 39.3671 174.169 38.9462 174.169ZM39.2694 172.976C39.6803 172.976 40.0317 172.895 40.3233 172.732C40.6183 172.57 40.842 172.358 40.9945 172.096C41.1503 171.831 41.2282 171.547 41.2282 171.246V170.261C41.1751 170.314 41.0724 170.364 40.9199 170.411C40.7708 170.454 40.6001 170.492 40.4078 170.525C40.2156 170.555 40.0284 170.583 39.8461 170.609C39.6638 170.633 39.5113 170.652 39.3887 170.669C39.1003 170.705 38.8368 170.767 38.5982 170.853C38.3629 170.939 38.1739 171.063 38.0314 171.226C37.8922 171.385 37.8226 171.597 37.8226 171.862C37.8226 172.23 37.9585 172.509 38.2303 172.697C38.5021 172.883 38.8484 172.976 39.2694 172.976ZM46.1811 169.466V174H44.6946V166.364H46.1214V167.607H46.2159C46.3916 167.202 46.6667 166.877 47.0412 166.632C47.419 166.387 47.8946 166.264 48.468 166.264C48.9884 166.264 49.4441 166.374 49.8352 166.592C50.2263 166.808 50.5296 167.129 50.745 167.557C50.9605 167.984 51.0682 168.513 51.0682 169.143V174H49.5817V169.322C49.5817 168.768 49.4375 168.336 49.1491 168.024C48.8608 167.709 48.4647 167.552 47.9609 167.552C47.6162 167.552 47.3097 167.626 47.0412 167.776C46.776 167.925 46.5656 168.143 46.4098 168.432C46.2573 168.717 46.1811 169.062 46.1811 169.466Z" fill="#858C95"/>
<path d="M80.8328 174V163.818H87.1468V165.141H82.3691V168.243H86.6943V169.56H82.3691V174H80.8328ZM91.6473 174.154C90.8949 174.154 90.247 173.993 89.7034 173.672C89.1632 173.347 88.7455 172.891 88.4506 172.305C88.1589 171.715 88.0131 171.024 88.0131 170.232C88.0131 169.449 88.1589 168.76 88.4506 168.163C88.7455 167.567 89.1565 167.101 89.6835 166.766C90.2138 166.432 90.8336 166.264 91.5429 166.264C91.9738 166.264 92.3914 166.335 92.7957 166.478C93.2001 166.621 93.563 166.844 93.8845 167.149C94.206 167.454 94.4596 167.85 94.6452 168.337C94.8308 168.821 94.9236 169.41 94.9236 170.102V170.629H88.8533V169.516H93.4669C93.4669 169.125 93.3874 168.778 93.2283 168.477C93.0692 168.172 92.8454 167.931 92.5571 167.756C92.2721 167.58 91.9373 167.492 91.5528 167.492C91.1352 167.492 90.7706 167.595 90.4591 167.8C90.1508 168.003 89.9122 168.268 89.7432 168.596C89.5775 168.921 89.4946 169.274 89.4946 169.655V170.525C89.4946 171.035 89.5841 171.469 89.7631 171.827C89.9454 172.185 90.1989 172.459 90.5237 172.648C90.8485 172.833 91.228 172.926 91.6622 172.926C91.9439 172.926 92.2008 172.886 92.4328 172.807C92.6648 172.724 92.8653 172.601 93.0344 172.439C93.2034 172.277 93.3327 172.076 93.4222 171.837L94.8291 172.091C94.7164 172.505 94.5142 172.868 94.2226 173.18C93.9342 173.488 93.5713 173.728 93.1338 173.901C92.6996 174.07 92.2041 174.154 91.6473 174.154ZM96.6922 174V163.818H98.1787V167.602H98.2682C98.3544 167.442 98.4787 167.259 98.6411 167.05C98.8035 166.841 99.0289 166.659 99.3172 166.503C99.6056 166.344 99.9867 166.264 100.461 166.264C101.077 166.264 101.627 166.42 102.111 166.732C102.595 167.043 102.975 167.492 103.25 168.079C103.528 168.665 103.667 169.371 103.667 170.197C103.667 171.022 103.53 171.73 103.255 172.32C102.98 172.906 102.602 173.359 102.121 173.677C101.641 173.992 101.092 174.149 100.476 174.149C100.012 174.149 99.6321 174.071 99.3371 173.915C99.0454 173.76 98.8167 173.577 98.651 173.369C98.4853 173.16 98.3577 172.974 98.2682 172.812H98.1439V174H96.6922ZM98.1489 170.182C98.1489 170.719 98.2268 171.189 98.3826 171.594C98.5383 171.998 98.7637 172.315 99.0587 172.543C99.3537 172.769 99.7149 172.881 100.143 172.881C100.587 172.881 100.958 172.764 101.256 172.528C101.554 172.29 101.78 171.967 101.932 171.559C102.088 171.151 102.166 170.692 102.166 170.182C102.166 169.678 102.09 169.226 101.937 168.825C101.788 168.424 101.563 168.107 101.261 167.875C100.963 167.643 100.59 167.527 100.143 167.527C99.7116 167.527 99.347 167.638 99.0488 167.86C98.7538 168.082 98.53 168.392 98.3776 168.79C98.2251 169.187 98.1489 169.652 98.1489 170.182Z" fill="#858C95"/>
<path d="M132.547 163.818H134.412L137.653 171.733H137.772L141.014 163.818H142.878V174H141.417V166.632H141.322L138.319 173.985H137.106L134.103 166.627H134.009V174H132.547V163.818ZM147.215 174.169C146.731 174.169 146.293 174.08 145.902 173.901C145.511 173.718 145.201 173.455 144.972 173.11C144.747 172.765 144.634 172.343 144.634 171.842C144.634 171.411 144.717 171.057 144.883 170.778C145.049 170.5 145.272 170.28 145.554 170.117C145.836 169.955 146.151 169.832 146.499 169.749C146.847 169.666 147.201 169.603 147.563 169.56C148.02 169.507 148.391 169.464 148.676 169.431C148.961 169.395 149.168 169.337 149.298 169.257C149.427 169.178 149.492 169.048 149.492 168.869V168.835C149.492 168.4 149.369 168.064 149.124 167.825C148.882 167.587 148.521 167.467 148.04 167.467C147.539 167.467 147.145 167.578 146.857 167.8C146.572 168.019 146.374 168.263 146.265 168.531L144.868 168.213C145.034 167.749 145.276 167.375 145.594 167.089C145.915 166.801 146.285 166.592 146.703 166.463C147.12 166.33 147.559 166.264 148.02 166.264C148.325 166.264 148.648 166.301 148.989 166.374C149.334 166.443 149.656 166.572 149.954 166.761C150.256 166.95 150.503 167.22 150.695 167.572C150.887 167.92 150.983 168.372 150.983 168.929V174H149.531V172.956H149.472C149.376 173.148 149.231 173.337 149.039 173.523C148.847 173.708 148.6 173.862 148.298 173.985C147.997 174.108 147.636 174.169 147.215 174.169ZM147.538 172.976C147.949 172.976 148.3 172.895 148.592 172.732C148.887 172.57 149.11 172.358 149.263 172.096C149.419 171.831 149.497 171.547 149.497 171.246V170.261C149.444 170.314 149.341 170.364 149.188 170.411C149.039 170.454 148.869 170.492 148.676 170.525C148.484 170.555 148.297 170.583 148.114 170.609C147.932 170.633 147.78 170.652 147.657 170.669C147.369 170.705 147.105 170.767 146.867 170.853C146.631 170.939 146.442 171.063 146.3 171.226C146.161 171.385 146.091 171.597 146.091 171.862C146.091 172.23 146.227 172.509 146.499 172.697C146.771 172.883 147.117 172.976 147.538 172.976ZM152.963 174V166.364H154.4V167.577H154.479C154.619 167.166 154.864 166.843 155.215 166.607C155.57 166.369 155.971 166.249 156.418 166.249C156.511 166.249 156.62 166.253 156.746 166.259C156.876 166.266 156.977 166.274 157.05 166.284V167.706C156.99 167.689 156.884 167.671 156.732 167.651C156.579 167.628 156.427 167.616 156.274 167.616C155.923 167.616 155.61 167.691 155.334 167.84C155.063 167.986 154.847 168.19 154.688 168.452C154.529 168.71 154.45 169.005 154.45 169.337V174H152.963Z" fill="#858C95"/>
<path d="M186.122 174H184.491L188.155 163.818H189.93L193.594 174H191.963L189.085 165.668H189.005L186.122 174ZM186.395 170.013H191.685V171.305H186.395V170.013ZM194.945 176.864V166.364H196.397V167.602H196.521C196.607 167.442 196.731 167.259 196.894 167.05C197.056 166.841 197.281 166.659 197.57 166.503C197.858 166.344 198.239 166.264 198.713 166.264C199.33 166.264 199.88 166.42 200.364 166.732C200.848 167.043 201.227 167.492 201.502 168.079C201.781 168.665 201.92 169.371 201.92 170.197C201.92 171.022 201.782 171.73 201.507 172.32C201.232 172.906 200.854 173.359 200.374 173.677C199.893 173.992 199.345 174.149 198.728 174.149C198.264 174.149 197.885 174.071 197.59 173.915C197.298 173.76 197.069 173.577 196.904 173.369C196.738 173.16 196.61 172.974 196.521 172.812H196.431V176.864H194.945ZM196.402 170.182C196.402 170.719 196.479 171.189 196.635 171.594C196.791 171.998 197.016 172.315 197.311 172.543C197.606 172.769 197.968 172.881 198.395 172.881C198.839 172.881 199.21 172.764 199.509 172.528C199.807 172.29 200.032 171.967 200.185 171.559C200.341 171.151 200.419 170.692 200.419 170.182C200.419 169.678 200.342 169.226 200.19 168.825C200.041 168.424 199.815 168.107 199.514 167.875C199.215 167.643 198.843 167.527 198.395 167.527C197.964 167.527 197.6 167.638 197.301 167.86C197.006 168.082 196.783 168.392 196.63 168.79C196.478 169.187 196.402 169.652 196.402 170.182ZM203.585 174V166.364H205.022V167.577H205.102C205.241 167.166 205.486 166.843 205.838 166.607C206.192 166.369 206.593 166.249 207.041 166.249C207.134 166.249 207.243 166.253 207.369 166.259C207.498 166.266 207.599 166.274 207.672 166.284V167.706C207.612 167.689 207.506 167.671 207.354 167.651C207.201 167.628 207.049 167.616 206.897 167.616C206.545 167.616 206.232 167.691 205.957 167.84C205.685 167.986 205.47 168.19 205.311 168.452C205.152 168.71 205.072 169.005 205.072 169.337V174H203.585Z" fill="#858C95"/>
<path d="M235.976 163.818H237.84L241.082 171.733H241.201L244.442 163.818H246.307V174H244.845V166.632H244.751L241.748 173.985H240.535L237.532 166.627H237.437V174H235.976V163.818ZM250.643 174.169C250.159 174.169 249.722 174.08 249.331 173.901C248.94 173.718 248.63 173.455 248.401 173.11C248.176 172.765 248.063 172.343 248.063 171.842C248.063 171.411 248.146 171.057 248.312 170.778C248.477 170.5 248.701 170.28 248.983 170.117C249.264 169.955 249.579 169.832 249.927 169.749C250.275 169.666 250.63 169.603 250.991 169.56C251.449 169.507 251.82 169.464 252.105 169.431C252.39 169.395 252.597 169.337 252.726 169.257C252.856 169.178 252.92 169.048 252.92 168.869V168.835C252.92 168.4 252.798 168.064 252.552 167.825C252.31 167.587 251.949 167.467 251.469 167.467C250.968 167.467 250.574 167.578 250.285 167.8C250 168.019 249.803 168.263 249.694 168.531L248.297 168.213C248.462 167.749 248.704 167.375 249.022 167.089C249.344 166.801 249.714 166.592 250.131 166.463C250.549 166.33 250.988 166.264 251.449 166.264C251.754 166.264 252.077 166.301 252.418 166.374C252.763 166.443 253.084 166.572 253.383 166.761C253.684 166.95 253.931 167.22 254.123 167.572C254.316 167.92 254.412 168.372 254.412 168.929V174H252.96V172.956H252.9C252.804 173.148 252.66 173.337 252.468 173.523C252.276 173.708 252.029 173.862 251.727 173.985C251.425 174.108 251.064 174.169 250.643 174.169ZM250.966 172.976C251.377 172.976 251.729 172.895 252.02 172.732C252.315 172.57 252.539 172.358 252.692 172.096C252.847 171.831 252.925 171.547 252.925 171.246V170.261C252.872 170.314 252.769 170.364 252.617 170.411C252.468 170.454 252.297 170.492 252.105 170.525C251.913 170.555 251.725 170.583 251.543 170.609C251.361 170.633 251.208 170.652 251.086 170.669C250.797 170.705 250.534 170.767 250.295 170.853C250.06 170.939 249.871 171.063 249.728 171.226C249.589 171.385 249.52 171.597 249.52 171.862C249.52 172.23 249.656 172.509 249.927 172.697C250.199 172.883 250.545 172.976 250.966 172.976ZM257.058 176.864C256.836 176.864 256.634 176.845 256.451 176.809C256.269 176.776 256.133 176.739 256.044 176.7L256.402 175.482C256.673 175.554 256.915 175.586 257.127 175.576C257.34 175.566 257.527 175.487 257.689 175.337C257.855 175.188 258.001 174.945 258.127 174.607L258.311 174.099L255.517 166.364H257.108L259.041 172.29H259.121L261.055 166.364H262.651L259.504 175.019C259.358 175.417 259.172 175.753 258.947 176.028C258.722 176.307 258.453 176.516 258.142 176.655C257.83 176.794 257.469 176.864 257.058 176.864Z" fill="#858C95"/>
<path d="M295.647 163.818H297.179V171.037C297.179 171.69 297.049 172.248 296.791 172.712C296.536 173.176 296.176 173.531 295.712 173.776C295.248 174.018 294.704 174.139 294.081 174.139C293.508 174.139 292.993 174.035 292.535 173.826C292.081 173.617 291.722 173.314 291.456 172.916C291.195 172.515 291.064 172.028 291.064 171.455H292.59C292.59 171.736 292.655 171.98 292.784 172.185C292.916 172.391 293.097 172.552 293.326 172.668C293.558 172.78 293.823 172.837 294.121 172.837C294.446 172.837 294.721 172.769 294.946 172.633C295.175 172.494 295.349 172.29 295.468 172.021C295.588 171.753 295.647 171.425 295.647 171.037V163.818ZM304.133 170.833V166.364H305.624V174H304.162V172.678H304.083C303.907 173.085 303.626 173.425 303.238 173.697C302.853 173.965 302.374 174.099 301.801 174.099C301.31 174.099 300.876 173.992 300.498 173.776C300.124 173.558 299.829 173.234 299.613 172.807C299.401 172.379 299.295 171.851 299.295 171.221V166.364H300.782V171.042C300.782 171.562 300.926 171.977 301.214 172.285C301.503 172.593 301.877 172.747 302.338 172.747C302.616 172.747 302.893 172.678 303.168 172.538C303.447 172.399 303.677 172.189 303.859 171.907C304.045 171.625 304.136 171.267 304.133 170.833ZM309.108 169.466V174H307.621V166.364H309.048V167.607H309.143C309.318 167.202 309.594 166.877 309.968 166.632C310.346 166.387 310.822 166.264 311.395 166.264C311.915 166.264 312.371 166.374 312.762 166.592C313.153 166.808 313.456 167.129 313.672 167.557C313.887 167.984 313.995 168.513 313.995 169.143V174H312.509V169.322C312.509 168.768 312.364 168.336 312.076 168.024C311.788 167.709 311.392 167.552 310.888 167.552C310.543 167.552 310.237 167.626 309.968 167.776C309.703 167.925 309.492 168.143 309.337 168.432C309.184 168.717 309.108 169.062 309.108 169.466Z" fill="#858C95"/>
<path d="M347.362 163.818H348.893V171.037C348.893 171.69 348.764 172.248 348.505 172.712C348.25 173.176 347.89 173.531 347.426 173.776C346.962 174.018 346.419 174.139 345.796 174.139C345.222 174.139 344.707 174.035 344.249 173.826C343.795 173.617 343.436 173.314 343.171 172.916C342.909 172.515 342.778 172.028 342.778 171.455H344.304C344.304 171.736 344.369 171.98 344.498 172.185C344.631 172.391 344.811 172.552 345.04 172.668C345.272 172.78 345.537 172.837 345.835 172.837C346.16 172.837 346.435 172.769 346.661 172.633C346.889 172.494 347.063 172.29 347.183 172.021C347.302 171.753 347.362 171.425 347.362 171.037V163.818ZM355.847 170.833V166.364H357.338V174H355.877V172.678H355.797C355.622 173.085 355.34 173.425 354.952 173.697C354.568 173.965 354.089 174.099 353.515 174.099C353.025 174.099 352.591 173.992 352.213 173.776C351.838 173.558 351.543 173.234 351.328 172.807C351.116 172.379 351.01 171.851 351.01 171.221V166.364H352.496V171.042C352.496 171.562 352.64 171.977 352.929 172.285C353.217 172.593 353.591 172.747 354.052 172.747C354.331 172.747 354.607 172.678 354.882 172.538C355.161 172.399 355.391 172.189 355.573 171.907C355.759 171.625 355.85 171.267 355.847 170.833ZM360.822 163.818V174H359.336V163.818H360.822Z" fill="#858C95"/>
<path d="M390.979 174H389.348L393.012 163.818H394.787L398.451 174H396.82L393.942 165.668H393.862L390.979 174ZM391.252 170.013H396.542V171.305H391.252V170.013ZM404.639 170.833V166.364H406.131V174H404.669V172.678H404.59C404.414 173.085 404.132 173.425 403.744 173.697C403.36 173.965 402.881 174.099 402.308 174.099C401.817 174.099 401.383 173.992 401.005 173.776C400.631 173.558 400.336 173.234 400.12 172.807C399.908 172.379 399.802 171.851 399.802 171.221V166.364H401.289V171.042C401.289 171.562 401.433 171.977 401.721 172.285C402.009 172.593 402.384 172.747 402.845 172.747C403.123 172.747 403.4 172.678 403.675 172.538C403.953 172.399 404.184 172.189 404.366 171.907C404.552 171.625 404.643 171.267 404.639 170.833ZM411.33 177.023C410.723 177.023 410.201 176.943 409.764 176.784C409.33 176.625 408.975 176.415 408.7 176.153C408.425 175.891 408.219 175.604 408.083 175.293L409.361 174.766C409.451 174.911 409.57 175.066 409.719 175.228C409.872 175.394 410.077 175.535 410.336 175.651C410.597 175.767 410.934 175.825 411.345 175.825C411.908 175.825 412.374 175.687 412.742 175.412C413.11 175.14 413.294 174.706 413.294 174.109V172.608H413.199C413.11 172.77 412.98 172.951 412.811 173.15C412.646 173.349 412.417 173.521 412.125 173.667C411.834 173.813 411.454 173.886 410.987 173.886C410.384 173.886 409.84 173.745 409.356 173.463C408.876 173.178 408.494 172.759 408.213 172.205C407.934 171.648 407.795 170.964 407.795 170.152C407.795 169.34 407.933 168.644 408.208 168.064C408.486 167.484 408.867 167.04 409.351 166.732C409.835 166.42 410.384 166.264 410.997 166.264C411.471 166.264 411.854 166.344 412.145 166.503C412.437 166.659 412.664 166.841 412.826 167.05C412.992 167.259 413.12 167.442 413.209 167.602H413.319V166.364H414.775V174.169C414.775 174.825 414.623 175.364 414.318 175.785C414.013 176.206 413.6 176.517 413.08 176.719C412.563 176.922 411.98 177.023 411.33 177.023ZM411.315 172.653C411.743 172.653 412.104 172.553 412.399 172.354C412.697 172.152 412.922 171.864 413.075 171.489C413.231 171.112 413.309 170.659 413.309 170.132C413.309 169.618 413.232 169.166 413.08 168.775C412.927 168.384 412.704 168.079 412.409 167.86C412.114 167.638 411.749 167.527 411.315 167.527C410.868 167.527 410.495 167.643 410.196 167.875C409.898 168.104 409.673 168.415 409.52 168.81C409.371 169.204 409.297 169.645 409.297 170.132C409.297 170.633 409.373 171.072 409.525 171.45C409.678 171.827 409.903 172.122 410.201 172.335C410.503 172.547 410.874 172.653 411.315 172.653Z" fill="#858C95"/>
<rect x="2.5" y="1.5" width="439" height="191" rx="9.5" stroke="#E5E5E7"/>
</g>
<defs>
<filter id="filter0_d_264_3189" x="0" y="0" width="444" height="196" filterUnits="userSpaceOnUse" color-interpolation-filters="sRGB">
<feFlood flood-opacity="0" result="BackgroundImageFix"/>
<feColorMatrix in="SourceAlpha" type="matrix" values="0 0 0 0 0 0 0 0 0 0 0 0 0 0 0 0 0 0 127 0" result="hardAlpha"/>
<feOffset dy="1"/>
<feGaussianBlur stdDeviation="1"/>
<feComposite in2="hardAlpha" operator="out"/>
<feColorMatrix type="matrix" values="0 0 0 0 0.0627451 0 0 0 0 0.0941176 0 0 0 0 0.156863 0 0 0 0.04 0"/>
<feBlend mode="normal" in2="BackgroundImageFix" result="effect1_dropShadow_264_3189"/>
<feBlend mode="normal" in="SourceGraphic" in2="effect1_dropShadow_264_3189" result="shape"/>
</filter>
<clipPath id="clip0_264_3189">
<path d="M22 23C22 19.6863 24.6863 17 28 17H50.25C53.5637 17 56.25 19.6863 56.25 23V101C56.25 104.314 53.5637 107 50.25 107H28C24.6863 107 22 104.314 22 101V23Z" fill="white"/>
</clipPath>
<clipPath id="clip1_264_3189">
<path d="M74.25 23C74.25 19.6863 76.9363 17 80.25 17H102.5C105.814 17 108.5 19.6863 108.5 23V101C108.5 104.314 105.814 107 102.5 107H80.25C76.9363 107 74.25 104.314 74.25 101V23Z" fill="white"/>
</clipPath>
<clipPath id="clip2_264_3189">
<path d="M126.5 23C126.5 19.6863 129.186 17 132.5 17H154.75C158.064 17 160.75 19.6863 160.75 23V101C160.75 104.314 158.064 107 154.75 107H132.5C129.186 107 126.5 104.314 126.5 101V23Z" fill="white"/>
</clipPath>
<clipPath id="clip3_264_3189">
<path d="M178.75 23C178.75 19.6863 181.436 17 184.75 17H207C210.314 17 213 19.6863 213 23V101C213 104.314 210.314 107 207 107H184.75C181.436 107 178.75 104.314 178.75 101V23Z" fill="white"/>
</clipPath>
<clipPath id="clip4_264_3189">
<path d="M231 23C231 19.6863 233.686 17 237 17H259.25C262.564 17 265.25 19.6863 265.25 23V101C265.25 104.314 262.564 107 259.25 107H237C233.686 107 231 104.314 231 101V23Z" fill="white"/>
</clipPath>
<clipPath id="clip5_264_3189">
<path d="M283.25 23C283.25 19.6863 285.936 17 289.25 17H311.5C314.814 17 317.5 19.6863 317.5 23V101C317.5 104.314 314.814 107 311.5 107H289.25C285.936 107 283.25 104.314 283.25 101V23Z" fill="white"/>
</clipPath>
<clipPath id="clip6_264_3189">
<path d="M335.5 23C335.5 19.6863 338.186 17 341.5 17H363.75C367.064 17 369.75 19.6863 369.75 23V101C369.75 104.314 367.064 107 363.75 107H341.5C338.186 107 335.5 104.314 335.5 101V23Z" fill="white"/>
</clipPath>
<clipPath id="clip7_264_3189">
<path d="M387.75 23C387.75 19.6863 390.436 17 393.75 17H416C419.314 17 422 19.6863 422 23V101C422 104.314 419.314 107 416 107H393.75C390.436 107 387.75 104.314 387.75 101V23Z" fill="white"/>
</clipPath>
</defs>
</svg>
