<svg width="646" height="310" viewBox="0 0 646 310" fill="none" xmlns="http://www.w3.org/2000/svg">
<g clip-path="url(#clip0_4_27236)">
<g filter="url(#filter0_d_4_27236)">
<path d="M639.32 15.1414H24.6818C21.1641 15.1414 18.3125 17.9957 18.3125 21.5167V282.108C18.3125 285.629 21.1641 288.483 24.6818 288.483H639.32C642.837 288.483 645.689 285.629 645.689 282.108V21.5167C645.689 17.9957 642.837 15.1414 639.32 15.1414Z" fill="white"/>
<path d="M639.32 15.5398H24.6822C21.3843 15.5398 18.7109 18.2157 18.7109 21.5167V282.108C18.7109 285.409 21.3843 288.085 24.6822 288.085H639.32C642.618 288.085 645.291 285.409 645.291 282.108V21.5167C645.291 18.2157 642.618 15.5398 639.32 15.5398Z" stroke="#E3E3E3"/>
</g>
<path d="M597.975 271.748L600.038 265.054H601.452L603.516 271.748H602.685L602.169 270.055H599.322L598.806 271.748H597.975ZM599.522 269.328H601.959L600.812 265.542H600.678L599.522 269.328ZM606.333 271.834C605.995 271.834 605.683 271.761 605.396 271.614C605.116 271.467 604.893 271.251 604.728 270.964C604.568 270.67 604.489 270.317 604.489 269.902V267.072H605.244V269.845C605.244 270.31 605.358 270.648 605.588 270.859C605.823 271.069 606.138 271.174 606.533 271.174C606.979 271.174 607.345 271.027 607.632 270.734C607.919 270.441 608.062 270.004 608.062 269.424V267.072H608.817V271.748H608.081V270.954H607.947C607.845 271.177 607.67 271.381 607.422 271.566C607.173 271.745 606.81 271.834 606.333 271.834ZM610.167 269.434V269.3C610.167 268.809 610.266 268.388 610.463 268.037C610.661 267.687 610.928 267.416 611.266 267.225C611.603 267.033 611.973 266.938 612.374 266.938C612.864 266.938 613.24 267.033 613.501 267.225C613.769 267.409 613.966 267.617 614.094 267.846H614.227V267.072H614.944V272.838C614.944 273.093 614.874 273.294 614.734 273.441C614.594 273.587 614.39 273.66 614.122 273.66H610.95V272.991H613.922C614.113 272.991 614.208 272.895 614.208 272.704V270.925H614.075C613.998 271.066 613.89 271.203 613.75 271.337C613.61 271.471 613.428 271.582 613.205 271.671C612.982 271.754 612.705 271.796 612.374 271.796C611.973 271.796 611.603 271.7 611.266 271.509C610.928 271.318 610.661 271.047 610.463 270.696C610.266 270.339 610.167 269.918 610.167 269.434ZM612.575 271.126C613.059 271.126 613.45 270.973 613.75 270.667C614.055 270.361 614.208 269.94 614.208 269.405V269.328C614.208 268.787 614.055 268.366 613.75 268.066C613.45 267.76 613.059 267.607 612.575 267.607C612.097 267.607 611.702 267.76 611.39 268.066C611.084 268.366 610.931 268.787 610.931 269.328V269.405C610.931 269.94 611.084 270.361 611.39 270.667C611.702 270.973 612.097 271.126 612.575 271.126ZM618.693 271.748V271.05C618.693 270.572 618.776 270.189 618.942 269.902C619.114 269.615 619.349 269.386 619.649 269.214C619.954 269.035 620.317 268.882 620.738 268.755L621.263 268.592C621.55 268.503 621.801 268.394 622.018 268.267C622.234 268.133 622.403 267.967 622.524 267.77C622.645 267.566 622.706 267.317 622.706 267.024V266.986C622.706 266.565 622.559 266.233 622.266 265.991C621.973 265.742 621.598 265.618 621.139 265.618C620.655 265.618 620.26 265.749 619.954 266.01C619.649 266.265 619.496 266.654 619.496 267.177V267.311H618.731V267.186C618.731 266.702 618.836 266.291 619.047 265.953C619.257 265.615 619.543 265.36 619.907 265.188C620.27 265.009 620.68 264.92 621.139 264.92C621.598 264.92 622.002 265.006 622.352 265.178C622.709 265.35 622.986 265.589 623.183 265.895C623.381 266.201 623.48 266.558 623.48 266.966V267.052C623.48 267.486 623.394 267.846 623.222 268.133C623.05 268.414 622.811 268.643 622.505 268.822C622.206 269 621.852 269.153 621.445 269.281L620.929 269.443C620.604 269.545 620.333 269.654 620.117 269.768C619.906 269.877 619.747 270.017 619.639 270.189C619.531 270.361 619.477 270.594 619.477 270.887V271.05H623.422V271.748H618.693ZM626.772 271.882C626.281 271.882 625.861 271.796 625.511 271.624C625.167 271.445 624.906 271.203 624.727 270.897C624.549 270.591 624.46 270.243 624.46 269.854H625.234C625.234 270.25 625.364 270.572 625.625 270.82C625.886 271.063 626.269 271.184 626.772 271.184C627.3 271.184 627.705 271.043 627.985 270.763C628.272 270.476 628.415 270.084 628.415 269.587V268.659H628.291C628.17 268.85 627.976 269.029 627.708 269.195C627.447 269.354 627.078 269.434 626.6 269.434C626.199 269.434 625.829 269.344 625.492 269.166C625.16 268.987 624.896 268.736 624.699 268.41C624.501 268.085 624.402 267.7 624.402 267.253V267.139C624.402 266.68 624.508 266.287 624.718 265.962C624.928 265.631 625.211 265.376 625.568 265.197C625.931 265.012 626.342 264.92 626.8 264.92C627.265 264.92 627.676 265.012 628.033 265.197C628.396 265.376 628.679 265.634 628.883 265.972C629.087 266.303 629.189 266.705 629.189 267.177V269.51C629.189 270.007 629.09 270.435 628.893 270.792C628.702 271.142 628.425 271.413 628.062 271.604C627.699 271.789 627.269 271.882 626.772 271.882ZM626.8 268.783C627.119 268.783 627.399 268.72 627.641 268.592C627.883 268.458 628.071 268.277 628.205 268.047C628.345 267.811 628.415 267.537 628.415 267.225V267.148C628.415 266.67 628.265 266.297 627.966 266.029C627.673 265.755 627.285 265.618 626.8 265.618C626.316 265.618 625.925 265.755 625.625 266.029C625.326 266.297 625.176 266.67 625.176 267.148V267.225C625.176 267.537 625.243 267.811 625.377 268.047C625.517 268.277 625.708 268.458 625.95 268.592C626.199 268.72 626.482 268.783 626.8 268.783Z" fill="#697386"/>
<path d="M35.9511 271.882C35.295 271.882 34.7759 271.697 34.3938 271.327C34.018 270.958 33.8301 270.429 33.8301 269.74V269.224H34.6231V269.74C34.6231 270.154 34.7313 270.492 34.9479 270.754C35.1708 271.015 35.502 271.146 35.9415 271.146C36.3874 271.146 36.7026 271.018 36.8873 270.763C37.0721 270.502 37.1644 270.161 37.1644 269.74V265.781H35.9893V265.054H38.693V265.781H37.9669V269.74C37.9669 270.435 37.795 270.967 37.451 271.337C37.1071 271.7 36.6071 271.882 35.9511 271.882ZM41.4387 271.834C41.1011 271.834 40.789 271.761 40.5024 271.614C40.2222 271.468 39.9992 271.251 39.8336 270.964C39.6744 270.671 39.5948 270.317 39.5948 269.903V267.072H40.3495V269.845C40.3495 270.311 40.4642 270.649 40.6935 270.859C40.9291 271.069 41.2444 271.175 41.6393 271.175C42.0852 271.175 42.4514 271.028 42.738 270.735C43.0246 270.441 43.168 270.005 43.168 269.424V267.072H43.9227V271.748H43.1871V270.955H43.0533C42.9514 271.178 42.7762 271.382 42.5278 271.567C42.2794 271.745 41.9164 271.834 41.4387 271.834ZM45.5021 271.748V265.054H46.2568V271.748H45.5021ZM52.3995 271.882C51.9282 271.882 51.5047 271.793 51.1289 271.614C50.7595 271.436 50.4665 271.178 50.2499 270.84C50.0397 270.502 49.9346 270.094 49.9346 269.616V269.434H50.7085V269.606C50.7085 270.097 50.8645 270.483 51.1766 270.763C51.4887 271.044 51.8964 271.184 52.3995 271.184C52.9091 271.184 53.304 271.053 53.5842 270.792C53.8709 270.524 54.0142 270.19 54.0142 269.788V269.711C54.0142 269.418 53.9441 269.182 53.804 269.004C53.6639 268.819 53.4728 268.685 53.2307 268.602C52.9951 268.513 52.7339 268.468 52.4473 268.468H51.3582V267.502L53.9091 265.867V265.752H50.097V265.054H54.7307V266.135L52.2371 267.741V267.856H52.7148C53.0906 267.856 53.4346 267.926 53.7467 268.067C54.0651 268.2 54.3167 268.404 54.5014 268.679C54.6925 268.946 54.788 269.284 54.788 269.692V269.797C54.788 270.218 54.6893 270.585 54.4919 270.897C54.2944 271.21 54.0173 271.452 53.6607 271.624C53.304 271.796 52.8836 271.882 52.3995 271.882ZM57.5954 271.748V265.571H57.4521L56.1527 267.952H55.312L56.9075 265.054H58.3693V271.748H57.5954Z" fill="#697386"/>
<path d="M33.4395 258.599H629.766" stroke="#EBEEF1"/>
<path d="M34.2832 179.306V178.142C34.2832 177.345 34.4212 176.708 34.6972 176.23C34.9838 175.751 35.3766 175.369 35.8755 175.082C36.3851 174.785 36.9902 174.53 37.6908 174.317L38.5666 174.046C39.0443 173.897 39.4636 173.717 39.8245 173.504C40.1854 173.281 40.4668 173.005 40.6684 172.675C40.8701 172.335 40.971 171.921 40.971 171.432V171.368C40.971 170.667 40.7268 170.115 40.2385 169.711C39.7502 169.296 39.1239 169.089 38.3596 169.089C37.5528 169.089 36.8946 169.307 36.3851 169.743C35.8755 170.168 35.6208 170.816 35.6208 171.687V171.91H34.3469V171.703C34.3469 170.896 34.5221 170.211 34.8724 169.647C35.2227 169.084 35.7004 168.659 36.3055 168.372C36.9105 168.075 37.5952 167.926 38.3596 167.926C39.1239 167.926 39.798 168.069 40.3818 168.356C40.9763 168.643 41.4381 169.041 41.7671 169.551C42.0962 170.062 42.2608 170.657 42.2608 171.337V171.48C42.2608 172.203 42.1174 172.803 41.8308 173.281C41.5442 173.749 41.1461 174.131 40.6366 174.429C40.1376 174.726 39.5485 174.981 38.8691 175.194L38.0092 175.465C37.4679 175.634 37.0167 175.815 36.6558 176.007C36.3055 176.187 36.0401 176.421 35.8596 176.708C35.6791 176.995 35.5889 177.383 35.5889 177.871V178.142H42.1652V179.306H34.2832ZM48.0673 179.529C47.2817 179.529 46.5757 179.38 45.9495 179.083C45.3337 178.785 44.8454 178.355 44.4845 177.792C44.1342 177.228 43.9591 176.548 43.9591 175.751V175.449H45.2488V175.736C45.2488 176.554 45.5089 177.196 46.0291 177.664C46.5492 178.132 47.2286 178.365 48.0673 178.365C48.9164 178.365 49.5746 178.148 50.0417 177.712C50.5194 177.266 50.7583 176.708 50.7583 176.038V175.911C50.7583 175.422 50.6415 175.029 50.408 174.731C50.1744 174.423 49.8559 174.2 49.4526 174.062C49.0597 173.913 48.6246 173.839 48.1469 173.839H46.3316V172.229L50.5831 169.504V169.312H44.2297V168.149H51.9525V169.95L47.7966 172.628V172.819H48.5927C49.219 172.819 49.7922 172.936 50.3124 173.169C50.8432 173.393 51.2625 173.733 51.5704 174.19C51.8888 174.636 52.0481 175.199 52.0481 175.879V176.054C52.0481 176.756 51.8835 177.367 51.5544 177.887C51.2253 178.408 50.7635 178.812 50.1691 179.099C49.5746 179.385 48.874 179.529 48.0673 179.529Z" fill="#414552"/>
<path d="M34.3301 196.041V188.231H35.2664V195.193H39.2121V196.041H34.3301ZM40.4483 196.041V190.585H41.3288V196.041H40.4483ZM40.8941 189.738C40.7009 189.738 40.5374 189.675 40.4037 189.548C40.2773 189.421 40.2142 189.262 40.2142 189.068C40.2142 188.867 40.2773 188.704 40.4037 188.577C40.5374 188.451 40.7009 188.388 40.8941 188.388C41.0873 188.388 41.2471 188.451 41.3734 188.577C41.4997 188.704 41.5629 188.867 41.5629 189.068C41.5629 189.262 41.4997 189.421 41.3734 189.548C41.2471 189.675 41.0873 189.738 40.8941 189.738ZM43.1804 196.041V190.585H44.0387V191.511H44.1947C44.3136 191.251 44.5143 191.017 44.7966 190.809C45.0864 190.593 45.51 190.485 46.0673 190.485C46.476 190.485 46.8401 190.57 47.1596 190.742C47.4866 190.913 47.7467 191.166 47.9398 191.5C48.1331 191.835 48.2297 192.248 48.2297 192.739V196.041H47.3491V192.806C47.3491 192.263 47.2117 191.869 46.9367 191.623C46.6692 191.378 46.3051 191.255 45.8443 191.255C45.3168 191.255 44.8858 191.426 44.5514 191.768C44.2245 192.11 44.0609 192.62 44.0609 193.297V196.041H43.1804ZM50.0162 196.041V188.231H50.8968V192.828H51.0528L53.5496 190.585H54.7757L51.7551 193.241L54.8649 196.041H53.6499L51.0528 193.665H50.8968V196.041H50.0162ZM61.6632 196.197C60.7344 196.197 59.995 195.93 59.4451 195.394C58.8952 194.851 58.6203 194.062 58.6203 193.029V191.244C58.6203 190.21 58.8952 189.425 59.4451 188.89C59.995 188.347 60.7344 188.075 61.6632 188.075C62.5846 188.075 63.2906 188.332 63.781 188.845C64.2789 189.358 64.5278 190.061 64.5278 190.954V191.009H63.6027V190.92C63.6027 190.333 63.4429 189.853 63.1234 189.481C62.8113 189.102 62.3245 188.912 61.6632 188.912C61.0019 188.912 60.4854 189.117 60.1139 189.526C59.7423 189.927 59.5566 190.492 59.5566 191.221V193.051C59.5566 193.78 59.7423 194.349 60.1139 194.758C60.4854 195.16 61.0019 195.361 61.6632 195.361C62.3245 195.361 62.8113 195.175 63.1234 194.803C63.4429 194.423 63.6027 193.94 63.6027 193.352V193.174H64.5278V193.319C64.5278 194.211 64.2789 194.914 63.781 195.428C63.2906 195.941 62.5846 196.197 61.6632 196.197ZM66.0281 196.041V188.231H66.9087V196.041H66.0281ZM68.7602 196.041V190.585H69.6408V196.041H68.7602ZM69.2061 189.738C69.0129 189.738 68.8494 189.675 68.7156 189.548C68.5894 189.421 68.5262 189.262 68.5262 189.068C68.5262 188.867 68.5894 188.704 68.7156 188.577C68.8494 188.451 69.0129 188.388 69.2061 188.388C69.3993 188.388 69.5591 188.451 69.6854 188.577C69.8117 188.704 69.8749 188.867 69.8749 189.068C69.8749 189.262 69.8117 189.421 69.6854 189.548C69.5591 189.675 69.3993 189.738 69.2061 189.738ZM74.0003 196.197C73.4727 196.197 72.9972 196.086 72.5736 195.863C72.1575 195.632 71.8268 195.305 71.5816 194.881C71.3438 194.457 71.2249 193.955 71.2249 193.375V193.252C71.2249 192.665 71.3438 192.163 71.5816 191.746C71.8268 191.322 72.1575 190.998 72.5736 190.775C72.9972 190.545 73.4727 190.429 74.0003 190.429C74.5205 190.429 74.9626 190.526 75.3267 190.719C75.6982 190.913 75.988 191.17 76.1962 191.489C76.4116 191.809 76.5491 192.151 76.6086 192.516L75.7503 192.694C75.7131 192.426 75.624 192.181 75.4828 191.958C75.349 191.735 75.1595 191.556 74.9143 191.422C74.6691 191.288 74.3682 191.221 74.0115 191.221C73.6473 191.221 73.3204 191.303 73.0306 191.467C72.7482 191.63 72.5215 191.865 72.3507 192.17C72.1872 192.475 72.1055 192.839 72.1055 193.263V193.364C72.1055 193.787 72.1872 194.152 72.3507 194.457C72.5215 194.762 72.7482 194.996 73.0306 195.16C73.3204 195.323 73.6473 195.405 74.0115 195.405C74.5539 195.405 74.9663 195.264 75.2487 194.981C75.5385 194.698 75.7169 194.349 75.7837 193.933L76.6532 194.122C76.5714 194.479 76.4227 194.818 76.2073 195.137C75.9918 195.457 75.6982 195.714 75.3267 195.907C74.9626 196.101 74.5205 196.197 74.0003 196.197ZM78.1541 196.041V188.231H79.0346V192.828H79.1907L81.6874 190.585H82.9135L79.8929 193.241L83.0027 196.041H81.7878L79.1907 193.665H79.0346V196.041H78.1541ZM86.2057 196.197C85.5297 196.197 84.9573 196.041 84.4891 195.729C84.029 195.416 83.7503 194.921 83.6532 194.245L84.4891 194.055C84.5489 194.412 84.6603 194.695 84.8235 194.903C84.9875 195.104 85.1882 195.249 85.4254 195.338C85.6707 195.42 85.931 195.461 86.2057 195.461C86.6149 195.461 86.9381 195.379 87.1754 195.216C87.4135 195.052 87.5321 194.832 87.5321 194.557C87.5321 194.274 87.4174 194.078 87.1866 193.966C86.9636 193.847 86.6555 193.75 86.2614 193.676L85.8044 193.598C85.4557 193.538 85.1356 193.446 84.8458 193.319C84.556 193.192 84.3259 193.022 84.1548 192.806C83.9844 192.59 83.8984 192.319 83.8984 191.991C83.8984 191.5 84.0879 191.117 84.4669 190.842C84.8458 190.567 85.3474 190.429 85.9716 190.429C86.5886 190.429 87.0862 190.57 87.4652 190.853C87.8521 191.128 88.1005 191.519 88.212 192.025L87.3872 192.237C87.3203 191.842 87.1611 191.567 86.9079 191.411C86.6555 191.248 86.3434 191.166 85.9716 191.166C85.6006 191.166 85.3068 191.237 85.091 191.378C84.8761 191.511 84.7678 191.712 84.7678 191.98C84.7678 192.241 84.8681 192.434 85.0688 192.56C85.2773 192.679 85.552 192.768 85.8936 192.828L86.3506 192.906C86.7375 192.973 87.083 193.066 87.3872 193.185C87.6993 193.297 87.9445 193.46 88.1228 193.676C88.3091 193.892 88.4015 194.174 88.4015 194.524C88.4015 195.059 88.2009 195.472 87.7996 195.762C87.4063 196.052 86.8744 196.197 86.2057 196.197Z" fill="#1B1B1B"/>
<path d="M617.949 195.244V194.313C617.949 193.676 618.06 193.166 618.28 192.783C618.51 192.401 618.824 192.095 619.223 191.865C619.631 191.627 620.115 191.423 620.675 191.253L621.376 191.036C621.758 190.918 622.093 190.773 622.382 190.603C622.671 190.424 622.896 190.204 623.057 189.94C623.219 189.668 623.299 189.337 623.299 188.945V188.894C623.299 188.333 623.104 187.891 622.713 187.568C622.323 187.237 621.822 187.071 621.21 187.071C620.565 187.071 620.038 187.245 619.631 187.594C619.223 187.934 619.019 188.452 619.019 189.149V189.328H618V189.162C618 188.516 618.14 187.967 618.421 187.517C618.701 187.067 619.083 186.727 619.567 186.497C620.051 186.259 620.599 186.14 621.21 186.14C621.822 186.14 622.361 186.255 622.828 186.484C623.303 186.714 623.673 187.033 623.936 187.441C624.2 187.849 624.331 188.324 624.331 188.869V188.984C624.331 189.561 624.217 190.042 623.987 190.424C623.758 190.798 623.44 191.104 623.032 191.342C622.633 191.581 622.162 191.785 621.618 191.954L620.93 192.171C620.497 192.307 620.136 192.452 619.847 192.605C619.567 192.749 619.354 192.936 619.21 193.166C619.066 193.395 618.994 193.705 618.994 194.097V194.313H624.255V195.244H617.949ZM627.969 195.244V187.007H627.778L626.045 190.182H624.924L627.052 186.319H629.001V195.244H627.969Z" fill="#697386"/>
<path d="M37.1514 157.149C36.2002 157.149 35.446 156.881 34.8887 156.345C34.3314 155.803 34.0527 155.022 34.0527 154.002V152.173C34.0527 151.153 34.3314 150.376 34.8887 149.841C35.446 149.298 36.2002 149.026 37.1514 149.026C38.0877 149.026 38.8085 149.287 39.3138 149.807C39.8265 150.328 40.0829 151.039 40.0829 151.938V152.005H38.8902V151.905C38.8902 151.376 38.7453 150.945 38.4555 150.611C38.1731 150.276 37.7384 150.109 37.1514 150.109C36.5569 150.109 36.0925 150.291 35.7581 150.655C35.4237 151.012 35.2565 151.51 35.2565 152.15V154.025C35.2565 154.657 35.4237 155.155 35.7581 155.52C36.0925 155.884 36.5569 156.066 37.1514 156.066C37.7384 156.066 38.1731 155.899 38.4555 155.564C38.7453 155.222 38.8902 154.79 38.8902 154.27V154.08H40.0829V154.237C40.0829 155.136 39.8265 155.847 39.3138 156.368C38.8085 156.888 38.0877 157.149 37.1514 157.149ZM41.3266 156.992V149.183H42.4746V156.992H41.3266ZM44.0558 156.992V151.492H45.2039V156.992H44.0558ZM44.6354 150.745C44.4125 150.745 44.223 150.674 44.067 150.533C43.9184 150.384 43.844 150.194 43.844 149.964C43.844 149.733 43.9184 149.547 44.067 149.406C44.223 149.257 44.4125 149.183 44.6354 149.183C44.8658 149.183 45.0553 149.257 45.2039 149.406C45.3525 149.547 45.4268 149.733 45.4268 149.964C45.4268 150.194 45.3525 150.384 45.2039 150.533C45.0553 150.674 44.8658 150.745 44.6354 150.745ZM49.3376 157.149C48.81 157.149 48.3307 157.037 47.8998 156.814C47.4762 156.591 47.1381 156.267 46.8854 155.843C46.6402 155.419 46.5176 154.91 46.5176 154.315V154.17C46.5176 153.574 46.6402 153.069 46.8854 152.652C47.1381 152.228 47.4762 151.905 47.8998 151.682C48.3307 151.451 48.81 151.336 49.3376 151.336C49.8652 151.336 50.3148 151.432 50.6863 151.626C51.0578 151.82 51.3551 152.076 51.578 152.396C51.8084 152.715 51.957 153.069 52.0239 153.456L50.9093 153.69C50.8721 153.444 50.7941 153.221 50.6752 153.021C50.5562 152.82 50.389 152.66 50.1736 152.541C49.9581 152.422 49.6868 152.362 49.3599 152.362C49.0403 152.362 48.7505 152.436 48.4905 152.585C48.2378 152.726 48.0372 152.935 47.8886 153.21C47.74 153.478 47.6657 153.805 47.6657 154.192V154.292C47.6657 154.679 47.74 155.01 47.8886 155.285C48.0372 155.56 48.2378 155.769 48.4905 155.91C48.7505 156.051 49.0403 156.122 49.3599 156.122C49.8429 156.122 50.2107 155.999 50.4634 155.754C50.716 155.501 50.8758 155.181 50.9427 154.794L52.0573 155.051C51.9682 155.43 51.8084 155.78 51.578 156.1C51.3551 156.419 51.0578 156.676 50.6863 156.87C50.3148 157.055 49.8652 157.149 49.3376 157.149ZM53.2588 156.992V149.183H54.4069V153.634H54.5852L56.7476 151.492H58.2746L55.4992 154.159L58.3638 156.992H56.8479L54.5852 154.705H54.4069V156.992H53.2588ZM61.3854 157.149C60.6869 157.149 60.1073 156.992 59.6466 156.68C59.1858 156.368 58.9035 155.895 58.7995 155.263L59.8695 155.006C59.929 155.312 60.0293 155.553 60.1705 155.732C60.3116 155.91 60.4863 156.037 60.6943 156.111C60.9099 156.185 61.1402 156.223 61.3854 156.223C61.7495 156.223 62.0282 156.152 62.2214 156.011C62.422 155.869 62.5223 155.687 62.5223 155.464C62.5223 155.241 62.4294 155.077 62.2437 154.973C62.0579 154.869 61.7829 154.783 61.4189 154.716L61.0399 154.649C60.6683 154.582 60.3303 154.486 60.0256 154.359C59.7209 154.233 59.4794 154.058 59.3011 153.835C59.1227 153.612 59.0335 153.326 59.0335 152.976C59.0335 152.456 59.2268 152.054 59.6131 151.771C59.9995 151.481 60.5123 151.336 61.1513 151.336C61.7681 151.336 62.2734 151.477 62.6672 151.76C63.0685 152.035 63.3286 152.411 63.4475 152.887L62.3774 153.188C62.3105 152.853 62.1694 152.619 61.9539 152.485C61.7383 152.344 61.4708 152.273 61.1513 152.273C60.8392 152.273 60.594 152.333 60.4157 152.452C60.2373 152.563 60.1482 152.723 60.1482 152.931C60.1482 153.154 60.2336 153.318 60.4045 153.422C60.5829 153.527 60.8207 153.605 61.1179 153.656L61.508 153.723C61.9019 153.79 62.2622 153.884 62.5892 154.002C62.9162 154.121 63.1726 154.292 63.3583 154.516C63.5515 154.739 63.6481 155.036 63.6481 155.408C63.6481 155.959 63.4437 156.386 63.0351 156.691C62.6264 156.996 62.0765 157.149 61.3854 157.149ZM70.4838 157.149C69.5252 157.149 68.7636 156.881 68.1988 156.345C67.6341 155.803 67.3517 155.022 67.3517 154.002V152.173C67.3517 151.153 67.6341 150.376 68.1988 149.841C68.7636 149.298 69.5252 149.026 70.4838 149.026C71.4424 149.026 72.2041 149.298 72.7688 149.841C73.341 150.376 73.6271 151.153 73.6271 152.173V154.002C73.6271 155.022 73.341 155.803 72.7688 156.345C72.2041 156.881 71.4424 157.149 70.4838 157.149ZM70.4838 156.066C71.1006 156.066 71.5761 155.888 71.9105 155.531C72.2449 155.167 72.4121 154.672 72.4121 154.047V152.128C72.4121 151.503 72.2449 151.012 71.9105 150.655C71.5761 150.291 71.1006 150.109 70.4838 150.109C69.8819 150.109 69.4101 150.291 69.0682 150.655C68.7264 151.012 68.5555 151.503 68.5555 152.128V154.047C68.5555 154.672 68.7264 155.167 69.0682 155.531C69.4101 155.888 69.8819 156.066 70.4838 156.066ZM76.2337 156.992L74.3834 151.492H75.5984L77.0585 156.144H77.2369L78.697 151.492H79.9117L78.0617 156.992H76.2337ZM83.2262 157.149C82.6688 157.149 82.1824 157.033 81.766 156.803C81.3504 156.564 81.0232 156.234 80.7851 155.81C80.555 155.379 80.4396 154.88 80.4396 154.315V154.181C80.4396 153.608 80.555 153.11 80.7851 152.686C81.016 152.255 81.3353 151.923 81.7437 151.693C82.1601 151.455 82.6394 151.336 83.1816 151.336C83.7094 151.336 84.1704 151.455 84.5637 151.693C84.965 151.923 85.2771 152.247 85.5 152.663C85.7229 153.08 85.8344 153.567 85.8344 154.125V154.56H81.6099C81.6251 155.044 81.7851 155.43 82.0892 155.72C82.4013 156.003 82.7883 156.144 83.2484 156.144C83.68 156.144 84.0032 156.048 84.2182 155.854C84.4411 155.661 84.6123 155.438 84.7309 155.185L85.6783 155.676C85.5748 155.884 85.422 156.104 85.2213 156.334C85.0287 156.564 84.7723 156.758 84.4522 156.914C84.133 157.07 83.7245 157.149 83.2262 157.149ZM81.6211 153.679H84.664C84.6346 153.262 84.4857 152.938 84.2182 152.708C83.9507 152.47 83.6019 152.351 83.1704 152.351C82.7397 152.351 82.387 152.47 82.1115 152.708C81.844 152.938 81.6808 153.262 81.6211 153.679ZM87.0939 156.992V151.492H88.2197V152.139H88.398C88.4872 151.909 88.6289 151.741 88.8216 151.637C89.0222 151.525 89.2674 151.47 89.5572 151.47H90.2149V152.507H89.5127C89.1416 152.507 88.8367 152.612 88.5987 152.82C88.3614 153.021 88.242 153.333 88.242 153.757V156.992H87.0939ZM95.5125 156.992V150.276H93.1161V149.183H99.1128V150.276H96.7163V156.992H95.5125ZM99.9949 156.992V151.492H101.143V156.992H99.9949ZM100.575 150.745C100.352 150.745 100.162 150.674 100.006 150.533C99.858 150.384 99.7832 150.194 99.7832 149.964C99.7832 149.733 99.858 149.547 100.006 149.406C100.162 149.257 100.352 149.183 100.575 149.183C100.805 149.183 100.995 149.257 101.143 149.406C101.292 149.547 101.366 149.733 101.366 149.964C101.366 150.194 101.292 150.384 101.143 150.533C100.995 150.674 100.805 150.745 100.575 150.745ZM102.724 156.992V151.492H103.85V152.139H104.028C104.133 151.945 104.3 151.775 104.53 151.626C104.761 151.477 105.073 151.403 105.466 151.403C105.875 151.403 106.202 151.488 106.447 151.659C106.7 151.823 106.89 152.035 107.016 152.295H107.194C107.32 152.043 107.503 151.831 107.74 151.659C107.985 151.488 108.331 151.403 108.777 151.403C109.133 151.403 109.449 151.477 109.724 151.626C110 151.767 110.218 151.983 110.382 152.273C110.546 152.556 110.627 152.909 110.627 153.333V156.992H109.479V153.422C109.479 153.087 109.386 152.831 109.2 152.652C109.022 152.467 108.765 152.373 108.431 152.373C108.074 152.373 107.789 152.489 107.573 152.719C107.358 152.95 107.25 153.281 107.25 153.712V156.992H106.102V153.422C106.102 153.087 106.009 152.831 105.823 152.652C105.645 152.467 105.388 152.373 105.054 152.373C104.697 152.373 104.411 152.489 104.195 152.719C103.981 152.95 103.872 153.281 103.872 153.712V156.992H102.724ZM114.678 157.149C114.12 157.149 113.634 157.033 113.218 156.803C112.801 156.564 112.475 156.234 112.237 155.81C112.007 155.379 111.891 154.88 111.891 154.315V154.181C111.891 153.608 112.007 153.11 112.237 152.686C112.467 152.255 112.787 151.923 113.195 151.693C113.612 151.455 114.091 151.336 114.633 151.336C115.161 151.336 115.621 151.455 116.015 151.693C116.417 151.923 116.729 152.247 116.952 152.663C117.175 153.08 117.286 153.567 117.286 154.125V154.56H113.062C113.077 155.044 113.236 155.43 113.541 155.72C113.853 156.003 114.239 156.144 114.7 156.144C115.131 156.144 115.454 156.048 115.67 155.854C115.893 155.661 116.064 155.438 116.183 155.185L117.13 155.676C117.026 155.884 116.874 156.104 116.673 156.334C116.479 156.564 116.223 156.758 115.904 156.914C115.585 157.07 115.175 157.149 114.678 157.149ZM113.073 153.679H116.116C116.086 153.262 115.937 152.938 115.67 152.708C115.402 152.47 115.053 152.351 114.622 152.351C114.191 152.351 113.838 152.47 113.563 152.708C113.296 152.938 113.132 153.262 113.073 153.679Z" fill="#687385"/>
<mask id="mask0_4_27236" style="mask-type:luminance" maskUnits="userSpaceOnUse" x="124" y="145" width="35" height="16">
<path d="M155.252 145.835H127.386C125.627 145.835 124.201 147.263 124.201 149.023V156.992C124.201 158.753 125.627 160.18 127.386 160.18H155.252C157.01 160.18 158.436 158.753 158.436 156.992V149.023C158.436 147.263 157.01 145.835 155.252 145.835Z" fill="white"/>
</mask>
<g mask="url(#mask0_4_27236)">
<path d="M155.252 145.835H127.386C125.627 145.835 124.201 147.263 124.201 149.023V156.992C124.201 158.753 125.627 160.18 127.386 160.18H155.252C157.01 160.18 158.436 158.753 158.436 156.992V149.023C158.436 147.263 157.01 145.835 155.252 145.835Z" fill="#D7F7C2"/>
<path d="M131.997 156.329C131.52 156.329 131.093 156.227 130.717 156.023C130.341 155.813 130.045 155.507 129.829 155.105C129.612 154.704 129.504 154.213 129.504 153.633V152.064C129.504 151.191 129.743 150.525 130.22 150.066C130.698 149.6 131.345 149.367 132.16 149.367C132.962 149.367 133.58 149.587 134.013 150.027C134.446 150.461 134.663 151.044 134.663 151.777V151.825H133.641V151.749C133.641 151.474 133.587 151.229 133.478 151.012C133.37 150.789 133.208 150.614 132.991 150.486C132.775 150.359 132.497 150.295 132.16 150.295C131.65 150.295 131.252 150.451 130.966 150.764C130.679 151.07 130.536 151.497 130.536 152.045V153.652C130.536 154.194 130.679 154.624 130.966 154.943C131.252 155.255 131.654 155.411 132.169 155.411C132.679 155.411 133.052 155.271 133.287 154.99C133.523 154.71 133.641 154.347 133.641 153.9V153.776H131.845V152.887H134.663V156.195H133.708V155.516H133.555C133.497 155.638 133.411 155.762 133.297 155.889C133.189 156.017 133.029 156.122 132.819 156.205C132.615 156.288 132.341 156.329 131.997 156.329ZM138.228 156.329C137.757 156.329 137.337 156.234 136.967 156.042C136.604 155.845 136.317 155.564 136.107 155.201C135.897 154.837 135.792 154.407 135.792 153.91V153.766C135.792 153.269 135.897 152.842 136.107 152.485C136.317 152.122 136.604 151.841 136.967 151.643C137.337 151.446 137.757 151.347 138.228 151.347C138.7 151.347 139.12 151.446 139.489 151.643C139.859 151.841 140.149 152.122 140.359 152.485C140.569 152.842 140.674 153.269 140.674 153.766V153.91C140.674 154.407 140.569 154.837 140.359 155.201C140.149 155.564 139.859 155.845 139.489 156.042C139.12 156.234 138.7 156.329 138.228 156.329ZM138.228 155.449C138.661 155.449 139.012 155.312 139.279 155.038C139.553 154.758 139.69 154.372 139.69 153.881V153.795C139.69 153.304 139.556 152.922 139.289 152.648C139.021 152.367 138.668 152.227 138.228 152.227C137.802 152.227 137.451 152.367 137.177 152.648C136.91 152.922 136.776 153.304 136.776 153.795V153.881C136.776 154.372 136.91 154.758 137.177 155.038C137.451 155.312 137.802 155.449 138.228 155.449ZM144.106 156.329C143.634 156.329 143.214 156.234 142.844 156.042C142.481 155.845 142.195 155.564 141.985 155.201C141.774 154.837 141.669 154.407 141.669 153.91V153.766C141.669 153.269 141.774 152.842 141.985 152.485C142.195 152.122 142.481 151.841 142.844 151.643C143.214 151.446 143.634 151.347 144.106 151.347C144.577 151.347 144.997 151.446 145.367 151.643C145.736 151.841 146.026 152.122 146.236 152.485C146.446 152.842 146.551 153.269 146.551 153.766V153.91C146.551 154.407 146.446 154.837 146.236 155.201C146.026 155.564 145.736 155.845 145.367 156.042C144.997 156.234 144.577 156.329 144.106 156.329ZM144.106 155.449C144.539 155.449 144.889 155.312 145.156 155.038C145.43 154.758 145.567 154.372 145.567 153.881V153.795C145.567 153.304 145.434 152.922 145.166 152.648C144.899 152.367 144.545 152.227 144.106 152.227C143.679 152.227 143.328 152.367 143.055 152.648C142.787 152.922 142.653 153.304 142.653 153.795V153.881C142.653 154.372 142.787 154.758 143.055 155.038C143.328 155.312 143.679 155.449 144.106 155.449ZM149.726 156.329C149.337 156.329 148.977 156.234 148.646 156.042C148.315 155.851 148.047 155.577 147.844 155.22C147.646 154.857 147.547 154.42 147.547 153.91V153.766C147.547 153.263 147.646 152.829 147.844 152.466C148.041 152.102 148.305 151.825 148.636 151.634C148.968 151.443 149.331 151.347 149.726 151.347C150.031 151.347 150.286 151.385 150.49 151.462C150.7 151.538 150.872 151.637 151.006 151.758C151.14 151.873 151.242 151.994 151.312 152.122H151.464V149.501H152.449V156.195H151.484V155.526H151.331C151.21 155.73 151.025 155.915 150.777 156.081C150.535 156.246 150.184 156.329 149.726 156.329ZM150.003 155.469C150.429 155.469 150.78 155.332 151.054 155.057C151.334 154.783 151.474 154.391 151.474 153.881V153.795C151.474 153.291 151.337 152.903 151.063 152.628C150.789 152.354 150.436 152.217 150.003 152.217C149.582 152.217 149.232 152.354 148.952 152.628C148.678 152.903 148.541 153.291 148.541 153.795V153.881C148.541 154.391 148.678 154.783 148.952 155.057C149.232 155.332 149.582 155.469 150.003 155.469Z" fill="#006908"/>
</g>
<path d="M33.4395 219.949L58.3129 225.926H69.7931L105.509 233.61H129.106H155.256H167.374L187.145 242.148H208.829L231.79 233.61L262.403 242.148L292.379 233.61L319.803 225.926L346.59 250.687H364.448L388.047 246.417L418.66 250.687H450.549L478.612 255.81L499.658 246.417L533.46 242.148L564.074 246.417L596.601 233.61L613.821 225.926L629.766 233.61" stroke="#A3ACBA" stroke-width="1.5" stroke-linejoin="round"/>
<path d="M629.367 211.979C630.467 211.979 631.358 211.087 631.358 209.987C631.358 208.887 630.467 207.995 629.367 207.995C628.268 207.995 627.377 208.887 627.377 209.987C627.377 211.087 628.268 211.979 629.367 211.979Z" fill="#625AFA"/>
<path d="M33.4395 221.307H46.842H60.2445H71.0942L92.1557 226.511L117.046 232.581H143.213L176.4 236.918H228.096H256.177L280.429 243.856L309.787 236.918L333.401 243.856H359.568L387.649 236.918H411.263L430.41 232.581L468.703 236.918L493.593 243.856H519.122H560.606H584.22L609.748 236.918L629.766 208.792" stroke="#625AFA" stroke-width="1.5" stroke-linejoin="round"/>
<path d="M38.3105 95.63V87.8203H39.2468V94.7821H43.1926V95.63H38.3105ZM44.4287 95.63V90.1743H45.3093V95.63H44.4287ZM44.8746 89.3264C44.6814 89.3264 44.5179 89.2635 44.3842 89.1368C44.2578 89.0101 44.1947 88.8507 44.1947 88.657C44.1947 88.4562 44.2578 88.2928 44.3842 88.1661C44.5179 88.0394 44.6814 87.9765 44.8746 87.9765C45.0677 87.9765 45.2275 88.0394 45.3539 88.1661C45.4802 88.2928 45.5434 88.4562 45.5434 88.657C45.5434 88.8507 45.4802 89.0101 45.3539 89.1368C45.2275 89.2635 45.0677 89.3264 44.8746 89.3264ZM47.1609 95.63V90.1743H48.0191V91.1004H48.1752C48.2941 90.8398 48.4947 90.6055 48.7771 90.3975C49.0669 90.1815 49.4904 90.0739 50.0477 90.0739C50.4565 90.0739 50.8206 90.1592 51.1401 90.3305C51.4671 90.5019 51.7272 90.7545 51.9203 91.0892C52.1135 91.4239 52.2101 91.8367 52.2101 92.3276V95.63H51.3296V92.3946C51.3296 91.8519 51.1921 91.4574 50.9172 91.2119C50.6496 90.9665 50.2856 90.8438 49.8248 90.8438C49.2973 90.8438 48.8662 91.0151 48.5318 91.357C48.2049 91.6988 48.0414 92.2089 48.0414 92.8855V95.63H47.1609ZM53.9967 95.63V87.8203H54.8773V92.4169H55.0333L57.5301 90.1743H58.7562L55.7355 92.8297L58.8453 95.63H57.6304L55.0333 93.2536H54.8773V95.63H53.9967ZM65.6437 95.7862C64.7148 95.7862 63.9754 95.5185 63.4256 94.9829C62.8757 94.4402 62.6008 93.6513 62.6008 92.6177V90.8326C62.6008 89.799 62.8757 89.014 63.4256 88.4785C63.9754 87.9358 64.7148 87.6641 65.6437 87.6641C66.5651 87.6641 67.2711 87.9207 67.7615 88.4339C68.2593 88.9471 68.5083 89.65 68.5083 90.5425V90.5983H67.5832V90.509C67.5832 89.9217 67.4234 89.442 67.1039 89.0698C66.7918 88.6905 66.305 88.5008 65.6437 88.5008C64.9823 88.5008 64.4659 88.7056 64.0944 89.1144C63.7228 89.5161 63.5371 90.0811 63.5371 90.8103V92.64C63.5371 93.3692 63.7228 93.9382 64.0944 94.347C64.4659 94.7486 64.9823 94.9495 65.6437 94.9495C66.305 94.9495 66.7918 94.7638 67.1039 94.3916C67.4234 94.0123 67.5832 93.5286 67.5832 92.9412V92.7627H68.5083V92.9078C68.5083 93.8003 68.2593 94.5032 67.7615 95.0164C67.2711 95.5296 66.5651 95.7862 65.6437 95.7862ZM70.0086 95.63V87.8203H70.8891V95.63H70.0086ZM72.7407 95.63V90.1743H73.6213V95.63H72.7407ZM73.1866 89.3264C72.9934 89.3264 72.8299 89.2635 72.6961 89.1368C72.5698 89.0101 72.5066 88.8507 72.5066 88.657C72.5066 88.4562 72.5698 88.2928 72.6961 88.1661C72.8299 88.0394 72.9934 87.9765 73.1866 87.9765C73.3798 87.9765 73.5396 88.0394 73.6658 88.1661C73.7922 88.2928 73.8553 88.4562 73.8553 88.657C73.8553 88.8507 73.7922 89.0101 73.6658 89.1368C73.5396 89.2635 73.3798 89.3264 73.1866 89.3264ZM77.9808 95.7862C77.4532 95.7862 76.9776 95.6747 76.5541 95.4515C76.1379 95.2212 75.8073 94.8937 75.5621 94.4697C75.3242 94.0458 75.2054 93.5437 75.2054 92.9635V92.8408C75.2054 92.2535 75.3242 91.7514 75.5621 91.3347C75.8073 90.9107 76.1379 90.5871 76.5541 90.364C76.9776 90.1337 77.4532 90.0182 77.9808 90.0182C78.5009 90.0182 78.943 90.1146 79.3072 90.3082C79.6784 90.5019 79.9682 90.7585 80.1768 91.0781C80.3917 91.3976 80.5295 91.7403 80.5892 92.1045L79.7309 92.283C79.6935 92.0152 79.6044 91.7698 79.4633 91.5466C79.3295 91.3235 79.14 91.145 78.8948 91.0111C78.6496 90.8772 78.3486 90.8103 77.992 90.8103C77.6278 90.8103 77.3009 90.8924 77.0111 91.0557C76.7287 91.2191 76.502 91.4534 76.3312 91.7586C76.1676 92.0638 76.0859 92.428 76.0859 92.852V92.9524C76.0859 93.3764 76.1676 93.7405 76.3312 94.0458C76.502 94.351 76.7287 94.5853 77.0111 94.7486C77.3009 94.912 77.6278 94.9941 77.992 94.9941C78.5344 94.9941 78.9468 94.853 79.2292 94.5701C79.519 94.2872 79.6975 93.9382 79.7644 93.5214L80.6338 93.7111C80.5518 94.0681 80.4029 94.4068 80.1879 94.7263C79.9722 95.0459 79.6784 95.3025 79.3072 95.4961C78.943 95.6898 78.5009 95.7862 77.9808 95.7862ZM82.1345 95.63V87.8203H83.0151V92.4169H83.1712L85.6679 90.1743H86.894L83.8734 92.8297L86.9832 95.63H85.7682L83.1712 93.2536H83.0151V95.63H82.1345ZM90.1861 95.7862C89.5102 95.7862 88.9378 95.63 88.4696 95.3176C88.0094 95.0052 87.7308 94.5104 87.6336 93.8338L88.4696 93.6441C88.5293 94.0011 88.6408 94.284 88.804 94.492C88.968 94.6929 89.1686 94.8379 89.4059 94.9271C89.6511 95.0092 89.9115 95.0499 90.1861 95.0499C90.5954 95.0499 90.9186 94.9678 91.1559 94.8044C91.3939 94.6411 91.5125 94.4211 91.5125 94.1462C91.5125 93.8633 91.3979 93.6664 91.167 93.5549C90.9441 93.4361 90.636 93.3389 90.2419 93.2648L89.7849 93.1867C89.4362 93.1269 89.1161 93.0345 88.8263 92.9078C88.5365 92.7811 88.3064 92.6105 88.1352 92.3946C87.9648 92.1786 87.8789 91.9076 87.8789 91.5801C87.8789 91.0892 88.0684 90.7059 88.4473 90.431C88.8263 90.156 89.3279 90.0182 89.9521 90.0182C90.5691 90.0182 91.0667 90.1592 91.4457 90.4421C91.8326 90.717 92.081 91.1075 92.1925 91.6136L91.3677 91.8256C91.3008 91.4311 91.1415 91.1561 90.8884 91C90.636 90.8366 90.3239 90.7545 89.9521 90.7545C89.5811 90.7545 89.2873 90.8254 89.0715 90.9665C88.8565 91.1004 88.7483 91.3012 88.7483 91.5689C88.7483 91.8295 88.8486 92.0224 89.0492 92.1491C89.2578 92.2678 89.5325 92.3571 89.874 92.4169L90.331 92.495C90.718 92.5619 91.0635 92.6551 91.3677 92.7739C91.6797 92.8855 91.925 93.0488 92.1033 93.2648C92.2896 93.4807 92.382 93.7629 92.382 94.1127C92.382 94.6482 92.1813 95.061 91.7801 95.3511C91.3868 95.6412 90.8549 95.7862 90.1861 95.7862Z" fill="#1B1B1B"/>
<path d="M41.1171 79.6914V70.9987H40.8591L39.512 74.1831H37.5917L39.641 69.6503H42.9514V79.6914H41.1171ZM47.5968 79.6914V70.9987H47.3389L45.9918 74.1831H44.0714L46.1207 69.6503H49.4312V79.6914H47.5968ZM50.981 79.6914V78.4865C50.981 77.7884 51.0956 77.2098 51.3249 76.7508C51.5542 76.2822 51.8838 75.8997 52.3138 75.6032C52.7532 75.2972 53.2883 75.0486 53.9188 74.8573L54.879 74.5561C55.2325 74.4413 55.5287 74.3027 55.7675 74.1401C56.0064 73.968 56.1879 73.7624 56.3121 73.5233C56.4459 73.2842 56.5127 73.0117 56.5127 72.7057V72.6483C56.5127 72.1701 56.3503 71.7924 56.0255 71.5151C55.7006 71.2282 55.2564 71.0847 54.6927 71.0847C54.1386 71.0847 53.6895 71.2377 53.3456 71.5438C53.0112 71.8402 52.844 72.2705 52.844 72.8348V73.093H51.0096V72.8634C51.0096 72.1367 51.1721 71.5198 51.4969 71.013C51.8217 70.5062 52.2612 70.1189 52.8154 69.8511C53.379 69.5833 54.0048 69.4495 54.6927 69.4495C55.3806 69.4495 56.0016 69.5833 56.5557 69.8511C57.1099 70.1093 57.5446 70.4775 57.8598 70.9556C58.1847 71.4242 58.3471 71.9789 58.3471 72.6196V72.763C58.3471 73.4038 58.2133 73.9488 57.9458 74.3983C57.6879 74.8382 57.3344 75.2016 56.8853 75.4885C56.4363 75.7658 55.9252 75.9953 55.3519 76.177L54.4347 76.4639C54.0239 76.5882 53.7039 76.7269 53.4746 76.8799C53.2453 77.0233 53.0829 77.1859 52.9873 77.3676C52.9013 77.5397 52.8583 77.7501 52.8583 77.9988V78.0561H58.2611V79.6914H50.981Z" fill="#1B1B1B"/>
<path d="M39.4841 113.959L37.6211 107.265H38.6911L40.3153 113.308H40.4395L42.0541 107.265H43.1242L41.2707 113.959H39.4841ZM44.0618 113.959V109.244H45.0459V113.959H44.0618ZM44.5586 108.603C44.3675 108.603 44.2051 108.543 44.0714 108.422C43.944 108.294 43.8803 108.132 43.8803 107.934C43.8803 107.736 43.944 107.577 44.0714 107.456C44.2051 107.328 44.3675 107.265 44.5586 107.265C44.7561 107.265 44.9185 107.328 45.0459 107.456C45.1733 107.577 45.237 107.736 45.237 107.934C45.237 108.132 45.1733 108.294 45.0459 108.422C44.9185 108.543 44.7561 108.603 44.5586 108.603ZM48.6655 114.093C48.1878 114.093 47.7706 113.994 47.4139 113.796C47.0572 113.592 46.777 113.308 46.5732 112.945C46.3757 112.575 46.277 112.148 46.277 111.664V111.549C46.277 111.058 46.3757 110.631 46.5732 110.267C46.7706 109.898 47.0445 109.614 47.3948 109.416C47.7515 109.212 48.1623 109.11 48.6273 109.11C49.0795 109.11 49.4744 109.212 49.8119 109.416C50.1559 109.614 50.4234 109.891 50.6145 110.248C50.8056 110.605 50.9011 111.023 50.9011 111.501V111.874H47.2801C47.2929 112.288 47.4298 112.62 47.691 112.869C47.9585 113.111 48.2897 113.232 48.6846 113.232C49.054 113.232 49.3311 113.149 49.5158 112.983C49.7069 112.818 49.8533 112.626 49.9553 112.41L50.7673 112.83C50.6782 113.009 50.5476 113.197 50.3756 113.395C50.21 113.592 49.9903 113.758 49.7164 113.892C49.4425 114.026 49.0922 114.093 48.6655 114.093ZM47.2897 111.119H49.8979C49.8725 110.762 49.7451 110.484 49.5158 110.287C49.2865 110.083 48.9871 109.981 48.6177 109.981C48.2483 109.981 47.9457 110.083 47.7101 110.287C47.4808 110.484 47.3407 110.762 47.2897 111.119ZM52.5456 113.959L51.743 109.244H52.7271L53.3194 113.299H53.4723L54.2939 109.244H55.8895L56.7015 113.299H56.8544L57.4468 109.244H58.4308L57.6283 113.959H55.9754L55.1634 109.914H55.0105L54.1984 113.959H52.5456Z" fill="#2440E5"/>
<path d="M37.4199 115.154H58.8697V115.632H37.4199V115.154Z" fill="#2440E5"/>
<path d="M135.079 95.7862C134.499 95.7862 133.994 95.6818 133.563 95.4738C133.132 95.2658 132.798 94.9566 132.56 94.5478C132.322 94.131 132.203 93.6218 132.203 93.0193V87.8203H133.128V93.0305C133.128 93.6704 133.299 94.1502 133.641 94.4697C133.983 94.7893 134.462 94.9495 135.079 94.9495C135.696 94.9495 136.175 94.7893 136.517 94.4697C136.858 94.1502 137.029 93.6704 137.029 93.0305V87.8203H137.966V93.0193C137.966 93.6218 137.847 94.131 137.609 94.5478C137.371 94.9566 137.033 95.2658 136.595 95.4738C136.164 95.6818 135.658 95.7862 135.079 95.7862ZM139.716 95.63V90.1743H140.574V91.1004H140.73C140.849 90.8398 141.05 90.6055 141.332 90.3975C141.622 90.1815 142.045 90.0739 142.603 90.0739C143.012 90.0739 143.376 90.1592 143.695 90.3305C144.022 90.5019 144.283 90.7545 144.475 91.0892C144.669 91.4239 144.765 91.8367 144.765 92.3276V95.63H143.884V92.3946C143.884 91.8519 143.747 91.4574 143.472 91.2119C143.205 90.9665 142.841 90.8438 142.38 90.8438C141.853 90.8438 141.421 91.0151 141.087 91.357C140.76 91.6988 140.596 92.2089 140.596 92.8855V95.63H139.716ZM146.552 95.63V90.1743H147.432V95.63H146.552ZM146.997 89.3264C146.804 89.3264 146.641 89.2635 146.507 89.1368C146.38 89.0101 146.318 88.8507 146.318 88.657C146.318 88.4562 146.38 88.2928 146.507 88.1661C146.641 88.0394 146.804 87.9765 146.997 87.9765C147.191 87.9765 147.35 88.0394 147.477 88.1661C147.603 88.2928 147.666 88.4562 147.666 88.657C147.666 88.8507 147.603 89.0101 147.477 89.1368C147.35 89.2635 147.191 89.3264 146.997 89.3264ZM153.731 97.8614V94.771H153.575C153.486 94.9343 153.36 95.0945 153.196 95.2507C153.032 95.4069 152.817 95.5336 152.55 95.63C152.29 95.7344 151.97 95.7862 151.591 95.7862C151.115 95.7862 150.68 95.6747 150.287 95.4515C149.9 95.2284 149.592 94.9048 149.362 94.4809C149.131 94.0569 149.016 93.5549 149.016 92.9747V92.8297C149.016 92.2423 149.131 91.7403 149.362 91.3235C149.592 90.9067 149.904 90.5871 150.298 90.364C150.692 90.1337 151.123 90.0182 151.591 90.0182C152.156 90.0182 152.594 90.1257 152.907 90.3417C153.219 90.5577 153.449 90.8031 153.598 91.0781H153.754V90.1743H154.612V97.8614H153.731ZM151.825 95.0052C152.39 95.0052 152.847 94.8267 153.196 94.4697C153.553 94.1055 153.731 93.5995 153.731 92.9524V92.852C153.731 92.2049 153.553 91.7028 153.196 91.3458C152.847 90.9816 152.39 90.7991 151.825 90.7991C151.268 90.7991 150.807 90.9816 150.443 91.3458C150.087 91.7028 149.908 92.2049 149.908 92.852V92.9524C149.908 93.5995 150.087 94.1055 150.443 94.4697C150.807 94.8267 151.268 95.0052 151.825 95.0052ZM158.542 95.7304C158.148 95.7304 157.784 95.6452 157.449 95.4738C157.122 95.3025 156.862 95.0499 156.669 94.7152C156.483 94.3733 156.391 93.9605 156.391 93.4768V90.1743H157.271V93.4098C157.271 93.9525 157.405 94.347 157.672 94.5924C157.947 94.8379 158.315 94.9606 158.776 94.9606C159.296 94.9606 159.723 94.7893 160.058 94.4474C160.392 94.1055 160.559 93.5955 160.559 92.9189V90.1743H161.44V95.63H160.582V94.704H160.426C160.306 94.9646 160.102 95.2021 159.812 95.4181C159.523 95.626 159.099 95.7304 158.542 95.7304ZM165.779 95.7862C165.229 95.7862 164.745 95.6707 164.33 95.4404C163.913 95.2021 163.59 94.8714 163.36 94.4474C163.129 94.0234 163.015 93.5325 163.015 92.9747V92.8408C163.015 92.2758 163.129 91.7809 163.36 91.357C163.59 90.933 163.91 90.6055 164.319 90.3752C164.727 90.1369 165.195 90.0182 165.723 90.0182C166.236 90.0182 166.689 90.1297 167.083 90.3529C167.476 90.5688 167.785 90.8812 168.008 91.29C168.231 91.6988 168.343 92.1786 168.343 92.7293V93.1309H163.895C163.917 93.7182 164.107 94.1796 164.464 94.5143C164.82 94.8419 165.266 95.0052 165.801 95.0052C166.269 95.0052 166.629 94.8977 166.882 94.6817C167.135 94.4657 167.328 94.2091 167.462 93.9119L168.22 94.2801C168.108 94.5104 167.952 94.7415 167.752 94.9718C167.558 95.2021 167.302 95.3957 166.983 95.5519C166.671 95.7081 166.269 95.7862 165.779 95.7862ZM163.906 92.4057H167.451C167.421 91.8997 167.246 91.506 166.927 91.2231C166.615 90.9402 166.214 90.7991 165.723 90.7991C165.225 90.7991 164.816 90.9402 164.497 91.2231C164.177 91.506 163.98 91.8997 163.906 92.4057ZM175.528 95.7862C174.599 95.7862 173.859 95.5185 173.31 94.9829C172.76 94.4402 172.485 93.6513 172.485 92.6177V90.8326C172.485 89.799 172.76 89.014 173.31 88.4785C173.859 87.9358 174.599 87.6641 175.528 87.6641C176.449 87.6641 177.155 87.9207 177.646 88.4339C178.143 88.9471 178.393 89.65 178.393 90.5425V90.5983H177.467V90.509C177.467 89.9217 177.307 89.442 176.988 89.0698C176.676 88.6905 176.189 88.5008 175.528 88.5008C174.866 88.5008 174.35 88.7056 173.979 89.1144C173.607 89.5161 173.421 90.0811 173.421 90.8103V92.64C173.421 93.3692 173.607 93.9382 173.979 94.347C174.35 94.7486 174.866 94.9495 175.528 94.9495C176.189 94.9495 176.676 94.7638 176.988 94.3916C177.307 94.0123 177.467 93.5286 177.467 92.9412V92.7627H178.393V92.9078C178.393 93.8003 178.143 94.5032 177.646 95.0164C177.155 95.5296 176.449 95.7862 175.528 95.7862ZM179.892 95.63V87.8203H180.773V95.63H179.892ZM182.625 95.63V90.1743H183.505V95.63H182.625ZM183.071 89.3264C182.877 89.3264 182.714 89.2635 182.58 89.1368C182.454 89.0101 182.391 88.8507 182.391 88.657C182.391 88.4562 182.454 88.2928 182.58 88.1661C182.714 88.0394 182.877 87.9765 183.071 87.9765C183.263 87.9765 183.423 88.0394 183.55 88.1661C183.676 88.2928 183.74 88.4562 183.74 88.657C183.74 88.8507 183.676 89.0101 183.55 89.1368C183.423 89.2635 183.263 89.3264 183.071 89.3264ZM187.864 95.7862C187.337 95.7862 186.861 95.6747 186.438 95.4515C186.022 95.2212 185.691 94.8937 185.446 94.4697C185.208 94.0458 185.089 93.5437 185.089 92.9636V92.8408C185.089 92.2535 185.208 91.7514 185.446 91.3347C185.691 90.9107 186.022 90.5871 186.438 90.364C186.861 90.1337 187.337 90.0182 187.864 90.0182C188.385 90.0182 188.827 90.1146 189.191 90.3082C189.563 90.5019 189.852 90.7585 190.06 91.0781C190.276 91.3976 190.414 91.7403 190.473 92.1045L189.614 92.283C189.578 92.0152 189.489 91.7698 189.347 91.5466C189.213 91.3235 189.024 91.145 188.778 91.0111C188.533 90.8772 188.232 90.8103 187.876 90.8103C187.512 90.8103 187.185 90.8924 186.895 91.0557C186.613 91.2191 186.386 91.4534 186.215 91.7586C186.052 92.0638 185.97 92.428 185.97 92.852V92.9524C185.97 93.3764 186.052 93.7405 186.215 94.0458C186.386 94.351 186.613 94.5853 186.895 94.7486C187.185 94.912 187.512 94.9941 187.876 94.9941C188.419 94.9941 188.831 94.853 189.113 94.5701C189.403 94.2872 189.581 93.9382 189.648 93.5214L190.517 93.7111C190.436 94.0681 190.287 94.4068 190.071 94.7263C189.856 95.0459 189.563 95.3025 189.191 95.4961C188.827 95.6898 188.385 95.7862 187.864 95.7862ZM192.019 95.63V87.8203H192.899V92.4169H193.055L195.552 90.1743H196.778L193.758 92.8297L196.867 95.63H195.653L193.055 93.2536H192.899V95.63H192.019ZM200.07 95.7862C199.395 95.7862 198.822 95.63 198.354 95.3176C197.893 95.0052 197.614 94.5104 197.518 93.8338L198.354 93.6441C198.414 94.0011 198.525 94.284 198.688 94.492C198.852 94.6929 199.052 94.8379 199.29 94.9271C199.535 95.0092 199.796 95.0499 200.07 95.0499C200.479 95.0499 200.802 94.9678 201.04 94.8044C201.278 94.6411 201.397 94.4211 201.397 94.1462C201.397 93.8633 201.281 93.6664 201.051 93.5549C200.828 93.4361 200.52 93.3389 200.126 93.2648L199.669 93.1867C199.32 93.1269 199 93.0345 198.711 92.9078C198.421 92.7811 198.191 92.6105 198.02 92.3946C197.848 92.1786 197.763 91.9076 197.763 91.5801C197.763 91.0892 197.953 90.7059 198.332 90.431C198.711 90.156 199.212 90.0182 199.836 90.0182C200.453 90.0182 200.951 90.1592 201.33 90.4421C201.716 90.717 201.965 91.1075 202.077 91.6136L201.252 91.8256C201.185 91.4311 201.025 91.1561 200.773 91C200.52 90.8366 200.208 90.7545 199.836 90.7545C199.465 90.7545 199.172 90.8254 198.956 90.9665C198.74 91.1004 198.633 91.3012 198.633 91.5689C198.633 91.8295 198.733 92.0224 198.934 92.1491C199.141 92.2678 199.417 92.3571 199.758 92.4169L200.215 92.495C200.602 92.5619 200.947 92.6551 201.252 92.7739C201.564 92.8855 201.809 93.0488 201.988 93.2648C202.173 93.4807 202.266 93.7629 202.266 94.1127C202.266 94.6482 202.066 95.061 201.664 95.3511C201.27 95.6412 200.739 95.7862 200.07 95.7862Z" fill="#1B1B1B"/>
<path d="M131.969 79.6914V78.4865C131.969 77.7884 132.083 77.2098 132.313 76.7508C132.542 76.2822 132.872 75.8997 133.302 75.6032C133.741 75.2972 134.276 75.0486 134.907 74.8573L135.867 74.5561C136.22 74.4413 136.516 74.3027 136.755 74.1401C136.994 73.968 137.176 73.7624 137.3 73.5233C137.434 73.2842 137.5 73.0117 137.5 72.7057V72.6483C137.5 72.1701 137.338 71.7924 137.013 71.5151C136.688 71.2282 136.244 71.0847 135.68 71.0847C135.126 71.0847 134.677 71.2377 134.333 71.5438C133.999 71.8402 133.832 72.2705 133.832 72.8348V73.093H131.997V72.8634C131.997 72.1367 132.16 71.5198 132.485 71.013C132.81 70.5062 133.249 70.1189 133.803 69.8511C134.367 69.5833 134.993 69.4495 135.68 69.4495C136.368 69.4495 136.989 69.5833 137.543 69.8511C138.098 70.1093 138.532 70.4775 138.848 70.9556C139.172 71.4242 139.335 71.9789 139.335 72.6196V72.763C139.335 73.4038 139.201 73.9488 138.934 74.3983C138.676 74.8382 138.322 75.2016 137.873 75.4885C137.424 75.7658 136.913 75.9953 136.34 76.177L135.423 76.4639C135.012 76.5882 134.692 76.7269 134.462 76.8799C134.233 77.0233 134.071 77.1859 133.975 77.3676C133.889 77.5397 133.846 77.7501 133.846 77.9988V78.0561H139.249V79.6914H131.969ZM144.233 79.8922C143.478 79.8922 142.809 79.7584 142.227 79.4906C141.644 79.2228 141.185 78.8403 140.851 78.343C140.526 77.8362 140.363 77.2385 140.363 76.55V76.2918H142.198V76.4926C142.198 77.0281 142.384 77.4585 142.757 77.7836C143.129 78.0992 143.621 78.257 144.233 78.257C144.854 78.257 145.332 78.1087 145.666 77.8123C146.01 77.5158 146.182 77.1429 146.182 76.6934V76.55C146.182 76.244 146.105 75.9953 145.953 75.8041C145.8 75.6128 145.594 75.4741 145.336 75.3881C145.078 75.2924 144.787 75.2446 144.462 75.2446H142.456V73.2364L145.695 71.5151V71.2856H140.621V69.6503H147.73V72.0888L144.706 73.6954V73.9249H145.236C145.685 73.9249 146.12 74.0158 146.54 74.1975C146.97 74.3792 147.324 74.6613 147.601 75.0438C147.878 75.4168 148.016 75.9045 148.016 76.5069V76.6791C148.016 77.3294 147.859 77.8984 147.543 78.3861C147.228 78.8642 146.784 79.2372 146.211 79.5049C145.647 79.7631 144.988 79.8922 144.233 79.8922Z" fill="#1B1B1B"/>
<path d="M133.431 113.959L131.568 107.265H132.638L134.263 113.308H134.387L136.001 107.265H137.071L135.218 113.959H133.431ZM138.009 113.959V109.244H138.993V113.959H138.009ZM138.506 108.603C138.315 108.603 138.153 108.543 138.019 108.422C137.891 108.294 137.828 108.132 137.828 107.934C137.828 107.736 137.891 107.577 138.019 107.456C138.153 107.328 138.315 107.265 138.506 107.265C138.704 107.265 138.866 107.328 138.993 107.456C139.121 107.577 139.184 107.736 139.184 107.934C139.184 108.132 139.121 108.294 138.993 108.422C138.866 108.543 138.704 108.603 138.506 108.603ZM142.613 114.093C142.135 114.093 141.718 113.994 141.361 113.796C141.004 113.592 140.724 113.308 140.52 112.945C140.323 112.575 140.224 112.148 140.224 111.664V111.549C140.224 111.058 140.323 110.631 140.52 110.267C140.718 109.898 140.992 109.614 141.342 109.416C141.699 109.212 142.11 109.11 142.575 109.11C143.027 109.11 143.422 109.212 143.759 109.416C144.103 109.614 144.371 109.891 144.562 110.248C144.753 110.605 144.848 111.023 144.848 111.501V111.874H141.227C141.24 112.288 141.377 112.62 141.638 112.869C141.906 113.111 142.237 113.232 142.632 113.232C143.001 113.232 143.278 113.149 143.463 112.983C143.654 112.818 143.801 112.626 143.903 112.41L144.715 112.83C144.625 113.009 144.495 113.197 144.323 113.395C144.157 113.592 143.938 113.758 143.664 113.892C143.39 114.026 143.039 114.093 142.613 114.093ZM141.237 111.119H143.845C143.82 110.762 143.692 110.484 143.463 110.287C143.234 110.083 142.934 109.981 142.565 109.981C142.196 109.981 141.893 110.083 141.657 110.287C141.428 110.484 141.288 110.762 141.237 111.119ZM146.493 113.959L145.691 109.244H146.675L147.267 113.299H147.42L148.242 109.244H149.837L150.648 113.299H150.802L151.394 109.244H152.378L151.576 113.959H149.923L149.111 109.914H148.958L148.146 113.959H146.493Z" fill="#2440E5"/>
<path d="M131.367 115.154H152.817V115.632H131.367V115.154Z" fill="#2440E5"/>
<path d="M38.5879 37.455V29.6453H43.5034V30.7386H39.7917V32.9812H43.1913V34.0745H39.7917V36.3617H43.5591V37.455H38.5879ZM44.8476 37.455V31.9547H45.9733V32.7803H46.1517C46.2557 32.5572 46.4415 32.349 46.709 32.1555C46.9765 31.9621 47.3741 31.8655 47.9016 31.8655C48.3178 31.8655 48.6856 31.9585 49.0051 32.1444C49.3321 32.3303 49.5885 32.5944 49.7742 32.9365C49.96 33.2712 50.0529 33.6766 50.0529 34.1526V37.455H48.9048V34.2419C48.9048 33.7659 48.7859 33.4163 48.5481 33.1931C48.3104 32.9626 47.9834 32.8473 47.5673 32.8473C47.0917 32.8473 46.709 33.0035 46.4192 33.3159C46.1369 33.6282 45.9956 34.0819 45.9956 34.677V37.455H44.8476ZM51.4376 34.7328V34.5654C51.4376 33.9853 51.5528 33.4906 51.7832 33.0816C52.021 32.6725 52.3331 32.3564 52.7195 32.1332C53.1058 31.9101 53.5294 31.7985 53.9901 31.7985C54.5252 31.7985 54.9338 31.8989 55.2162 32.0998C55.506 32.3006 55.7178 32.5163 55.8516 32.7469H56.0299V31.9547H57.1445V38.5819C57.1445 38.9166 57.0442 39.1843 56.8436 39.3852C56.6504 39.586 56.3829 39.6864 56.0411 39.6864H52.3405V38.6823H55.6844C55.8999 38.6823 56.0076 38.5707 56.0076 38.3476V36.596H55.8293C55.7475 36.7298 55.6324 36.8675 55.4837 37.0088C55.3351 37.1501 55.1382 37.2654 54.893 37.3546C54.6552 37.4439 54.3542 37.4885 53.9901 37.4885C53.5294 37.4885 53.1022 37.3807 52.7083 37.165C52.3219 36.9418 52.0135 36.6257 51.7832 36.2166C51.5528 35.8001 51.4376 35.3055 51.4376 34.7328ZM54.3022 36.4844C54.8001 36.4844 55.2088 36.3282 55.5283 36.0158C55.8553 35.696 56.0188 35.2571 56.0188 34.6993V34.5989C56.0188 34.0261 55.859 33.5874 55.5395 33.2824C55.22 32.97 54.8076 32.8138 54.3022 32.8138C53.8118 32.8138 53.4031 32.97 53.0761 33.2824C52.7566 33.5874 52.5969 34.0261 52.5969 34.5989V34.6993C52.5969 35.2571 52.7566 35.696 53.0761 36.0158C53.4031 36.3282 53.8118 36.4844 54.3022 36.4844ZM60.5403 37.6112C60.1464 37.6112 59.7935 37.5443 59.4814 37.4104C59.1767 37.2765 58.9315 37.0794 58.7457 36.8191C58.5674 36.5587 58.4782 36.2427 58.4782 35.8708C58.4782 35.4914 58.5674 35.179 58.7457 34.9336C58.9315 34.6807 59.1804 34.4911 59.4925 34.3646C59.812 34.2381 60.1724 34.1749 60.5737 34.1749H62.2456V33.8179C62.2456 33.4981 62.1491 33.2415 61.9558 33.0481C61.7626 32.8547 61.4654 32.758 61.0641 32.758C60.6703 32.758 60.3693 32.851 60.1613 33.0369C59.9532 33.2229 59.8157 33.4646 59.7489 33.7621L58.6788 33.4163C58.768 33.1188 58.9092 32.851 59.1024 32.613C59.303 32.3675 59.5668 32.1704 59.8938 32.0217C60.2208 31.8729 60.6145 31.7985 61.0753 31.7985C61.7886 31.7985 62.3497 31.9808 62.7584 32.3452C63.167 32.7096 63.3714 33.2266 63.3714 33.896V36.1608C63.3714 36.384 63.4755 36.4955 63.6835 36.4955H64.1516V37.455H63.2934C63.0333 37.455 62.8215 37.3881 62.658 37.2542C62.4946 37.1203 62.4128 36.9381 62.4128 36.7075V36.6741H62.2456C62.1862 36.7856 62.097 36.9158 61.9781 37.0645C61.8593 37.2133 61.6846 37.3435 61.4543 37.455C61.2239 37.5592 60.9192 37.6112 60.5403 37.6112ZM60.7075 36.6629C61.1682 36.6629 61.5397 36.5328 61.8221 36.2724C62.1045 36.0046 62.2456 35.6402 62.2456 35.179V35.0675H60.6406C60.3359 35.0675 60.0907 35.1344 59.9049 35.2683C59.7192 35.3948 59.6263 35.5844 59.6263 35.8373C59.6263 36.0902 59.7228 36.291 59.9161 36.4398C60.1093 36.5885 60.3731 36.6629 60.7075 36.6629ZM64.8698 34.7328V34.5654C64.8698 33.9853 64.985 33.4906 65.2153 33.0816C65.4531 32.6725 65.7652 32.3564 66.1516 32.1332C66.538 31.9101 66.9615 31.7985 67.4223 31.7985C67.9573 31.7985 68.366 31.8989 68.6484 32.0998C68.9382 32.3006 69.15 32.5163 69.2837 32.7469H69.4621V31.9547H70.5767V38.5819C70.5767 38.9166 70.4764 39.1843 70.2757 39.3852C70.0825 39.586 69.815 39.6864 69.4732 39.6864H65.7726V38.6823H69.1165C69.332 38.6823 69.4398 38.5707 69.4398 38.3476V36.596H69.2614C69.1797 36.7298 69.0645 36.8675 68.9159 37.0088C68.7672 37.1501 68.5704 37.2654 68.3251 37.3546C68.0873 37.4439 67.7864 37.4885 67.4223 37.4885C66.9615 37.4885 66.5343 37.3807 66.1405 37.165C65.7541 36.9418 65.4457 36.6257 65.2153 36.2166C64.985 35.8001 64.8698 35.3055 64.8698 34.7328ZM67.7344 36.4844C68.2322 36.4844 68.641 36.3282 68.9605 36.0158C69.2875 35.696 69.4509 35.2571 69.4509 34.6993V34.5989C69.4509 34.0261 69.2911 33.5874 68.9716 33.2824C68.6521 32.97 68.2397 32.8138 67.7344 32.8138C67.2439 32.8138 66.8353 32.97 66.5083 33.2824C66.1888 33.5874 66.029 34.0261 66.029 34.5989V34.6993C66.029 35.2571 66.1888 35.696 66.5083 36.0158C66.8353 36.3282 67.2439 36.4844 67.7344 36.4844ZM74.7861 37.6112C74.2288 37.6112 73.742 37.4959 73.3259 37.2654C72.9098 37.0273 72.5828 36.6964 72.345 36.2724C72.1146 35.841 71.9995 35.3426 71.9995 34.7774V34.6435C71.9995 34.0708 72.1146 33.5725 72.345 33.1485C72.5754 32.7171 72.8949 32.3861 73.3036 32.1555C73.7197 31.9175 74.199 31.7985 74.7415 31.7985C75.269 31.7985 75.7298 31.9175 76.1236 32.1555C76.5249 32.3861 76.837 32.7096 77.0599 33.1262C77.2828 33.5427 77.3943 34.0299 77.3943 34.5877V35.0228H73.1699C73.1847 35.5063 73.3445 35.8931 73.6492 36.1832C73.9613 36.4658 74.3476 36.6071 74.8084 36.6071C75.2393 36.6071 75.5626 36.5104 75.7781 36.317C76.001 36.1236 76.1719 35.9005 76.2908 35.6476L77.2383 36.1385C77.1342 36.3468 76.9819 36.5662 76.7813 36.7968C76.588 37.0273 76.3317 37.2207 76.0122 37.3769C75.6926 37.5331 75.2839 37.6112 74.7861 37.6112ZM73.181 34.1415H76.2239C76.1942 33.7249 76.0456 33.4014 75.7781 33.1708C75.5106 32.9328 75.1613 32.8138 74.7304 32.8138C74.2993 32.8138 73.9464 32.9328 73.6715 33.1708C73.4039 33.4014 73.2404 33.7249 73.181 34.1415ZM78.7763 37.455V31.9547H79.9021V32.6018H80.0805C80.1848 32.4084 80.352 32.2374 80.5821 32.0886C80.8122 31.9398 81.1243 31.8655 81.5184 31.8655C81.9268 31.8655 82.254 31.951 82.4992 32.1221C82.7516 32.2857 82.9411 32.4977 83.0677 32.758H83.246C83.3726 32.5052 83.5541 32.2932 83.7922 32.1221C84.0374 31.951 84.3829 31.8655 84.8288 31.8655C85.1855 31.8655 85.5016 31.9398 85.7762 32.0886C86.0509 32.2299 86.2707 32.4456 86.4339 32.7357C86.5971 33.0184 86.6791 33.3716 86.6791 33.7956V37.455H85.531V33.8849C85.531 33.5501 85.4379 33.2935 85.2524 33.115C85.074 32.9291 84.8177 32.8361 84.4833 32.8361C84.1266 32.8361 83.8408 32.9514 83.625 33.182C83.4092 33.4125 83.3018 33.7436 83.3018 34.1749V37.455H82.1537V33.8849C82.1537 33.5501 82.0605 33.2935 81.875 33.115C81.6967 32.9291 81.4403 32.8361 81.1059 32.8361C80.7493 32.8361 80.4634 32.9514 80.2477 33.182C80.0319 33.4125 79.9244 33.7436 79.9244 34.1749V37.455H78.7763ZM90.8526 37.6112C90.2953 37.6112 89.808 37.4959 89.3924 37.2654C88.976 37.0273 88.6488 36.6964 88.4115 36.2724C88.1806 35.841 88.066 35.3426 88.066 34.7774V34.6435C88.066 34.0708 88.1806 33.5725 88.4115 33.1485C88.6416 32.7171 88.9609 32.3861 89.3701 32.1555C89.7857 31.9175 90.265 31.7985 90.808 31.7985C91.335 31.7985 91.796 31.9175 92.1901 32.1555C92.5914 32.3861 92.9035 32.7096 93.1264 33.1262C93.3493 33.5427 93.4608 34.0299 93.4608 34.5877V35.0228H89.2364C89.2507 35.5063 89.4107 35.8931 89.7156 36.1832C90.0277 36.4658 90.4139 36.6071 90.8749 36.6071C91.3056 36.6071 91.6288 36.5104 91.8446 36.317C92.0675 36.1236 92.2379 35.9005 92.3573 35.6476L93.3048 36.1385C93.2005 36.3468 93.0484 36.5662 92.8478 36.7968C92.6543 37.0273 92.3979 37.2207 92.0787 37.3769C91.7586 37.5331 91.3502 37.6112 90.8526 37.6112ZM89.2475 34.1415H92.2904C92.2602 33.7249 92.1121 33.4014 91.8446 33.1708C91.5771 32.9328 91.2276 32.8138 90.7968 32.8138C90.3653 32.8138 90.0126 32.9328 89.7379 33.1708C89.4704 33.4014 89.3064 33.7249 89.2475 34.1415ZM94.8429 37.455V31.9547H95.9687V32.7803H96.1471C96.2506 32.5572 96.4369 32.349 96.7044 32.1555C96.9719 31.9621 97.3692 31.8655 97.897 31.8655C98.3126 31.8655 98.6805 31.9585 99.0005 32.1444C99.3269 32.3303 99.5833 32.5944 99.7696 32.9365C99.9551 33.2712 100.048 33.6766 100.048 34.1526V37.455H98.9002V34.2419C98.9002 33.7659 98.7808 33.4163 98.5435 33.1931C98.3055 32.9626 97.9782 32.8473 97.5626 32.8473C97.0865 32.8473 96.7044 33.0035 96.4146 33.3159C96.1319 33.6282 95.991 34.0819 95.991 34.677V37.455H94.8429ZM103.609 37.455C103.275 37.455 103.008 37.3546 102.807 37.1538C102.614 36.953 102.517 36.6852 102.517 36.3505V32.9254H101.001V31.9547H102.517V30.1362H103.665V31.9547H105.304V32.9254H103.665V36.1497C103.665 36.3728 103.77 36.4844 103.977 36.4844H105.125V37.455H103.609Z" fill="#1B1B1B"/>
<path opacity="0.1" d="M18.3125 52.198H644.097" stroke="black"/>
<path opacity="0.1" d="M112.656 52.5964V129.897" stroke="black"/>
<path opacity="0.1" d="M18.3125 129.499H644.893" stroke="black"/>
</g>
<defs>
<filter id="filter0_d_4_27236" x="3.21094" y="-8.96021" width="657.58" height="303.545" filterUnits="userSpaceOnUse" color-interpolation-filters="sRGB">
<feFlood flood-opacity="0" result="BackgroundImageFix"/>
<feColorMatrix in="SourceAlpha" type="matrix" values="0 0 0 0 0 0 0 0 0 0 0 0 0 0 0 0 0 0 127 0" result="hardAlpha"/>
<feOffset dy="-9"/>
<feGaussianBlur stdDeviation="7.5"/>
<feColorMatrix type="matrix" values="0 0 0 0 0.141176 0 0 0 0 0.25098 0 0 0 0 0.898039 0 0 0 0.08 0"/>
<feBlend mode="normal" in2="BackgroundImageFix" result="effect1_dropShadow_4_27236"/>
<feBlend mode="normal" in="SourceGraphic" in2="effect1_dropShadow_4_27236" result="shape"/>
</filter>
<clipPath id="clip0_4_27236">
<rect width="646" height="310" fill="white"/>
</clipPath>
</defs>
</svg>
