<svg width="471" height="235" viewBox="0 0 471 235" fill="none" xmlns="http://www.w3.org/2000/svg">
<g filter="url(#filter0_d_4_27208)">
<path d="M446.113 23.7141H24.8303C19.8133 23.7141 15.7461 27.8123 15.7461 32.8676V218.226C15.7461 223.282 19.8133 227.38 24.8303 227.38H446.113C451.13 227.38 455.197 223.282 455.197 218.226V32.8676C455.197 27.8123 451.13 23.7141 446.113 23.7141Z" fill="white"/>
<path d="M446.113 24.2864H24.8311C20.1275 24.2864 16.3146 28.1284 16.3146 32.8678V218.226C16.3146 222.966 20.1275 226.808 24.8311 226.808H446.113C450.817 226.808 454.63 222.966 454.63 218.226V32.8678C454.63 28.1284 450.817 24.2864 446.113 24.2864Z" stroke="#E3E3E3"/>
</g>
<path d="M259.885 92.938H228.091C225.268 92.938 222.981 95.2432 222.981 98.0868V111.817C222.981 114.661 225.268 116.966 228.091 116.966H259.885C262.708 116.966 264.995 114.661 264.995 111.817V98.0868C264.995 95.2432 262.708 92.938 259.885 92.938Z" fill="#D7F7C2"/>
<path d="M175.858 162.733H206.451V163.419H175.858V162.733Z" fill="#2440E5"/>
<path d="M37.3203 163.877H67.9132V164.564H37.3203V163.877Z" fill="#2440E5"/>
<path d="M314.391 162.733H344.984V163.419H314.391V162.733Z" fill="#2440E5"/>
<path fill-rule="evenodd" clip-rule="evenodd" d="M430.973 201.063C430.973 204.75 428.007 207.739 424.348 207.739C420.691 207.739 417.725 204.75 417.725 201.063C417.725 197.378 420.691 194.389 424.348 194.389C428.007 194.389 430.973 197.378 430.973 201.063ZM427.018 199.042C427.212 199.236 427.212 199.553 427.018 199.749L423.707 203.086C423.512 203.282 423.198 203.282 423.004 203.086L421.678 201.751C421.484 201.555 421.484 201.24 421.678 201.044C421.873 200.848 422.187 200.848 422.381 201.044L423.355 202.025L424.835 200.533L426.316 199.042C426.51 198.846 426.824 198.846 427.018 199.042Z" fill="#14865D"/>
<path d="M377.746 205.833C377.064 205.833 376.456 205.687 375.92 205.394C375.384 205.092 374.961 204.652 374.653 204.076C374.344 203.499 374.189 202.794 374.189 201.961V199.709C374.189 198.455 374.53 197.499 375.211 196.84C375.893 196.171 376.815 195.837 377.977 195.837C379.122 195.837 380.003 196.153 380.621 196.785C381.239 197.407 381.548 198.245 381.548 199.297V199.366H380.089V199.256C380.089 198.863 380.012 198.51 379.858 198.199C379.703 197.879 379.472 197.627 379.163 197.444C378.854 197.261 378.459 197.169 377.977 197.169C377.251 197.169 376.683 197.393 376.274 197.842C375.865 198.281 375.661 198.895 375.661 199.682V201.989C375.661 202.767 375.865 203.384 376.274 203.842C376.683 204.291 377.255 204.515 377.991 204.515C378.718 204.515 379.249 204.314 379.585 203.911C379.921 203.508 380.089 202.986 380.089 202.346V202.167H377.528V200.89H381.548V205.641H380.185V204.666H379.967C379.885 204.84 379.762 205.018 379.599 205.201C379.445 205.385 379.217 205.536 378.918 205.655C378.627 205.774 378.236 205.833 377.746 205.833ZM383.485 205.641V198.872H384.861V199.668H385.079C385.188 199.384 385.361 199.178 385.597 199.05C385.842 198.913 386.142 198.844 386.496 198.844H387.3V200.121H386.442C385.987 200.121 385.615 200.249 385.324 200.506C385.034 200.753 384.888 201.137 384.888 201.659V205.641H383.485ZM391.594 205.833C390.912 205.833 390.317 205.691 389.809 205.407C389.3 205.114 388.9 204.707 388.609 204.185C388.328 203.654 388.187 203.041 388.187 202.346V202.181C388.187 201.476 388.328 200.863 388.609 200.341C388.891 199.81 389.282 199.403 389.781 199.119C390.29 198.826 390.876 198.68 391.539 198.68C392.184 198.68 392.747 198.826 393.229 199.119C393.719 199.403 394.101 199.801 394.373 200.313C394.646 200.826 394.782 201.426 394.782 202.112V202.648H389.618C389.636 203.243 389.831 203.719 390.204 204.076C390.585 204.423 391.058 204.597 391.621 204.597C392.148 204.597 392.543 204.478 392.806 204.24C393.079 204.002 393.288 203.728 393.433 203.417L394.591 204.021C394.464 204.277 394.278 204.547 394.033 204.831C393.796 205.114 393.483 205.352 393.092 205.545C392.702 205.737 392.202 205.833 391.594 205.833ZM389.631 201.563H393.351C393.315 201.05 393.133 200.652 392.806 200.368C392.479 200.075 392.052 199.929 391.525 199.929C390.999 199.929 390.567 200.075 390.231 200.368C389.904 200.652 389.704 201.05 389.631 201.563ZM398.557 205.833C398.075 205.833 397.644 205.751 397.262 205.586C396.89 205.421 396.59 205.179 396.363 204.858C396.145 204.538 396.036 204.149 396.036 203.691C396.036 203.224 396.145 202.84 396.363 202.538C396.59 202.227 396.894 201.993 397.276 201.838C397.666 201.682 398.107 201.604 398.598 201.604H400.641V201.165C400.641 200.771 400.523 200.455 400.287 200.217C400.051 199.979 399.688 199.86 399.197 199.86C398.716 199.86 398.348 199.975 398.093 200.204C397.839 200.432 397.671 200.73 397.589 201.096L396.281 200.67C396.39 200.304 396.563 199.975 396.799 199.682C397.044 199.38 397.367 199.137 397.766 198.954C398.166 198.771 398.647 198.68 399.211 198.68C400.083 198.68 400.769 198.904 401.268 199.352C401.768 199.801 402.018 200.437 402.018 201.261V204.048C402.018 204.323 402.145 204.46 402.399 204.46H402.972V205.641H401.922C401.604 205.641 401.345 205.558 401.146 205.394C400.946 205.229 400.846 205.005 400.846 204.721V204.68H400.641C400.569 204.817 400.46 204.977 400.314 205.16C400.169 205.343 399.956 205.504 399.674 205.641C399.392 205.769 399.02 205.833 398.557 205.833ZM398.761 204.666C399.324 204.666 399.778 204.506 400.124 204.185C400.469 203.856 400.641 203.407 400.641 202.84V202.703H398.679C398.307 202.703 398.007 202.785 397.78 202.95C397.553 203.105 397.439 203.339 397.439 203.65C397.439 203.961 397.557 204.208 397.794 204.391C398.03 204.574 398.352 204.666 398.761 204.666ZM406.392 205.641C405.983 205.641 405.656 205.517 405.411 205.27C405.175 205.023 405.056 204.693 405.056 204.282V200.066H403.203V198.872H405.056V196.634H406.46V198.872H408.463V200.066H406.46V204.034C406.46 204.309 406.587 204.446 406.841 204.446H408.245V205.641H406.392Z" fill="#14865D"/>
<path d="M38.4141 206.785V197.174H44.287V198.217H39.5587V201.43H43.9055V202.473H39.5587V205.741H44.3552V206.785H38.4141ZM46.1331 206.785V200.071H47.1823V200.908H47.3731C47.5002 200.67 47.7092 200.451 47.9999 200.249C48.2906 200.048 48.6994 199.947 49.2263 199.947C49.7441 199.947 50.1619 200.062 50.4799 200.29C50.8069 200.519 51.0431 200.798 51.1885 201.128H51.3792C51.5337 200.798 51.7653 200.519 52.0742 200.29C52.3921 200.062 52.8327 199.947 53.3959 199.947C53.8411 199.947 54.2317 200.039 54.5678 200.222C54.9039 200.405 55.1673 200.67 55.3581 201.018C55.558 201.357 55.6579 201.764 55.6579 202.24V206.785H54.5814V202.336C54.5814 201.888 54.4497 201.535 54.1863 201.279C53.9319 201.013 53.5731 200.881 53.1098 200.881C52.6192 200.881 52.215 201.041 51.897 201.361C51.5882 201.682 51.4337 202.144 51.4337 202.748V206.785H50.3572V202.336C50.3572 201.888 50.2255 201.535 49.9621 201.279C49.7077 201.013 49.3489 200.881 48.8856 200.881C48.395 200.881 47.9908 201.041 47.6728 201.361C47.364 201.682 47.2095 202.144 47.2095 202.748V206.785H46.1331ZM59.9005 206.977C59.4372 206.977 59.0148 206.895 58.6332 206.73C58.2517 206.565 57.9519 206.327 57.7339 206.016C57.5159 205.705 57.4068 205.325 57.4068 204.876C57.4068 204.419 57.5159 204.043 57.7339 203.75C57.9519 203.448 58.2517 203.224 58.6332 203.078C59.0148 202.922 59.4417 202.844 59.9141 202.844H62.1625V202.35C62.1625 201.874 62.0216 201.499 61.74 201.224C61.4675 200.949 61.0587 200.812 60.5137 200.812C59.9777 200.812 59.5598 200.945 59.26 201.21C58.9603 201.467 58.7559 201.814 58.6468 202.254L57.6385 201.924C57.7475 201.549 57.9201 201.21 58.1563 200.908C58.3925 200.597 58.7059 200.35 59.0965 200.167C59.4962 199.975 59.9731 199.878 60.5273 199.878C61.3812 199.878 62.0444 200.103 62.5167 200.551C62.9891 200.991 63.2253 201.613 63.2253 202.419V205.453C63.2253 205.728 63.3525 205.865 63.6068 205.865H64.22V206.785H63.2798C62.98 206.785 62.7393 206.702 62.5576 206.538C62.3759 206.364 62.2851 206.135 62.2851 205.851V205.782H62.1216C62.0216 205.956 61.8854 206.139 61.7128 206.332C61.5493 206.515 61.3222 206.666 61.0315 206.785C60.7408 206.913 60.3638 206.977 59.9005 206.977ZM60.0231 206.043C60.659 206.043 61.1723 205.856 61.5629 205.48C61.9626 205.096 62.1625 204.56 62.1625 203.874V203.723H59.955C59.528 203.723 59.1737 203.819 58.8921 204.011C58.6196 204.194 58.4833 204.474 58.4833 204.849C58.4833 205.224 58.6241 205.517 58.9057 205.728C59.1964 205.938 59.5689 206.043 60.0231 206.043ZM65.6944 206.785V200.071H66.7709V206.785H65.6944ZM66.2395 199.027C66.0033 199.027 65.8034 198.949 65.6399 198.794C65.4855 198.638 65.4083 198.441 65.4083 198.203C65.4083 197.956 65.4855 197.755 65.6399 197.599C65.8034 197.444 66.0033 197.366 66.2395 197.366C66.4757 197.366 66.671 197.444 66.8254 197.599C66.9798 197.755 67.057 197.956 67.057 198.203C67.057 198.441 66.9798 198.638 66.8254 198.794C66.671 198.949 66.4757 199.027 66.2395 199.027ZM69.0345 206.785V197.174H70.1109V206.785H69.0345ZM75.3837 206.785V205.755H76.7191V198.203H75.3837V197.174H79.1037C80.3573 197.174 81.3248 197.494 82.0061 198.135C82.6965 198.775 83.0417 199.759 83.0417 201.087V202.872C83.0417 204.208 82.6965 205.197 82.0061 205.837C81.3248 206.469 80.3573 206.785 79.1037 206.785H75.3837ZM77.8637 205.741H79.1037C80.0303 205.741 80.7297 205.512 81.2021 205.055C81.6745 204.597 81.9107 203.888 81.9107 202.927V201.046C81.9107 200.066 81.6745 199.352 81.2021 198.904C80.7297 198.455 80.0303 198.231 79.1037 198.231H77.8637V205.741ZM87.9621 206.977C87.2898 206.977 86.6994 206.835 86.1906 206.551C85.6819 206.258 85.2867 205.851 85.0051 205.329C84.7235 204.808 84.5827 204.203 84.5827 203.517V203.352C84.5827 202.657 84.7235 202.048 85.0051 201.526C85.2867 201.004 85.6774 200.602 86.177 200.318C86.6766 200.025 87.2489 199.878 87.8939 199.878C88.5207 199.878 89.0749 200.016 89.5563 200.29C90.0378 200.556 90.4148 200.94 90.6873 201.444C90.9599 201.947 91.0961 202.538 91.0961 203.215V203.709H85.6592C85.6865 204.432 85.9181 205 86.3541 205.412C86.7902 205.814 87.3352 206.016 87.9893 206.016C88.5616 206.016 89.0022 205.883 89.3111 205.618C89.6199 205.352 89.8561 205.036 90.0196 204.67L90.9462 205.123C90.81 205.407 90.6192 205.691 90.3739 205.975C90.1377 206.258 89.8243 206.496 89.4337 206.689C89.0522 206.881 88.5616 206.977 87.9621 206.977ZM85.6728 202.817H90.006C89.9697 202.194 89.7562 201.709 89.3656 201.361C88.984 201.013 88.4935 200.84 87.8939 200.84C87.2853 200.84 86.7857 201.013 86.395 201.361C86.0044 201.709 85.7637 202.194 85.6728 202.817ZM92.9737 206.785V197.174H94.0502V206.785H92.9737ZM96.3138 206.785V200.071H97.3903V206.785H96.3138ZM96.8588 199.027C96.6226 199.027 96.4228 198.949 96.2593 198.794C96.1048 198.638 96.0276 198.441 96.0276 198.203C96.0276 197.956 96.1048 197.755 96.2593 197.599C96.4228 197.444 96.6226 197.366 96.8588 197.366C97.095 197.366 97.2903 197.444 97.4448 197.599C97.5992 197.755 97.6764 197.956 97.6764 198.203C97.6764 198.441 97.5992 198.638 97.4448 198.794C97.2903 198.949 97.095 199.027 96.8588 199.027ZM101.344 206.785L98.9589 200.071H100.103L102.107 205.975H102.297L104.301 200.071H105.446L103.06 206.785H101.344ZM109.772 206.977C109.1 206.977 108.509 206.835 108.001 206.551C107.492 206.258 107.097 205.851 106.815 205.329C106.533 204.808 106.393 204.203 106.393 203.517V203.352C106.393 202.657 106.533 202.048 106.815 201.526C107.097 201.004 107.487 200.602 107.987 200.318C108.487 200.025 109.059 199.878 109.704 199.878C110.331 199.878 110.885 200.016 111.366 200.29C111.848 200.556 112.225 200.94 112.497 201.444C112.77 201.947 112.906 202.538 112.906 203.215V203.709H107.469C107.496 204.432 107.728 205 108.164 205.412C108.6 205.814 109.145 206.016 109.799 206.016C110.372 206.016 110.812 205.883 111.121 205.618C111.43 205.352 111.666 205.036 111.83 204.67L112.756 205.123C112.62 205.407 112.429 205.691 112.184 205.975C111.948 206.258 111.634 206.496 111.244 206.689C110.862 206.881 110.372 206.977 109.772 206.977ZM107.483 202.817H111.816C111.78 202.194 111.566 201.709 111.175 201.361C110.794 201.013 110.303 200.84 109.704 200.84C109.095 200.84 108.596 201.013 108.205 201.361C107.814 201.709 107.574 202.194 107.483 202.817ZM114.784 206.785V200.071H115.833V200.894H116.024C116.142 200.602 116.324 200.386 116.569 200.249C116.815 200.112 117.137 200.043 117.537 200.043H118.327V201.032H117.469C116.987 201.032 116.597 201.169 116.297 201.444C116.006 201.709 115.861 202.126 115.861 202.693V206.785H114.784ZM120.724 209.531V208.57H124.54C124.803 208.57 124.935 208.432 124.935 208.158V205.714H124.744C124.653 205.906 124.512 206.098 124.322 206.29C124.14 206.474 123.899 206.625 123.599 206.744C123.3 206.853 122.923 206.908 122.468 206.908C121.987 206.908 121.542 206.803 121.133 206.593C120.733 206.382 120.415 206.071 120.179 205.659C119.952 205.247 119.838 204.744 119.838 204.149V200.071H120.915V204.066C120.915 204.725 121.078 205.206 121.405 205.508C121.742 205.81 122.191 205.961 122.755 205.961C123.39 205.961 123.913 205.75 124.322 205.329C124.73 204.908 124.935 204.281 124.935 203.448V200.071H126.011V208.35C126.011 208.716 125.907 209.004 125.698 209.215C125.498 209.426 125.203 209.531 124.812 209.531H120.724ZM131.723 206.785V197.174H132.868V201.444H137.337V197.174H138.482V206.785H137.337V202.487H132.868V206.785H131.723ZM143.758 206.977C143.086 206.977 142.496 206.835 141.987 206.551C141.478 206.258 141.083 205.851 140.802 205.329C140.52 204.808 140.379 204.203 140.379 203.517V203.352C140.379 202.657 140.52 202.048 140.802 201.526C141.083 201.004 141.474 200.602 141.973 200.318C142.473 200.025 143.045 199.878 143.69 199.878C144.317 199.878 144.871 200.016 145.353 200.29C145.834 200.556 146.211 200.94 146.484 201.444C146.756 201.947 146.892 202.538 146.892 203.215V203.709H141.456C141.483 204.432 141.714 205 142.151 205.412C142.587 205.814 143.132 206.016 143.786 206.016C144.358 206.016 144.799 205.883 145.107 205.618C145.416 205.352 145.652 205.036 145.816 204.67L146.743 205.123C146.606 205.407 146.416 205.691 146.17 205.975C145.934 206.258 145.621 206.496 145.23 206.689C144.849 206.881 144.358 206.977 143.758 206.977ZM141.469 202.817H145.802C145.766 202.194 145.553 201.709 145.162 201.361C144.78 201.013 144.29 200.84 143.69 200.84C143.082 200.84 142.582 201.013 142.191 201.361C141.801 201.709 141.56 202.194 141.469 202.817ZM150.813 206.977C150.35 206.977 149.928 206.895 149.546 206.73C149.165 206.565 148.865 206.327 148.647 206.016C148.429 205.705 148.32 205.325 148.32 204.876C148.32 204.419 148.429 204.043 148.647 203.75C148.865 203.448 149.165 203.224 149.546 203.078C149.928 202.922 150.355 202.844 150.827 202.844H153.075V202.35C153.075 201.874 152.935 201.499 152.653 201.224C152.381 200.949 151.972 200.812 151.427 200.812C150.891 200.812 150.473 200.945 150.173 201.21C149.873 201.467 149.669 201.814 149.56 202.254L148.551 201.924C148.661 201.549 148.833 201.21 149.069 200.908C149.306 200.597 149.619 200.35 150.01 200.167C150.409 199.975 150.886 199.878 151.44 199.878C152.294 199.878 152.957 200.103 153.43 200.551C153.902 200.991 154.138 201.613 154.138 202.419V205.453C154.138 205.728 154.265 205.865 154.52 205.865H155.133V206.785H154.193C153.893 206.785 153.652 206.702 153.471 206.538C153.289 206.364 153.198 206.135 153.198 205.851V205.782H153.035C152.935 205.956 152.798 206.139 152.626 206.332C152.462 206.515 152.235 206.666 151.944 206.785C151.654 206.913 151.277 206.977 150.813 206.977ZM150.936 206.043C151.572 206.043 152.085 205.856 152.476 205.48C152.876 205.096 153.075 204.56 153.075 203.874V203.723H150.868C150.441 203.723 150.087 203.819 149.805 204.011C149.533 204.194 149.396 204.474 149.396 204.849C149.396 205.224 149.537 205.517 149.819 205.728C150.109 205.938 150.482 206.043 150.936 206.043ZM156.608 206.785V197.174H157.685V206.785H156.608ZM162.4 206.785C162.019 206.785 161.724 206.68 161.515 206.469C161.315 206.258 161.215 205.97 161.215 205.604V201.018H159.212V200.071H161.215V197.682H162.291V200.071H164.472V201.018H162.291V205.439C162.291 205.714 162.423 205.851 162.687 205.851H164.172V206.785H162.4ZM166.216 206.785V197.174H167.292V201.142H167.483C167.574 200.94 167.71 200.753 167.892 200.579C168.083 200.396 168.323 200.245 168.614 200.126C168.914 200.007 169.291 199.947 169.745 199.947C170.245 199.947 170.69 200.057 171.08 200.277C171.48 200.487 171.798 200.798 172.034 201.21C172.27 201.613 172.389 202.116 172.389 202.721V206.785H171.312V202.803C171.312 202.135 171.144 201.65 170.808 201.348C170.481 201.046 170.036 200.894 169.473 200.894C168.828 200.894 168.301 201.105 167.892 201.526C167.492 201.947 167.292 202.574 167.292 203.407V206.785H166.216Z" fill="#1B1B1B"/>
<path d="M38.0703 59.1845V57.6467H39.5647V49.5092H38.0703V47.9714H42.5216C44.0054 47.9714 45.1393 48.3505 45.9236 49.1088C46.7185 49.867 47.116 51.0096 47.116 52.5367V54.6352C47.116 56.1623 46.7185 57.3049 45.9236 58.0632C45.1393 58.8107 44.0054 59.1845 42.5216 59.1845H38.0703ZM41.2975 57.6147H42.5375C43.5019 57.6147 44.2173 57.369 44.6836 56.8778C45.15 56.3866 45.3831 55.655 45.3831 54.6833V52.4727C45.3831 51.4902 45.15 50.7587 44.6836 50.2781C44.2173 49.7976 43.5019 49.5573 42.5375 49.5573H41.2975V57.6147ZM52.6965 59.4087C51.9017 59.4087 51.2075 59.2432 50.614 58.9122C50.0205 58.5704 49.5542 58.0952 49.215 57.4865C48.8865 56.8672 48.7222 56.1516 48.7222 55.34V55.1478C48.7222 54.3255 48.8865 53.61 49.215 53.0013C49.5436 52.3819 49.9993 51.9066 50.5822 51.5756C51.1757 51.2339 51.8593 51.063 52.6329 51.063C53.3854 51.063 54.0426 51.2339 54.6042 51.5756C55.1765 51.9066 55.6217 52.3712 55.9396 52.9693C56.2575 53.5673 56.4165 54.2668 56.4165 55.0677V55.6924H50.3914C50.4126 56.3866 50.6405 56.9419 51.075 57.3584C51.5201 57.7642 52.0713 57.9671 52.7283 57.9671C53.3431 57.9671 53.8041 57.8283 54.1114 57.5506C54.4293 57.2729 54.6731 56.9525 54.8427 56.5895L56.194 57.2943C56.0457 57.5933 55.8283 57.9084 55.5422 58.2394C55.2667 58.5704 54.901 58.8481 54.4452 59.0724C53.9896 59.2966 53.4067 59.4087 52.6965 59.4087ZM50.4073 54.4269H54.7473C54.7049 53.8289 54.4929 53.3643 54.1114 53.0333C53.7299 52.6916 53.2318 52.5207 52.617 52.5207C52.0024 52.5207 51.499 52.6916 51.1068 53.0333C50.7252 53.3643 50.4921 53.8289 50.4073 54.4269ZM58.3876 59.1845V47.9714H60.025V59.1845H58.3876ZM62.4552 59.1845V51.2873H64.0926V59.1845H62.4552ZM63.2818 50.214C62.9639 50.214 62.6936 50.1126 62.4711 49.9097C62.2591 49.6961 62.1531 49.4238 62.1531 49.0927C62.1531 48.7617 62.2591 48.4947 62.4711 48.2918C62.6936 48.0782 62.9639 47.9714 63.2818 47.9714C63.6103 47.9714 63.8806 48.0782 64.0926 48.2918C64.3045 48.4947 64.4106 48.7617 64.4106 49.0927C64.4106 49.4238 64.3045 49.6961 64.0926 49.9097C63.8806 50.1126 63.6103 50.214 63.2818 50.214ZM68.3349 59.1845L65.696 51.2873H67.4288L69.5114 57.9671H69.7657L71.8483 51.2873H73.5811L70.9421 59.1845H68.3349ZM78.4833 59.4087C77.6884 59.4087 76.9943 59.2432 76.4007 58.9122C75.8073 58.5704 75.341 58.0952 75.0018 57.4865C74.6733 56.8672 74.5089 56.1516 74.5089 55.34V55.1478C74.5089 54.3255 74.6733 53.61 75.0018 53.0013C75.3304 52.3819 75.7861 51.9066 76.3689 51.5756C76.9625 51.2339 77.6461 51.063 78.4197 51.063C79.1722 51.063 79.8294 51.2339 80.391 51.5756C80.9633 51.9066 81.4084 52.3712 81.7264 52.9693C82.0443 53.5673 82.2033 54.2668 82.2033 55.0677V55.6924H76.1782C76.1994 56.3866 76.4273 56.9419 76.8618 57.3584C77.3069 57.7642 77.8581 57.9671 78.5151 57.9671C79.1299 57.9671 79.5909 57.8283 79.8982 57.5506C80.2161 57.2729 80.4599 56.9525 80.6295 56.5895L81.9807 57.2943C81.8324 57.5933 81.6151 57.9084 81.3289 58.2394C81.0535 58.5704 80.6878 58.8481 80.232 59.0724C79.7763 59.2966 79.1935 59.4087 78.4833 59.4087ZM76.1941 54.4269H80.5341C80.4917 53.8289 80.2797 53.3643 79.8982 53.0333C79.5166 52.6916 79.0186 52.5207 78.4038 52.5207C77.7892 52.5207 77.2858 52.6916 76.8936 53.0333C76.512 53.3643 76.2789 53.8289 76.1941 54.4269ZM84.1744 59.1845V51.2873H85.78V52.2164H86.0344C86.1615 51.8854 86.3629 51.6451 86.6385 51.4955C86.9246 51.3353 87.2744 51.2553 87.6877 51.2553H88.6256V52.745H87.6241C87.0942 52.745 86.6597 52.8945 86.3205 53.1935C85.9813 53.4819 85.8118 53.9304 85.8118 54.5391V59.1845H84.1744ZM91.2284 62.3882V60.9465H95.6002C95.8969 60.9465 96.0453 60.7864 96.0453 60.466V58.0311H95.791C95.6956 58.2448 95.5472 58.453 95.3458 58.6559C95.1551 58.8481 94.8954 59.0083 94.5669 59.1364C94.2382 59.2646 93.8249 59.3287 93.3269 59.3287C92.7333 59.3287 92.2034 59.1951 91.7371 58.9282C91.2708 58.6613 90.9051 58.2821 90.6402 57.7909C90.3752 57.2997 90.2428 56.7176 90.2428 56.0448V51.2873H91.8802V55.9167C91.8802 56.6001 92.0497 57.1074 92.3889 57.4385C92.728 57.7588 93.1997 57.919 93.8038 57.919C94.4715 57.919 95.0066 57.6948 95.4094 57.2462C95.8228 56.7977 96.0294 56.1463 96.0294 55.292V51.2873H97.6669V60.8024C97.6669 61.2829 97.5238 61.6674 97.2376 61.9557C96.962 62.2441 96.5805 62.3882 96.093 62.3882H91.2284Z" fill="#1B1B1B"/>
<path d="M38.5938 135.845V124.632H45.4455V125.849H39.9291V129.598H45.0004V130.815H39.9291V134.627H45.525V135.845H38.5938ZM47.5993 135.845V128.012H48.8234V128.989H49.046C49.1943 128.711 49.4381 128.454 49.7773 128.22C50.1163 127.985 50.5933 127.868 51.208 127.868C51.8121 127.868 52.2996 128.001 52.6706 128.268C53.0521 128.535 53.3276 128.861 53.4973 129.245H53.7198C53.8999 128.861 54.1702 128.535 54.5306 128.268C54.9015 128.001 55.4155 127.868 56.0726 127.868C56.5919 127.868 57.0476 127.974 57.4398 128.188C57.8319 128.402 58.1393 128.711 58.3619 129.117C58.595 129.512 58.7116 129.988 58.7116 130.543V135.845H57.4557V130.655C57.4557 130.132 57.302 129.72 56.9947 129.421C56.6979 129.111 56.2793 128.957 55.7388 128.957C55.1665 128.957 54.6948 129.143 54.3239 129.517C53.9635 129.892 53.7834 130.43 53.7834 131.135V135.845H52.5275V130.655C52.5275 130.132 52.3738 129.72 52.0665 129.421C51.7697 129.111 51.3511 128.957 50.8106 128.957C50.2383 128.957 49.7666 129.143 49.3957 129.517C49.0353 129.892 48.8552 130.43 48.8552 131.135V135.845H47.5993ZM63.6613 136.069C63.1208 136.069 62.628 135.973 62.1828 135.781C61.7377 135.588 61.388 135.31 61.1336 134.948C60.8792 134.585 60.7521 134.141 60.7521 133.618C60.7521 133.084 60.8792 132.647 61.1336 132.305C61.388 131.952 61.7377 131.69 62.1828 131.52C62.628 131.338 63.1261 131.247 63.6772 131.247H66.3003V130.671C66.3003 130.116 66.136 129.678 65.8074 129.357C65.4895 129.037 65.0126 128.877 64.3767 128.877C63.7513 128.877 63.2638 129.031 62.9141 129.341C62.5644 129.64 62.3259 130.046 62.1987 130.559L61.0223 130.174C61.1495 129.736 61.3508 129.341 61.6264 128.989C61.902 128.626 62.2677 128.338 62.7233 128.124C63.1897 127.9 63.7461 127.787 64.3926 127.787C65.3888 127.787 66.1625 128.049 66.7136 128.572C67.2647 129.085 67.5403 129.811 67.5403 130.751V134.291C67.5403 134.611 67.6887 134.772 67.9854 134.772H68.7008V135.845H67.6039C67.2541 135.845 66.9733 135.749 66.7613 135.556C66.5493 135.354 66.4433 135.086 66.4433 134.756V134.675H66.2526C66.136 134.878 65.977 135.092 65.7757 135.316C65.5849 135.53 65.32 135.706 64.9808 135.845C64.6416 135.995 64.2018 136.069 63.6613 136.069ZM63.8044 134.98C64.5462 134.98 65.1451 134.761 65.6008 134.323C66.0671 133.874 66.3003 133.25 66.3003 132.449V132.273H63.7249C63.2267 132.273 62.8134 132.385 62.4849 132.609C62.1669 132.823 62.008 133.148 62.008 133.586C62.008 134.024 62.1723 134.365 62.5008 134.611C62.84 134.857 63.2744 134.98 63.8044 134.98ZM70.4208 135.845V128.012H71.6767V135.845H70.4208ZM71.0567 126.794C70.7812 126.794 70.5479 126.704 70.3572 126.522C70.1771 126.34 70.0869 126.111 70.0869 125.833C70.0869 125.545 70.1771 125.31 70.3572 125.128C70.5479 124.946 70.7812 124.856 71.0567 124.856C71.3323 124.856 71.5602 124.946 71.7403 125.128C71.9205 125.31 72.0105 125.545 72.0105 125.833C72.0105 126.111 71.9205 126.34 71.7403 126.522C71.5602 126.704 71.3323 126.794 71.0567 126.794ZM74.3176 135.845V124.632H75.5735V135.845H74.3176ZM81.3461 136.069C80.3816 136.069 79.5655 135.845 78.8979 135.396C78.2407 134.948 77.8433 134.237 77.7055 133.266L78.8979 132.993C78.9827 133.506 79.1416 133.912 79.3748 134.211C79.6079 134.499 79.8941 134.707 80.2332 134.836C80.583 134.953 80.954 135.012 81.3461 135.012C81.9289 135.012 82.39 134.894 82.7291 134.659C83.0683 134.425 83.2379 134.109 83.2379 133.714C83.2379 133.308 83.0735 133.026 82.745 132.865C82.4271 132.695 81.9873 132.555 81.4255 132.449L80.7738 132.337C80.2756 132.251 79.8199 132.118 79.4066 131.936C78.9932 131.754 78.6647 131.509 78.4209 131.199C78.1771 130.889 78.0553 130.5 78.0553 130.03C78.0553 129.325 78.3255 128.775 78.8661 128.38C79.4066 127.985 80.122 127.787 81.0122 127.787C81.8919 127.787 82.602 127.99 83.1425 128.396C83.6935 128.791 84.0486 129.352 84.2076 130.078L83.0312 130.382C82.9358 129.816 82.7079 129.421 82.3476 129.197C81.9873 128.962 81.5422 128.845 81.0122 128.845C80.4823 128.845 80.0637 128.946 79.7563 129.149C79.4489 129.341 79.2953 129.63 79.2953 130.014C79.2953 130.388 79.4384 130.665 79.7245 130.847C80.0212 131.017 80.4134 131.146 80.9009 131.231L81.5527 131.344C82.1038 131.44 82.5966 131.574 83.0312 131.744C83.4763 131.904 83.8261 132.139 84.0804 132.449C84.3453 132.759 84.4779 133.164 84.4779 133.666C84.4779 134.435 84.1917 135.028 83.6194 135.444C83.0576 135.861 82.2999 136.069 81.3461 136.069ZM94.3217 136.069C93.5161 136.069 92.7955 135.925 92.1596 135.637C91.5237 135.348 91.0202 134.916 90.6494 134.339C90.2889 133.752 90.1088 133.02 90.1088 132.144V131.808H91.4283V132.144C91.4283 133.074 91.6986 133.768 92.2391 134.227C92.7796 134.675 93.4738 134.9 94.3217 134.9C95.1907 134.9 95.853 134.702 96.3088 134.307C96.7645 133.912 96.9924 133.416 96.9924 132.817C96.9924 132.401 96.8864 132.07 96.6745 131.824C96.473 131.578 96.1869 131.381 95.816 131.231C95.445 131.071 95.0105 130.933 94.5124 130.815L93.6858 130.607C93.0392 130.436 92.4669 130.228 91.9688 129.982C91.4707 129.736 91.0786 129.416 90.7924 129.021C90.5168 128.615 90.3791 128.097 90.3791 127.467C90.3791 126.837 90.5327 126.292 90.8401 125.833C91.1581 125.374 91.5979 125.022 92.1596 124.776C92.7319 124.53 93.3889 124.407 94.1309 124.407C94.8833 124.407 95.5563 124.541 96.1499 124.808C96.754 125.064 97.2256 125.449 97.5647 125.961C97.9145 126.464 98.0894 127.099 98.0894 127.868V128.54H96.7699V127.868C96.7699 127.323 96.6532 126.885 96.4201 126.554C96.1976 126.223 95.8848 125.977 95.4822 125.817C95.09 125.657 94.6396 125.577 94.1309 125.577C93.3996 125.577 92.8114 125.743 92.3663 126.073C91.9212 126.394 91.6986 126.853 91.6986 127.451C91.6986 127.846 91.794 128.166 91.9847 128.412C92.1755 128.658 92.4458 128.861 92.7955 129.021C93.1452 129.171 93.5638 129.303 94.0514 129.421L94.8781 129.63C95.5245 129.768 96.1022 129.96 96.6109 130.206C97.1302 130.441 97.5435 130.767 97.8509 131.183C98.1582 131.59 98.3119 132.123 98.3119 132.785C98.3119 133.448 98.1476 134.024 97.8191 134.515C97.4905 135.006 97.0242 135.391 96.4201 135.669C95.8266 135.935 95.1271 136.069 94.3217 136.069ZM103.975 136.069C103.192 136.069 102.503 135.903 101.909 135.572C101.316 135.23 100.855 134.756 100.526 134.147C100.198 133.538 100.033 132.833 100.033 132.032V131.84C100.033 131.029 100.198 130.318 100.526 129.71C100.855 129.101 101.31 128.631 101.893 128.3C102.476 127.958 103.144 127.787 103.896 127.787C104.627 127.787 105.274 127.948 105.835 128.268C106.397 128.578 106.837 129.027 107.155 129.614C107.473 130.201 107.632 130.889 107.632 131.68V132.257H101.289C101.321 133.1 101.591 133.762 102.1 134.243C102.609 134.713 103.244 134.948 104.007 134.948C104.675 134.948 105.189 134.793 105.549 134.483C105.91 134.173 106.185 133.805 106.376 133.378L107.457 133.907C107.298 134.237 107.075 134.569 106.789 134.9C106.514 135.23 106.149 135.508 105.692 135.733C105.247 135.957 104.675 136.069 103.975 136.069ZM101.305 131.215H106.36C106.318 130.489 106.069 129.924 105.613 129.517C105.168 129.111 104.595 128.909 103.896 128.909C103.186 128.909 102.603 129.111 102.148 129.517C101.692 129.924 101.411 130.489 101.305 131.215ZM109.823 135.845V128.012H111.047V129.341H111.27C111.439 128.967 111.725 128.631 112.128 128.332C112.542 128.022 113.146 127.868 113.941 127.868C114.523 127.868 115.042 127.99 115.499 128.236C115.964 128.482 116.336 128.845 116.612 129.325C116.886 129.806 117.025 130.398 117.025 131.103V135.845H115.769V131.199C115.769 130.42 115.573 129.854 115.181 129.501C114.799 129.149 114.279 128.973 113.623 128.973C112.87 128.973 112.256 129.219 111.779 129.71C111.312 130.201 111.079 130.933 111.079 131.904V135.845H109.823ZM122.217 135.845C121.771 135.845 121.427 135.722 121.183 135.476C120.95 135.23 120.833 134.894 120.833 134.467V129.117H118.497V128.012H120.833V125.224H122.089V128.012H124.633V129.117H122.089V134.275C122.089 134.595 122.243 134.756 122.55 134.756H124.283V135.845H122.217Z" fill="#1B1B1B"/>
<path d="M43.4521 113.249C42.362 113.249 41.3946 113.085 40.5497 112.755C39.7185 112.425 39.0644 111.952 38.5875 111.334C38.1242 110.702 37.8926 109.961 37.8926 109.11V108.862C37.8926 108.203 38.0084 107.661 38.2401 107.235C38.4717 106.796 38.7579 106.453 39.0985 106.206C39.4528 105.959 39.7866 105.787 40.1001 105.691V105.32C39.7866 105.21 39.4732 105.032 39.1598 104.785C38.8464 104.537 38.5875 104.208 38.3831 103.796C38.1924 103.384 38.097 102.89 38.097 102.313V102.066C38.097 101.311 38.315 100.652 38.751 100.089C39.2007 99.5122 39.8275 99.0659 40.6315 98.7501C41.4354 98.4206 42.3757 98.2559 43.4521 98.2559C44.5286 98.2559 45.4688 98.4206 46.2728 98.7501C47.0768 99.0659 47.6968 99.5122 48.1328 100.089C48.5825 100.652 48.8073 101.311 48.8073 102.066V102.313C48.8073 102.89 48.7051 103.384 48.5007 103.796C48.3099 104.208 48.0579 104.537 47.7444 104.785C47.4447 105.032 47.1313 105.21 46.8042 105.32V105.691C47.1313 105.787 47.4651 105.959 47.8058 106.206C48.1464 106.453 48.4326 106.796 48.6642 107.235C48.8959 107.661 49.0117 108.203 49.0117 108.862V109.11C49.0117 109.961 48.7732 110.702 48.2963 111.334C47.833 111.952 47.179 112.425 46.3341 112.755C45.5029 113.085 44.5422 113.249 43.4521 113.249ZM43.4521 110.901C44.3924 110.901 45.1146 110.723 45.6187 110.366C46.1365 109.995 46.3954 109.508 46.3954 108.904V108.739C46.3954 108.135 46.1433 107.654 45.6392 107.297C45.1486 106.927 44.4196 106.741 43.4521 106.741C42.4983 106.741 41.7693 106.927 41.2651 107.297C40.7609 107.654 40.5088 108.135 40.5088 108.739V108.904C40.5088 109.508 40.7609 109.995 41.2651 110.366C41.7829 110.723 42.5119 110.901 43.4521 110.901ZM43.4521 104.393C44.3242 104.393 44.9987 104.235 45.4757 103.92C45.9526 103.604 46.191 103.158 46.191 102.581V102.416C46.191 101.839 45.9458 101.393 45.4552 101.077C44.9647 100.762 44.297 100.604 43.4521 100.604C42.6073 100.604 41.9396 100.762 41.4491 101.077C40.9585 101.393 40.7132 101.839 40.7132 102.416V102.581C40.7132 103.158 40.9517 103.604 41.4286 103.92C41.9055 104.235 42.5801 104.393 43.4521 104.393ZM55.7897 113.249C54.7132 113.249 53.7594 113.057 52.9281 112.673C52.0969 112.288 51.4429 111.739 50.9659 111.025C50.5026 110.297 50.271 109.439 50.271 108.451V108.08H52.8873V108.368C52.8873 109.137 53.153 109.755 53.6844 110.222C54.2158 110.675 54.9176 110.901 55.7897 110.901C56.6754 110.901 57.3567 110.689 57.8336 110.263C58.3242 109.837 58.5695 109.302 58.5695 108.657V108.451C58.5695 108.011 58.4605 107.654 58.2424 107.38C58.0244 107.105 57.7314 106.906 57.3635 106.782C56.9956 106.645 56.58 106.576 56.1167 106.576H53.2552V103.693L57.8745 101.222V100.892H50.6389V98.5442H60.7769V102.045L56.4642 104.352V104.682H57.2205C57.8609 104.682 58.4809 104.812 59.0805 105.073C59.6936 105.334 60.1978 105.739 60.593 106.288C60.9881 106.824 61.1857 107.524 61.1857 108.389V108.636C61.1857 109.57 60.9609 110.387 60.5112 111.087C60.0616 111.773 59.4279 112.309 58.6103 112.693C57.8064 113.064 56.8662 113.249 55.7897 113.249ZM66.9255 112.961V100.48H66.5576L64.6363 105.052H61.8974L64.8202 98.5442H69.5418V112.961H66.9255Z" fill="#1B1B1B"/>
<path d="M315.664 138.133V126.92H322.389V128.138H317V131.902H321.96V133.119H317V138.133H315.664ZM326.573 138.357C326.033 138.357 325.54 138.261 325.095 138.069C324.65 137.877 324.3 137.599 324.046 137.236C323.791 136.873 323.664 136.43 323.664 135.907C323.664 135.372 323.791 134.935 324.046 134.593C324.3 134.241 324.65 133.979 325.095 133.808C325.54 133.626 326.039 133.536 326.589 133.536H329.212V132.959C329.212 132.404 329.048 131.966 328.72 131.646C328.402 131.325 327.925 131.165 327.289 131.165C326.663 131.165 326.176 131.32 325.826 131.63C325.476 131.928 325.238 132.334 325.111 132.847L323.934 132.463C324.062 132.024 324.263 131.63 324.538 131.277C324.814 130.915 325.18 130.626 325.635 130.412C326.102 130.188 326.659 130.076 327.305 130.076C328.301 130.076 329.075 130.338 329.626 130.861C330.176 131.373 330.452 132.1 330.452 133.039V136.579C330.452 136.9 330.601 137.06 330.897 137.06H331.613V138.133H330.516C330.166 138.133 329.886 138.037 329.673 137.845C329.461 137.642 329.355 137.375 329.355 137.044V136.964H329.165C329.048 137.166 328.889 137.38 328.688 137.605C328.497 137.819 328.232 137.995 327.893 138.133C327.553 138.283 327.114 138.357 326.573 138.357ZM326.716 137.268C327.458 137.268 328.057 137.05 328.513 136.611C328.98 136.163 329.212 135.538 329.212 134.737V134.561H326.637C326.138 134.561 325.725 134.673 325.397 134.897C325.079 135.111 324.92 135.436 324.92 135.875C324.92 136.313 325.085 136.654 325.413 136.9C325.752 137.146 326.186 137.268 326.716 137.268ZM333.333 138.133V130.3H334.589V138.133H333.333ZM333.969 129.083C333.693 129.083 333.46 128.992 333.27 128.81C333.089 128.628 332.999 128.4 332.999 128.122C332.999 127.833 333.089 127.599 333.27 127.417C333.46 127.235 333.693 127.144 333.969 127.144C334.244 127.144 334.472 127.235 334.653 127.417C334.832 127.599 334.923 127.833 334.923 128.122C334.923 128.4 334.832 128.628 334.653 128.81C334.472 128.992 334.244 129.083 333.969 129.083ZM337.229 138.133V126.92H338.485V138.133H337.229ZM344.687 138.357C343.903 138.357 343.215 138.192 342.621 137.861C342.027 137.519 341.566 137.044 341.238 136.435C340.909 135.827 340.745 135.122 340.745 134.321V134.129C340.745 133.317 340.909 132.607 341.238 131.998C341.566 131.389 342.022 130.919 342.605 130.588C343.187 130.246 343.855 130.076 344.608 130.076C345.339 130.076 345.985 130.236 346.547 130.556C347.109 130.866 347.549 131.315 347.867 131.902C348.185 132.489 348.344 133.178 348.344 133.968V134.545H342.001C342.032 135.388 342.303 136.051 342.811 136.531C343.32 137.002 343.956 137.236 344.719 137.236C345.387 137.236 345.901 137.082 346.261 136.772C346.621 136.462 346.897 136.093 347.088 135.666L348.169 136.195C348.01 136.526 347.787 136.857 347.501 137.188C347.225 137.519 346.86 137.797 346.404 138.021C345.959 138.245 345.387 138.357 344.687 138.357ZM342.017 133.504H347.072C347.03 132.777 346.78 132.212 346.325 131.806C345.88 131.4 345.307 131.197 344.608 131.197C343.898 131.197 343.314 131.4 342.859 131.806C342.404 132.212 342.122 132.777 342.017 133.504ZM353.825 138.357C353.157 138.357 352.543 138.197 351.981 137.877C351.419 137.557 350.974 137.092 350.645 136.483C350.317 135.875 350.153 135.154 350.153 134.321V134.113C350.153 133.28 350.317 132.564 350.645 131.966C350.974 131.357 351.414 130.893 351.965 130.572C352.527 130.242 353.147 130.076 353.825 130.076C354.366 130.076 354.821 130.15 355.192 130.3C355.574 130.439 355.881 130.62 356.114 130.845C356.347 131.059 356.528 131.288 356.655 131.534H356.877V126.92H358.133V138.133H356.909V136.836H356.687C356.474 137.23 356.146 137.583 355.701 137.893C355.256 138.203 354.63 138.357 353.825 138.357ZM354.159 137.236C354.964 137.236 355.616 136.98 356.114 136.467C356.623 135.944 356.877 135.218 356.877 134.289V134.145C356.877 133.215 356.623 132.495 356.114 131.982C355.616 131.459 354.964 131.197 354.159 131.197C353.364 131.197 352.706 131.459 352.188 131.982C351.679 132.495 351.424 133.215 351.424 134.145V134.289C351.424 135.218 351.679 135.944 352.188 136.467C352.706 136.98 353.364 137.236 354.159 137.236ZM364.275 138.133V136.932H365.833V128.122H364.275V126.92H368.615C370.078 126.92 371.207 127.294 372.001 128.041C372.808 128.789 373.21 129.937 373.21 131.485V133.568C373.21 135.127 372.808 136.281 372.001 137.028C371.207 137.765 370.078 138.133 368.615 138.133H364.275ZM367.169 136.916H368.615C369.696 136.916 370.513 136.649 371.063 136.115C371.615 135.581 371.89 134.753 371.89 133.632V131.437C371.89 130.294 371.615 129.461 371.063 128.939C370.513 128.416 369.696 128.154 368.615 128.154H367.169V136.916ZM378.951 138.357C378.166 138.357 377.477 138.192 376.884 137.861C376.29 137.519 375.829 137.044 375.501 136.435C375.172 135.827 375.008 135.122 375.008 134.321V134.129C375.008 133.317 375.172 132.607 375.501 131.998C375.829 131.389 376.285 130.919 376.868 130.588C377.451 130.246 378.119 130.076 378.871 130.076C379.603 130.076 380.249 130.236 380.811 130.556C381.372 130.866 381.812 131.315 382.13 131.902C382.448 132.489 382.607 133.178 382.607 133.968V134.545H376.264C376.296 135.388 376.566 136.051 377.075 136.531C377.584 137.002 378.22 137.236 378.983 137.236C379.65 137.236 380.164 137.082 380.525 136.772C380.885 136.462 381.161 136.093 381.351 135.666L382.432 136.195C382.273 136.526 382.051 136.857 381.765 137.188C381.489 137.519 381.123 137.797 380.668 138.021C380.223 138.245 379.65 138.357 378.951 138.357ZM376.28 133.504H381.335C381.292 132.777 381.044 132.212 380.588 131.806C380.143 131.4 379.571 131.197 378.871 131.197C378.161 131.197 377.578 131.4 377.123 131.806C376.666 132.212 376.386 132.777 376.28 133.504ZM384.798 138.133V126.92H386.054V138.133H384.798ZM388.694 138.133V130.3H389.95V138.133H388.694ZM389.33 129.083C389.055 129.083 388.821 128.992 388.63 128.81C388.451 128.628 388.36 128.4 388.36 128.122C388.36 127.833 388.451 127.599 388.63 127.417C388.821 127.235 389.055 127.144 389.33 127.144C389.606 127.144 389.834 127.235 390.013 127.417C390.194 127.599 390.283 127.833 390.283 128.122C390.283 128.4 390.194 128.628 390.013 128.81C389.834 128.992 389.606 129.083 389.33 129.083ZM394.562 138.133L391.78 130.3H393.115L395.452 137.188H395.675L398.012 130.3H399.347L396.565 138.133H394.562ZM404.396 138.357C403.611 138.357 402.923 138.192 402.329 137.861C401.735 137.519 401.274 137.044 400.946 136.435C400.618 135.827 400.453 135.122 400.453 134.321V134.129C400.453 133.317 400.618 132.607 400.946 131.998C401.274 131.389 401.731 130.919 402.313 130.588C402.896 130.246 403.564 130.076 404.316 130.076C405.048 130.076 405.694 130.236 406.256 130.556C406.818 130.866 407.257 131.315 407.575 131.902C407.893 132.489 408.052 133.178 408.052 133.968V134.545H401.709C401.741 135.388 402.011 136.051 402.52 136.531C403.029 137.002 403.665 137.236 404.428 137.236C405.095 137.236 405.61 137.082 405.97 136.772C406.33 136.462 406.606 136.093 406.796 135.666L407.877 136.195C407.718 136.526 407.496 136.857 407.21 137.188C406.934 137.519 406.568 137.797 406.113 138.021C405.668 138.245 405.095 138.357 404.396 138.357ZM401.725 133.504H406.78C406.738 132.777 406.489 132.212 406.033 131.806C405.588 131.4 405.016 131.197 404.316 131.197C403.607 131.197 403.023 131.4 402.568 131.806C402.112 132.212 401.831 132.777 401.725 133.504ZM410.243 138.133V130.3H411.467V131.261H411.689C411.827 130.919 412.039 130.669 412.325 130.508C412.611 130.348 412.987 130.268 413.454 130.268H414.376V131.421H413.375C412.812 131.421 412.357 131.582 412.007 131.902C411.668 132.212 411.499 132.697 411.499 133.36V138.133H410.243ZM417.173 141.337V140.216H421.624C421.932 140.216 422.085 140.055 422.085 139.735V136.884H421.863C421.757 137.108 421.592 137.332 421.37 137.557C421.159 137.771 420.877 137.947 420.527 138.085C420.177 138.213 419.738 138.277 419.208 138.277C418.647 138.277 418.127 138.155 417.65 137.909C417.184 137.663 416.813 137.3 416.537 136.82C416.272 136.339 416.14 135.752 416.14 135.058V130.3H417.395V134.962C417.395 135.73 417.586 136.291 417.968 136.643C418.361 136.996 418.885 137.172 419.542 137.172C420.284 137.172 420.893 136.926 421.37 136.435C421.847 135.944 422.085 135.212 422.085 134.241V130.3H423.341V139.959C423.341 140.386 423.22 140.723 422.975 140.969C422.743 141.215 422.399 141.337 421.942 141.337H417.173Z" fill="#1B1B1B"/>
<path d="M321.953 111.817V108.892H314.922V105.844L319.868 97.3999H324.569V106.544H326.94V108.892H324.569V111.817H321.953ZM317.416 106.544H321.953V99.0887H321.585L317.416 106.215V106.544Z" fill="#CE365B"/>
<path d="M234.438 109.721C233.738 109.721 233.139 109.597 232.639 109.35C232.149 109.094 231.776 108.746 231.522 108.307C231.268 107.867 231.14 107.369 231.14 106.81H232.244C232.244 107.378 232.43 107.84 232.803 108.197C233.175 108.545 233.72 108.719 234.438 108.719C235.192 108.719 235.769 108.517 236.168 108.115C236.577 107.703 236.782 107.14 236.782 106.426V105.094H236.605C236.432 105.368 236.155 105.625 235.773 105.863C235.401 106.092 234.874 106.206 234.193 106.206C233.62 106.206 233.093 106.078 232.612 105.822C232.14 105.565 231.763 105.204 231.481 104.737C231.199 104.27 231.059 103.716 231.059 103.076V102.911C231.059 102.252 231.208 101.689 231.508 101.222C231.808 100.746 232.212 100.38 232.721 100.124C233.239 99.8581 233.825 99.7253 234.479 99.7253C235.142 99.7253 235.728 99.8581 236.237 100.124C236.754 100.38 237.159 100.751 237.449 101.236C237.74 101.712 237.885 102.288 237.885 102.966V106.316C237.885 107.03 237.745 107.643 237.463 108.156C237.19 108.659 236.795 109.048 236.277 109.323C235.76 109.588 235.147 109.721 234.438 109.721ZM234.479 105.272C234.933 105.272 235.333 105.181 235.678 104.998C236.023 104.806 236.291 104.545 236.482 104.215C236.682 103.876 236.782 103.483 236.782 103.034V102.924C236.782 102.238 236.568 101.702 236.141 101.318C235.723 100.924 235.169 100.728 234.479 100.728C233.788 100.728 233.23 100.924 232.803 101.318C232.376 101.702 232.162 102.238 232.162 102.924V103.034C232.162 103.483 232.258 103.876 232.448 104.215C232.648 104.545 232.921 104.806 233.266 104.998C233.62 105.181 234.025 105.272 234.479 105.272ZM242.755 109.721C242.055 109.721 241.456 109.597 240.956 109.35C240.465 109.094 240.093 108.746 239.839 108.307C239.584 107.867 239.457 107.369 239.457 106.81H240.561C240.561 107.378 240.747 107.84 241.119 108.197C241.492 108.545 242.037 108.719 242.755 108.719C243.509 108.719 244.085 108.517 244.485 108.115C244.894 107.703 245.098 107.14 245.098 106.426V105.094H244.921C244.749 105.368 244.471 105.625 244.09 105.863C243.717 106.092 243.191 106.206 242.509 106.206C241.937 106.206 241.41 106.078 240.929 105.822C240.456 105.565 240.079 105.204 239.798 104.737C239.516 104.27 239.375 103.716 239.375 103.076V102.911C239.375 102.252 239.525 101.689 239.825 101.222C240.125 100.746 240.529 100.38 241.038 100.124C241.555 99.8581 242.141 99.7253 242.795 99.7253C243.459 99.7253 244.045 99.8581 244.553 100.124C245.071 100.38 245.475 100.751 245.766 101.236C246.057 101.712 246.202 102.288 246.202 102.966V106.316C246.202 107.03 246.061 107.643 245.78 108.156C245.507 108.659 245.112 109.048 244.594 109.323C244.076 109.588 243.463 109.721 242.755 109.721ZM242.795 105.272C243.25 105.272 243.649 105.181 243.995 104.998C244.34 104.806 244.608 104.545 244.799 104.215C244.998 103.876 245.098 103.483 245.098 103.034V102.924C245.098 102.238 244.885 101.702 244.458 101.318C244.04 100.924 243.486 100.728 242.795 100.728C242.105 100.728 241.546 100.924 241.119 101.318C240.692 101.702 240.479 102.238 240.479 102.924V103.034C240.479 103.483 240.574 103.876 240.765 104.215C240.965 104.545 241.238 104.806 241.583 104.998C241.937 105.181 242.341 105.272 242.795 105.272ZM248.835 109.721L248.1 109.131L255.689 99.7253L256.412 100.316L248.835 109.721ZM254.885 109.707C254.222 109.707 253.691 109.515 253.291 109.131C252.901 108.737 252.705 108.206 252.705 107.538V107.455C252.705 106.787 252.901 106.261 253.291 105.877C253.691 105.483 254.222 105.286 254.885 105.286C255.53 105.286 256.053 105.483 256.452 105.877C256.852 106.261 257.052 106.787 257.052 107.455V107.538C257.052 108.206 256.852 108.737 256.452 109.131C256.062 109.515 255.54 109.707 254.885 109.707ZM254.885 108.911C255.267 108.911 255.567 108.787 255.785 108.54C256.012 108.293 256.125 107.973 256.125 107.579V107.414C256.125 107.012 256.012 106.691 255.785 106.453C255.567 106.206 255.267 106.082 254.885 106.082C254.495 106.082 254.186 106.206 253.959 106.453C253.741 106.691 253.632 107.012 253.632 107.414V107.579C253.632 107.973 253.741 108.293 253.959 108.54C254.186 108.787 254.495 108.911 254.885 108.911ZM249.639 104.16C248.976 104.16 248.449 103.963 248.059 103.57C247.668 103.176 247.473 102.65 247.473 101.991V101.908C247.473 101.24 247.668 100.714 248.059 100.329C248.449 99.9359 248.976 99.7391 249.639 99.7391C250.293 99.7391 250.816 99.9359 251.206 100.329C251.606 100.714 251.806 101.24 251.806 101.908V101.991C251.806 102.65 251.606 103.176 251.206 103.57C250.816 103.963 250.293 104.16 249.639 104.16ZM249.639 103.364C250.021 103.364 250.325 103.24 250.552 102.993C250.779 102.746 250.893 102.426 250.893 102.032V101.867C250.893 101.465 250.779 101.144 250.552 100.906C250.325 100.659 250.021 100.535 249.639 100.535C249.249 100.535 248.94 100.659 248.713 100.906C248.495 101.144 248.386 101.465 248.386 101.867V102.032C248.386 102.426 248.495 102.746 248.713 102.993C248.94 103.24 249.249 103.364 249.639 103.364Z" fill="#006908"/>
<path d="M259.885 92.938H228.09C225.268 92.938 222.98 95.2432 222.98 98.0868V111.817C222.98 114.661 225.268 116.966 228.09 116.966H259.885C262.707 116.966 264.995 114.661 264.995 111.817V98.0868C264.995 95.2432 262.707 92.938 259.885 92.938Z" stroke="#A6EB84"/>
<path d="M176.604 138.133V136.932H178.161V128.122H176.604V126.92H180.944C182.406 126.92 183.535 127.294 184.33 128.041C185.135 128.789 185.538 129.937 185.538 131.485V133.568C185.538 135.127 185.135 136.281 184.33 137.028C183.535 137.765 182.406 138.133 180.944 138.133H176.604ZM179.497 136.916H180.944C182.025 136.916 182.841 136.649 183.392 136.115C183.942 135.581 184.218 134.753 184.218 133.632V131.437C184.218 130.294 183.942 129.461 183.392 128.939C182.841 128.416 182.025 128.154 180.944 128.154H179.497V136.916ZM191.278 138.357C190.494 138.357 189.805 138.192 189.211 137.861C188.619 137.519 188.158 137.044 187.828 136.435C187.5 135.827 187.335 135.122 187.335 134.321V134.129C187.335 133.317 187.5 132.607 187.828 131.998C188.158 131.389 188.613 130.919 189.195 130.588C189.779 130.246 190.447 130.076 191.198 130.076C191.93 130.076 192.577 130.236 193.138 130.556C193.7 130.866 194.14 131.315 194.457 131.902C194.775 132.489 194.934 133.178 194.934 133.968V134.545H188.591C188.623 135.388 188.893 136.051 189.402 136.531C189.911 137.002 190.547 137.236 191.31 137.236C191.977 137.236 192.492 137.082 192.852 136.772C193.213 136.462 193.488 136.093 193.679 135.666L194.76 136.195C194.601 136.526 194.378 136.857 194.092 137.188C193.817 137.519 193.451 137.797 192.995 138.021C192.55 138.245 191.977 138.357 191.278 138.357ZM188.607 133.504H193.663C193.621 132.777 193.372 132.212 192.915 131.806C192.47 131.4 191.898 131.197 191.198 131.197C190.489 131.197 189.906 131.4 189.45 131.806C188.994 132.212 188.714 132.777 188.607 133.504ZM197.125 138.133V126.92H198.381V138.133H197.125ZM201.022 138.133V130.3H202.278V138.133H201.022ZM201.658 129.083C201.382 129.083 201.149 128.992 200.958 128.81C200.778 128.628 200.688 128.4 200.688 128.122C200.688 127.833 200.778 127.599 200.958 127.417C201.149 127.235 201.382 127.144 201.658 127.144C201.934 127.144 202.161 127.235 202.341 127.417C202.522 127.599 202.612 127.833 202.612 128.122C202.612 128.4 202.522 128.628 202.341 128.81C202.161 128.992 201.934 129.083 201.658 129.083ZM206.89 138.133L204.108 130.3H205.444L207.781 137.188H208.003L210.34 130.3H211.676L208.893 138.133H206.89ZM216.723 138.357C215.939 138.357 215.25 138.192 214.656 137.861C214.064 137.519 213.603 137.044 213.273 136.435C212.945 135.827 212.78 135.122 212.78 134.321V134.129C212.78 133.317 212.945 132.607 213.273 131.998C213.603 131.389 214.058 130.919 214.64 130.588C215.224 130.246 215.892 130.076 216.643 130.076C217.375 130.076 218.022 130.236 218.583 130.556C219.145 130.866 219.585 131.315 219.902 131.902C220.22 132.489 220.379 133.178 220.379 133.968V134.545H214.036C214.068 135.388 214.338 136.051 214.847 136.531C215.356 137.002 215.992 137.236 216.755 137.236C217.422 137.236 217.937 137.082 218.297 136.772C218.658 136.462 218.933 136.093 219.123 135.666L220.204 136.195C220.046 136.526 219.823 136.857 219.537 137.188C219.262 137.519 218.896 137.797 218.44 138.021C217.995 138.245 217.422 138.357 216.723 138.357ZM214.052 133.504H219.108C219.066 132.777 218.817 132.212 218.36 131.806C217.915 131.4 217.343 131.197 216.643 131.197C215.934 131.197 215.351 131.4 214.895 131.806C214.439 132.212 214.159 132.777 214.052 133.504ZM222.571 138.133V130.3H223.795V131.261H224.018C224.155 130.919 224.367 130.669 224.654 130.508C224.94 130.348 225.316 130.268 225.782 130.268H226.704V131.421H225.703C225.141 131.421 224.685 131.582 224.336 131.902C223.996 132.212 223.827 132.697 223.827 133.36V138.133H222.571ZM231.845 138.357C231.06 138.357 230.371 138.192 229.778 137.861C229.184 137.519 228.723 137.044 228.395 136.435C228.066 135.827 227.902 135.122 227.902 134.321V134.129C227.902 133.317 228.066 132.607 228.395 131.998C228.723 131.389 229.179 130.919 229.762 130.588C230.345 130.246 231.012 130.076 231.765 130.076C232.497 130.076 233.143 130.236 233.705 130.556C234.266 130.866 234.706 131.315 235.024 131.902C235.342 132.489 235.501 133.178 235.501 133.968V134.545H229.158C229.19 135.388 229.46 136.051 229.969 136.531C230.478 137.002 231.114 137.236 231.877 137.236C232.544 137.236 233.058 137.082 233.419 136.772C233.779 136.462 234.055 136.093 234.245 135.666L235.326 136.195C235.167 136.526 234.945 136.857 234.659 137.188C234.383 137.519 234.017 137.797 233.562 138.021C233.117 138.245 232.544 138.357 231.845 138.357ZM229.174 133.504H234.229C234.186 132.777 233.938 132.212 233.482 131.806C233.037 131.4 232.465 131.197 231.765 131.197C231.055 131.197 230.472 131.4 230.017 131.806C229.56 132.212 229.28 132.777 229.174 133.504ZM240.982 138.357C240.315 138.357 239.7 138.197 239.138 137.877C238.576 137.557 238.131 137.092 237.803 136.483C237.475 135.875 237.31 135.154 237.31 134.321V134.113C237.31 133.28 237.475 132.564 237.803 131.966C238.131 131.357 238.572 130.893 239.122 130.572C239.685 130.242 240.305 130.076 240.982 130.076C241.523 130.076 241.978 130.15 242.35 130.3C242.731 130.439 243.039 130.62 243.272 130.845C243.504 131.059 243.685 131.288 243.812 131.534H244.035V126.92H245.291V138.133H244.067V136.836H243.844C243.632 137.23 243.303 137.583 242.858 137.893C242.413 138.203 241.788 138.357 240.982 138.357ZM241.316 137.236C242.121 137.236 242.773 136.98 243.272 136.467C243.78 135.944 244.035 135.218 244.035 134.289V134.145C244.035 133.215 243.78 132.495 243.272 131.982C242.773 131.459 242.121 131.197 241.316 131.197C240.521 131.197 239.864 131.459 239.345 131.982C238.836 132.495 238.582 133.215 238.582 134.145V134.289C238.582 135.218 238.836 135.944 239.345 136.467C239.864 136.98 240.521 137.236 241.316 137.236Z" fill="#1B1B1B"/>
<path d="M178.8 161.017L176.143 151.406H177.669L179.985 160.084H180.162L182.465 151.406H183.991L181.348 161.017H178.8ZM185.329 161.017V154.248H186.733V161.017H185.329ZM186.038 153.328C185.765 153.328 185.533 153.241 185.343 153.067C185.161 152.884 185.07 152.651 185.07 152.367C185.07 152.083 185.161 151.855 185.343 151.681C185.533 151.498 185.765 151.406 186.038 151.406C186.319 151.406 186.551 151.498 186.733 151.681C186.914 151.855 187.005 152.083 187.005 152.367C187.005 152.651 186.914 152.884 186.733 153.067C186.551 153.241 186.319 153.328 186.038 153.328ZM191.895 161.209C191.213 161.209 190.618 161.068 190.11 160.784C189.601 160.491 189.201 160.084 188.91 159.562C188.629 159.031 188.488 158.418 188.488 157.722V157.557C188.488 156.852 188.629 156.239 188.91 155.717C189.192 155.186 189.583 154.779 190.082 154.495C190.591 154.202 191.177 154.056 191.84 154.056C192.485 154.056 193.048 154.202 193.53 154.495C194.02 154.779 194.402 155.177 194.674 155.69C194.947 156.202 195.083 156.802 195.083 157.489V158.024H189.919C189.937 158.619 190.132 159.095 190.505 159.452C190.886 159.8 191.359 159.974 191.922 159.974C192.449 159.974 192.844 159.855 193.107 159.617C193.38 159.379 193.589 159.104 193.734 158.793L194.892 159.397C194.765 159.653 194.579 159.923 194.334 160.207C194.098 160.491 193.784 160.729 193.394 160.921C193.003 161.113 192.503 161.209 191.895 161.209ZM189.932 156.939H193.652C193.616 156.427 193.434 156.029 193.107 155.745C192.78 155.452 192.353 155.305 191.827 155.305C191.3 155.305 190.868 155.452 190.532 155.745C190.205 156.029 190.005 156.427 189.932 156.939ZM197.429 161.017L196.285 154.248H197.688L198.533 160.07H198.751L199.923 154.248H202.198L203.356 160.07H203.575L204.42 154.248H205.823L204.678 161.017H202.321L201.163 155.209H200.945L199.787 161.017H197.429Z" fill="#2440E5"/>
<path d="M40.2646 162.161L37.6074 152.55H39.1336L41.4501 161.228H41.6272L43.9301 152.55H45.4562L42.8127 162.161H40.2646ZM46.7935 162.161V155.392H48.197V162.161H46.7935ZM47.5021 154.472C47.2296 154.472 46.9979 154.385 46.8072 154.211C46.6255 154.028 46.5346 153.795 46.5346 153.511C46.5346 153.227 46.6255 152.999 46.8072 152.825C46.9979 152.642 47.2296 152.55 47.5021 152.55C47.7837 152.55 48.0154 152.642 48.197 152.825C48.3787 152.999 48.4696 153.227 48.4696 153.511C48.4696 153.795 48.3787 154.028 48.197 154.211C48.0154 154.385 47.7837 154.472 47.5021 154.472ZM53.3595 162.353C52.6782 162.353 52.0832 162.212 51.5745 161.928C51.0657 161.635 50.666 161.228 50.3753 160.706C50.0937 160.175 49.9529 159.562 49.9529 158.866V158.701C49.9529 157.996 50.0937 157.383 50.3753 156.861C50.6569 156.33 51.0476 155.923 51.5472 155.639C52.0559 155.346 52.6419 155.2 53.305 155.2C53.95 155.2 54.5132 155.346 54.9947 155.639C55.4852 155.923 55.8668 156.321 56.1393 156.834C56.4118 157.346 56.5481 157.946 56.5481 158.633V159.168H51.3837C51.4019 159.763 51.5972 160.239 51.9696 160.596C52.3512 160.944 52.8235 161.118 53.3868 161.118C53.9137 161.118 54.3088 160.999 54.5723 160.761C54.8448 160.523 55.0537 160.248 55.1991 159.937L56.3573 160.541C56.2301 160.797 56.0439 161.067 55.7986 161.351C55.5624 161.635 55.249 161.873 54.8584 162.065C54.4678 162.257 53.9682 162.353 53.3595 162.353ZM51.3973 158.083H55.1173C55.081 157.571 54.8993 157.173 54.5723 156.889C54.2452 156.596 53.8183 156.449 53.2914 156.449C52.7645 156.449 52.333 156.596 51.9969 156.889C51.6698 157.173 51.47 157.571 51.3973 158.083ZM58.8935 162.161L57.7489 155.392H59.1524L59.9973 161.214H60.2153L61.3872 155.392H63.6628L64.821 161.214H65.039L65.8839 155.392H67.2874L66.1428 162.161H63.7854L62.6272 156.353H62.4091L61.2509 162.161H58.8935Z" fill="#2440E5"/>
<path d="M317.337 161.017L314.68 151.406H316.206L318.522 160.084H318.699L321.002 151.406H322.528L319.885 161.017H317.337ZM323.866 161.017V154.248H325.27V161.017H323.866ZM324.575 153.328C324.302 153.328 324.071 153.241 323.88 153.067C323.698 152.884 323.607 152.651 323.607 152.367C323.607 152.083 323.698 151.855 323.88 151.681C324.071 151.498 324.302 151.406 324.575 151.406C324.856 151.406 325.088 151.498 325.27 151.681C325.451 151.855 325.542 152.083 325.542 152.367C325.542 152.651 325.451 152.884 325.27 153.067C325.088 153.241 324.856 153.328 324.575 153.328ZM330.432 161.209C329.75 161.209 329.155 161.068 328.647 160.784C328.138 160.491 327.738 160.084 327.448 159.562C327.166 159.031 327.025 158.418 327.025 157.722V157.557C327.025 156.852 327.166 156.239 327.448 155.717C327.729 155.186 328.12 154.779 328.619 154.495C329.128 154.202 329.714 154.056 330.377 154.056C331.022 154.056 331.585 154.202 332.067 154.495C332.557 154.779 332.939 155.177 333.212 155.69C333.484 156.202 333.62 156.802 333.62 157.489V158.024H328.456C328.474 158.619 328.669 159.095 329.042 159.452C329.423 159.8 329.896 159.974 330.459 159.974C330.986 159.974 331.381 159.855 331.644 159.617C331.917 159.379 332.126 159.104 332.271 158.793L333.43 159.397C333.302 159.653 333.116 159.923 332.871 160.207C332.635 160.491 332.321 160.729 331.931 160.921C331.54 161.113 331.04 161.209 330.432 161.209ZM328.47 156.939H332.19C332.153 156.427 331.972 156.029 331.644 155.745C331.317 155.452 330.891 155.305 330.364 155.305C329.837 155.305 329.405 155.452 329.069 155.745C328.742 156.029 328.542 156.427 328.47 156.939ZM335.966 161.017L334.822 154.248H336.225L337.07 160.07H337.288L338.46 154.248H340.736L341.893 160.07H342.112L342.957 154.248H344.36L343.216 161.017H340.858L339.7 155.209H339.482L338.324 161.017H335.966Z" fill="#2440E5"/>
<path d="M181.985 112.105C180.895 112.105 179.928 111.941 179.083 111.611C178.252 111.281 177.598 110.808 177.121 110.19C176.657 109.558 176.426 108.817 176.426 107.966V107.718C176.426 107.059 176.542 106.517 176.773 106.091C177.005 105.652 177.291 105.309 177.632 105.062C177.986 104.814 178.32 104.643 178.633 104.547V104.176C178.32 104.066 178.006 103.888 177.693 103.641C177.38 103.393 177.121 103.064 176.916 102.652C176.726 102.24 176.63 101.746 176.63 101.169V100.922C176.63 100.167 176.848 99.5077 177.284 98.9448C177.734 98.3681 178.361 97.9219 179.165 97.6061C179.969 97.2766 180.909 97.1118 181.985 97.1118C183.062 97.1118 184.002 97.2766 184.806 97.6061C185.61 97.9219 186.23 98.3681 186.666 98.9448C187.116 99.5077 187.341 100.167 187.341 100.922V101.169C187.341 101.746 187.238 102.24 187.034 102.652C186.843 103.064 186.591 103.393 186.278 103.641C185.978 103.888 185.664 104.066 185.337 104.176V104.547C185.664 104.643 185.998 104.814 186.339 105.062C186.68 105.309 186.966 105.652 187.197 106.091C187.429 106.517 187.545 107.059 187.545 107.718V107.966C187.545 108.817 187.306 109.558 186.83 110.19C186.366 110.808 185.712 111.281 184.867 111.611C184.036 111.941 183.075 112.105 181.985 112.105ZM181.985 109.757C182.926 109.757 183.648 109.579 184.152 109.222C184.67 108.851 184.929 108.364 184.929 107.76V107.595C184.929 106.991 184.677 106.51 184.172 106.153C183.682 105.782 182.953 105.597 181.985 105.597C181.031 105.597 180.302 105.782 179.798 106.153C179.294 106.51 179.042 106.991 179.042 107.595V107.76C179.042 108.364 179.294 108.851 179.798 109.222C180.316 109.579 181.045 109.757 181.985 109.757ZM181.985 103.249C182.857 103.249 183.532 103.091 184.009 102.776C184.486 102.46 184.724 102.014 184.724 101.437V101.272C184.724 100.695 184.479 100.249 183.988 99.9334C183.498 99.6176 182.83 99.4597 181.985 99.4597C181.141 99.4597 180.473 99.6176 179.982 99.9334C179.492 100.249 179.246 100.695 179.246 101.272V101.437C179.246 102.014 179.485 102.46 179.962 102.776C180.439 103.091 181.113 103.249 181.985 103.249ZM188.968 111.817V110.087C188.968 109.085 189.131 108.254 189.458 107.595C189.785 106.922 190.255 106.373 190.869 105.947C191.495 105.508 192.258 105.151 193.158 104.876L194.527 104.444C195.031 104.279 195.454 104.08 195.795 103.847C196.135 103.599 196.394 103.304 196.571 102.961C196.762 102.618 196.857 102.226 196.857 101.787V101.705C196.857 101.018 196.626 100.476 196.162 100.078C195.699 99.6656 195.066 99.4597 194.262 99.4597C193.471 99.4597 192.831 99.6794 192.34 100.119C191.863 100.544 191.625 101.162 191.625 101.972V102.343H189.009V102.014C189.009 100.97 189.24 100.084 189.704 99.3567C190.167 98.629 190.794 98.0729 191.584 97.6885C192.388 97.304 193.28 97.1118 194.262 97.1118C195.243 97.1118 196.128 97.304 196.919 97.6885C197.709 98.0592 198.329 98.5878 198.779 99.2743C199.242 99.9471 199.474 100.743 199.474 101.663V101.869C199.474 102.789 199.283 103.572 198.901 104.217C198.533 104.849 198.029 105.371 197.389 105.782C196.748 106.181 196.019 106.51 195.202 106.771L193.894 107.183C193.308 107.361 192.851 107.561 192.524 107.78C192.197 107.986 191.966 108.22 191.829 108.48C191.707 108.728 191.645 109.03 191.645 109.387V109.469H199.351V111.817H188.968ZM202.724 111.817V111.281C202.724 110.746 202.764 110.293 202.846 109.922C202.928 109.538 203.105 109.105 203.378 108.625L208.181 100.078V99.748H200.577V97.4002H210.879V100.531L205.81 109.654C205.633 109.97 205.51 110.252 205.442 110.499C205.374 110.746 205.34 111.048 205.34 111.405V111.817H202.724Z" fill="#1B1B1B"/>
<path opacity="0.1" d="M15.7461 80.3516H455.197" stroke="black"/>
<path opacity="0.1" d="M16.8809 177.608H455.196" stroke="black"/>
<path opacity="0.1" d="M151.443 80.9238V178.18" stroke="black"/>
<path opacity="0.1" d="M289.979 80.9238V178.18" stroke="black"/>
<defs>
<filter id="filter0_d_4_27208" x="0.746094" y="0.714111" width="469.451" height="233.666" filterUnits="userSpaceOnUse" color-interpolation-filters="sRGB">
<feFlood flood-opacity="0" result="BackgroundImageFix"/>
<feColorMatrix in="SourceAlpha" type="matrix" values="0 0 0 0 0 0 0 0 0 0 0 0 0 0 0 0 0 0 127 0" result="hardAlpha"/>
<feOffset dy="-8"/>
<feGaussianBlur stdDeviation="7.5"/>
<feColorMatrix type="matrix" values="0 0 0 0 0.141176 0 0 0 0 0.25098 0 0 0 0 0.898039 0 0 0 0.1 0"/>
<feBlend mode="normal" in2="BackgroundImageFix" result="effect1_dropShadow_4_27208"/>
<feBlend mode="normal" in="SourceGraphic" in2="effect1_dropShadow_4_27208" result="shape"/>
</filter>
</defs>
</svg>
