<svg width="150" height="42" viewBox="0 0 150 42" fill="none" xmlns="http://www.w3.org/2000/svg">
<g clip-path="url(#clip0_4_27314)">
<path d="M17.0334 6.7395V18.2218H6.10353V6.7395H0.917969V34.1494H6.10493V23.0396H17.032V34.1494H22.2203V6.7395H17.0334ZM38.8228 25.29C38.8228 26.3887 38.3706 27.4423 37.5657 28.2192C36.7608 28.996 35.6691 29.4325 34.5308 29.4325C33.3924 29.4325 32.3007 28.996 31.4958 28.2192C30.6909 27.4423 30.2387 26.3887 30.2387 25.29V13.5489H25.3185V25.29C25.3185 27.6458 26.2881 29.905 28.014 31.5708C29.7399 33.2366 32.0808 34.1724 34.5216 34.1724C36.9625 34.1724 39.3033 33.2366 41.0293 31.5708C42.7552 29.905 43.7248 27.6458 43.7248 25.29V13.5489H38.8228V25.29ZM75.2804 14.7588C75.2804 12.3513 76.9298 11.5885 78.7365 11.5885C80.1936 11.5885 82.1168 12.6588 83.376 13.9568L86.5976 10.2905C84.9889 8.19054 81.7265 6.7395 79.0551 6.7395C73.7166 6.7395 69.8562 9.75674 69.8562 14.7588C69.8562 24.0395 81.6086 21.0941 81.6086 26.2885C81.6086 27.89 79.9971 29.3044 78.1525 29.3044C75.2425 29.3044 74.2991 27.932 72.9627 26.4796L69.3859 30.0686C71.6741 32.7783 74.4957 34.1548 77.8746 34.1548C82.9464 34.1548 87.0258 31.101 87.0258 26.3265C87.0258 16.0242 75.272 19.2257 75.272 14.7588M147.988 29.7705C145.081 29.7705 144.254 28.5566 144.254 26.6977V18.467H148.774V14.2968H144.254V8.7948L139.265 10.9558V27.7206C139.265 32.0087 142.331 34.1697 146.533 34.1697C147.193 34.1805 147.853 34.129 148.502 34.0179L149.719 29.6933C149.17 29.7299 148.539 29.7664 147.988 29.7664M57.5521 13.6858C55.1151 13.6858 53.4137 14.3686 51.7685 15.9253V6.90344H46.8412V23.6263C46.8412 29.8857 51.5298 34.1751 56.7996 34.1751C62.645 34.1751 67.787 29.8098 67.787 23.9325C67.787 18.1283 63.0549 13.6899 57.5521 13.6899M57.5212 29.3884C56.7868 29.3884 56.0597 29.2488 55.3812 28.9776C54.7028 28.7064 54.0863 28.3088 53.5671 27.8077C53.0478 27.3065 52.6359 26.7116 52.3549 26.0568C52.0739 25.402 51.9292 24.7002 51.9292 23.9914C51.9292 23.2827 52.0739 22.5809 52.3549 21.9261C52.6359 21.2713 53.0478 20.6763 53.5671 20.1751C54.0863 19.674 54.7028 19.2764 55.3812 19.0052C56.0597 18.734 56.7868 18.5944 57.5212 18.5944C59.0042 18.5944 60.4266 19.163 61.4753 20.1751C62.524 21.1873 63.1131 22.56 63.1131 23.9914C63.1131 25.4228 62.524 26.7955 61.4753 27.8077C60.4266 28.8198 59.0042 29.3884 57.5212 29.3884ZM111.064 23.6832C111.064 17.795 105.933 13.4406 100.077 13.4406C94.8084 13.4406 90.1183 17.7286 90.1183 23.9894V40.7217H95.0456V31.6876C96.688 33.2416 98.3922 33.9272 100.826 33.9272C106.329 33.9272 111.064 29.4887 111.064 23.6832ZM106.398 23.6236C106.398 25.055 105.809 26.4277 104.76 27.4398C103.711 28.452 102.289 29.0206 100.806 29.0206C99.3229 29.0206 97.9006 28.452 96.8519 27.4398C95.8032 26.4277 95.214 25.055 95.214 23.6236C95.214 22.1922 95.8032 20.8194 96.8519 19.8073C97.9006 18.7952 99.3229 18.2265 100.806 18.2265C102.289 18.2265 103.711 18.7952 104.76 19.8073C105.809 20.8194 106.398 22.1922 106.398 23.6236Z" fill="#275A7A"/>
<path d="M126.985 13.2101V8.43159C127.639 8.13646 128.193 7.66805 128.583 7.08089C128.972 6.49372 129.18 5.81195 129.183 5.11493V5.00518C129.183 2.97292 127.476 1.32543 125.371 1.32543H125.257C124.246 1.32543 123.276 1.71311 122.561 2.4032C121.846 3.09329 121.444 4.02925 121.444 5.00518V5.11493C121.448 5.81195 121.656 6.49372 122.045 7.08089C122.434 7.66805 122.988 8.13646 123.643 8.43159V13.2101C121.762 13.488 119.991 14.2405 118.509 15.3914L104.93 5.18402C105.027 4.84667 105.078 4.49983 105.083 4.15163C105.085 3.33155 104.835 2.52942 104.364 1.84669C103.893 1.16396 103.223 0.631315 102.439 0.316122C101.654 0.000929459 100.791 -0.082648 99.957 0.0759616C99.1233 0.234571 98.3571 0.628242 97.7553 1.20718C97.1535 1.78612 96.7431 2.52431 96.576 3.32838C96.409 4.13246 96.4927 4.96629 96.8168 5.72441C97.1408 6.48252 97.6905 7.13087 98.3963 7.58743C99.1021 8.04399 99.9324 8.28825 100.782 8.28933C101.526 8.28595 102.255 8.09441 102.898 7.73384L116.269 17.7759C115.067 19.5273 114.441 21.5873 114.47 23.6874C114.5 25.7875 115.184 27.8303 116.434 29.5495L112.368 33.4759C112.039 33.3744 111.696 33.3205 111.351 33.316C110.654 33.3166 109.972 33.5166 109.392 33.8909C108.813 34.2653 108.361 34.797 108.094 35.4191C107.828 36.0411 107.758 36.7254 107.894 37.3856C108.03 38.0458 108.366 38.6522 108.86 39.1282C109.353 39.6042 109.981 39.9285 110.665 40.0599C111.349 40.1914 112.058 40.1242 112.703 39.8668C113.347 39.6095 113.898 39.1735 114.286 38.614C114.674 38.0545 114.881 37.3966 114.882 36.7234C114.877 36.3904 114.821 36.0598 114.716 35.7425L118.739 31.8582C120.051 32.833 121.577 33.5051 123.2 33.8229C124.822 34.1407 126.499 34.0958 128.101 33.6917C129.702 33.2876 131.187 32.5349 132.441 31.4914C133.695 30.4479 134.685 29.1413 135.335 27.6715C135.985 26.2018 136.277 24.608 136.191 23.0122C136.104 21.4164 135.639 19.861 134.833 18.4651C134.028 17.0692 132.901 15.8699 131.541 14.959C130.18 14.0482 128.622 13.4499 126.985 13.2101ZM125.317 28.9263C124.574 28.9461 123.834 28.8218 123.141 28.5608C122.448 28.2998 121.816 27.9074 121.283 27.4068C120.75 26.9062 120.326 26.3076 120.037 25.6462C119.747 24.9849 119.598 24.2743 119.598 23.5564C119.598 22.8385 119.747 22.1279 120.037 21.4666C120.326 20.8052 120.75 20.2066 121.283 19.706C121.816 19.2054 122.448 18.813 123.141 18.552C123.834 18.291 124.574 18.1667 125.317 18.1865C126.758 18.2352 128.124 18.8218 129.126 19.8227C130.128 20.8236 130.688 22.1607 130.689 23.5524C130.689 24.9441 130.13 26.2818 129.13 27.2837C128.129 28.2856 126.764 28.8735 125.323 28.9236" fill="#426E8A"/>
</g>
<defs>
<clipPath id="clip0_4_27314">
<rect width="148.801" height="42.0002" fill="white" transform="translate(0.917969 0.000488281)"/>
</clipPath>
</defs>
</svg>
