<svg width="160" height="47" viewBox="0 0 160 47" fill="none" xmlns="http://www.w3.org/2000/svg">
<g clip-path="url(#clip0_4_27307)">
<path d="M18.0358 1.61084C18.355 1.61084 18.5147 1.77187 18.8339 1.9329C16.9186 2.73805 15.0033 4.83144 14.0456 9.34027L10.5342 10.3064C11.6515 7.08585 13.886 1.61084 18.0358 1.61084ZM19.7915 3.22114C20.1107 4.18732 20.43 5.31453 20.43 7.08585C20.43 7.24688 20.43 7.24688 20.43 7.40791L15.8013 8.69615C16.759 5.31453 18.355 3.86526 19.7915 3.22114ZM23.9414 6.11968L21.8664 6.76379C21.8664 6.60276 21.8664 6.44173 21.8664 6.2807C21.8664 4.83144 21.7068 3.70423 21.3876 2.73805C22.5049 3.06011 23.4625 4.50938 23.9414 6.11968ZM34.3159 8.69615C34.3159 8.53512 34.1563 8.37409 33.9967 8.37409C33.6775 8.37409 30.3257 8.05203 30.3257 8.05203C30.3257 8.05203 27.9316 5.63659 27.6124 5.47556C27.2931 5.1535 26.8143 5.31453 26.6547 5.31453C26.6547 5.31453 26.1759 5.47556 25.3778 5.79762C24.5798 3.5432 23.1433 1.44981 20.7492 1.44981H20.5896C19.9511 0.483635 18.9935 0.161575 18.1954 0.161575C12.4495 0.000545532 9.73615 7.24688 8.7785 10.9506C7.50163 11.2726 6.22475 11.7557 4.78827 12.2388C3.5114 12.5609 3.5114 12.7219 3.35179 13.8491C3.19218 14.6543 0 40.097 0 40.097L25.3778 44.9278L39.1042 41.8683C39.1042 41.8683 34.3159 9.01821 34.3159 8.69615Z" fill="#0C2635"/>
<path d="M33.8362 8.37414C33.6766 8.37414 30.3248 8.05208 30.3248 8.05208C30.3248 8.05208 27.9307 5.63663 27.6115 5.47561C27.4519 5.31458 27.4519 5.31458 27.2923 5.31458L25.377 44.9279L39.1033 41.8683C39.1033 41.8683 34.3151 9.01826 34.3151 8.6962C34.3151 8.53517 33.9958 8.37414 33.8362 8.37414Z" fill="#284758"/>
<path d="M20.7479 16.1034L18.9922 21.2564C18.9922 21.2564 17.5558 20.4512 15.6404 20.4512C12.9271 20.4512 12.7675 22.0615 12.7675 22.5446C12.7675 24.799 18.8326 25.7652 18.8326 31.2402C18.8326 35.588 16.1193 38.3255 12.4483 38.3255C8.13882 38.3255 5.9043 35.588 5.9043 35.588L7.02156 31.7233C7.02156 31.7233 9.25609 33.6556 11.1714 33.6556C12.4483 33.6556 12.9271 32.6895 12.9271 31.8843C12.9271 28.8247 7.97921 28.6637 7.97921 23.6718C7.97921 19.485 11.0118 15.4593 16.9173 15.4593C19.6307 15.2983 20.7479 16.1034 20.7479 16.1034Z" fill="#FFFFFE"/>
<path d="M55.2244 25.6045C53.7879 24.7994 53.1495 24.1552 53.1495 23.3501C53.1495 22.2229 54.1071 21.5788 55.7032 21.5788C57.4589 21.5788 59.055 22.3839 59.055 22.3839L60.3319 18.5192C60.3319 18.5192 59.2146 17.553 55.8628 17.553C51.0745 17.553 47.8824 20.2905 47.8824 24.1552C47.8824 26.4097 49.4784 28.02 51.3938 29.1472C52.9898 30.1133 53.6283 30.7575 53.6283 31.7236C53.6283 32.6898 52.8302 33.656 51.2341 33.656C48.9996 33.656 46.7651 32.5288 46.7651 32.5288L45.4882 36.3935C45.4882 36.3935 47.4035 37.6817 50.7553 37.6817C55.5436 37.6817 59.055 35.2663 59.055 30.9185C59.055 28.503 57.2993 26.7317 55.2244 25.6045ZM74.5371 17.392C72.1429 17.392 70.2276 18.5192 68.7911 20.2905L70.8661 9.34051H65.4393L60.1722 37.1987H65.599L67.3547 27.6979C67.9931 24.1552 69.9084 21.9008 71.6641 21.9008C72.941 21.9008 73.4198 22.706 73.4198 23.9942C73.4198 24.7994 73.4198 25.6045 73.2602 26.4097L71.1853 37.3597H76.612L78.6869 26.0876C78.8465 24.9604 79.0061 23.5111 79.0061 22.5449C79.0061 19.3244 77.41 17.392 74.5371 17.392ZM88.423 33.3339C86.5077 33.3339 85.8693 31.7236 85.8693 29.7913C85.8693 26.7317 87.4654 21.5788 90.3383 21.5788C92.2537 21.5788 92.8921 23.1891 92.8921 24.7994C92.8921 28.342 91.296 33.3339 88.423 33.3339ZM91.1364 17.392C84.5924 17.392 80.283 23.3501 80.283 29.9523C80.283 34.1391 82.8367 37.5207 87.7846 37.5207C94.169 37.5207 98.4784 31.7236 98.4784 24.9604C98.4784 21.0957 96.2439 17.392 91.1364 17.392ZM107.097 33.495C105.661 33.495 104.863 32.6898 104.863 32.6898L105.82 27.5369C106.459 24.1552 108.215 21.9008 110.13 21.9008C111.726 21.9008 112.364 23.5111 112.364 24.9604C112.205 28.503 110.13 33.495 107.097 33.495ZM112.364 17.392C108.693 17.392 106.618 20.6126 106.618 20.6126L106.938 17.7141H102.149C101.99 19.6464 101.511 22.706 101.032 24.9604L97.2015 44.9281H102.628L104.065 36.8766H104.224C104.224 36.8766 105.342 37.5207 107.417 37.5207C113.801 37.5207 117.951 30.9185 117.951 24.3163C117.951 20.7736 116.355 17.392 112.364 17.392ZM125.612 9.66257C123.856 9.66257 122.579 11.1118 122.579 12.8832C122.579 14.4935 123.537 15.6207 125.133 15.6207C126.889 15.6207 128.325 14.4935 128.325 12.4001C128.325 10.7898 127.208 9.66257 125.612 9.66257ZM118.11 37.1987H123.537L127.208 17.8751H121.781L118.11 37.1987ZM140.934 17.8751H137.104L137.263 16.9089C137.583 14.9766 138.7 13.3663 140.456 13.3663C141.413 13.3663 142.211 13.6883 142.211 13.6883L143.329 9.34051C143.329 9.34051 142.371 8.85742 140.456 8.85742C138.54 8.85742 136.625 9.34051 135.188 10.6287C133.273 12.239 132.475 14.4935 131.996 16.7479L131.837 17.7141H129.283L128.485 21.9008H131.039L128.166 37.1987H133.592L136.465 21.9008H140.136L140.934 17.8751ZM153.863 17.8751C153.863 17.8751 150.511 26.4097 148.915 31.0795C148.755 29.6303 147.638 17.8751 147.638 17.8751H141.892L145.084 35.5884C145.084 35.9104 145.084 36.2325 144.925 36.5545C144.286 37.8428 143.169 38.97 142.052 39.7751C141.094 40.5803 139.817 41.0634 139.019 41.3854L140.456 46.0553C141.573 45.8943 143.807 44.9281 145.723 43.1568C148.117 40.9023 150.511 37.1987 152.745 32.3678L159.289 18.0361L153.863 17.8751Z" fill="#275A7A"/>
</g>
<defs>
<clipPath id="clip0_4_27307">
<rect width="159.609" height="46.0545" fill="white" transform="translate(0 0.000488281)"/>
</clipPath>
</defs>
</svg>
